<svg width="65" height="65" viewBox="0 0 65 65" fill="none" xmlns="http://www.w3.org/2000/svg">
<g clip-path="url(#clip0_0_935)">
<rect width="64" height="64" transform="translate(0.727539 0.36084)" fill="black"/>
<path d="M11.6468 19.8025L9.078 34.4162H48.6528L51.2226 19.8025H11.6468ZM19.1541 31.3911H18.4534L14.5472 26.278L13.6526 31.3911H11.9274L13.4322 22.8285H14.1459L18.0372 27.9257L18.9318 22.8285H20.67L19.1541 31.3911ZM27.1094 31.3911H21.1902L21.4789 29.7573H27.3981L27.1094 31.3911ZM27.5815 27.9142H21.8004L22.0892 26.2669H27.8784L27.5815 27.9142ZM28.184 24.4767H22.4024L22.6912 22.829H28.4824L28.184 24.4767ZM36.2687 31.3911L35.1287 26.0855L32.0926 31.3926H31.042L29.7961 22.8299H31.7692L32.2745 28.0966L35.1682 22.8299H36.1157L37.1788 28.0966L39.5286 22.8285H41.5777L37.3356 31.3911H36.2687ZM47.7871 24.9171C47.3588 24.6447 46.5287 24.3069 45.5811 24.3069C44.4531 24.3069 43.9079 24.6967 43.9079 25.2929C43.9079 26.0326 44.751 26.136 45.4512 26.3704C46.6061 26.7587 47.5402 27.1885 47.5402 28.7958C47.5402 30.5595 46.2688 31.5206 43.8559 31.5206C42.6624 31.5206 41.6634 31.2992 41.1966 30.9619L41.4815 29.3151C41.9627 29.6259 42.8698 29.9248 43.8429 29.9248C45.0489 29.9248 45.6461 29.5879 45.6461 28.9623C45.6461 28.2366 44.8934 28.0807 44.2322 27.8733C43.0647 27.5229 42.0137 27.0687 42.0137 25.4079C42.0137 23.7717 43.1687 22.6962 45.5556 22.6962C46.6576 22.6962 47.6307 22.943 48.0725 23.2669L47.7871 24.9171Z" fill="white"/>
<path d="M22.1985 44.7906H20.4237L21.9285 36.2285H25.1047C26.7784 36.2415 27.7515 37.2011 27.7515 38.6414C27.7515 39.9133 27.0123 41.0154 25.7414 41.4807L27.1028 44.7887H25.1696L24.0811 41.716H22.7433L22.1985 44.7906ZM25.8958 38.7704C25.8958 38.1482 25.533 37.7723 24.9233 37.7723H23.4314L23.0161 40.1727H24.495C25.3256 40.1727 25.8958 39.563 25.8958 38.7704Z" fill="white"/>
<path d="M29.9544 36.2285H35.4554L35.1575 37.8758H31.4467L31.1219 39.6655H34.7162L34.4304 41.3137H30.837L30.5126 43.1554H34.3654L34.08 44.7916H28.4496L29.9544 36.2285Z" fill="white"/>
<path d="M37.1928 36.2285H42.6928L42.395 37.8758H38.6842L38.3603 39.6655H41.9537L41.6683 41.3137H38.0749L37.7506 43.1554H41.6038L41.3179 44.7916H35.6875L37.1928 36.2285Z" fill="white"/>
<path d="M44.4294 36.2285H46.2071L44.9881 43.1559H48.5555L48.2701 44.7921H42.9246L44.4294 36.2285Z" fill="white"/>
<path d="M49.5012 44.3624L49.7861 42.7151C50.2673 43.026 51.1745 43.3253 52.148 43.3253C53.354 43.3253 53.9507 42.9884 53.9507 42.3628C53.9507 41.6362 53.1986 41.4807 52.5369 41.2733C51.3694 40.923 50.3184 40.4687 50.3184 38.808C50.3184 37.1718 51.4733 36.0967 53.8602 36.0967C54.9628 36.0967 55.9358 36.3431 56.3771 36.6669L56.0913 38.3152C55.6634 38.0433 54.8333 37.7059 53.8862 37.7059C52.7573 37.7059 52.2125 38.0952 52.2125 38.691C52.2125 39.4312 53.0556 39.5346 53.7563 39.7685C54.9113 40.1573 55.8449 40.5866 55.8449 42.1939C55.8449 43.9581 54.5734 44.9192 52.1605 44.9192C50.9671 44.9211 49.968 44.6997 49.5012 44.3624Z" fill="white"/>
</g>
<defs>
<clipPath id="clip0_0_935">
<rect x="0.727539" y="0.36084" width="64" height="64" rx="32" fill="white"/>
</clipPath>
</defs>
</svg>
