<svg width="257" height="257" viewBox="0 0 257 257" fill="none" xmlns="http://www.w3.org/2000/svg">
<g clip-path="url(#clip0_0_422)">
<path d="M45.3756 78.8047L35.1855 136.774H192.171L202.364 78.8047H45.3756ZM75.1553 124.774H72.3759L56.8809 104.492L53.3321 124.774H46.4885L52.4578 90.8082H55.2888L70.7246 111.028L74.2734 90.8082H81.1685L75.1553 124.774ZM106.712 124.774H83.2321L84.3775 118.293H107.858L106.712 124.774ZM108.585 110.982H85.6527L86.798 104.448H109.763L108.585 110.982ZM110.975 97.3464H88.0408L89.1861 90.8101H112.159L110.975 97.3464ZM143.045 124.774L138.523 103.728L126.48 124.78H122.312L117.37 90.814H125.197L127.201 111.706L138.68 90.814H142.438L146.655 111.706L155.977 90.8082H164.105L147.278 124.774H143.045ZM188.736 99.0931C187.037 98.0126 183.744 96.6726 179.986 96.6726C175.511 96.6726 173.348 98.2188 173.348 100.584C173.348 103.518 176.693 103.928 179.47 104.858C184.052 106.399 187.757 108.103 187.757 114.479C187.757 121.476 182.714 125.288 173.142 125.288C168.408 125.288 164.445 124.41 162.593 123.072L163.723 116.539C165.632 117.772 169.231 118.958 173.091 118.958C177.874 118.958 180.243 117.621 180.243 115.14C180.243 112.261 177.258 111.643 174.635 110.82C170.004 109.43 165.835 107.628 165.835 101.04C165.835 94.5498 170.416 90.2833 179.885 90.2833C184.256 90.2833 188.116 91.2625 189.868 92.5473L188.736 99.0931Z" fill="white"/>
<path d="M87.2316 177.928H80.1914L86.1607 143.963H98.7598C105.399 144.015 109.259 147.821 109.259 153.535C109.259 158.58 106.327 162.952 101.285 164.798L106.686 177.92H99.0175L94.6995 165.731H89.3926L87.2316 177.928ZM101.898 154.047C101.898 151.578 100.459 150.087 98.0402 150.087H92.1224L90.475 159.609H96.3412C99.6361 159.609 101.898 157.191 101.898 154.047Z" fill="white"/>
<path d="M117.997 143.963H139.818L138.636 150.498H123.916L122.628 157.597H136.886L135.752 164.135H121.498L120.211 171.441H135.494L134.362 177.931H112.027L117.997 143.963Z" fill="white"/>
<path d="M146.711 143.963H168.529L167.347 150.498H152.627L151.343 157.597H165.597L164.465 164.135H150.211L148.924 171.441H164.209L163.075 177.931H140.74L146.711 143.963Z" fill="white"/>
<path d="M175.417 143.963H182.468L177.633 171.443H191.784L190.652 177.933H169.447L175.417 143.963Z" fill="white"/>
<path d="M195.535 176.229L196.665 169.694C198.574 170.928 202.173 172.115 206.034 172.115C210.818 172.115 213.185 170.779 213.185 168.297C213.185 165.414 210.202 164.798 207.577 163.975C202.946 162.585 198.777 160.783 198.777 154.196C198.777 147.705 203.358 143.44 212.827 143.44C217.2 143.44 221.06 144.418 222.81 145.703L221.676 152.241C219.979 151.162 216.686 149.824 212.93 149.824C208.451 149.824 206.29 151.368 206.29 153.732C206.29 156.668 209.635 157.078 212.414 158.006C216.996 159.548 220.699 161.251 220.699 167.627C220.699 174.625 215.656 178.437 206.084 178.437C201.35 178.445 197.387 177.567 195.535 176.229Z" fill="white"/>
</g>
<defs>
<clipPath id="clip0_0_422">
<rect width="256" height="256" fill="white" transform="translate(0.998047 0.621094)"/>
</clipPath>
</defs>
</svg>
