<svg width="513" height="513" viewBox="0 0 513 513" fill="none" xmlns="http://www.w3.org/2000/svg">
<g clip-path="url(#clip0_0_368)">
<rect width="512" height="512" transform="translate(0.666504 0.175781)" fill="black"/>
<path d="M89.4215 156.543L69.0415 272.482H383.012L403.399 156.543H89.4215ZM148.981 248.483H143.422L112.432 207.917L105.335 248.483H91.6474L103.586 180.551H109.248L140.12 220.99L147.217 180.551H161.007L148.981 248.483ZM212.095 248.483H165.135L167.425 235.521H214.386L212.095 248.483ZM215.84 220.898H169.976L172.266 207.83H218.196L215.84 220.898ZM220.62 193.627H174.752L177.043 180.554H222.988L220.62 193.627ZM284.761 248.483L275.717 206.39L251.63 248.494H243.295L233.41 180.562H249.064L253.073 222.345L276.03 180.562H283.547L291.981 222.345L310.624 180.551H326.881L293.226 248.483H284.761ZM376.143 197.12C372.745 194.959 366.159 192.279 358.642 192.279C349.693 192.279 345.367 195.372 345.367 200.102C345.367 205.97 352.056 206.791 357.611 208.65C366.774 211.731 374.185 215.141 374.185 227.893C374.185 241.885 364.098 249.51 344.955 249.51C335.486 249.51 327.56 247.754 323.857 245.077L326.117 232.012C329.935 234.479 337.132 236.85 344.852 236.85C354.419 236.85 359.157 234.177 359.157 229.214C359.157 223.456 353.186 222.219 347.94 220.574C338.678 217.794 330.34 214.19 330.34 201.015C330.34 188.034 339.503 179.501 358.44 179.501C367.183 179.501 374.902 181.459 378.407 184.029L376.143 197.12Z" fill="#F73458"/>
<path d="M173.134 354.789H159.053L170.992 286.86H196.19C209.469 286.963 217.189 294.576 217.189 306.003C217.189 316.094 211.324 324.837 201.241 328.529L212.042 354.773H196.706L188.069 330.396H177.456L173.134 354.789ZM202.467 307.027C202.467 302.09 199.588 299.108 194.751 299.108H182.915L179.62 318.152H191.353C197.943 318.152 202.467 313.315 202.467 307.027Z" fill="white"/>
<path d="M234.666 286.86H278.308L275.945 299.929H246.505L243.928 314.128H272.444L270.176 327.204H241.668L239.094 341.815H269.661L267.397 354.796H222.727L234.666 286.86Z" fill="white"/>
<path d="M292.091 286.86H335.726L333.363 299.929H303.923L301.354 314.128H329.862L327.598 327.204H299.09L296.516 341.815H327.086L324.819 354.796H280.149L292.091 286.86Z" fill="white"/>
<path d="M349.504 286.86H363.607L353.936 341.819H382.238L379.974 354.8H337.565L349.504 286.86Z" fill="white"/>
<path d="M389.741 351.391L392.001 338.322C395.819 340.789 403.016 343.163 410.739 343.163C420.307 343.163 425.041 340.491 425.041 335.528C425.041 329.762 419.074 328.529 413.824 326.884C404.562 324.104 396.224 320.5 396.224 307.325C396.224 294.344 405.387 285.814 424.323 285.814C433.07 285.814 440.79 287.769 444.291 290.339L442.023 303.415C438.629 301.258 432.043 298.582 424.53 298.582C415.573 298.582 411.251 301.67 411.251 306.397C411.251 312.269 417.94 313.09 423.499 314.945C432.662 318.03 440.069 321.436 440.069 334.187C440.069 348.184 429.982 355.808 410.839 355.808C401.37 355.824 393.444 354.067 389.741 351.391Z" fill="white"/>
</g>
<defs>
<clipPath id="clip0_0_368">
<rect width="512" height="512" fill="white" transform="translate(0.666504 0.175781)"/>
</clipPath>
</defs>
</svg>
