<svg width="256" height="257" viewBox="0 0 256 257" fill="none" xmlns="http://www.w3.org/2000/svg">
<g clip-path="url(#clip0_0_845)">
<rect width="256" height="256" transform="translate(-0.000976562 0.328125)" fill="white"/>
<path d="M43.6763 78.095L33.4009 136.55H191.7L201.979 78.095H43.6763ZM73.7053 124.449H70.9026L55.2779 103.997L51.6994 124.449H44.7985L50.8178 90.199H53.6725L69.2375 110.588L72.816 90.199H79.7689L73.7053 124.449ZM105.527 124.449H81.8497L83.0047 117.914H106.681L105.527 124.449ZM107.415 110.542H84.2906L85.4455 103.953H108.603L107.415 110.542ZM109.825 96.7919H86.6987L87.8536 90.2009H111.018L109.825 96.7919ZM142.164 124.449L137.604 103.227L125.459 124.455H121.257L116.273 90.2048H124.166L126.187 111.271L137.762 90.2048H141.552L145.804 111.271L155.203 90.199H163.4L146.431 124.449H142.164ZM188.237 98.5532C186.524 97.4637 183.204 96.1124 179.413 96.1124C174.901 96.1124 172.72 97.6716 172.72 100.057C172.72 103.015 176.093 103.429 178.894 104.367C183.514 105.92 187.25 107.639 187.25 114.068C187.25 121.123 182.164 124.967 172.512 124.967C167.739 124.967 163.742 124.082 161.875 122.732L163.015 116.145C164.94 117.389 168.568 118.584 172.461 118.584C177.284 118.584 179.673 117.237 179.673 114.734C179.673 111.831 176.663 111.208 174.018 110.378C169.348 108.977 165.144 107.16 165.144 100.517C165.144 93.9719 169.764 89.6697 179.311 89.6697C183.719 89.6697 187.612 90.6571 189.379 91.9526L188.237 98.5532Z" fill="black"/>
<path d="M85.8828 178.047H78.7836L84.8029 143.799H97.5075C104.202 143.851 108.095 147.689 108.095 153.45C108.095 158.538 105.138 162.946 100.054 164.808L105.5 178.04H97.7674L93.4132 165.749H88.0618L85.8828 178.047ZM100.672 153.966C100.672 151.477 99.2207 149.974 96.7818 149.974H90.8145L89.1533 159.576H95.0686C98.3911 159.576 100.672 157.137 100.672 153.966Z" fill="black"/>
<path d="M116.907 143.799H138.911L137.719 150.388H122.876L121.576 157.547H135.954L134.81 164.14H120.437L119.139 171.506H134.551L133.409 178.051H110.887L116.907 143.799Z" fill="black"/>
<path d="M145.86 143.799H167.86L166.669 150.388H151.825L150.53 157.547H164.903L163.762 164.14H149.388L148.091 171.506H163.504L162.361 178.051H139.839L145.86 143.799Z" fill="black"/>
<path d="M174.807 143.799H181.917L177.041 171.508H191.311L190.17 178.053H168.787L174.807 143.799Z" fill="black"/>
<path d="M195.094 176.334L196.233 169.745C198.158 170.989 201.787 172.186 205.681 172.186C210.505 172.186 212.892 170.839 212.892 168.336C212.892 165.429 209.883 164.808 207.236 163.978C202.566 162.577 198.362 160.76 198.362 154.117C198.362 147.572 202.982 143.271 212.53 143.271C216.94 143.271 220.832 144.257 222.597 145.553L221.454 152.145C219.742 151.058 216.422 149.708 212.634 149.708C208.118 149.708 205.939 151.266 205.939 153.649C205.939 156.609 209.311 157.023 212.114 157.959C216.734 159.514 220.468 161.231 220.468 167.66C220.468 174.717 215.382 178.561 205.731 178.561C200.957 178.569 196.961 177.684 195.094 176.334Z" fill="black"/>
</g>
<defs>
<clipPath id="clip0_0_845">
<rect x="-0.000976562" y="0.328125" width="256" height="256" rx="128" fill="white"/>
</clipPath>
</defs>
</svg>
