<svg width="65" height="65" viewBox="0 0 65 65" fill="none" xmlns="http://www.w3.org/2000/svg">
<g clip-path="url(#clip0_0_287)">
<path d="M5.76188 27.2378L3.87048 38.0197H33.0637L34.9598 27.2378H5.76188ZM11.3 35.787H10.782L7.90275 32.0143L7.24292 35.787H5.96758L7.07995 29.4699H7.60422L10.4772 33.2305L11.1365 29.4699H12.4182L11.3 35.787ZM17.1688 35.787H12.8037L13.0147 34.5813H17.3798L17.1688 35.787ZM17.5185 33.2237H13.2547L13.4688 32.0074H17.7411L17.5185 33.2237ZM17.9636 30.6872H13.6993L13.9103 29.471H18.1825L17.9636 30.6872ZM23.9284 35.787L23.0877 31.8719L20.8471 35.787H20.0718L19.1535 29.4699H20.6087L20.9779 33.355L23.1125 29.4699H23.8124L24.5978 33.355L26.3283 29.4699H27.842L24.7143 35.787H23.9284ZM32.4276 31.0085C31.9341 30.717 31.372 30.5621 30.7989 30.5596C29.9687 30.5596 29.5646 30.8471 29.5646 31.288C29.5646 31.8302 30.187 31.9083 30.7034 32.0791C31.5557 32.365 32.2456 32.681 32.2456 33.8666C32.2456 35.1689 31.3073 35.8783 29.5256 35.8783C28.6443 35.8783 27.9074 35.7153 27.5646 35.4664L27.7756 34.2501C28.1284 34.4806 28.7999 34.701 29.5161 34.701C30.4059 34.701 30.8463 34.45 30.8463 33.9911C30.8463 33.4563 30.2915 33.3424 29.8015 33.1889C28.9407 32.9299 28.1664 32.5934 28.1664 31.3687C28.1664 30.1651 29.0193 29.3692 30.7804 29.3692C31.5921 29.3692 32.31 29.5506 32.6349 29.7911L32.4276 31.0085Z" fill="white"/>
<path d="M40.5918 31.2509C40.5918 30.1881 39.8734 29.4797 38.6403 29.4697H36.2953L35.184 35.7874H36.4962L36.8981 33.5194H37.8818L38.6877 35.7874H40.1118L39.106 33.3469C40.0469 33.002 40.5918 32.1876 40.5918 31.2509ZM38.1898 32.3796H37.098L37.4029 30.6085H38.5042C38.9536 30.6085 39.221 30.888 39.221 31.3469C39.2226 31.9308 38.8022 32.3796 38.1898 32.3796Z" fill="white"/>
<path d="M46.055 30.686L46.2749 29.4702H42.2174L41.1066 35.7868H45.2601L45.4716 34.5816H42.6282L42.8672 33.2224H45.5186L45.7301 32.0067H43.0787L43.3181 30.686H46.055Z" fill="white"/>
<path d="M51.3948 30.686L51.6153 29.4702H47.5572L46.4464 35.7868H50.6L50.812 34.5816H47.9675L48.207 33.2224H50.859L51.0699 32.0067H48.4185L48.6574 30.686H51.3948Z" fill="white"/>
<path d="M53.3073 34.5816L54.2071 29.4702H52.8974L51.7861 35.7868H55.7282L55.9397 34.5816H53.3073Z" fill="white"/>
<path d="M59.8717 30.5627C60.5706 30.5627 61.184 30.8106 61.5005 31.011L61.7114 29.7979C61.3844 29.5585 60.6671 29.376 59.8554 29.376C58.0922 29.376 57.2414 30.1708 57.2414 31.376C57.2414 32.6002 58.0152 32.9357 58.8765 33.1946C59.3638 33.3486 59.9197 33.4636 59.9197 33.9979C59.9197 34.4573 59.4793 34.7073 58.5885 34.7073C57.8706 34.7073 57.2018 34.4869 56.8479 34.2564L56.637 35.4721C56.983 35.7221 57.7203 35.8851 58.6011 35.8851C60.3807 35.8851 61.3185 35.1752 61.3185 33.874C61.3185 32.6878 60.6281 32.3718 59.7779 32.0854C59.261 31.9124 58.6391 31.8354 58.6391 31.2906C58.6386 30.8502 59.0405 30.5627 59.8717 30.5627Z" fill="white"/>
</g>
<defs>
<clipPath id="clip0_0_287">
<rect width="64" height="64" fill="white" transform="translate(0.791016 0.628906)"/>
</clipPath>
</defs>
</svg>
