<svg width="33" height="33" viewBox="0 0 33 33" fill="none" xmlns="http://www.w3.org/2000/svg">
<g clip-path="url(#clip0_0_170)">
<path d="M2.52748 13.5117L1.58179 18.9027H16.1784L17.1265 13.5117H2.52748ZM5.29654 17.7863H5.03756L3.59792 15.9L3.26801 17.7863H2.63033L3.18652 14.6278H3.44866L4.88513 16.5081L5.21478 14.6278H5.85562L5.29654 17.7863ZM8.23094 17.7863H6.0484L6.15389 17.1835H8.33643L8.23094 17.7863ZM8.40579 16.5047H6.27388L6.38095 15.8965H8.51708L8.40579 16.5047ZM8.62837 15.2364H6.49619L6.60168 14.6283H8.73781L8.62837 15.2364ZM11.6108 17.7863L11.1904 15.8288L10.0701 17.7863H9.68245L9.22332 14.6278H9.95092L10.1355 16.5703L11.2028 14.6278H11.5527L11.9454 16.5703L12.8107 14.6278H13.5676L12.0037 17.7863H11.6108ZM15.8603 15.397C15.6136 15.2513 15.3325 15.1739 15.046 15.1726C14.6309 15.1726 14.4289 15.3163 14.4289 15.5368C14.4289 15.8079 14.7401 15.847 14.9982 15.9324C15.4244 16.0753 15.7694 16.2333 15.7694 16.8261C15.7694 17.4773 15.3002 17.832 14.4094 17.832C13.9687 17.832 13.6003 17.7505 13.4288 17.626L13.5343 17.0179C13.7108 17.1331 14.0465 17.2433 14.4046 17.2433C14.8495 17.2433 15.0697 17.1178 15.0697 16.8884C15.0697 16.621 14.7923 16.564 14.5473 16.4873C14.1169 16.3578 13.7297 16.1895 13.7297 15.5772C13.7297 14.9754 14.1562 14.5774 15.0367 14.5774C15.4426 14.5774 15.8015 14.6681 15.964 14.7884L15.8603 15.397Z" fill="black"/>
<path d="M19.9424 15.5185C19.9424 14.9871 19.5833 14.6329 18.9667 14.6279H17.7942L17.2385 17.7868H17.8947L18.0956 16.6528H18.5874L18.9904 17.7868H19.7025L19.1995 16.5665C19.67 16.3941 19.9424 15.9869 19.9424 15.5185ZM18.7415 16.0829H18.1956L18.348 15.1973H18.8986C19.1233 15.1973 19.257 15.3371 19.257 15.5665C19.2578 15.8584 19.0476 16.0829 18.7415 16.0829Z" fill="#121212"/>
<path d="M22.674 15.2358L22.784 14.6279H20.7552L20.1998 17.7862H22.2766L22.3824 17.1836H20.9607L21.0801 16.504H22.4058L22.5116 15.8962H21.1859L21.3056 15.2358H22.674Z" fill="#121212"/>
<path d="M25.344 15.2358L25.4542 14.6279H23.4251L22.8698 17.7862H24.9465L25.0526 17.1836H23.6303L23.75 16.504H25.076L25.1815 15.8962H23.8558L23.9753 15.2358H25.344Z" fill="#121212"/>
<path d="M26.3002 17.1836L26.7501 14.6279H26.0953L25.5397 17.7862H27.5107L27.6165 17.1836H26.3002Z" fill="#121212"/>
<path d="M29.5825 15.1744C29.9319 15.1744 30.2386 15.2984 30.3968 15.3986L30.5023 14.792C30.3388 14.6723 29.9802 14.5811 29.5743 14.5811C28.6927 14.5811 28.2673 14.9785 28.2673 15.5811C28.2673 16.1932 28.6542 16.3609 29.0848 16.4904C29.3285 16.5674 29.6065 16.6249 29.6065 16.892C29.6065 17.1217 29.3863 17.2467 28.9408 17.2467C28.5819 17.2467 28.2475 17.1365 28.0706 17.0212L27.9651 17.6291C28.1381 17.7541 28.5068 17.8356 28.9472 17.8356C29.837 17.8356 30.3059 17.4806 30.3059 16.8301C30.3059 16.2369 29.9606 16.079 29.5355 15.9358C29.2771 15.8493 28.9662 15.8108 28.9662 15.5384C28.9659 15.3181 29.1669 15.1744 29.5825 15.1744Z" fill="#121212"/>
</g>
<defs>
<clipPath id="clip0_0_170">
<rect width="32" height="32" fill="white" transform="translate(0.0419922 0.207031)"/>
</clipPath>
</defs>
</svg>
