<svg width="65" height="65" viewBox="0 0 65 65" fill="none" xmlns="http://www.w3.org/2000/svg">
<g clip-path="url(#clip0_0_575)">
<path d="M12.0924 20.1016L9.54492 34.5939H48.7912L51.3396 20.1016H12.0924ZM19.5374 31.594H18.8425L14.9687 26.5233L14.0816 31.594H12.3707L13.863 23.1025H14.5707L18.4297 28.1574L19.3169 23.1025H21.0407L19.5374 31.594ZM27.4266 31.594H21.5566L21.8429 29.9737H27.7129L27.4266 31.594ZM27.8948 28.1459H22.1617L22.448 26.5123H28.1892L27.8948 28.1459ZM28.4923 24.737H22.7587L23.0451 23.1029H28.7882L28.4923 24.737ZM36.5099 31.594L35.3793 26.3324L32.3684 31.5954H31.3266L30.091 23.1039H32.0477L32.5488 28.3268L35.4185 23.1039H36.3581L37.4124 28.3268L39.7427 23.1025H41.7748L37.5679 31.594H36.5099ZM47.9326 25.1737C47.5079 24.9035 46.6847 24.5685 45.745 24.5685C44.6263 24.5685 44.0856 24.9551 44.0856 25.5464C44.0856 26.2799 44.9217 26.3825 45.6161 26.6149C46.7615 27.0001 47.6878 27.4262 47.6878 29.0202C47.6878 30.7693 46.4269 31.7223 44.0341 31.7223C42.8505 31.7223 41.8598 31.5028 41.3968 31.1683L41.6794 29.5352C42.1566 29.8435 43.0562 30.1398 44.0212 30.1398C45.2171 30.1398 45.8094 29.8058 45.8094 29.1853C45.8094 28.4657 45.063 28.311 44.4073 28.1053C43.2495 27.7579 42.2072 27.3074 42.2072 25.6604C42.2072 24.0378 43.3526 22.9712 45.7197 22.9712C46.8125 22.9712 47.7775 23.216 48.2156 23.5372L47.9326 25.1737Z" fill="black"/>
<path d="M22.5569 44.8822H20.7969L22.2892 36.3911H25.439C27.0988 36.404 28.0638 37.3556 28.0638 38.784C28.0638 40.0453 27.3308 41.1382 26.0704 41.5997L27.4205 44.8802H25.5034L24.4239 41.8331H23.0972L22.5569 44.8822ZM26.2236 38.9119C26.2236 38.2948 25.8637 37.9221 25.2591 37.9221H23.7796L23.3678 40.3026H24.8343C25.658 40.3026 26.2236 39.6979 26.2236 38.9119Z" fill="black"/>
<path d="M30.2482 36.3911H35.7035L35.4081 38.0247H31.7281L31.406 39.7996H34.9705L34.687 41.4341H31.1234L30.8018 43.2605H34.6226L34.3396 44.8831H28.7559L30.2482 36.3911Z" fill="black"/>
<path d="M37.4264 36.3911H42.8808L42.5854 38.0247H38.9054L38.5842 39.7996H42.1477L41.8647 41.4341H38.3012L37.9795 43.2605H41.8008L41.5173 44.8831H35.9336L37.4264 36.3911Z" fill="black"/>
<path d="M44.6037 36.3911H46.3666L45.1577 43.261H48.6955L48.4125 44.8836H43.1113L44.6037 36.3911Z" fill="black"/>
<path d="M49.6328 44.4573L49.9153 42.8237C50.3926 43.132 51.2922 43.4289 52.2576 43.4289C53.4536 43.4289 54.0454 43.0948 54.0454 42.4744C54.0454 41.7538 53.2994 41.5996 52.6432 41.3939C51.4855 41.0465 50.4432 40.596 50.4432 38.949C50.4432 37.3264 51.5885 36.2603 53.9557 36.2603C55.049 36.2603 56.014 36.5046 56.4516 36.8258L56.1681 38.4603C55.7439 38.1907 54.9206 37.8561 53.9814 37.8561C52.8618 37.8561 52.3216 38.2422 52.3216 38.833C52.3216 39.567 53.1577 39.6697 53.8526 39.9016C54.9979 40.2872 55.9238 40.7129 55.9238 42.3069C55.9238 44.0564 54.6629 45.0095 52.27 45.0095C51.0865 45.0114 50.0957 44.7919 49.6328 44.4573Z" fill="black"/>
</g>
<defs>
<clipPath id="clip0_0_575">
<rect width="64" height="64" fill="white" transform="translate(0.998047 0.555664)"/>
</clipPath>
</defs>
</svg>
