<svg width="65" height="65" viewBox="0 0 65 65" fill="none" xmlns="http://www.w3.org/2000/svg">
<g clip-path="url(#clip0_0_593)">
<rect width="64" height="64" transform="translate(0.666016 0.73584)" fill="black"/>
<rect width="64" height="64" transform="translate(0.666016 0.73584)" fill="black"/>
<path d="M11.7604 20.2817L9.21289 34.7741H48.4592L51.0076 20.2817H11.7604ZM19.2053 31.7741H18.5105L14.6367 26.7035L13.7495 31.7741H12.0386L13.531 23.2826H14.2387L18.0977 28.3375L18.9848 23.2826H20.7086L19.2053 31.7741ZM27.0946 31.7741H21.2245L21.5109 30.1539H27.3809L27.0946 31.7741ZM27.5627 28.3261H21.8297L22.116 26.6925H27.8572L27.5627 28.3261ZM28.1603 24.9172H22.4267L22.713 23.2831H28.4561L28.1603 24.9172ZM36.1779 31.7741L35.0473 26.5126L32.0364 31.7756H30.9946L29.759 23.2841H31.7157L32.2168 28.507L35.0864 23.2841H36.0261L37.0803 28.507L39.4107 23.2826H41.4428L37.2359 31.7741H36.1779ZM47.6006 25.3538C47.1759 25.0837 46.3526 24.7487 45.4129 24.7487C44.2943 24.7487 43.7536 25.1353 43.7536 25.7266C43.7536 26.4601 44.5897 26.5627 45.2841 26.7951C46.4295 27.1802 47.3558 27.6064 47.3558 29.2004C47.3558 30.9495 46.0949 31.9025 43.702 31.9025C42.5185 31.9025 41.5277 31.683 41.0648 31.3485L41.3473 29.7153C41.8246 30.0236 42.7242 30.32 43.6891 30.32C44.8851 30.32 45.4774 29.9859 45.4774 29.3655C45.4774 28.6458 44.731 28.4912 44.0752 28.2855C42.9174 27.9381 41.8752 27.4876 41.8752 25.8406C41.8752 24.218 43.0205 23.1514 45.3876 23.1514C46.4805 23.1514 47.4455 23.3962 47.8836 23.7174L47.6006 25.3538Z" fill="white"/>
<path d="M22.2249 45.0623H20.4648L21.9572 36.5713H25.107C26.7668 36.5842 27.7318 37.5358 27.7318 38.9642C27.7318 40.2255 26.9987 41.3184 25.7383 41.7799L27.0884 45.0604H25.1714L24.0919 42.0133H22.7651L22.2249 45.0623ZM25.8915 39.0921C25.8915 38.475 25.5317 38.1023 24.927 38.1023H23.4476L23.0357 40.4827H24.5023C25.326 40.4827 25.8915 39.8781 25.8915 39.0921Z" fill="white"/>
<path d="M29.9162 36.5713H35.3715L35.0761 38.2049H31.3961L31.0739 39.9797H34.6384L34.355 41.6143H30.7914L30.4698 43.4407H34.2905L34.0075 45.0633H28.4238L29.9162 36.5713Z" fill="white"/>
<path d="M37.0944 36.5713H42.5487L42.2533 38.2049H38.5733L38.2521 39.9797H41.8157L41.5327 41.6143H37.9691L37.6475 43.4407H41.4687L41.1853 45.0633H35.6016L37.0944 36.5713Z" fill="white"/>
<path d="M44.2716 36.5713H46.0345L44.8257 43.4411H48.3635L48.0805 45.0638H42.7793L44.2716 36.5713Z" fill="white"/>
<path d="M49.3008 44.6375L49.5833 43.0039C50.0605 43.3122 50.9601 43.609 51.9256 43.609C53.1216 43.609 53.7133 43.275 53.7133 42.6546C53.7133 41.9339 52.9674 41.7798 52.3112 41.5741C51.1534 41.2267 50.1111 40.7762 50.1111 39.1292C50.1111 37.5066 51.2565 36.4404 53.6236 36.4404C54.717 36.4404 55.682 36.6848 56.1196 37.006L55.8361 38.6405C55.4118 38.3709 54.5886 38.0363 53.6494 38.0363C52.5298 38.0363 51.9895 38.4224 51.9895 39.0132C51.9895 39.7472 52.8257 39.8498 53.5205 40.0818C54.6659 40.4674 55.5918 40.8931 55.5918 42.4871C55.5918 44.2366 54.3309 45.1897 51.938 45.1897C50.7545 45.1916 49.7637 44.972 49.3008 44.6375Z" fill="white"/>
</g>
<defs>
<clipPath id="clip0_0_593">
<rect width="64" height="64" fill="white" transform="translate(0.666016 0.73584)"/>
</clipPath>
</defs>
</svg>
