<svg width="1025" height="1025" viewBox="0 0 1025 1025" fill="none" xmlns="http://www.w3.org/2000/svg">
<g clip-path="url(#clip0_0_62)">
<path d="M79.9073 426.246L49.645 598.756H516.736L547.074 426.246H79.9073ZM168.517 563.034H160.23L114.161 502.67L103.604 563.034H83.1985L100.996 461.96H109.385L155.352 522.13L165.901 461.96H186.408L168.517 563.034ZM262.418 563.034H192.577L195.952 543.742H265.793L262.418 563.034ZM268.013 522.02H199.792L203.218 502.56H271.574L268.013 522.02ZM275.135 481.437H206.906L210.282 461.977H278.638L275.135 481.437ZM370.572 563.034L357.12 500.391L321.272 563.034H308.866L294.174 461.96H317.457L323.364 524.122L357.517 461.96H368.716L381.281 524.122L408.97 461.96H433.19L383.146 563.034H370.572ZM506.559 486.577C498.663 481.913 489.669 479.435 480.499 479.395C467.216 479.395 460.752 483.994 460.752 491.049C460.752 499.725 470.71 500.974 478.971 503.708C492.609 508.282 503.647 513.337 503.647 532.308C503.647 553.144 488.634 564.494 460.127 564.494C446.026 564.494 434.236 561.886 428.751 557.903L432.126 538.443C437.772 542.131 448.515 545.658 459.975 545.658C474.212 545.658 481.258 541.641 481.258 534.299C481.258 525.742 472.381 523.919 464.541 521.464C450.768 517.32 438.38 511.936 438.38 492.34C438.38 473.083 452.026 460.348 480.204 460.348C493.191 460.348 504.677 463.251 509.875 467.099L506.559 486.577Z" fill="#F73458"/>
<path d="M637.186 490.459C637.186 473.454 625.692 462.121 605.962 461.96H568.442L550.661 563.043H571.657L578.088 526.755H593.826L606.721 563.043H629.507L613.413 523.996C628.469 518.477 637.186 505.447 637.186 490.459ZM598.755 508.518H581.286L586.164 480.18H603.784C610.975 480.18 615.253 484.653 615.253 491.995C615.278 501.337 608.552 508.518 598.755 508.518Z" fill="#121212"/>
<path d="M724.597 481.42L728.117 461.968H663.195L645.423 563.034H711.88L715.264 543.751H669.769L673.592 522.003H716.015L719.399 502.551H676.976L680.807 481.42H724.597Z" fill="#121212"/>
<path d="M810.034 481.42L813.561 461.968H748.632L730.859 563.034H797.316L800.709 543.751H755.197L759.029 522.003H801.46L804.836 502.551H762.413L766.236 481.42H810.034Z" fill="#121212"/>
<path d="M840.634 543.751L855.031 461.968H834.077L816.296 563.034H879.369L882.753 543.751H840.634Z" fill="#121212"/>
<path d="M945.666 479.446C956.848 479.446 966.662 483.412 971.726 486.619L975.101 467.209C969.869 463.378 958.392 460.458 945.404 460.458C917.193 460.458 903.581 473.176 903.581 492.459C903.581 512.046 915.961 517.413 929.742 521.557C937.539 524.021 946.434 525.86 946.434 534.409C946.434 541.759 939.387 545.76 925.134 545.76C913.648 545.76 902.948 542.232 897.285 538.544L893.909 557.996C899.445 561.996 911.243 564.604 925.336 564.604C953.81 564.604 968.814 553.245 968.814 532.426C968.814 513.447 957.767 508.392 944.164 503.809C935.894 501.041 925.944 499.809 925.944 491.092C925.936 484.045 932.366 479.446 945.666 479.446Z" fill="#121212"/>
</g>
<defs>
<clipPath id="clip0_0_62">
<rect width="1024" height="1024" fill="white" transform="translate(0.373047 0.500977)"/>
</clipPath>
</defs>
</svg>
