<svg width="33" height="33" viewBox="0 0 33 33" fill="none" xmlns="http://www.w3.org/2000/svg">
<g clip-path="url(#clip0_0_962)">
<rect width="32" height="32" transform="translate(0.727051 0.175781)" fill="black"/>
<path d="M6.18676 9.89661L4.90234 17.2034H24.6898L25.9747 9.89661H6.18676ZM9.94039 15.6909H9.59005L7.63696 13.1344L7.18965 15.6909H6.32704L7.07945 11.4096H7.43629L9.38192 13.9582L9.82923 11.4096H10.6983L9.94039 15.6909ZM13.918 15.6909H10.9584L11.1028 14.874H14.0624L13.918 15.6909ZM14.1541 13.9525H11.2635L11.4079 13.1288H14.3025L14.1541 13.9525ZM14.4553 12.2337H11.5646L11.7089 11.4099H14.6045L14.4553 12.2337ZM18.4977 15.6909L17.9277 13.0381L16.4096 15.6916H15.8844L15.2614 11.4103H16.2479L16.5006 14.0437L17.9474 11.4103H18.4212L18.9527 14.0437L20.1277 11.4096H21.1522L19.0312 15.6909H18.4977ZM24.2569 12.4539C24.0427 12.3177 23.6277 12.1488 23.1539 12.1488C22.5899 12.1488 22.3173 12.3437 22.3173 12.6418C22.3173 13.0116 22.7388 13.0634 23.0889 13.1806C23.6664 13.3747 24.1335 13.5896 24.1335 14.3933C24.1335 15.2751 23.4977 15.7556 22.2913 15.7556C21.6946 15.7556 21.195 15.645 20.9616 15.4763L21.1041 14.6529C21.3447 14.8083 21.7983 14.9578 22.2848 14.9578C22.8878 14.9578 23.1864 14.7893 23.1864 14.4765C23.1864 14.1137 22.8101 14.0357 22.4794 13.932C21.8957 13.7568 21.3702 13.5297 21.3702 12.6993C21.3702 11.8812 21.9477 11.3434 23.1411 11.3434C23.6922 11.3434 24.1787 11.4669 24.3996 11.6288L24.2569 12.4539Z" fill="#F73458"/>
<path d="M11.4626 22.3907H10.5752L11.3276 18.1096H12.9157C13.7525 18.1161 14.2391 18.5959 14.2391 19.3161C14.2391 19.952 13.8695 20.503 13.234 20.7357L13.9147 22.3897H12.9482L12.4039 20.8534H11.735L11.4626 22.3907ZM13.3113 19.3806C13.3113 19.0694 13.1298 18.8815 12.825 18.8815H12.0791L11.8714 20.0817H12.6108C13.0261 20.0817 13.3113 19.7769 13.3113 19.3806Z" fill="white"/>
<path d="M15.3405 18.1096H18.091L17.9421 18.9333H16.0867L15.9243 19.8281H17.7215L17.5785 20.6522H15.7818L15.6197 21.5731H17.546L17.4034 22.3912H14.5881L15.3405 18.1096Z" fill="white"/>
<path d="M18.9597 18.1096H21.7097L21.5608 18.9333H19.7054L19.5434 19.8281H21.3401L21.1974 20.6522H19.4007L19.2386 21.5731H21.1652L21.0223 22.3912H18.207L18.9597 18.1096Z" fill="white"/>
<path d="M22.5781 18.1096H23.4669L22.8575 21.5733H24.6411L24.4985 22.3914H21.8257L22.5781 18.1096Z" fill="white"/>
<path d="M25.1139 22.1765L25.2563 21.3529C25.497 21.5084 25.9505 21.658 26.4373 21.658C27.0403 21.658 27.3386 21.4896 27.3386 21.1768C27.3386 20.8134 26.9626 20.7357 26.6317 20.632C26.048 20.4569 25.5225 20.2297 25.5225 19.3993C25.5225 18.5812 26.0999 18.0437 27.2934 18.0437C27.8447 18.0437 28.3312 18.1669 28.5518 18.3288L28.4089 19.1529C28.195 19.017 27.7799 18.8483 27.3064 18.8483C26.7419 18.8483 26.4695 19.043 26.4695 19.3409C26.4695 19.7109 26.8911 19.7627 27.2414 19.8796C27.8189 20.074 28.2857 20.2887 28.2857 21.0923C28.2857 21.9744 27.65 22.4549 26.4435 22.4549C25.8468 22.4559 25.3473 22.3452 25.1139 22.1765Z" fill="white"/>
</g>
<defs>
<clipPath id="clip0_0_962">
<rect x="0.727051" y="0.175781" width="32" height="32" rx="16" fill="white"/>
</clipPath>
</defs>
</svg>
