<svg width="257" height="257" viewBox="0 0 257 257" fill="none" xmlns="http://www.w3.org/2000/svg">
<g clip-path="url(#clip0_0_440)">
<rect width="256" height="256" transform="translate(0.333008 0.175781)" fill="black"/>
<rect width="256" height="256" transform="translate(0.333008 0.175781)" fill="black"/>
<path d="M44.7105 78.3594L34.5205 136.329H191.506L201.699 78.3594H44.7105ZM74.4903 124.329H71.7108L56.2158 104.046L52.6671 124.329H45.8234L51.7928 90.3629H54.6237L70.0596 110.583L73.6083 90.3629H80.5035L74.4903 124.329ZM106.047 124.329H82.5671L83.7124 117.848H107.193L106.047 124.329ZM107.92 110.537H84.9876L86.133 104.002H109.098L107.92 110.537ZM110.31 96.9011H87.3757L88.5211 90.3648H111.494L110.31 96.9011ZM142.38 124.329L137.858 103.283L125.815 124.335H121.647L116.705 90.3687H124.532L126.536 111.26L138.015 90.3687H141.773L145.99 111.26L155.312 90.3629H163.44L146.613 124.329H142.38ZM188.071 98.6478C186.372 97.5673 183.079 96.2272 179.321 96.2272C174.846 96.2272 172.683 97.7735 172.683 100.139C172.683 103.073 176.028 103.483 178.805 104.413C183.387 105.953 187.092 107.658 187.092 114.034C187.092 121.03 182.049 124.842 172.477 124.842C167.743 124.842 163.78 123.964 161.928 122.626L163.058 116.094C164.967 117.327 168.566 118.512 172.426 118.512C177.209 118.512 179.578 117.176 179.578 114.694C179.578 111.816 176.593 111.197 173.97 110.375C169.339 108.985 165.17 107.183 165.17 100.595C165.17 94.1045 169.751 89.838 179.22 89.838C183.591 89.838 187.451 90.8172 189.203 92.102L188.071 98.6478Z" fill="#F73458"/>
<path d="M86.5666 177.482H79.5264L85.4957 143.518H98.0948C104.734 143.57 108.594 147.376 108.594 153.09C108.594 158.135 105.662 162.506 100.62 164.352L106.021 177.475H98.3525L94.0344 165.286H88.7275L86.5666 177.482ZM101.233 153.601C101.233 151.133 99.7938 149.642 97.3751 149.642H91.4574L89.8099 159.164H95.6762C98.971 159.164 101.233 156.745 101.233 153.601Z" fill="white"/>
<path d="M117.332 143.518H139.153L137.971 150.052H123.251L121.963 157.152H136.221L135.087 163.69H120.833L119.546 170.996H134.829L133.697 177.486H111.362L117.332 143.518Z" fill="white"/>
<path d="M146.046 143.518H167.864L166.682 150.052H151.962L150.678 157.152H164.932L163.8 163.69H149.546L148.259 170.996H163.544L162.41 177.486H140.075L146.046 143.518Z" fill="white"/>
<path d="M174.752 143.518H181.803L176.968 170.998H191.119L189.987 177.488H168.782L174.752 143.518Z" fill="white"/>
<path d="M194.87 175.783L196 169.249C197.909 170.482 201.508 171.67 205.369 171.67C210.153 171.67 212.52 170.333 212.52 167.852C212.52 164.969 209.537 164.353 206.912 163.53C202.281 162.14 198.112 160.338 198.112 153.75C198.112 147.26 202.693 142.995 212.161 142.995C216.535 142.995 220.395 143.972 222.145 145.257L221.011 151.795C219.314 150.717 216.021 149.379 212.265 149.379C207.786 149.379 205.625 150.923 205.625 153.286C205.625 156.222 208.97 156.633 211.749 157.56C216.331 159.103 220.034 160.806 220.034 167.182C220.034 174.18 214.991 177.992 205.419 177.992C200.685 178 196.722 177.122 194.87 175.783Z" fill="white"/>
</g>
<defs>
<clipPath id="clip0_0_440">
<rect width="256" height="256" fill="white" transform="translate(0.333008 0.175781)"/>
</clipPath>
</defs>
</svg>
