<svg width="33" height="33" viewBox="0 0 33 33" fill="none" xmlns="http://www.w3.org/2000/svg">
<g clip-path="url(#clip0_0_296)">
<path d="M3.381 13.9336L2.4353 19.3245H17.0319L17.98 13.9336H3.381ZM6.15005 18.2082H5.89108L4.45144 16.3218L4.12152 18.2082H3.48385L4.04003 15.0497H4.30217L5.73865 16.93L6.0683 15.0497H6.70914L6.15005 18.2082ZM9.08446 18.2082H6.90192L7.0074 17.6054H9.18994L9.08446 18.2082ZM9.2593 16.9265H7.1274L7.23447 16.3184H9.37059L9.2593 16.9265ZM9.48188 15.6583H7.34971L7.4552 15.0502H9.59132L9.48188 15.6583ZM12.4643 18.2082L12.0439 16.2506L10.9236 18.2082H10.536L10.0768 15.0497H10.8044L10.989 16.9922L12.0563 15.0497H12.4063L12.7989 16.9922L13.6642 15.0497H14.4211L12.8572 18.2082H12.4643ZM16.7139 15.8189C16.4671 15.6732 16.186 15.5957 15.8995 15.5945C15.4844 15.5945 15.2824 15.7382 15.2824 15.9587C15.2824 16.2298 15.5936 16.2688 15.8518 16.3543C16.2779 16.4972 16.6229 16.6552 16.6229 17.248C16.6229 17.8991 16.1537 18.2538 15.2629 18.2538C14.8222 18.2538 14.4538 18.1724 14.2824 18.0479L14.3878 17.4397C14.5643 17.555 14.9 17.6652 15.2581 17.6652C15.703 17.6652 15.9232 17.5397 15.9232 17.3103C15.9232 17.0428 15.6458 16.9859 15.4008 16.9091C14.9704 16.7797 14.5833 16.6114 14.5833 15.999C14.5833 15.3972 15.0097 14.9993 15.8903 14.9993C16.2961 14.9993 16.655 15.09 16.8175 15.2103L16.7139 15.8189Z" fill="white"/>
<path d="M20.796 15.9404C20.796 15.409 20.4368 15.0548 19.8202 15.0498H18.6477L18.092 18.2086H18.7482L18.9491 17.0746H19.441L19.8439 18.2086H20.556L20.0531 16.9884C20.5235 16.8159 20.796 16.4087 20.796 15.9404ZM19.595 16.5047H19.0491L19.2015 15.6192H19.7522C19.9768 15.6192 20.1105 15.7589 20.1105 15.9884C20.1113 16.2803 19.9012 16.5047 19.595 16.5047Z" fill="white"/>
<path d="M23.5276 15.6577L23.6375 15.0498H21.6087L21.0533 18.2081H23.1301L23.2359 17.6055H21.8142L21.9336 16.9259H23.2594L23.3651 16.318H22.0394L22.1591 15.6577H23.5276Z" fill="white"/>
<path d="M26.1975 15.6577L26.3077 15.0498H24.2787L23.7233 18.2081H25.8001L25.9061 17.6055H24.4838L24.6036 16.9259H25.9295L26.035 16.318H24.7093L24.8288 15.6577H26.1975Z" fill="white"/>
<path d="M27.1538 17.6055L27.6037 15.0498H26.9488L26.3932 18.2081H28.3642L28.47 17.6055H27.1538Z" fill="white"/>
<path d="M30.436 15.5963C30.7854 15.5963 31.0921 15.7202 31.2504 15.8205L31.3558 15.2139C31.1923 15.0942 30.8337 15.0029 30.4278 15.0029C29.5462 15.0029 29.1208 15.4004 29.1208 16.003C29.1208 16.615 29.5077 16.7828 29.9384 16.9123C30.182 16.9893 30.46 17.0468 30.46 17.3139C30.46 17.5436 30.2398 17.6686 29.7944 17.6686C29.4354 17.6686 29.101 17.5584 28.9241 17.4431L28.8186 18.051C28.9916 18.176 29.3603 18.2575 29.8007 18.2575C30.6905 18.2575 31.1594 17.9025 31.1594 17.2519C31.1594 16.6588 30.8142 16.5009 30.389 16.3577C30.1306 16.2712 29.8197 16.2327 29.8197 15.9602C29.8194 15.74 30.0204 15.5963 30.436 15.5963Z" fill="white"/>
</g>
<defs>
<clipPath id="clip0_0_296">
<rect width="32" height="32" fill="white" transform="translate(0.895508 0.628906)"/>
</clipPath>
</defs>
</svg>
