<svg width="257" height="257" viewBox="0 0 257 257" fill="none" xmlns="http://www.w3.org/2000/svg">
<g clip-path="url(#clip0_0_80)">
<path d="M20.0955 106.937L12.5299 150.065H129.303L136.887 106.937H20.0955ZM42.2479 141.134H40.1761L28.659 126.043L26.0197 141.134H20.9183L25.3678 115.865H27.4649L38.9567 130.908L41.5939 115.865H46.7206L42.2479 141.134ZM65.7231 141.134H48.2628L49.1067 136.311H66.567L65.7231 141.134ZM67.1219 130.881H50.0667L50.9232 126.016H68.0122L67.1219 130.881ZM68.9025 120.735H51.8452L52.6891 115.87H69.7781L68.9025 120.735ZM92.7617 141.134L89.3988 125.473L80.4366 141.134H77.3352L73.6621 115.865H79.4829L80.9598 131.406L89.4979 115.865H92.2976L95.439 131.406L102.361 115.865H108.416L95.9053 141.134H92.7617ZM126.758 122.02C124.784 120.854 122.536 120.234 120.243 120.224C116.923 120.224 115.307 121.374 115.307 123.138C115.307 125.307 117.796 125.619 119.862 126.302C123.271 127.446 126.03 128.71 126.03 133.452C126.03 138.661 122.277 141.499 115.15 141.499C111.625 141.499 108.678 140.847 107.306 139.851L108.15 134.986C109.562 135.908 112.247 136.79 115.112 136.79C118.672 136.79 120.433 135.786 120.433 133.95C120.433 131.811 118.214 131.355 116.254 130.741C112.811 129.705 109.714 128.359 109.714 123.461C109.714 118.646 113.125 115.463 120.17 115.463C123.416 115.463 126.288 116.188 127.587 117.15L126.758 122.02Z" fill="#F73458"/>
<path d="M159.415 122.99C159.415 118.739 156.542 115.906 151.609 115.866H142.229L137.784 141.136H143.033L144.641 132.064H148.575L151.799 141.136H157.495L153.472 131.375C157.236 129.995 159.415 126.737 159.415 122.99ZM149.807 127.505H145.44L146.66 120.421H151.065C152.862 120.421 153.932 121.539 153.932 123.374C153.938 125.71 152.257 127.505 149.807 127.505Z" fill="#121212"/>
<path d="M181.268 120.731L182.148 115.868H165.917L161.474 141.134H178.089L178.935 136.313H167.561L168.517 130.876H179.122L179.968 126.013H169.363L170.321 120.731H181.268Z" fill="#121212"/>
<path d="M202.627 120.731L203.509 115.868H187.277L182.833 141.134H199.448L200.296 136.313H188.918L189.876 130.876H200.484L201.328 126.013H190.722L191.678 120.731H202.627Z" fill="#121212"/>
<path d="M210.277 136.313L213.876 115.868H208.638L204.193 141.134H219.961L220.807 136.313H210.277Z" fill="#121212"/>
<path d="M236.535 120.237C239.331 120.237 241.784 121.228 243.05 122.03L243.894 117.178C242.586 116.22 239.717 115.49 236.47 115.49C229.417 115.49 226.014 118.669 226.014 123.49C226.014 128.387 229.109 129.728 232.554 130.764C234.503 131.38 236.727 131.84 236.727 133.978C236.727 135.815 234.966 136.815 231.402 136.815C228.531 136.815 225.856 135.933 224.44 135.011L223.596 139.874C224.98 140.874 227.93 141.526 231.453 141.526C238.571 141.526 242.322 138.686 242.322 133.482C242.322 128.737 239.561 127.473 236.16 126.328C234.092 125.636 231.605 125.328 231.605 123.148C231.603 121.387 233.21 120.237 236.535 120.237Z" fill="#121212"/>
</g>
<defs>
<clipPath id="clip0_0_80">
<rect width="256" height="256" fill="white" transform="translate(0.211914 0.500977)"/>
</clipPath>
</defs>
</svg>
