<svg width="257" height="257" viewBox="0 0 257 257" fill="none" xmlns="http://www.w3.org/2000/svg">
<g clip-path="url(#clip0_0_143)">
<path d="M20.324 106.644L12.7584 149.771H129.531L137.116 106.644H20.324ZM42.4764 140.841H40.4046L28.8875 125.749L26.2482 140.841H21.1468L25.5963 115.572H27.6934L39.1852 130.615L41.8224 115.572H46.9491L42.4764 140.841ZM65.9516 140.841H48.4913L49.3352 136.018H66.7955L65.9516 140.841ZM67.3504 130.587H50.2952L51.1517 125.722H68.2407L67.3504 130.587ZM69.131 120.441H52.0737L52.9176 115.576H70.0066L69.131 120.441ZM92.9902 140.841L89.6273 125.18L80.6651 140.841H77.5637L73.8907 115.572H79.7115L81.1883 131.112L89.7265 115.572H92.5261L95.6675 131.112L102.59 115.572H108.645L96.1338 140.841H92.9902ZM126.987 121.726C125.013 120.56 122.764 119.941 120.472 119.931C117.151 119.931 115.535 121.081 115.535 122.844C115.535 125.013 118.025 125.325 120.09 126.009C123.499 127.152 126.259 128.416 126.259 133.159C126.259 138.368 122.506 141.206 115.379 141.206C111.854 141.206 108.906 140.554 107.535 139.558L108.379 134.693C109.79 135.615 112.476 136.497 115.341 136.497C118.9 136.497 120.662 135.492 120.662 133.657C120.662 131.518 118.442 131.062 116.482 130.448C113.039 129.412 109.942 128.066 109.942 123.167C109.942 118.353 113.354 115.169 120.398 115.169C123.645 115.169 126.516 115.895 127.816 116.857L126.987 121.726Z" fill="black"/>
<path d="M159.644 122.697C159.644 118.446 156.77 115.612 151.838 115.572H142.458L138.012 140.843H143.262L144.869 131.771H148.804L152.028 140.843H157.724L153.701 131.081C157.464 129.701 159.644 126.444 159.644 122.697ZM150.036 127.212H145.669L146.888 120.127H151.293C153.091 120.127 154.161 121.245 154.161 123.081C154.167 125.416 152.485 127.212 150.036 127.212Z" fill="#121212"/>
<path d="M181.497 120.437L182.376 115.574H166.146L161.703 140.841H178.317L179.163 136.02H167.79L168.745 130.583H179.351L180.197 125.72H169.591L170.549 120.437H181.497Z" fill="#121212"/>
<path d="M202.856 120.437L203.738 115.574H187.505L183.062 140.841H199.676L200.524 136.02H189.147L190.104 130.583H200.712L201.556 125.72H190.95L191.906 120.437H202.856Z" fill="#121212"/>
<path d="M210.506 136.02L214.105 115.574H208.866L204.421 140.841H220.189L221.035 136.02H210.506Z" fill="#121212"/>
<path d="M236.764 119.943C239.559 119.943 242.013 120.935 243.279 121.737L244.123 116.884C242.814 115.926 239.945 115.196 236.698 115.196C229.645 115.196 226.242 118.376 226.242 123.196C226.242 128.093 229.337 129.435 232.783 130.471C234.732 131.087 236.956 131.547 236.956 133.684C236.956 135.522 235.194 136.522 231.631 136.522C228.759 136.522 226.084 135.64 224.668 134.718L223.825 139.581C225.209 140.581 228.158 141.233 231.681 141.233C238.8 141.233 242.551 138.393 242.551 133.188C242.551 128.443 239.789 127.18 236.388 126.034C234.321 125.342 231.833 125.034 231.833 122.855C231.831 121.093 233.439 119.943 236.764 119.943Z" fill="#121212"/>
</g>
<defs>
<clipPath id="clip0_0_143">
<rect width="256" height="256" fill="white" transform="translate(0.44043 0.207031)"/>
</clipPath>
</defs>
</svg>
