<svg width="25" height="25" viewBox="0 0 25 25" fill="none" xmlns="http://www.w3.org/2000/svg">
<g clip-path="url(#clip0_0_116)">
<path d="M2.75371 10.4795L2.04443 14.5227H12.9919L13.7029 10.4795H2.75371ZM4.8305 13.6855H4.63627L3.55653 12.2707L3.3091 13.6855H2.83084L3.24798 11.3165H3.44458L4.52194 12.7268L4.76918 11.3165H5.24981L4.8305 13.6855ZM7.0313 13.6855H5.39439L5.47351 13.2333H7.11041L7.0313 13.6855ZM7.16243 12.7242H5.5635L5.64381 12.2681H7.2459L7.16243 12.7242ZM7.32937 11.773H5.73024L5.80936 11.3169H7.41145L7.32937 11.773ZM9.56617 13.6855L9.25089 12.2173L8.41068 13.6855H8.11993L7.77558 11.3165H8.32128L8.45973 12.7735L9.26019 11.3165H9.52265L9.81716 12.7735L10.4661 11.3165H11.0338L9.86087 13.6855H9.56617ZM12.7533 11.8935C12.5683 11.7842 12.3575 11.7261 12.1426 11.7252C11.8313 11.7252 11.6797 11.833 11.6797 11.9983C11.6797 12.2016 11.9131 12.2309 12.1068 12.295C12.4264 12.4022 12.6851 12.5207 12.6851 12.9653C12.6851 13.4537 12.3332 13.7197 11.6651 13.7197C11.3346 13.7197 11.0583 13.6586 10.9297 13.5652L11.0088 13.1091C11.1412 13.1955 11.393 13.2782 11.6615 13.2782C11.9952 13.2782 12.1604 13.1841 12.1604 13.012C12.1604 12.8114 11.9523 12.7687 11.7686 12.7112C11.4458 12.614 11.1554 12.4878 11.1554 12.0286C11.1554 11.5772 11.4752 11.2788 12.1357 11.2788C12.44 11.2788 12.7092 11.3468 12.8311 11.437L12.7533 11.8935Z" fill="#F73458"/>
<path d="M15.8149 11.9843C15.8149 11.5858 15.5455 11.3202 15.0831 11.3164H14.2037L13.787 13.6855H14.2791L14.4298 12.835H14.7987L15.1009 13.6855H15.6349L15.2577 12.7704C15.6106 12.641 15.8149 12.3356 15.8149 11.9843ZM14.9142 12.4076H14.5048L14.6191 11.7434H15.0321C15.2006 11.7434 15.3009 11.8483 15.3009 12.0203C15.3015 12.2393 15.1438 12.4076 14.9142 12.4076Z" fill="#121212"/>
<path d="M17.8636 11.7728L17.9461 11.3169H16.4245L16.0079 13.6856H17.5655L17.6448 13.2337H16.5786L16.6682 12.724H17.6624L17.7418 12.2681H16.7475L16.8373 11.7728H17.8636Z" fill="#121212"/>
<path d="M19.866 11.7728L19.9487 11.3169H18.4269L18.0104 13.6856H19.568L19.6475 13.2337H18.5808L18.6706 12.724H19.6651L19.7442 12.2681H18.7499L18.8395 11.7728H19.866Z" fill="#121212"/>
<path d="M20.5832 13.2337L20.9207 11.3169H20.4296L20.0128 13.6856H21.4911L21.5704 13.2337H20.5832Z" fill="#121212"/>
<path d="M23.045 11.7263C23.307 11.7263 23.5371 11.8192 23.6557 11.8944L23.7348 11.4395C23.6122 11.3497 23.3432 11.2812 23.0388 11.2812C22.3776 11.2812 22.0586 11.5793 22.0586 12.0313C22.0586 12.4903 22.3487 12.6161 22.6717 12.7132C22.8545 12.771 23.063 12.8141 23.063 13.0145C23.063 13.1868 22.8978 13.2805 22.5637 13.2805C22.2945 13.2805 22.0437 13.1978 21.911 13.1114L21.8319 13.5673C21.9617 13.6611 22.2382 13.7222 22.5685 13.7222C23.2358 13.7222 23.5875 13.4559 23.5875 12.968C23.5875 12.5232 23.3286 12.4047 23.0097 12.2973C22.8159 12.2324 22.5827 12.2035 22.5827 11.9992C22.5825 11.8341 22.7332 11.7263 23.045 11.7263Z" fill="#121212"/>
</g>
<defs>
<clipPath id="clip0_0_116">
<rect width="24" height="24" fill="white" transform="translate(0.889648 0.500977)"/>
</clipPath>
</defs>
</svg>
