<svg width="33" height="33" viewBox="0 0 33 33" fill="none" xmlns="http://www.w3.org/2000/svg">
<g clip-path="url(#clip0_0_233)">
<path d="M2.92983 13.751L1.98413 19.1419H16.5807L17.5288 13.751H2.92983ZM5.69888 18.0256H5.43991L4.00026 16.1392L3.67035 18.0256H3.03268L3.58886 14.867H3.851L5.28748 16.7474L5.61713 14.867H6.25796L5.69888 18.0256ZM8.63328 18.0256H6.45074L6.55623 17.4227H8.73877L8.63328 18.0256ZM8.80813 16.7439H6.67622L6.78329 16.1358H8.91942L8.80813 16.7439ZM9.03071 15.4757H6.89854L7.00403 14.8676H9.14015L9.03071 15.4757ZM12.0131 18.0256L11.5927 16.068L10.4725 18.0256H10.0848L9.62566 14.867H10.3533L10.5379 16.8096L11.6051 14.867H11.9551L12.3478 16.8096L13.213 14.867H13.9699L12.4061 18.0256H12.0131ZM16.2627 15.6363C16.0159 15.4906 15.7349 15.4131 15.4483 15.4119C15.0332 15.4119 14.8312 15.5556 14.8312 15.7761C14.8312 16.0472 15.1424 16.0862 15.4006 16.1717C15.8268 16.3146 16.1717 16.4726 16.1717 17.0654C16.1717 17.7165 15.7025 18.0712 14.8117 18.0712C14.371 18.0712 14.0026 17.9897 13.8312 17.8653L13.9367 17.2571C14.1131 17.3724 14.4488 17.4826 14.807 17.4826C15.2518 17.4826 15.4721 17.3571 15.4721 17.1276C15.4721 16.8602 15.1946 16.8033 14.9496 16.7265C14.5192 16.597 14.1321 16.4288 14.1321 15.8164C14.1321 15.2146 14.5585 14.8167 15.4391 14.8167C15.8449 14.8167 16.2039 14.9074 16.3663 15.0276L16.2627 15.6363Z" fill="#F73458"/>
<path d="M20.3448 15.7578C20.3448 15.2264 19.9856 14.8722 19.369 14.8672H18.1965L17.6409 18.026H18.297L18.498 16.892H18.9898L19.3928 18.026H20.1048L19.6019 16.8058C20.0724 16.6333 20.3448 16.2261 20.3448 15.7578ZM19.1438 16.3221H18.5979L18.7503 15.4366H19.301C19.5257 15.4366 19.6594 15.5763 19.6594 15.8058C19.6602 16.0977 19.45 16.3221 19.1438 16.3221Z" fill="white"/>
<path d="M23.0764 15.4751L23.1864 14.8672H21.1576L20.6022 18.0255H22.679L22.7847 17.4229H21.363L21.4825 16.7433H22.8082L22.9139 16.1354H21.5882L21.7079 15.4751H23.0764Z" fill="white"/>
<path d="M25.7463 15.4751L25.8565 14.8672H23.8275L23.2721 18.0255H25.3489L25.4549 17.4229H24.0327L24.1524 16.7433H25.4784L25.5839 16.1354H24.2581L24.3776 15.4751H25.7463Z" fill="white"/>
<path d="M26.7026 17.4229L27.1525 14.8672H26.4977L25.942 18.0255H27.9131L28.0188 17.4229H26.7026Z" fill="white"/>
<path d="M29.9848 15.4137C30.3342 15.4137 30.641 15.5376 30.7992 15.6378L30.9047 15.0313C30.7412 14.9116 30.3825 14.8203 29.9766 14.8203C29.095 14.8203 28.6697 15.2177 28.6697 15.8203C28.6697 16.4324 29.0565 16.6002 29.4872 16.7296C29.7309 16.8066 30.0088 16.8641 30.0088 17.1313C30.0088 17.361 29.7886 17.486 29.3432 17.486C28.9843 17.486 28.6499 17.3758 28.4729 17.2605L28.3674 17.8684C28.5404 17.9934 28.9091 18.0749 29.3495 18.0749C30.2393 18.0749 30.7082 17.7199 30.7082 17.0693C30.7082 16.4762 30.363 16.3182 29.9379 16.175C29.6794 16.0885 29.3685 16.05 29.3685 15.7776C29.3682 15.5574 29.5692 15.4137 29.9848 15.4137Z" fill="white"/>
</g>
<defs>
<clipPath id="clip0_0_233">
<rect width="32" height="32" fill="white" transform="translate(0.444336 0.446289)"/>
</clipPath>
</defs>
</svg>
