<svg width="1024" height="1025" viewBox="0 0 1024 1025" fill="none" xmlns="http://www.w3.org/2000/svg">
<g clip-path="url(#clip0_0_17)">
<rect width="1024" height="1024" transform="translate(0 0.265625)" fill="white"/>
<path d="M177.51 313.001L136.75 544.878H764.69L805.466 313.001H177.51ZM296.629 496.879H285.511L223.531 415.749L209.336 496.879H181.962L205.839 361.015H217.163L278.906 441.894L293.101 361.015H320.682L296.629 496.879ZM422.857 496.879H328.936L333.518 470.956H427.438L422.857 496.879ZM430.348 441.711H338.618L343.2 415.573H435.059L430.348 441.711ZM439.908 387.168H348.171L352.752 361.023H444.642L439.908 387.168ZM568.19 496.879L550.1 412.694L501.926 496.902H485.257L465.488 361.038H496.795L504.812 444.605L550.727 361.038H565.762L582.629 444.605L619.915 361.015H652.428L585.118 496.879H568.19ZM750.953 394.155C744.157 389.833 730.986 384.472 715.951 384.472C698.052 384.472 689.401 390.657 689.401 400.118C689.401 411.855 702.779 413.496 713.889 417.215C732.215 423.377 747.036 430.196 747.036 455.699C747.036 483.685 726.862 498.933 688.576 498.933C669.639 498.933 653.787 495.421 646.381 490.068L650.901 463.939C658.537 468.871 672.93 473.613 688.37 473.613C707.505 473.613 716.982 468.268 716.982 458.341C716.982 446.827 705.039 444.353 694.547 441.061C676.023 435.503 659.346 428.294 659.346 401.943C659.346 375.981 677.672 358.915 715.546 358.915C733.032 358.915 748.472 362.832 755.481 367.971L750.953 394.155Z" fill="black"/>
<path d="M344.934 709.491H316.773L340.651 573.635H391.047C417.605 573.841 433.044 589.067 433.044 611.921C433.044 632.102 421.316 649.588 401.149 656.972L422.751 709.461H392.078L374.806 660.706H353.578L344.934 709.491ZM403.6 613.967C403.6 604.094 397.843 598.131 388.168 598.131H364.497L357.908 636.218H381.373C394.552 636.218 403.6 626.543 403.6 613.967Z" fill="black"/>
<path d="M467.998 573.635H555.283L550.557 599.772H491.677L486.523 628.17H543.555L539.019 654.323H482.002L476.856 683.545H537.988L533.46 709.507H444.121L467.998 573.635Z" fill="black"/>
<path d="M582.85 573.635H670.12L665.393 599.772H606.513L601.374 628.17H658.391L653.863 654.323H596.846L591.7 683.545H652.84L648.304 709.507H558.965L582.85 573.635Z" fill="black"/>
<path d="M697.674 573.635H725.881L706.539 683.553H763.144L758.616 709.514H673.797L697.674 573.635Z" fill="black"/>
<path d="M778.148 702.696L782.669 676.559C790.305 681.491 804.698 686.241 820.146 686.241C839.281 686.241 848.749 680.896 848.749 670.969C848.749 659.439 836.815 656.973 826.315 653.682C807.791 648.123 791.114 640.915 791.114 614.563C791.114 588.601 809.44 571.543 847.314 571.543C864.808 571.543 880.247 575.452 887.249 580.591L882.714 606.744C875.925 602.43 862.753 597.077 847.726 597.077C829.812 597.077 821.169 603.255 821.169 612.708C821.169 624.452 834.547 626.093 845.664 629.804C863.99 635.974 878.804 642.785 878.804 668.289C878.804 696.282 858.63 711.531 820.344 711.531C801.407 711.561 785.555 708.049 778.148 702.696Z" fill="black"/>
</g>
<defs>
<clipPath id="clip0_0_17">
<rect width="1024" height="1024" fill="white" transform="translate(0 0.265625)"/>
</clipPath>
</defs>
</svg>
