<svg width="512" height="513" viewBox="0 0 512 513" fill="none" xmlns="http://www.w3.org/2000/svg">
<g clip-path="url(#clip0_0_323)">
<rect width="512" height="512" transform="translate(0 0.265625)" fill="white"/>
<path d="M88.755 156.633L68.375 272.572H382.345L402.733 156.633H88.755ZM148.315 248.573H142.756L111.766 208.007L104.668 248.573H90.9809L102.919 180.64H108.581L139.453 221.08L146.551 180.64H160.341L148.315 248.573ZM211.428 248.573H164.468L166.759 235.611H213.719L211.428 248.573ZM215.174 220.988H169.309L171.6 207.919H217.53L215.174 220.988ZM219.954 193.717H174.085L176.376 180.644H222.321L219.954 193.717ZM284.095 248.573L275.05 206.48L250.963 248.584H242.628L232.744 180.652H248.397L252.406 222.435L275.363 180.652H282.881L291.315 222.435L309.957 180.64H326.214L292.559 248.573H284.095ZM375.477 197.21C372.079 195.049 365.493 192.369 357.975 192.369C349.026 192.369 344.7 195.462 344.7 200.192C344.7 206.06 351.389 206.881 356.945 208.74C366.108 211.821 373.518 215.231 373.518 227.983C373.518 241.975 363.431 249.6 344.288 249.6C334.82 249.6 326.894 247.843 323.19 245.167L325.451 232.102C329.268 234.568 336.465 236.939 344.185 236.939C353.753 236.939 358.491 234.267 358.491 229.304C358.491 223.546 352.52 222.309 347.274 220.664C338.011 217.884 329.673 214.28 329.673 201.104C329.673 188.123 338.836 179.59 357.773 179.59C366.516 179.59 374.236 181.549 377.741 184.118L375.477 197.21Z" fill="black"/>
<path d="M172.467 354.879H158.387L170.325 286.95H195.524C208.802 287.053 216.522 294.666 216.522 306.093C216.522 316.184 210.658 324.927 200.575 328.619L211.376 354.863H196.039L187.403 330.486H176.789L172.467 354.879ZM201.8 307.116C201.8 302.18 198.922 299.198 194.084 299.198H182.249L178.954 318.242H190.686C197.276 318.242 201.8 313.405 201.8 307.116Z" fill="black"/>
<path d="M233.999 286.95H277.642L275.278 300.019H245.839L243.261 314.218H271.777L269.51 327.294H241.001L238.428 341.905H268.994L266.73 354.886H222.061L233.999 286.95Z" fill="black"/>
<path d="M291.425 286.95H335.06L332.697 300.019H303.257L300.687 314.218H329.196L326.931 327.294H298.423L295.85 341.905H326.42L324.152 354.886H279.482L291.425 286.95Z" fill="black"/>
<path d="M348.837 286.95H362.94L353.27 341.909H381.572L379.308 354.89H336.898L348.837 286.95Z" fill="black"/>
<path d="M389.074 351.481L391.334 338.412C395.152 340.878 402.349 343.253 410.073 343.253C419.64 343.253 424.375 340.581 424.375 335.617C424.375 329.852 418.407 328.619 413.158 326.974C403.895 324.194 395.557 320.59 395.557 307.414C395.557 294.434 404.72 285.904 423.657 285.904C432.404 285.904 440.124 287.859 443.625 290.428L441.357 303.505C437.963 301.348 431.377 298.671 423.863 298.671C414.906 298.671 410.584 301.76 410.584 306.487C410.584 312.359 417.273 313.18 422.832 315.035C431.995 318.12 439.402 321.525 439.402 334.277C439.402 348.274 429.315 355.898 410.172 355.898C400.704 355.913 392.778 354.157 389.074 351.481Z" fill="black"/>
</g>
<defs>
<clipPath id="clip0_0_323">
<rect width="512" height="512" fill="white" transform="translate(0 0.265625)"/>
</clipPath>
</defs>
</svg>
