<svg width="1025" height="1025" viewBox="0 0 1025 1025" fill="none" xmlns="http://www.w3.org/2000/svg">
<g clip-path="url(#clip0_0_188)">
<path d="M80.1983 426.191L49.936 598.702H517.027L547.365 426.191H80.1983ZM168.808 562.979H160.521L114.452 502.615L103.895 562.979H83.4895L101.287 461.905H109.676L155.643 522.076L166.192 461.905H186.699L168.808 562.979ZM262.709 562.979H192.868L196.243 543.688H266.084L262.709 562.979ZM268.304 521.966H200.083L203.509 502.505H271.865L268.304 521.966ZM275.426 481.383H207.197L210.573 461.922H278.929L275.426 481.383ZM370.863 562.979L357.411 500.337L321.563 562.979H309.157L294.465 461.905H317.748L323.655 524.067L357.808 461.905H369.007L381.572 524.067L409.261 461.905H433.481L383.437 562.979H370.863ZM506.85 486.522C498.954 481.858 489.96 479.38 480.79 479.34C467.507 479.34 461.043 483.94 461.043 490.995C461.043 499.67 471.001 500.919 479.262 503.653C492.9 508.227 503.938 513.282 503.938 532.253C503.938 553.089 488.925 564.439 460.418 564.439C446.317 564.439 434.527 561.832 429.042 557.848L432.417 538.388C438.063 542.076 448.806 545.603 460.266 545.603C474.503 545.603 481.549 541.586 481.549 534.245C481.549 525.687 472.672 523.865 464.832 521.409C451.059 517.265 438.671 511.881 438.671 492.286C438.671 473.028 452.317 460.293 480.495 460.293C493.482 460.293 504.968 463.196 510.166 467.045L506.85 486.522Z" fill="#F73458"/>
<path d="M637.477 490.404C637.477 473.4 625.983 462.066 606.253 461.906H568.733L550.952 562.988H571.948L578.379 526.701H594.117L607.012 562.988H629.798L613.704 523.941C628.76 518.422 637.477 505.392 637.477 490.404ZM599.046 508.464H581.577L586.455 480.126H604.075C611.266 480.126 615.544 484.598 615.544 491.94C615.569 501.282 608.844 508.464 599.046 508.464Z" fill="white"/>
<path d="M724.888 481.365L728.408 461.914H663.486L645.714 562.979H712.171L715.555 543.696H670.06L673.883 521.949H716.306L719.69 502.497H677.267L681.098 481.365H724.888Z" fill="white"/>
<path d="M810.325 481.365L813.853 461.914H748.923L731.15 562.979H797.607L801 543.696H755.488L759.32 521.949H801.751L805.127 502.497H762.704L766.527 481.365H810.325Z" fill="white"/>
<path d="M840.925 543.696L855.322 461.914H834.368L816.587 562.979H879.66L883.044 543.696H840.925Z" fill="white"/>
<path d="M945.957 479.391C957.139 479.391 966.953 483.357 972.017 486.564L975.392 467.155C970.16 463.323 958.683 460.403 945.695 460.403C917.484 460.403 903.872 473.121 903.872 492.404C903.872 511.991 916.252 517.358 930.033 521.502C937.83 523.966 946.725 525.806 946.725 534.354C946.725 541.705 939.678 545.705 925.425 545.705C913.939 545.705 903.239 542.177 897.576 538.49L894.201 557.941C899.736 561.942 911.534 564.549 925.627 564.549C954.101 564.549 969.105 553.19 969.105 532.371C969.105 513.392 958.058 508.337 944.455 503.755C936.185 500.987 926.235 499.754 926.235 491.037C926.227 483.99 932.657 479.391 945.957 479.391Z" fill="white"/>
</g>
<defs>
<clipPath id="clip0_0_188">
<rect width="1024" height="1024" fill="white" transform="translate(0.664062 0.446289)"/>
</clipPath>
</defs>
</svg>
