<svg width="129" height="129" viewBox="0 0 129 129" fill="none" xmlns="http://www.w3.org/2000/svg">
<g clip-path="url(#clip0_0_899)">
<rect width="128" height="128" transform="translate(0.727539 0.36084)" fill="black"/>
<path d="M22.5661 39.2443L17.4285 68.4716H96.5781L101.718 39.2443H22.5661ZM37.5807 62.4215H36.1793L28.3669 52.1953L26.5777 62.4215H23.1272L26.1369 45.2963H27.5642L35.3468 55.4908L37.136 45.2963H40.6124L37.5807 62.4215ZM53.4912 62.4215H41.6529L42.2304 59.1539H54.0687L53.4912 62.4215ZM54.4354 55.4677H42.8733L43.4508 52.1731H55.0293L54.4354 55.4677ZM55.6404 48.5927H44.0773L44.6548 45.2972H56.2372L55.6404 48.5927ZM71.8099 62.4215L69.5298 51.8103L63.4576 62.4244H61.3566L58.8647 45.2992H62.8108L63.8214 55.8324L69.6088 45.2992H71.5039L73.63 55.8324L78.3297 45.2963H82.4279L73.9437 62.4215H71.8099ZM94.8466 49.4734C93.9901 48.9286 92.3298 48.253 90.4347 48.253C88.1787 48.253 87.0882 49.0326 87.0882 50.2251C87.0882 51.7044 88.7744 51.9113 90.1748 52.38C92.4847 53.1568 94.3529 54.0163 94.3529 57.2309C94.3529 60.7584 91.8101 62.6804 86.9842 62.6804C84.5973 62.6804 82.5992 62.2377 81.6656 61.563L82.2354 58.2694C83.1979 58.8912 85.0121 59.4889 86.9583 59.4889C89.3702 59.4889 90.5646 58.8151 90.5646 57.5639C90.5646 56.1125 89.0593 55.8007 87.7369 55.3858C85.4019 54.6852 83.2999 53.7766 83.2999 50.4551C83.2999 47.1827 85.6098 45.0316 90.3837 45.0316C92.5877 45.0316 94.5338 45.5253 95.4174 46.1731L94.8466 49.4734Z" fill="white"/>
<path d="M43.6694 89.2204H40.1198L43.1295 72.0962H49.4818C52.8292 72.1222 54.7753 74.0413 54.7753 76.922C54.7753 79.4658 53.297 81.6699 50.7551 82.6006L53.4779 89.2166H49.6117L47.4346 83.0712H44.7589L43.6694 89.2204ZM51.0641 77.18C51.0641 75.9355 50.3384 75.1838 49.1189 75.1838H46.1352L45.3046 79.9846H48.2623C49.9235 79.9846 51.0641 78.7652 51.0641 77.18Z" fill="white"/>
<path d="M59.1813 72.0962H70.1833L69.5875 75.3907H62.1659L61.5162 78.9701H68.7049L68.1332 82.2666H60.9464L60.2977 85.95H68.0033L67.4325 89.2224H56.1716L59.1813 72.0962Z" fill="white"/>
<path d="M73.658 72.0962H84.6581L84.0623 75.3907H76.6407L75.993 78.9701H83.1797L82.609 82.2666H75.4222L74.7735 85.95H82.48L81.9083 89.2224H70.6474L73.658 72.0962Z" fill="white"/>
<path d="M88.1313 72.0962H91.6867L89.2488 85.9509H96.3836L95.8128 89.2233H85.1217L88.1313 72.0962Z" fill="white"/>
<path d="M98.2748 88.3639L98.8446 85.0694C99.807 85.6911 101.621 86.2898 103.568 86.2898C105.98 86.2898 107.174 85.616 107.174 84.3648C107.174 82.9115 105.669 82.6006 104.346 82.1858C102.011 81.4851 99.9091 80.5766 99.9091 77.2551C99.9091 73.9827 102.219 71.8325 106.993 71.8325C109.198 71.8325 111.144 72.3253 112.027 72.973L111.455 76.2695C110.599 75.7257 108.939 75.051 107.045 75.051C104.787 75.051 103.697 75.8296 103.697 77.0212C103.697 78.5015 105.384 78.7084 106.785 79.1762C109.095 79.9538 110.962 80.8124 110.962 84.027C110.962 87.5554 108.419 89.4775 103.593 89.4775C101.206 89.4813 99.2084 89.0386 98.2748 88.3639Z" fill="white"/>
</g>
<defs>
<clipPath id="clip0_0_899">
<rect x="0.727539" y="0.36084" width="128" height="128" rx="64" fill="white"/>
</clipPath>
</defs>
</svg>
