<svg width="25" height="25" viewBox="0 0 25 25" fill="none" xmlns="http://www.w3.org/2000/svg">
<g clip-path="url(#clip0_0_683)">
<path d="M5.15844 8.00537L4.20312 13.44H18.9205L19.8761 8.00537H5.15844ZM7.95029 12.315H7.68972L6.23706 10.4135L5.90436 12.315H5.26278L5.8224 9.1307H6.0878L7.53491 11.0263L7.86761 9.1307H8.51403L7.95029 12.315ZM10.9088 12.315H8.70749L8.81487 11.7074H11.0161L10.9088 12.315ZM11.0843 11.022H8.93442L9.0418 10.4094H11.1947L11.0843 11.022ZM11.3084 9.74366H9.1583L9.26568 9.13088H11.4193L11.3084 9.74366ZM14.315 12.315L13.891 10.3419L12.7619 12.3156H12.3713L11.9079 9.13124H12.6417L12.8296 11.0898L13.9057 9.13124H14.2581L14.6534 11.0898L15.5273 9.1307H16.2893L14.7118 12.315H14.315ZM18.5985 9.90741C18.4392 9.80612 18.1305 9.68048 17.7781 9.68048C17.3586 9.68048 17.1559 9.82544 17.1559 10.0472C17.1559 10.3223 17.4694 10.3607 17.7298 10.4479C18.1593 10.5923 18.5067 10.7521 18.5067 11.3499C18.5067 12.0058 18.0339 12.3632 17.1366 12.3632C16.6927 12.3632 16.3212 12.2808 16.1476 12.1554L16.2535 11.543C16.4325 11.6586 16.7699 11.7697 17.1317 11.7697C17.5802 11.7697 17.8023 11.6444 17.8023 11.4118C17.8023 11.1419 17.5224 11.0839 17.2765 11.0068C16.8423 10.8765 16.4515 10.7076 16.4515 10.09C16.4515 9.48147 16.881 9.08149 17.7687 9.08149C18.1785 9.08149 18.5404 9.1733 18.7046 9.29374L18.5985 9.90741Z" fill="#F73458"/>
<path d="M9.0819 17.2984H8.42188L8.9815 14.1143H10.1627C10.7851 14.1191 11.147 14.4759 11.147 15.0116C11.147 15.4846 10.8721 15.8944 10.3994 16.0675L10.9057 17.2977H10.1868L9.78201 16.155H9.28449L9.0819 17.2984ZM10.4569 15.0596C10.4569 14.8281 10.3219 14.6884 10.0952 14.6884H9.5404L9.38596 15.5811H9.93592C10.2448 15.5811 10.4569 15.3543 10.4569 15.0596Z" fill="white"/>
<path d="M11.9659 14.1143H14.0116L13.9008 14.7269H12.5208L12.4 15.3924H13.7367L13.6304 16.0054H12.2941L12.1735 16.6903H13.6063L13.5001 17.2988H11.4062L11.9659 14.1143Z" fill="white"/>
<path d="M14.6594 14.1143H16.7048L16.594 14.7269H15.214L15.0936 15.3924H16.4299L16.3238 16.0054H14.9875L14.8668 16.6903H16.2998L16.1935 17.2988H14.0996L14.6594 14.1143Z" fill="white"/>
<path d="M17.3506 14.1143H18.0117L17.5584 16.6905H18.8851L18.779 17.2989H16.791L17.3506 14.1143Z" fill="white"/>
<path d="M19.2363 17.1388L19.3423 16.5262C19.5212 16.6419 19.8586 16.7532 20.2206 16.7532C20.6691 16.7532 20.891 16.6279 20.891 16.3952C20.891 16.125 20.6113 16.0672 20.3652 15.9901C19.9311 15.8598 19.5402 15.6908 19.5402 15.0732C19.5402 14.4648 19.9697 14.0649 20.8574 14.0649C21.2674 14.0649 21.6293 14.1566 21.7934 14.277L21.6871 14.89C21.528 14.7889 21.2193 14.6634 20.8671 14.6634C20.4472 14.6634 20.2446 14.8082 20.2446 15.0297C20.2446 15.305 20.5582 15.3435 20.8187 15.4304C21.2483 15.575 21.5954 15.7347 21.5954 16.3324C21.5954 16.9885 21.1226 17.3459 20.2253 17.3459C19.7815 17.3466 19.4099 17.2643 19.2363 17.1388Z" fill="white"/>
</g>
<defs>
<clipPath id="clip0_0_683">
<rect width="24" height="24" fill="white" transform="translate(0.998047 0.675781)"/>
</clipPath>
</defs>
</svg>
