<svg width="512" height="513" viewBox="0 0 512 513" fill="none" xmlns="http://www.w3.org/2000/svg">
<g clip-path="url(#clip0_0_809)">
<rect width="512" height="512" transform="translate(-0.000488281 0.328125)" fill="white"/>
<path d="M87.354 155.862L66.8033 272.771H383.402L403.96 155.862H87.354ZM147.412 248.571H141.807L110.557 207.666L103.4 248.571H89.5984L101.637 180.07H107.346L138.477 220.848L145.633 180.07H159.539L147.412 248.571ZM211.054 248.571H163.701L166.011 235.5H213.364L211.054 248.571ZM214.831 220.755H168.583L170.892 207.577H217.207L214.831 220.755ZM219.651 193.255H173.399L175.709 180.074H222.038L219.651 193.255ZM284.329 248.571L275.209 206.126L250.92 248.582H242.516L232.548 180.081H248.333L252.375 222.214L275.525 180.081H283.105L291.609 222.214L310.408 180.07H326.801L292.864 248.571H284.329ZM376.476 196.778C373.05 194.599 366.409 191.896 358.828 191.896C349.804 191.896 345.442 195.015 345.442 199.785C345.442 205.702 352.187 206.53 357.789 208.405C367.028 211.512 374.501 214.95 374.501 227.808C374.501 241.918 364.33 249.606 345.026 249.606C335.479 249.606 327.486 247.835 323.752 245.136L326.031 231.962C329.881 234.449 337.138 236.84 344.922 236.84C354.57 236.84 359.348 234.145 359.348 229.14C359.348 223.335 353.327 222.087 348.037 220.428C338.697 217.625 330.289 213.991 330.289 200.705C330.289 187.615 339.529 179.011 358.624 179.011C367.44 179.011 375.225 180.986 378.759 183.577L376.476 196.778Z" fill="black"/>
<path d="M171.767 355.767H157.569L169.607 287.27H195.017C208.406 287.373 216.191 295.05 216.191 306.573C216.191 316.748 210.277 325.564 200.11 329.287L211.001 355.751H195.536L186.828 331.17H176.125L171.767 355.767ZM201.346 307.605C201.346 302.627 198.443 299.62 193.565 299.62H181.63L178.308 318.823H190.139C196.784 318.823 201.346 313.945 201.346 307.605Z" fill="black"/>
<path d="M233.815 287.27H277.823L275.439 300.448H245.753L243.154 314.765H271.909L269.622 327.951H240.875L238.28 342.685H269.103L266.82 355.774H221.776L233.815 287.27Z" fill="black"/>
<path d="M291.722 287.27H335.722L333.339 300.448H303.652L301.061 314.765H329.808L327.525 327.951H298.778L296.184 342.685H327.009L324.723 355.774H279.679L291.722 287.27Z" fill="black"/>
<path d="M349.615 287.27H363.836L354.084 342.689H382.624L380.341 355.778H337.576L349.615 287.27Z" fill="black"/>
<path d="M390.189 352.34L392.468 339.162C396.318 341.649 403.575 344.044 411.363 344.044C421.011 344.044 425.785 341.349 425.785 336.344C425.785 330.531 419.767 329.287 414.474 327.628C405.134 324.825 396.726 321.191 396.726 307.905C396.726 294.815 405.965 286.215 425.061 286.215C433.881 286.215 441.665 288.186 445.196 290.777L442.909 303.962C439.486 301.787 432.845 299.089 425.269 299.089C416.237 299.089 411.879 302.203 411.879 306.969C411.879 312.89 418.624 313.718 424.229 315.589C433.469 318.7 440.938 322.134 440.938 334.993C440.938 349.106 430.766 356.794 411.463 356.794C401.915 356.81 393.923 355.039 390.189 352.34Z" fill="black"/>
</g>
<defs>
<clipPath id="clip0_0_809">
<rect x="-0.000488281" y="0.328125" width="512" height="512" rx="256" fill="white"/>
</clipPath>
</defs>
</svg>
