<svg width="65" height="65" viewBox="0 0 65 65" fill="none" xmlns="http://www.w3.org/2000/svg">
<g clip-path="url(#clip0_0_908)">
<rect width="64" height="64" transform="translate(0.998047 0.0620117)" fill="white"/>
<path d="M11.9173 19.5039L9.34851 34.1176H48.9233L51.4931 19.5039H11.9173ZM19.4246 31.0925H18.7239L14.8177 25.9794L13.9231 31.0925H12.1979L13.7027 22.5299H14.4164L18.3077 27.6272L19.2023 22.5299H20.9405L19.4246 31.0925ZM27.3799 31.0925H21.4607L21.7495 29.4587H27.6686L27.3799 31.0925ZM27.852 27.6156H22.0709L22.3597 25.9683H28.1489L27.852 27.6156ZM28.4545 24.1781H22.6729L22.9617 22.5304H28.7529L28.4545 24.1781ZM36.5392 31.0925L35.3992 25.7869L32.3631 31.094H31.3126L30.0666 22.5314H32.0397L32.545 27.798L35.4387 22.5314H36.3862L37.4493 27.798L39.7991 22.5299H41.8482L37.6061 31.0925H36.5392ZM48.0576 24.6185C47.6293 24.3461 46.7992 24.0083 45.8516 24.0083C44.7236 24.0083 44.1784 24.3981 44.1784 24.9943C44.1784 25.734 45.0215 25.8374 45.7217 26.0718C46.8767 26.4602 47.8107 26.8899 47.8107 28.4972C47.8107 30.261 46.5393 31.222 44.1264 31.222C42.9329 31.222 41.9339 31.0006 41.4671 30.6633L41.752 29.0165C42.2332 29.3274 43.1403 29.6262 44.1134 29.6262C45.3194 29.6262 45.9166 29.2893 45.9166 28.6637C45.9166 27.938 45.1639 27.7821 44.5027 27.5747C43.3352 27.2244 42.2842 26.7701 42.2842 25.1093C42.2842 23.4731 43.4392 22.3976 45.8261 22.3976C46.9281 22.3976 47.9012 22.6444 48.343 22.9683L48.0576 24.6185Z" fill="#F73458"/>
<path d="M22.469 44.4918H20.6942L22.199 35.9297H25.3752C27.0489 35.9427 28.022 36.9023 28.022 38.3426C28.022 39.6145 27.2828 40.7165 26.0119 41.1819L27.3733 44.4899H25.4402L24.3516 41.4172H23.0138L22.469 44.4918ZM26.1663 38.4716C26.1663 37.8493 25.8035 37.4735 25.1938 37.4735H23.7019L23.2866 39.8739H24.7655C25.5961 39.8739 26.1663 39.2642 26.1663 38.4716Z" fill="black"/>
<path d="M30.2249 35.9297H35.7259L35.428 37.577H31.7172L31.3924 39.3667H34.9867L34.7009 41.0149H31.1075L30.7831 42.8566H34.6359L34.3505 44.4928H28.7201L30.2249 35.9297Z" fill="black"/>
<path d="M37.4633 35.9297H42.9633L42.6655 37.577H38.9547L38.6308 39.3667H42.2242L41.9388 41.0149H38.3454L38.0211 42.8566H41.8743L41.5885 44.4928H35.958L37.4633 35.9297Z" fill="black"/>
<path d="M44.6999 35.9297H46.4776L45.2586 42.8571H48.826L48.5406 44.4933H43.1951L44.6999 35.9297Z" fill="black"/>
<path d="M49.7717 44.0635L50.0566 42.4163C50.5379 42.7272 51.445 43.0265 52.4185 43.0265C53.6245 43.0265 54.2212 42.6896 54.2212 42.064C54.2212 41.3373 53.4691 41.1819 52.8074 40.9745C51.6399 40.6242 50.5889 40.1699 50.5889 38.5091C50.5889 36.8729 51.7438 35.7979 54.1308 35.7979C55.2333 35.7979 56.2063 36.0442 56.6476 36.3681L56.3618 38.0163C55.9339 37.7444 55.1038 37.4071 54.1567 37.4071C53.0278 37.4071 52.483 37.7964 52.483 38.3922C52.483 39.1323 53.3261 39.2358 54.0268 39.4697C55.1818 39.8585 56.1154 40.2878 56.1154 41.8951C56.1154 43.6593 54.8439 44.6203 52.431 44.6203C51.2376 44.6223 50.2385 44.4009 49.7717 44.0635Z" fill="black"/>
</g>
<defs>
<clipPath id="clip0_0_908">
<rect x="0.998047" y="0.0620117" width="64" height="64" rx="32" fill="white"/>
</clipPath>
</defs>
</svg>
