<svg width="1025" height="1025" viewBox="0 0 1025 1025" fill="none" xmlns="http://www.w3.org/2000/svg">
<g clip-path="url(#clip0_0_125)">
<path d="M79.9073 425.951L49.645 598.462H516.736L547.074 425.951H79.9073ZM168.517 562.739H160.23L114.161 502.375L103.604 562.739H83.1985L100.996 461.665H109.385L155.352 521.835L165.901 461.665H186.408L168.517 562.739ZM262.418 562.739H192.577L195.952 543.448H265.793L262.418 562.739ZM268.013 521.726H199.792L203.218 502.265H271.574L268.013 521.726ZM275.135 481.142H206.906L210.282 461.682H278.638L275.135 481.142ZM370.572 562.739L357.12 500.096L321.272 562.739H308.866L294.174 461.665H317.457L323.364 523.827L357.517 461.665H368.716L381.281 523.827L408.97 461.665H433.19L383.146 562.739H370.572ZM506.559 486.282C498.663 481.618 489.669 479.14 480.499 479.1C467.216 479.1 460.752 483.699 460.752 490.754C460.752 499.43 470.71 500.679 478.971 503.413C492.609 507.987 503.647 513.042 503.647 532.013C503.647 552.849 488.634 564.199 460.127 564.199C446.026 564.199 434.236 561.591 428.751 557.608L432.126 538.148C437.772 541.836 448.515 545.363 459.975 545.363C474.212 545.363 481.258 541.346 481.258 534.004C481.258 525.447 472.381 523.624 464.541 521.169C450.768 517.025 438.38 511.641 438.38 492.046C438.38 472.788 452.026 460.053 480.204 460.053C493.191 460.053 504.677 462.956 509.875 466.804L506.559 486.282Z" fill="black"/>
<path d="M637.186 490.165C637.186 473.16 625.692 461.826 605.962 461.666H568.442L550.661 562.749H571.657L578.088 526.461H593.826L606.721 562.749H629.507L613.413 523.701C628.469 518.182 637.186 505.152 637.186 490.165ZM598.755 508.224H581.286L586.164 479.886H603.784C610.975 479.886 615.253 484.358 615.253 491.7C615.278 501.042 608.552 508.224 598.755 508.224Z" fill="#121212"/>
<path d="M724.597 481.125L728.117 461.673H663.195L645.423 562.739H711.88L715.264 543.455H669.769L673.592 521.708H716.015L719.399 502.256H676.976L680.807 481.125H724.597Z" fill="#121212"/>
<path d="M810.034 481.125L813.561 461.673H748.632L730.859 562.739H797.316L800.709 543.455H755.197L759.029 521.708H801.46L804.836 502.256H762.413L766.236 481.125H810.034Z" fill="#121212"/>
<path d="M840.634 543.455L855.031 461.673H834.077L816.296 562.739H879.369L882.753 543.455H840.634Z" fill="#121212"/>
<path d="M945.666 479.151C956.848 479.151 966.662 483.117 971.726 486.324L975.101 466.914C969.869 463.083 958.392 460.163 945.404 460.163C917.193 460.163 903.581 472.881 903.581 492.164C903.581 511.751 915.961 517.118 929.742 521.262C937.539 523.726 946.434 525.565 946.434 534.114C946.434 541.465 939.387 545.465 925.134 545.465C913.648 545.465 902.948 541.937 897.285 538.249L893.909 557.701C899.445 561.701 911.243 564.309 925.336 564.309C953.81 564.309 968.814 552.95 968.814 532.131C968.814 513.152 957.767 508.097 944.164 503.514C935.894 500.746 925.944 499.514 925.944 490.797C925.936 483.75 932.366 479.151 945.666 479.151Z" fill="#121212"/>
</g>
<defs>
<clipPath id="clip0_0_125">
<rect width="1024" height="1024" fill="white" transform="translate(0.373047 0.206055)"/>
</clipPath>
</defs>
</svg>
