<svg width="129" height="129" viewBox="0 0 129 129" fill="none" xmlns="http://www.w3.org/2000/svg">
<g clip-path="url(#clip0_0_89)">
<path d="M10.5731 53.7192L6.79028 75.283H65.1767L68.9689 53.7192H10.5731ZM21.6493 70.8177H20.6134L14.8548 63.2722L13.5352 70.8177H10.9845L13.2092 58.1835H14.2578L20.0037 65.7048L21.3223 58.1835H23.8856L21.6493 70.8177ZM33.3869 70.8177H24.6567L25.0787 68.4063H33.8088L33.3869 70.8177ZM34.0863 65.691H25.5587L25.9869 63.2585H34.5314L34.0863 65.691ZM34.9766 60.6181H26.4479L26.8699 58.1856H35.4144L34.9766 60.6181ZM46.9062 70.8177L45.2247 62.9874L40.7436 70.8177H39.1929L37.3564 58.1835H40.2668L41.0052 65.9537L45.2743 58.1835H46.6741L48.2448 65.9537L51.7059 58.1835H54.7334L48.478 70.8177H46.9062ZM63.9045 61.2606C62.9175 60.6776 61.7933 60.3678 60.647 60.3629C58.9866 60.3629 58.1786 60.9378 58.1786 61.8196C58.1786 62.904 59.4234 63.0602 60.4561 63.402C62.1608 63.9737 63.5405 64.6056 63.5405 66.9769C63.5405 69.5814 61.6639 71.0002 58.1006 71.0002C56.3379 71.0002 54.8642 70.6743 54.1785 70.1764L54.6005 67.7438C55.3062 68.2048 56.649 68.6457 58.0816 68.6457C59.8611 68.6457 60.742 68.1436 60.742 67.2259C60.742 66.1562 59.6322 65.9284 58.6523 65.6214C56.9307 65.1035 55.3821 64.4305 55.3821 61.981C55.3821 59.5738 57.0879 57.982 60.6101 57.982C62.2336 57.982 63.6692 58.3449 64.319 58.8259L63.9045 61.2606Z" fill="#F73458"/>
<path d="M80.2329 61.7459C80.2329 59.6203 78.7962 58.2036 76.3298 58.1836H71.6399L69.4172 70.8189H72.0418L72.8456 66.2829H74.8129L76.4248 70.8189H79.273L77.2613 65.938C79.1432 65.2481 80.2329 63.6194 80.2329 61.7459ZM75.429 64.0033H73.2454L73.8551 60.4611H76.0577C76.9564 60.4611 77.4913 61.0202 77.4913 61.9379C77.4944 63.1056 76.6537 64.0033 75.429 64.0033Z" fill="#121212"/>
<path d="M91.1593 60.6161L91.5992 58.1846H83.484L81.2625 70.8178H89.5696L89.9926 68.4074H84.3058L84.7836 65.689H90.0865L90.5095 63.2575H85.2066L85.6855 60.6161H91.1593Z" fill="#121212"/>
<path d="M101.839 60.6161L102.28 58.1846H94.1636L91.942 70.8178H100.249L100.673 68.4074H94.9843L95.4632 65.689H100.767L101.189 63.2575H95.8862L96.3641 60.6161H101.839Z" fill="#121212"/>
<path d="M105.664 68.4074L107.463 58.1846H104.844L102.622 70.8178H110.506L110.929 68.4074H105.664Z" fill="#121212"/>
<path d="M118.793 60.3691C120.191 60.3691 121.417 60.8649 122.05 61.2657L122.472 58.8395C121.818 58.3606 120.384 57.9956 118.76 57.9956C115.234 57.9956 113.532 59.5853 113.532 61.9957C113.532 64.4441 115.08 65.115 116.802 65.6329C117.777 65.9409 118.889 66.1709 118.889 67.2395C118.889 68.1583 118.008 68.6583 116.226 68.6583C114.791 68.6583 113.453 68.2174 112.745 67.7564L112.323 70.1879C113.015 70.6879 114.49 71.0138 116.252 71.0138C119.811 71.0138 121.686 69.594 121.686 66.9916C121.686 64.6192 120.306 63.9873 118.605 63.4145C117.571 63.0685 116.328 62.9145 116.328 61.8248C116.327 60.944 117.13 60.3691 118.793 60.3691Z" fill="#121212"/>
</g>
<defs>
<clipPath id="clip0_0_89">
<rect width="128" height="128" fill="white" transform="translate(0.631348 0.500977)"/>
</clipPath>
</defs>
</svg>
