<svg width="33" height="33" viewBox="0 0 33 33" fill="none" xmlns="http://www.w3.org/2000/svg">
<g clip-path="url(#clip0_0_638)">
<path d="M6.54524 10.3286L5.27148 17.5748H24.8946L26.1688 10.3286H6.54524ZM10.2677 16.0748H9.92027L7.9834 13.5395L7.5398 16.0748H6.68435L7.43052 11.8291H7.78439L9.71387 14.3565L10.1575 11.8291H11.0194L10.2677 16.0748ZM14.2123 16.0748H11.2773L11.4205 15.2647H14.3555L14.2123 16.0748ZM14.4464 14.3508H11.5799L11.723 13.534H14.5936L14.4464 14.3508ZM14.7452 12.6463H11.8784L12.0216 11.8293H14.8931L14.7452 12.6463ZM18.754 16.0748L18.1887 13.444L16.6832 16.0755H16.1623L15.5445 11.8298H16.5229L16.7734 14.4412L18.2083 11.8298H18.6781L19.2052 14.4412L20.3704 11.8291H21.3864L19.283 16.0748H18.754ZM24.4653 12.8647C24.253 12.7296 23.8413 12.5621 23.3715 12.5621C22.8122 12.5621 22.5418 12.7554 22.5418 13.051C22.5418 13.4178 22.9599 13.4691 23.3071 13.5853C23.8798 13.7779 24.3429 13.991 24.3429 14.7879C24.3429 15.6625 23.7125 16.139 22.5161 16.139C21.9243 16.139 21.4289 16.0292 21.1974 15.862L21.3387 15.0454C21.5773 15.1996 22.0271 15.3477 22.5096 15.3477C23.1076 15.3477 23.4037 15.1807 23.4037 14.8705C23.4037 14.5107 23.0305 14.4333 22.7027 14.3305C22.1238 14.1568 21.6026 13.9315 21.6026 13.1081C21.6026 12.2967 22.1753 11.7634 23.3589 11.7634C23.9053 11.7634 24.3878 11.8858 24.6068 12.0464L24.4653 12.8647Z" fill="black"/>
<path d="M11.7765 22.7192H10.8965L11.6426 18.4736H13.2175C14.0475 18.4801 14.5299 18.9559 14.5299 19.6701C14.5299 20.3007 14.1634 20.8472 13.5332 21.0779L14.2083 22.7182H13.2498L12.71 21.1946H12.0466L11.7765 22.7192ZM13.6098 19.734C13.6098 19.4255 13.4299 19.2391 13.1276 19.2391H12.3879L12.1819 20.4294H12.9152C13.3271 20.4294 13.6098 20.127 13.6098 19.734Z" fill="black"/>
<path d="M15.6231 18.4736H18.3508L18.2031 19.2904H16.3631L16.202 20.1779H17.9843L17.8425 20.9951H16.0607L15.8999 21.9083H17.8103L17.6688 22.7196H14.877L15.6231 18.4736Z" fill="black"/>
<path d="M19.2112 18.4736H21.9384L21.7907 19.2904H19.9507L19.7901 20.1779H21.5719L21.4304 20.9951H19.6486L19.4878 21.9083H21.3984L21.2567 22.7196H18.4648L19.2112 18.4736Z" fill="black"/>
<path d="M22.8009 18.4736H23.6823L23.0779 21.9086H24.8468L24.7053 22.7199H22.0547L22.8009 18.4736Z" fill="black"/>
<path d="M25.3145 22.5067L25.4557 21.6899C25.6943 21.8441 26.1441 21.9925 26.6269 21.9925C27.2248 21.9925 27.5207 21.8255 27.5207 21.5153C27.5207 21.155 27.1478 21.0779 26.8197 20.975C26.2408 20.8013 25.7196 20.5761 25.7196 19.7526C25.7196 18.9413 26.2923 18.4082 27.4759 18.4082C28.0226 18.4082 28.505 18.5304 28.7239 18.691L28.5821 19.5082C28.37 19.3734 27.9584 19.2061 27.4888 19.2061C26.929 19.2061 26.6588 19.3992 26.6588 19.6946C26.6588 20.0616 27.0769 20.1129 27.4243 20.2289C27.997 20.4217 28.4599 20.6345 28.4599 21.4315C28.4599 22.3063 27.8295 22.7828 26.6331 22.7828C26.0413 22.7838 25.5459 22.674 25.3145 22.5067Z" fill="black"/>
</g>
<defs>
<clipPath id="clip0_0_638">
<rect width="32" height="32" fill="white" transform="translate(0.998047 0.555664)"/>
</clipPath>
</defs>
</svg>
