<svg width="513" height="513" viewBox="0 0 513 513" fill="none" xmlns="http://www.w3.org/2000/svg">
<g clip-path="url(#clip0_0_332)">
<path d="M89.7531 156.543L69.373 272.482H383.343L403.731 156.543H89.7531ZM149.313 248.483H143.754L112.764 207.917L105.666 248.483H91.9789L103.918 180.551H109.58L140.451 220.99L147.549 180.551H161.339L149.313 248.483ZM212.427 248.483H165.466L167.757 235.521H214.717L212.427 248.483ZM216.172 220.898H170.307L172.598 207.83H218.528L216.172 220.898ZM220.952 193.627H175.083L177.374 180.554H223.319L220.952 193.627ZM285.093 248.483L276.048 206.39L251.961 248.494H243.627L233.742 180.562H249.395L253.404 222.345L276.361 180.562H283.879L292.313 222.345L310.955 180.551H327.212L293.557 248.483H285.093ZM376.475 197.12C373.077 194.959 366.491 192.279 358.973 192.279C350.024 192.279 345.699 195.372 345.699 200.102C345.699 205.97 352.388 206.791 357.943 208.65C367.106 211.731 374.516 215.141 374.516 227.893C374.516 241.885 364.429 249.51 345.286 249.51C335.818 249.51 327.892 247.754 324.188 245.077L326.449 232.012C330.267 234.479 337.463 236.85 345.183 236.85C354.751 236.85 359.489 234.177 359.489 229.214C359.489 223.456 353.518 222.219 348.272 220.574C339.01 217.794 330.671 214.19 330.671 201.015C330.671 188.034 339.834 179.501 358.771 179.501C367.514 179.501 375.234 181.459 378.739 184.029L376.475 197.12Z" fill="#F73458"/>
<path d="M173.465 354.789H159.385L171.323 286.86H196.522C209.8 286.963 217.52 294.576 217.52 306.003C217.52 316.094 211.656 324.837 201.573 328.529L212.374 354.773H197.037L188.401 330.396H177.787L173.465 354.789ZM202.798 307.027C202.798 302.09 199.92 299.108 195.082 299.108H183.247L179.952 318.152H191.684C198.274 318.152 202.798 313.315 202.798 307.027Z" fill="black"/>
<path d="M234.997 286.86H278.64L276.277 299.929H246.837L244.259 314.128H272.775L270.508 327.204H241.999L239.426 341.815H269.992L267.728 354.796H223.059L234.997 286.86Z" fill="black"/>
<path d="M292.423 286.86H336.058L333.695 299.929H304.255L301.685 314.128H330.194L327.93 327.204H299.421L296.848 341.815H327.418L325.15 354.796H280.48L292.423 286.86Z" fill="black"/>
<path d="M349.835 286.86H363.938L354.268 341.819H382.57L380.306 354.8H337.896L349.835 286.86Z" fill="black"/>
<path d="M390.072 351.391L392.332 338.322C396.15 340.789 403.347 343.163 411.071 343.163C420.638 343.163 425.373 340.491 425.373 335.528C425.373 329.762 419.405 328.529 414.156 326.884C404.893 324.104 396.555 320.5 396.555 307.325C396.555 294.344 405.718 285.814 424.655 285.814C433.402 285.814 441.122 287.769 444.623 290.339L442.355 303.415C438.961 301.258 432.375 298.582 424.861 298.582C415.904 298.582 411.582 301.67 411.582 306.397C411.582 312.269 418.271 313.09 423.83 314.945C432.993 318.03 440.4 321.436 440.4 334.187C440.4 348.184 430.313 355.808 411.17 355.808C401.702 355.824 393.776 354.067 390.072 351.391Z" fill="black"/>
</g>
<defs>
<clipPath id="clip0_0_332">
<rect width="512" height="512" fill="white" transform="translate(0.998047 0.175781)"/>
</clipPath>
</defs>
</svg>
