<svg width="129" height="129" viewBox="0 0 129 129" fill="none" xmlns="http://www.w3.org/2000/svg">
<g clip-path="url(#clip0_0_872)">
<rect width="128" height="128" transform="translate(0.998535 0.0620117)" fill="white"/>
<path d="M22.8371 38.9453L17.6995 68.1726H96.8491L101.989 38.9453H22.8371ZM37.8517 62.1226H36.4503L28.6379 51.8963L26.8487 62.1226H23.3982L26.4079 44.9973H27.8352L35.6178 55.1918L37.407 44.9973H40.8834L37.8517 62.1226ZM53.7622 62.1226H41.9239L42.5013 58.855H54.3397L53.7622 62.1226ZM54.7064 55.1687H43.1443L43.7218 51.8742H55.3003L54.7064 55.1687ZM55.9114 48.2938H44.3483L44.9258 44.9983H56.5082L55.9114 48.2938ZM72.0809 62.1226L69.8008 51.5113L63.7286 62.1254H61.6276L59.1357 45.0002H63.0818L64.0924 55.5335L69.8798 45.0002H71.7749L73.901 55.5335L78.6007 44.9973H82.6989L74.2147 62.1226H72.0809ZM95.1176 49.1744C94.261 48.6297 92.6008 47.954 90.7057 47.954C88.4497 47.954 87.3592 48.7336 87.3592 49.9261C87.3592 51.4055 89.0454 51.6124 90.4458 52.0811C92.7557 52.8578 94.6239 53.7173 94.6239 56.932C94.6239 60.4594 92.0811 62.3815 87.2552 62.3815C84.8683 62.3815 82.8702 61.9387 81.9366 61.264L82.5064 57.9705C83.4689 58.5922 85.2831 59.1899 87.2292 59.1899C89.6412 59.1899 90.8356 58.5162 90.8356 57.265C90.8356 55.8136 89.3303 55.5017 88.0079 55.0869C85.6729 54.3862 83.5709 53.4776 83.5709 50.1562C83.5709 46.8838 85.8808 44.7327 90.6547 44.7327C92.8587 44.7327 94.8048 45.2264 95.6884 45.8741L95.1176 49.1744Z" fill="#F73458"/>
<path d="M43.9404 88.9216H40.3908L43.4004 71.7974H49.7528C53.1002 71.8233 55.0463 73.7425 55.0463 76.6232C55.0463 79.167 53.568 81.371 51.0261 82.3017L53.7489 88.9178H49.8827L47.7056 82.7724H45.0299L43.9404 88.9216ZM51.3351 76.8811C51.3351 75.6367 50.6093 74.885 49.3899 74.885H46.4062L45.5756 79.6858H48.5333C50.1945 79.6858 51.3351 78.4663 51.3351 76.8811Z" fill="black"/>
<path d="M59.4523 71.7974H70.4543L69.8585 75.0919H62.4369L61.7872 78.6713H68.9759L68.4042 81.9678H61.2174L60.5687 85.6511H68.2743L67.7035 88.9235H56.4426L59.4523 71.7974Z" fill="black"/>
<path d="M73.929 71.7974H84.9291L84.3333 75.0919H76.9117L76.264 78.6713H83.4507L82.88 81.9678H75.6932L75.0445 85.6511H82.751L82.1793 88.9235H70.9184L73.929 71.7974Z" fill="black"/>
<path d="M88.4023 71.7974H91.9577L89.5198 85.6521H96.6546L96.0838 88.9245H85.3927L88.4023 71.7974Z" fill="black"/>
<path d="M98.5458 88.0651L99.1156 84.7705C100.078 85.3923 101.892 85.9909 103.839 85.9909C106.251 85.9909 107.445 85.3172 107.445 84.066C107.445 82.6127 105.94 82.3018 104.617 81.887C102.282 81.1863 100.18 80.2777 100.18 76.9563C100.18 73.6839 102.49 71.5337 107.264 71.5337C109.469 71.5337 111.415 72.0265 112.298 72.6742L111.726 75.9707C110.87 75.4269 109.21 74.7522 107.316 74.7522C105.058 74.7522 103.968 75.5308 103.968 76.7224C103.968 78.2026 105.655 78.4096 107.056 78.8773C109.366 79.655 111.233 80.5135 111.233 83.7282C111.233 87.2566 108.69 89.1787 103.864 89.1787C101.477 89.1825 99.4794 88.7398 98.5458 88.0651Z" fill="black"/>
</g>
<defs>
<clipPath id="clip0_0_872">
<rect x="0.998535" y="0.0620117" width="128" height="128" rx="64" fill="white"/>
</clipPath>
</defs>
</svg>
