<svg width="512" height="513" viewBox="0 0 512 513" fill="none" xmlns="http://www.w3.org/2000/svg">
<g clip-path="url(#clip0_0_800)">
<rect width="512" height="512" transform="translate(-0.000488281 0.0620117)" fill="white"/>
<path d="M87.354 155.596L66.8033 272.505H383.402L403.96 155.596H87.354ZM147.412 248.305H141.807L110.557 207.4L103.4 248.305H89.5984L101.637 179.804H107.346L138.477 220.582L145.633 179.804H159.539L147.412 248.305ZM211.054 248.305H163.701L166.011 235.234H213.364L211.054 248.305ZM214.831 220.489H168.583L170.892 207.311H217.207L214.831 220.489ZM219.651 192.99H173.399L175.709 179.808H222.038L219.651 192.99ZM284.329 248.305L275.209 205.86L250.92 248.316H242.516L232.548 179.815H248.333L252.375 221.948L275.525 179.815H283.105L291.609 221.948L310.408 179.804H326.801L292.864 248.305H284.329ZM376.476 196.512C373.05 194.333 366.409 191.631 358.828 191.631C349.804 191.631 345.442 194.749 345.442 199.519C345.442 205.436 352.187 206.264 357.789 208.139C367.028 211.246 374.501 214.684 374.501 227.542C374.501 241.652 364.33 249.34 345.026 249.34C335.479 249.34 327.486 247.569 323.752 244.871L326.031 231.696C329.881 234.183 337.138 236.574 344.922 236.574C354.57 236.574 359.348 233.879 359.348 228.874C359.348 223.069 353.327 221.821 348.037 220.162C338.697 217.359 330.289 213.725 330.289 200.439C330.289 187.349 339.529 178.745 358.624 178.745C367.44 178.745 375.225 180.72 378.759 183.311L376.476 196.512Z" fill="#F73458"/>
<path d="M171.767 355.5H157.569L169.607 287.003H195.017C208.406 287.107 216.191 294.784 216.191 306.307C216.191 316.482 210.277 325.298 200.11 329.021L211.001 355.485H195.536L186.828 330.904H176.125L171.767 355.5ZM201.346 307.339C201.346 302.361 198.443 299.354 193.565 299.354H181.63L178.308 318.557H190.139C196.784 318.557 201.346 313.679 201.346 307.339Z" fill="black"/>
<path d="M233.815 287.003H277.823L275.439 300.182H245.753L243.154 314.499H271.909L269.622 327.685H240.875L238.28 342.419H269.103L266.82 355.508H221.776L233.815 287.003Z" fill="black"/>
<path d="M291.722 287.003H335.722L333.339 300.182H303.652L301.061 314.499H329.808L327.525 327.685H298.778L296.184 342.419H327.009L324.723 355.508H279.679L291.722 287.003Z" fill="black"/>
<path d="M349.615 287.003H363.836L354.084 342.422H382.624L380.341 355.512H337.576L349.615 287.003Z" fill="black"/>
<path d="M390.189 352.074L392.468 338.896C396.318 341.383 403.575 343.778 411.363 343.778C421.011 343.778 425.785 341.083 425.785 336.078C425.785 330.265 419.767 329.021 414.474 327.362C405.134 324.559 396.726 320.925 396.726 307.639C396.726 294.549 405.965 285.949 425.061 285.949C433.881 285.949 441.665 287.92 445.196 290.511L442.909 303.697C439.486 301.521 432.845 298.823 425.269 298.823C416.237 298.823 411.879 301.937 411.879 306.703C411.879 312.625 418.624 313.452 424.229 315.323C433.469 318.434 440.938 321.868 440.938 334.727C440.938 348.84 430.766 356.529 411.463 356.529C401.915 356.544 393.923 354.773 390.189 352.074Z" fill="black"/>
</g>
<defs>
<clipPath id="clip0_0_800">
<rect x="-0.000488281" y="0.0620117" width="512" height="512" rx="256" fill="white"/>
</clipPath>
</defs>
</svg>
