<svg width="513" height="513" viewBox="0 0 513 513" fill="none" xmlns="http://www.w3.org/2000/svg">
<g clip-path="url(#clip0_0_197)">
<path d="M39.9873 213.319L24.8562 299.574H258.402L273.571 213.319H39.9873ZM84.2922 281.713H80.1486L57.1143 251.531L51.8357 281.713H41.6329L50.5319 231.176H54.7261L77.7097 261.261L82.9841 231.176H93.2375L84.2922 281.713ZM131.243 281.713H96.322L98.0098 272.067H132.93L131.243 281.713ZM134.04 261.206H99.9297L101.643 251.476H135.821L134.04 261.206ZM137.601 240.914H103.487L105.174 231.184H139.353L137.601 240.914ZM185.32 281.713L178.594 250.391L160.669 281.713H154.467L147.121 231.176H158.762L161.716 262.257L178.792 231.176H184.392L190.674 262.257L204.519 231.176H216.629L191.607 281.713H185.32ZM253.313 243.484C249.365 241.152 244.868 239.913 240.283 239.893C233.642 239.893 230.409 242.193 230.409 245.72C230.409 250.058 235.389 250.683 239.519 252.05C246.338 254.337 251.857 256.864 251.857 266.35C251.857 276.768 244.351 282.443 230.097 282.443C223.046 282.443 217.152 281.139 214.409 279.147L216.097 269.417C218.92 271.261 224.291 273.025 230.021 273.025C237.14 273.025 240.663 271.016 240.663 267.345C240.663 263.067 236.224 262.155 232.304 260.928C225.418 258.856 219.224 256.164 219.224 246.366C219.224 236.737 226.047 230.37 240.135 230.37C246.629 230.37 252.372 231.821 254.971 233.745L253.313 243.484Z" fill="#F73458"/>
<path d="M318.627 245.426C318.627 236.923 312.88 231.256 303.015 231.176H284.255L275.364 281.718H285.862L289.078 263.574H296.947L303.394 281.718H314.787L306.74 262.194C314.268 259.434 318.627 252.919 318.627 245.426ZM299.411 254.455H290.677L293.116 240.286H301.926C305.521 240.286 307.66 242.523 307.66 246.193C307.673 250.864 304.31 254.455 299.411 254.455Z" fill="white"/>
<path d="M362.332 240.906L364.092 231.18H331.631L322.745 281.713H355.974L357.666 272.071H334.918L336.83 261.197H358.041L359.733 251.471H338.522L340.437 240.906H362.332Z" fill="white"/>
<path d="M405.051 240.906L406.814 231.18H374.35L365.463 281.713H398.692L400.388 272.071H377.632L379.548 261.197H400.764L402.451 251.471H381.24L383.151 240.906H405.051Z" fill="white"/>
<path d="M420.351 272.071L427.549 231.18H417.072L408.182 281.713H439.718L441.41 272.071H420.351Z" fill="white"/>
<path d="M472.867 239.919C478.457 239.919 483.365 241.902 485.896 243.505L487.584 233.8C484.968 231.885 479.23 230.425 472.736 230.425C458.63 230.425 451.824 236.784 451.824 246.425C451.824 256.219 458.014 258.902 464.904 260.974C468.803 262.206 473.251 263.126 473.251 267.4C473.251 271.076 469.727 273.076 462.601 273.076C456.858 273.076 451.507 271.312 448.676 269.468L446.988 279.194C449.756 281.194 455.655 282.498 462.702 282.498C476.938 282.498 484.441 276.818 484.441 266.409C484.441 256.919 478.917 254.392 472.116 252.1C467.98 250.716 463.006 250.1 463.006 245.742C463.001 242.218 466.217 239.919 472.867 239.919Z" fill="white"/>
</g>
<defs>
<clipPath id="clip0_0_197">
<rect width="512" height="512" fill="white" transform="translate(0.220215 0.446289)"/>
</clipPath>
</defs>
</svg>
