<svg width="64" height="64" viewBox="0 0 64 64" fill="none" xmlns="http://www.w3.org/2000/svg">
<g clip-path="url(#clip0_0_530)">
<rect width="64" height="64" fill="white"/>
<path d="M11.0944 19.5459L8.54688 34.0382H47.7931L50.3416 19.5459H11.0944ZM18.5393 31.0383H17.8445L13.9707 25.9676L13.0835 31.0383H11.3726L12.8649 22.5468H13.5727L17.4316 27.6017L18.3188 22.5468H20.0426L18.5393 31.0383ZM26.4286 31.0383H20.5585L20.8449 29.4181H26.7149L26.4286 31.0383ZM26.8967 27.5902H21.1637L21.45 25.9567H27.1912L26.8967 27.5902ZM27.4942 24.1813H21.7607L22.047 22.5473H27.7901L27.4942 24.1813ZM35.5119 31.0383L34.3813 25.7767L31.3704 31.0397H30.3286L29.093 22.5482H31.0497L31.5508 27.7711L34.4204 22.5482H35.3601L36.4143 27.7711L38.7447 22.5468H40.7768L36.5699 31.0383H35.5119ZM46.9346 24.618C46.5098 24.3479 45.6866 24.0129 44.7469 24.0129C43.6283 24.0129 43.0876 24.3994 43.0876 24.9907C43.0876 25.7242 43.9237 25.8268 44.6181 26.0593C45.7634 26.4444 46.6898 26.8706 46.6898 28.4646C46.6898 30.2136 45.4289 31.1667 43.036 31.1667C41.8525 31.1667 40.8617 30.9472 40.3988 30.6126L40.6813 28.9795C41.1586 29.2878 42.0582 29.5842 43.0231 29.5842C44.2191 29.5842 44.8113 29.2501 44.8113 28.6297C44.8113 27.91 44.0649 27.7554 43.4092 27.5497C42.2514 27.2022 41.2091 26.7517 41.2091 25.1048C41.2091 23.4822 42.3545 22.4155 44.7216 22.4155C45.8145 22.4155 46.7795 22.6604 47.2176 22.9815L46.9346 24.618Z" fill="#F73458"/>
<path d="M21.5589 44.3265H19.7988L21.2912 35.8354H24.4409C26.1008 35.8483 27.0658 36.7999 27.0658 38.2283C27.0658 39.4897 26.3327 40.5825 25.0723 41.044L26.4224 44.3246H24.5054L23.4258 41.2774H22.0991L21.5589 44.3265ZM25.2255 38.3562C25.2255 37.7392 24.8657 37.3664 24.261 37.3664H22.7816L22.3697 39.7469H23.8363C24.66 39.7469 25.2255 39.1422 25.2255 38.3562Z" fill="black"/>
<path d="M29.2501 35.8354H34.7055L34.4101 37.469H30.7301L30.4079 39.2439H33.9724L33.6889 40.8784H30.1254L29.8037 42.7048H33.6245L33.3415 44.3274H27.7578L29.2501 35.8354Z" fill="black"/>
<path d="M36.4284 35.8354H41.8827L41.5873 37.469H37.9073L37.5861 39.2439H41.1497L40.8667 40.8784H37.3031L36.9815 42.7048H40.8027L40.5192 44.3274H34.9355L36.4284 35.8354Z" fill="black"/>
<path d="M43.6056 35.8354H45.3685L44.1597 42.7053H47.6975L47.4145 44.3279H42.1133L43.6056 35.8354Z" fill="black"/>
<path d="M48.6348 43.9017L48.9173 42.2681C49.3945 42.5764 50.2941 42.8732 51.2596 42.8732C52.4555 42.8732 53.0473 42.5391 53.0473 41.9187C53.0473 41.1981 52.3014 41.0439 51.6452 40.8383C50.4874 40.4908 49.4451 40.0403 49.4451 38.3934C49.4451 36.7707 50.5905 35.7046 52.9576 35.7046C54.051 35.7046 55.0159 35.9489 55.4536 36.2701L55.1701 37.9047C54.7458 37.635 53.9226 37.3005 52.9834 37.3005C51.8638 37.3005 51.3235 37.6866 51.3235 38.2774C51.3235 39.0114 52.1597 39.114 52.8545 39.3459C53.9999 39.7315 54.9257 40.1572 54.9257 41.7512C54.9257 43.5008 53.6649 44.4538 51.272 44.4538C50.0884 44.4557 49.0977 44.2362 48.6348 43.9017Z" fill="black"/>
</g>
<defs>
<clipPath id="clip0_0_530">
<rect width="64" height="64" fill="white"/>
</clipPath>
</defs>
</svg>
