<svg width="25" height="25" viewBox="0 0 25 25" fill="none" xmlns="http://www.w3.org/2000/svg">
<g clip-path="url(#clip0_0_980)">
<rect width="24" height="24" transform="translate(0.998047 0.0620117)" fill="white"/>
<path d="M5.09283 7.35254L4.12952 12.8327H18.9701L19.9338 7.35254H5.09283ZM7.90805 11.6983H7.6453L6.18048 9.78085L5.845 11.6983H5.19804L5.76235 8.48729H6.02997L7.4892 10.3988L7.82468 8.48729H8.47651L7.90805 11.6983ZM10.8913 11.6983H8.67159L8.77987 11.0856H10.9996L10.8913 11.6983ZM11.0683 10.3944H8.90042L9.0087 9.7767H11.1797L11.0683 10.3944ZM11.2943 9.10538H9.12618L9.23446 8.48747H11.4061L11.2943 9.10538ZM14.326 11.6983L13.8985 9.70867L12.76 11.6988H12.366L11.8988 8.48784H12.6387L12.8282 10.4628L13.9133 8.48784H14.2687L14.6673 10.4628L15.5485 8.48729H16.3169L14.7261 11.6983H14.326ZM18.6454 9.2705C18.4848 9.16836 18.1735 9.04168 17.8182 9.04168C17.3952 9.04168 17.1907 9.18785 17.1907 9.41144C17.1907 9.68882 17.5069 9.72761 17.7695 9.8155C18.2026 9.96113 18.5528 10.1223 18.5528 10.725C18.5528 11.3864 18.0761 11.7468 17.1712 11.7468C16.7237 11.7468 16.349 11.6638 16.174 11.5373L16.2808 10.9198C16.4613 11.0363 16.8015 11.1484 17.1664 11.1484C17.6186 11.1484 17.8425 11.0221 17.8425 10.7875C17.8425 10.5153 17.5603 10.4569 17.3123 10.3791C16.8745 10.2477 16.4804 10.0774 16.4804 9.45457C16.4804 8.841 16.9135 8.43767 17.8086 8.43767C18.2219 8.43767 18.5868 8.53024 18.7524 8.65169L18.6454 9.2705Z" fill="#F73458"/>
<path d="M9.0497 16.723H8.38416L8.94846 13.5122H10.1395C10.7672 13.5171 11.1321 13.8769 11.1321 14.417C11.1321 14.894 10.8549 15.3073 10.3783 15.4818L10.8888 16.7223H10.1639L9.75567 15.57H9.25399L9.0497 16.723ZM10.4362 14.4654C10.4362 14.2321 10.3001 14.0911 10.0715 14.0911H9.51205L9.35631 14.9913H9.91087C10.2224 14.9913 10.4362 14.7626 10.4362 14.4654Z" fill="black"/>
<path d="M11.9582 13.5122H14.0211L13.9094 14.1299H12.5178L12.396 14.8011H13.7439L13.6367 15.4192H12.2892L12.1676 16.1098H13.6124L13.5053 16.7234H11.3939L11.9582 13.5122Z" fill="black"/>
<path d="M14.6725 13.5122H16.735L16.6233 14.1299H15.2318L15.1103 14.8011H16.4578L16.3508 15.4192H15.0033L14.8817 16.1098H16.3266L16.2194 16.7234H14.108L14.6725 13.5122Z" fill="black"/>
<path d="M17.3863 13.5122H18.053L17.5958 16.11H18.9336L18.8266 16.7235H16.822L17.3863 13.5122Z" fill="black"/>
<path d="M19.2882 16.5625L19.395 15.9448C19.5755 16.0614 19.9157 16.1736 20.2808 16.1736C20.733 16.1736 20.9568 16.0473 20.9568 15.8127C20.9568 15.5402 20.6747 15.4819 20.4266 15.4041C19.9888 15.2728 19.5946 15.1024 19.5946 14.4796C19.5946 13.866 20.0277 13.4629 20.9228 13.4629C21.3363 13.4629 21.7012 13.5553 21.8667 13.6767L21.7595 14.2948C21.599 14.1929 21.2877 14.0664 20.9326 14.0664C20.5092 14.0664 20.3049 14.2124 20.3049 14.4358C20.3049 14.7133 20.6211 14.7521 20.8839 14.8398C21.317 14.9856 21.6671 15.1466 21.6671 15.7494C21.6671 16.4109 21.1903 16.7713 20.2854 16.7713C19.8379 16.772 19.4633 16.689 19.2882 16.5625Z" fill="black"/>
</g>
<defs>
<clipPath id="clip0_0_980">
<rect x="0.998047" y="0.0620117" width="24" height="24" rx="12" fill="white"/>
</clipPath>
</defs>
</svg>
