<svg width="128" height="129" viewBox="0 0 128 129" fill="none" xmlns="http://www.w3.org/2000/svg">
<g clip-path="url(#clip0_0_467)">
<rect width="128" height="128" transform="translate(0 0.265625)" fill="white"/>
<path d="M22.1888 39.3574L17.0938 68.3421H95.5863L100.683 39.3574H22.1888ZM37.0786 62.3422H35.6889L27.9414 52.2009L26.167 62.3422H22.7452L25.7299 45.3592H27.1454L34.8633 55.469L36.6377 45.3592H40.0852L37.0786 62.3422ZM52.8571 62.3422H41.117L41.6897 59.1018H53.4298L52.8571 62.3422ZM53.7935 55.4461H42.3273L42.9 52.1789H54.3824L53.7935 55.4461ZM54.9885 48.6283H43.5214L44.094 45.3602H55.5802L54.9885 48.6283ZM71.0237 62.3422L68.7626 51.8191L62.7407 62.3451H60.6571L58.186 45.3621H62.0993L63.1015 55.8079L68.8408 45.3621H70.7202L72.8286 55.8079L77.4894 45.3592H81.5535L73.1398 62.3422H71.0237ZM93.8692 49.5016C93.0197 48.9614 91.3732 48.2914 89.4938 48.2914C87.2565 48.2914 86.1751 49.0645 86.1751 50.2471C86.1751 51.7141 87.8474 51.9193 89.2361 52.3841C91.5269 53.1544 93.3795 54.0068 93.3795 57.1947C93.3795 60.6929 90.8578 62.599 86.072 62.599C83.7049 62.599 81.7234 62.1599 80.7976 61.4908L81.3626 58.2246C82.3171 58.8412 84.1163 59.4339 86.0463 59.4339C88.4382 59.4339 89.6227 58.7658 89.6227 57.525C89.6227 56.0856 88.1299 55.7764 86.8184 55.365C84.5029 54.6701 82.4183 53.7691 82.4183 50.4752C82.4183 47.23 84.709 45.0967 89.4433 45.0967C91.629 45.0967 93.559 45.5864 94.4352 46.2287L93.8692 49.5016Z" fill="black"/>
<path d="M43.1158 88.9186H39.5957L42.5804 71.9365H48.8799C52.1996 71.9623 54.1296 73.8655 54.1296 76.7223C54.1296 79.245 52.6635 81.4307 50.1427 82.3537L52.8429 88.9148H49.0088L46.8497 82.8204H44.1963L43.1158 88.9186ZM50.4491 76.9781C50.4491 75.7439 49.7294 74.9985 48.5201 74.9985H45.5612L44.7375 79.7594H47.6706C49.318 79.7594 50.4491 78.5501 50.4491 76.9781Z" fill="black"/>
<path d="M58.5003 71.9365H69.4109L68.8201 75.2037H61.4601L60.8158 78.7534H67.9448L67.3779 82.0225H60.2508L59.6075 85.6753H67.249L66.683 88.9205H55.5156L58.5003 71.9365Z" fill="black"/>
<path d="M72.8567 71.9365H83.7654L83.1746 75.2037H75.8146L75.1723 78.7534H82.2994L81.7334 82.0225H74.6063L73.9629 85.6753H81.6055L81.0385 88.9205H69.8711L72.8567 71.9365Z" fill="black"/>
<path d="M87.2093 71.9365H90.7351L88.3174 85.6762H95.393L94.827 88.9215H84.2246L87.2093 71.9365Z" fill="black"/>
<path d="M97.2695 88.0694L97.8346 84.8022C98.7891 85.4188 100.588 86.0125 102.519 86.0125C104.911 86.0125 106.095 85.3444 106.095 84.1036C106.095 82.6623 104.603 82.354 103.29 81.9426C100.975 81.2478 98.8902 80.3467 98.8902 77.0528C98.8902 73.8076 101.181 71.6753 105.915 71.6753C108.102 71.6753 110.032 72.164 110.907 72.8063L110.34 76.0754C109.492 75.5361 107.845 74.8671 105.967 74.8671C103.728 74.8671 102.647 75.6392 102.647 76.8209C102.647 78.2889 104.319 78.4941 105.709 78.958C108 79.7292 109.851 80.5806 109.851 83.7685C109.851 87.2677 107.33 89.1738 102.544 89.1738C100.177 89.1776 98.1954 88.7385 97.2695 88.0694Z" fill="black"/>
</g>
<defs>
<clipPath id="clip0_0_467">
<rect width="128" height="128" fill="white" transform="translate(0 0.265625)"/>
</clipPath>
</defs>
</svg>
