<svg width="65" height="65" viewBox="0 0 65 65" fill="none" xmlns="http://www.w3.org/2000/svg">
<g clip-path="url(#clip0_0_557)">
<path d="M12.0924 20.2217L9.54492 34.714H48.7912L51.3396 20.2217H12.0924ZM19.5374 31.7141H18.8425L14.9687 26.6434L14.0816 31.7141H12.3707L13.863 23.2226H14.5707L18.4297 28.2775L19.3169 23.2226H21.0407L19.5374 31.7141ZM27.4266 31.7141H21.5566L21.8429 30.0939H27.7129L27.4266 31.7141ZM27.8948 28.266H22.1617L22.448 26.6324H28.1892L27.8948 28.266ZM28.4923 24.8571H22.7587L23.0451 23.223H28.7882L28.4923 24.8571ZM36.5099 31.7141L35.3793 26.4525L32.3684 31.7155H31.3266L30.091 23.224H32.0477L32.5488 28.4469L35.4185 23.224H36.3581L37.4124 28.4469L39.7427 23.2226H41.7748L37.5679 31.7141H36.5099ZM47.9326 25.2938C47.5079 25.0237 46.6847 24.6886 45.745 24.6886C44.6263 24.6886 44.0856 25.0752 44.0856 25.6665C44.0856 26.4 44.9217 26.5026 45.6161 26.735C46.7615 27.1202 47.6878 27.5464 47.6878 29.1403C47.6878 30.8894 46.4269 31.8425 44.0341 31.8425C42.8505 31.8425 41.8598 31.6229 41.3968 31.2884L41.6794 29.6553C42.1566 29.9636 43.0562 30.2599 44.0212 30.2599C45.2171 30.2599 45.8094 29.9259 45.8094 29.3055C45.8094 28.5858 45.063 28.4312 44.4073 28.2255C43.2495 27.878 42.2072 27.4275 42.2072 25.7806C42.2072 24.1579 43.3526 23.0913 45.7197 23.0913C46.8125 23.0913 47.7775 23.3361 48.2156 23.6573L47.9326 25.2938Z" fill="#F73458"/>
<path d="M22.5569 45.0023H20.7969L22.2892 36.5112H25.439C27.0988 36.5241 28.0638 37.4757 28.0638 38.9041C28.0638 40.1654 27.3308 41.2583 26.0704 41.7198L27.4205 45.0004H25.5034L24.4239 41.9532H23.0972L22.5569 45.0023ZM26.2236 39.032C26.2236 38.4149 25.8637 38.0422 25.2591 38.0422H23.7796L23.3678 40.4227H24.8343C25.658 40.4227 26.2236 39.818 26.2236 39.032Z" fill="white"/>
<path d="M30.2482 36.5112H35.7035L35.4081 38.1448H31.7281L31.406 39.9197H34.9705L34.687 41.5542H31.1234L30.8018 43.3806H34.6226L34.3396 45.0032H28.7559L30.2482 36.5112Z" fill="white"/>
<path d="M37.4264 36.5112H42.8808L42.5854 38.1448H38.9054L38.5842 39.9197H42.1477L41.8647 41.5542H38.3012L37.9795 43.3806H41.8008L41.5173 45.0032H35.9336L37.4264 36.5112Z" fill="white"/>
<path d="M44.6037 36.5112H46.3666L45.1577 43.3811H48.6955L48.4125 45.0037H43.1113L44.6037 36.5112Z" fill="white"/>
<path d="M49.6328 44.5774L49.9153 42.9438C50.3926 43.2521 51.2922 43.549 52.2576 43.549C53.4536 43.549 54.0454 43.2149 54.0454 42.5945C54.0454 41.8739 53.2994 41.7197 52.6432 41.514C51.4855 41.1666 50.4432 40.7161 50.4432 39.0691C50.4432 37.4465 51.5885 36.3804 53.9557 36.3804C55.049 36.3804 56.014 36.6247 56.4516 36.9459L56.1681 38.5804C55.7439 38.3108 54.9206 37.9763 53.9814 37.9763C52.8618 37.9763 52.3216 38.3623 52.3216 38.9532C52.3216 39.6872 53.1577 39.7898 53.8526 40.0217C54.9979 40.4073 55.9238 40.833 55.9238 42.427C55.9238 44.1766 54.6629 45.1296 52.27 45.1296C51.0865 45.1315 50.0957 44.912 49.6328 44.5774Z" fill="white"/>
</g>
<defs>
<clipPath id="clip0_0_557">
<rect width="64" height="64" fill="white" transform="translate(0.998047 0.675781)"/>
</clipPath>
</defs>
</svg>
