<svg width="25" height="25" viewBox="0 0 25 25" fill="none" xmlns="http://www.w3.org/2000/svg">
<g clip-path="url(#clip0_0_179)">
<path d="M2.44023 10.1855L1.73096 14.2288H12.6784L13.3895 10.1855H2.44023ZM4.51702 13.3915H4.32279L3.24306 11.9767L2.99562 13.3915H2.51737L2.93451 11.0226H3.13111L4.20847 12.4328L4.4557 11.0226H4.93633L4.51702 13.3915ZM6.71782 13.3915H5.08092L5.16003 12.9394H6.79694L6.71782 13.3915ZM6.84896 12.4303H5.25003L5.33033 11.9742H6.93242L6.84896 12.4303ZM7.01589 11.4791H5.41676L5.49588 11.023H7.09797L7.01589 11.4791ZM9.25269 13.3915L8.93742 11.9233L8.09721 13.3915H7.80646L7.4621 11.0226H8.0078L8.14626 12.4795L8.94671 11.0226H9.20918L9.50369 12.4795L10.1526 11.0226H10.7203L9.5474 13.3915H9.25269ZM12.4399 11.5995C12.2548 11.4902 12.044 11.4322 11.8291 11.4312C11.5178 11.4312 11.3663 11.539 11.3663 11.7044C11.3663 11.9077 11.5997 11.937 11.7933 12.0011C12.1129 12.1083 12.3716 12.2267 12.3716 12.6714C12.3716 13.1597 12.0198 13.4257 11.3516 13.4257C11.0211 13.4257 10.7448 13.3646 10.6163 13.2713L10.6954 12.8152C10.8277 12.9016 11.0795 12.9843 11.3481 12.9843C11.6817 12.9843 11.8469 12.8901 11.8469 12.718C11.8469 12.5175 11.6388 12.4748 11.4551 12.4172C11.1323 12.3201 10.8419 12.1939 10.8419 11.7346C10.8419 11.2833 11.1618 10.9848 11.8222 10.9848C12.1266 10.9848 12.3958 11.0529 12.5176 11.143L12.4399 11.5995Z" fill="black"/>
<path d="M15.5014 11.6904C15.5014 11.2918 15.2321 11.0262 14.7696 11.0225H13.8903L13.4735 13.3916H13.9656L14.1163 12.5411H14.4852L14.7874 13.3916H15.3215L14.9443 12.4764C15.2971 12.3471 15.5014 12.0417 15.5014 11.6904ZM14.6007 12.1137H14.1913L14.3056 11.4495H14.7186C14.8871 11.4495 14.9874 11.5543 14.9874 11.7264C14.988 11.9453 14.8303 12.1137 14.6007 12.1137Z" fill="#121212"/>
<path d="M17.5501 11.4784L17.6326 11.0225H16.111L15.6945 13.3912H17.252L17.3314 12.9392H16.2651L16.3547 12.4295H17.349L17.4283 11.9736H16.434L16.5238 11.4784H17.5501Z" fill="#121212"/>
<path d="M19.5526 11.4784L19.6352 11.0225H18.1134L17.6969 13.3912H19.2545L19.334 12.9392H18.2673L18.3571 12.4295H19.3516L19.4307 11.9736H18.4364L18.526 11.4784H19.5526Z" fill="#121212"/>
<path d="M20.2698 12.9392L20.6072 11.0225H20.1161L19.6993 13.3912H21.1776L21.2569 12.9392H20.2698Z" fill="#121212"/>
<path d="M22.7315 11.4323C22.9935 11.4323 23.2236 11.5253 23.3422 11.6005L23.4214 11.1455C23.2987 11.0557 23.0297 10.9873 22.7253 10.9873C22.0641 10.9873 21.7451 11.2854 21.7451 11.7373C21.7451 12.1964 22.0353 12.3222 22.3582 12.4193C22.541 12.4771 22.7495 12.5202 22.7495 12.7205C22.7495 12.8928 22.5843 12.9866 22.2503 12.9866C21.9811 12.9866 21.7303 12.9039 21.5975 12.8175L21.5184 13.2734C21.6482 13.3671 21.9247 13.4282 22.255 13.4282C22.9223 13.4282 23.274 13.162 23.274 12.6741C23.274 12.2292 23.0151 12.1107 22.6963 12.0033C22.5024 11.9385 22.2692 11.9096 22.2692 11.7053C22.269 11.5401 22.4198 11.4323 22.7315 11.4323Z" fill="#121212"/>
</g>
<defs>
<clipPath id="clip0_0_179">
<rect width="24" height="24" fill="white" transform="translate(0.576172 0.207031)"/>
</clipPath>
</defs>
</svg>
