<svg width="65" height="65" viewBox="0 0 65 65" fill="none" xmlns="http://www.w3.org/2000/svg">
<g clip-path="url(#clip0_0_224)">
<path d="M5.85905 27.0552L3.96765 37.8371H33.1608L35.057 27.0552H5.85905ZM11.3972 35.6044H10.8792L7.99992 31.8317L7.34009 35.6044H6.06475L7.17711 29.2873H7.70139L10.5743 33.0479L11.2336 29.2873H12.5153L11.3972 35.6044ZM17.266 35.6044H12.9009L13.1119 34.3987H17.4769L17.266 35.6044ZM17.6156 33.0411H13.3518L13.566 31.8248H17.8382L17.6156 33.0411ZM18.0608 30.5046H13.7965L14.0074 29.2883H18.2797L18.0608 30.5046ZM24.0256 35.6044L23.1849 31.6892L20.9443 35.6044H20.169L19.2507 29.2873H20.7059L21.0751 33.1724L23.2097 29.2873H23.9096L24.6949 33.1724L26.4255 29.2873H27.9392L24.8115 35.6044H24.0256ZM32.5248 30.8258C32.0313 30.5344 31.4691 30.3795 30.896 30.377C30.0658 30.377 29.6618 30.6644 29.6618 31.1054C29.6618 31.6476 30.2842 31.7256 30.8006 31.8965C31.6529 32.1824 32.3428 32.4983 32.3428 33.684C32.3428 34.9863 31.4045 35.6957 29.6228 35.6957C28.7414 35.6957 28.0046 35.5327 27.6618 35.2837L27.8727 34.0675C28.2256 34.298 28.897 34.5184 29.6133 34.5184C30.5031 34.5184 30.9435 34.2674 30.9435 33.8085C30.9435 33.2737 30.3886 33.1597 29.8986 33.0063C29.0379 32.7473 28.2636 32.4108 28.2636 31.1861C28.2636 29.9825 29.1164 29.1866 30.8776 29.1866C31.6893 29.1866 32.4071 29.368 32.732 29.6085L32.5248 30.8258Z" fill="#F73458"/>
<path d="M40.689 31.0683C40.689 30.0055 39.9706 29.2971 38.7374 29.2871H36.3924L35.2811 35.6048H36.5934L36.9953 33.3368H37.979L38.7849 35.6048H40.209L39.2032 33.1643C40.1441 32.8194 40.689 32.005 40.689 31.0683ZM38.287 32.197H37.1952L37.5001 30.4258H38.6014C39.0507 30.4258 39.3181 30.7054 39.3181 31.1643C39.3197 31.7481 38.8994 32.197 38.287 32.197Z" fill="white"/>
<path d="M46.1522 30.5033L46.3721 29.2876H42.3145L41.2037 35.6042H45.3573L45.5688 34.399H42.7254L42.9643 33.0398H45.6158L45.8273 31.824H43.1758L43.4153 30.5033H46.1522Z" fill="white"/>
<path d="M51.492 30.5033L51.7125 29.2876H47.6544L46.5436 35.6042H50.6972L50.9092 34.399H48.0647L48.3042 33.0398H50.9561L51.1671 31.824H48.5157L48.7546 30.5033H51.492Z" fill="white"/>
<path d="M53.4044 34.399L54.3042 29.2876H52.9946L51.8833 35.6042H55.8254L56.0369 34.399H53.4044Z" fill="white"/>
<path d="M59.9689 30.3801C60.6678 30.3801 61.2812 30.628 61.5976 30.8284L61.8086 29.6153C61.4816 29.3759 60.7643 29.1934 59.9526 29.1934C58.1893 29.1934 57.3386 29.9882 57.3386 31.1934C57.3386 32.4176 58.1123 32.753 58.9736 33.012C59.461 33.166 60.0169 33.281 60.0169 33.8153C60.0169 34.2747 59.5765 34.5247 58.6857 34.5247C57.9678 34.5247 57.299 34.3042 56.9451 34.0737L56.7341 35.2895C57.0801 35.5395 57.8175 35.7025 58.6983 35.7025C60.4779 35.7025 61.4157 34.9925 61.4157 33.6914C61.4157 32.5051 60.7253 32.1892 59.875 31.9028C59.3581 31.7298 58.7363 31.6528 58.7363 31.108C58.7358 30.6675 59.1377 30.3801 59.9689 30.3801Z" fill="white"/>
</g>
<defs>
<clipPath id="clip0_0_224">
<rect width="64" height="64" fill="white" transform="translate(0.888184 0.446289)"/>
</clipPath>
</defs>
</svg>
