<svg width="65" height="65" viewBox="0 0 65 65" fill="none" xmlns="http://www.w3.org/2000/svg">
<g clip-path="url(#clip0_0_566)">
<path d="M12.0924 20.167L9.54492 34.6593H48.7912L51.3396 20.167H12.0924ZM19.5374 31.6594H18.8425L14.9687 26.5887L14.0816 31.6594H12.3707L13.863 23.1679H14.5707L18.4297 28.2228L19.3169 23.1679H21.0407L19.5374 31.6594ZM27.4266 31.6594H21.5566L21.8429 30.0392H27.7129L27.4266 31.6594ZM27.8948 28.2113H22.1617L22.448 26.5778H28.1892L27.8948 28.2113ZM28.4923 24.8024H22.7587L23.0451 23.1684H28.7882L28.4923 24.8024ZM36.5099 31.6594L35.3793 26.3978L32.3684 31.6608H31.3266L30.091 23.1693H32.0477L32.5488 28.3922L35.4185 23.1693H36.3581L37.4124 28.3922L39.7427 23.1679H41.7748L37.5679 31.6594H36.5099ZM47.9326 25.2391C47.5079 24.969 46.6847 24.634 45.745 24.634C44.6263 24.634 44.0856 25.0205 44.0856 25.6118C44.0856 26.3453 44.9217 26.4479 45.6161 26.6804C46.7615 27.0655 47.6878 27.4917 47.6878 29.0856C47.6878 30.8347 46.4269 31.7878 44.0341 31.7878C42.8505 31.7878 41.8598 31.5682 41.3968 31.2337L41.6794 29.6006C42.1566 29.9089 43.0562 30.2053 44.0212 30.2053C45.2171 30.2053 45.8094 29.8712 45.8094 29.2508C45.8094 28.5311 45.063 28.3765 44.4073 28.1708C43.2495 27.8233 42.2072 27.3728 42.2072 25.7259C42.2072 24.1033 43.3526 23.0366 45.7197 23.0366C46.8125 23.0366 47.7775 23.2815 48.2156 23.6026L47.9326 25.2391Z" fill="white"/>
<path d="M22.5569 44.9476H20.7969L22.2892 36.4565H25.439C27.0988 36.4694 28.0638 37.421 28.0638 38.8494C28.0638 40.1108 27.3308 41.2036 26.0704 41.6651L27.4205 44.9457H25.5034L24.4239 41.8985H23.0972L22.5569 44.9476ZM26.2236 38.9773C26.2236 38.3603 25.8637 37.9875 25.2591 37.9875H23.7796L23.3678 40.368H24.8343C25.658 40.368 26.2236 39.7633 26.2236 38.9773Z" fill="white"/>
<path d="M30.2482 36.4565H35.7035L35.4081 38.0901H31.7281L31.406 39.865H34.9705L34.687 41.4995H31.1234L30.8018 43.3259H34.6226L34.3396 44.9485H28.7559L30.2482 36.4565Z" fill="white"/>
<path d="M37.4264 36.4565H42.8808L42.5854 38.0901H38.9054L38.5842 39.865H42.1477L41.8647 41.4995H38.3012L37.9795 43.3259H41.8008L41.5173 44.9485H35.9336L37.4264 36.4565Z" fill="white"/>
<path d="M44.6037 36.4565H46.3666L45.1577 43.3264H48.6955L48.4125 44.949H43.1113L44.6037 36.4565Z" fill="white"/>
<path d="M49.6328 44.5227L49.9153 42.8892C50.3926 43.1975 51.2922 43.4943 52.2576 43.4943C53.4536 43.4943 54.0454 43.1602 54.0454 42.5398C54.0454 41.8192 53.2994 41.665 52.6432 41.4594C51.4855 41.1119 50.4432 40.6614 50.4432 39.0145C50.4432 37.3918 51.5885 36.3257 53.9557 36.3257C55.049 36.3257 56.014 36.57 56.4516 36.8912L56.1681 38.5258C55.7439 38.2561 54.9206 37.9216 53.9814 37.9216C52.8618 37.9216 52.3216 38.3077 52.3216 38.8985C52.3216 39.6325 53.1577 39.7351 53.8526 39.967C54.9979 40.3526 55.9238 40.7783 55.9238 42.3723C55.9238 44.1219 54.6629 45.0749 52.27 45.0749C51.0865 45.0768 50.0957 44.8573 49.6328 44.5227Z" fill="white"/>
</g>
<defs>
<clipPath id="clip0_0_566">
<rect width="64" height="64" fill="white" transform="translate(0.998047 0.621094)"/>
</clipPath>
</defs>
</svg>
