<svg width="24" height="25" viewBox="0 0 24 25" fill="none" xmlns="http://www.w3.org/2000/svg">
<g clip-path="url(#clip0_0_728)">
<rect y="0.175781" width="24" height="24" rx="12" fill="black"/>
<rect width="24" height="24" transform="translate(0 0.175781)" fill="black"/>
<path d="M2.59024 6.57004L1.4436 13.0931H19.1085L20.2555 6.57004H2.59024ZM5.94123 11.7428H5.62847L3.88489 9.46048L3.48556 11.7428H2.71548L3.38718 7.92075H3.70574L5.44267 10.196L5.84199 7.92075H6.61788L5.94123 11.7428ZM9.49221 11.7428H6.85008L6.97897 11.0135H9.62109L9.49221 11.7428ZM9.70294 10.1908H7.12246L7.25134 9.45554H9.83547L9.70294 10.1908ZM9.97187 8.65646H7.39118L7.52007 7.92096H10.1051L9.97187 8.65646ZM13.5806 11.7428L13.0718 9.37456L11.7165 11.7435H11.2476L10.6915 7.92139H11.5722L11.7977 10.2722L13.0894 7.92139H13.5123L13.9868 10.2722L15.0357 7.92075H15.9504L14.0569 11.7428H13.5806ZM18.722 8.85301C18.5309 8.73143 18.1603 8.58063 17.7374 8.58063C17.2339 8.58063 16.9905 8.75463 16.9905 9.02077C16.9905 9.35093 17.3668 9.39711 17.6794 9.50172C18.1949 9.67507 18.6118 9.8669 18.6118 10.5844C18.6118 11.3716 18.0443 11.8006 16.9673 11.8006C16.4346 11.8006 15.9886 11.7018 15.7803 11.5512L15.9074 10.8161C16.1222 10.9549 16.5271 11.0883 16.9615 11.0883C17.4998 11.0883 17.7664 10.9379 17.7664 10.6587C17.7664 10.3347 17.4304 10.2651 17.1353 10.1726C16.6141 10.0162 16.145 9.81341 16.145 9.07211C16.145 8.34177 16.6605 7.86168 17.726 7.86168C18.2179 7.86168 18.6522 7.97187 18.8494 8.11643L18.722 8.85301Z" fill="#F73458"/>
<path d="M7.29953 17.7244H6.50732L7.17903 13.9026H8.59675C9.34385 13.9084 9.77819 14.3367 9.77819 14.9796C9.77819 15.5474 9.44825 16.0393 8.88094 16.247L9.48863 17.7236H8.62575L8.13986 16.352H7.54269L7.29953 17.7244ZM8.9499 15.0372C8.9499 14.7595 8.78793 14.5917 8.51577 14.5917H7.84987L7.66449 15.6631H8.32459C8.69535 15.6631 8.9499 15.391 8.9499 15.0372Z" fill="white"/>
<path d="M10.7611 13.9026H13.2165L13.0835 14.6379H11.4272L11.2822 15.4367H12.8866L12.759 16.1725H11.155L11.0102 16.9945H12.73L12.6026 17.7249H10.0894L10.7611 13.9026Z" fill="white"/>
<path d="M13.9941 13.9026H16.4491L16.3161 14.6379H14.6597L14.5152 15.4367H16.1191L15.9918 16.1725H14.3878L14.243 16.9945H15.963L15.8354 17.7249H13.3221L13.9941 13.9026Z" fill="white"/>
<path d="M17.2243 13.9026H18.0178L17.4737 16.9947H19.0661L18.9387 17.7251H16.5526L17.2243 13.9026Z" fill="white"/>
<path d="M19.4877 17.5329L19.6148 16.7976C19.8296 16.9364 20.2346 17.07 20.6691 17.07C21.2074 17.07 21.4738 16.9197 21.4738 16.6404C21.4738 16.316 21.138 16.2467 20.8427 16.1541C20.3216 15.9977 19.8524 15.7949 19.8524 15.0536C19.8524 14.3233 20.368 13.8434 21.4334 13.8434C21.9255 13.8434 22.3599 13.9534 22.5568 14.0979L22.4292 14.8337C22.2383 14.7123 21.8677 14.5617 21.445 14.5617C20.9411 14.5617 20.6979 14.7355 20.6979 15.0014C20.6979 15.3318 21.0742 15.378 21.387 15.4824C21.9025 15.6559 22.3193 15.8475 22.3193 16.565C22.3193 17.3525 21.7517 17.7815 20.6747 17.7815C20.142 17.7823 19.696 17.6835 19.4877 17.5329Z" fill="white"/>
</g>
<defs>
<clipPath id="clip0_0_728">
<rect y="0.175781" width="24" height="24" rx="12" fill="white"/>
</clipPath>
</defs>
</svg>
