<svg width="1024" height="1025" viewBox="0 0 1024 1025" fill="none" xmlns="http://www.w3.org/2000/svg">
<g clip-path="url(#clip0_0_1016)">
<rect width="1024" height="1024" transform="translate(0 0.175781)" fill="black"/>
<path d="M177.51 312.911L136.75 544.789H764.69L805.466 312.911H177.51ZM296.629 496.79H285.511L223.531 415.659L209.336 496.79H181.962L205.839 360.925H217.163L278.906 441.804L293.101 360.925H320.682L296.629 496.79ZM422.857 496.79H328.936L333.518 470.866H427.438L422.857 496.79ZM430.348 441.621H338.618L343.2 415.483H435.059L430.348 441.621ZM439.908 387.078H348.171L352.752 360.933H444.642L439.908 387.078ZM568.19 496.79L550.1 412.605L501.926 496.813H485.257L465.488 360.948H496.795L504.812 444.515L550.727 360.948H565.762L582.629 444.515L619.915 360.925H652.428L585.118 496.79H568.19ZM750.953 394.065C744.157 389.743 730.986 384.383 715.951 384.383C698.052 384.383 689.401 390.568 689.401 400.028C689.401 411.765 702.779 413.406 713.889 417.125C732.215 423.287 747.036 430.106 747.036 455.61C747.036 483.595 726.862 498.844 688.576 498.844C669.639 498.844 653.787 495.331 646.381 489.979L650.901 463.849C658.537 468.781 672.93 473.523 688.37 473.523C707.505 473.523 716.982 468.178 716.982 458.252C716.982 446.737 705.039 444.263 694.547 440.972C676.023 435.413 659.346 428.205 659.346 401.853C659.346 375.891 677.672 358.825 715.546 358.825C733.032 358.825 748.472 362.743 755.481 367.881L750.953 394.065Z" fill="#F73458"/>
<path d="M344.934 709.402H316.773L340.651 573.545H391.047C417.605 573.751 433.044 588.977 433.044 611.831C433.044 632.012 421.316 649.498 401.149 656.882L422.751 709.371H392.078L374.806 660.616H353.578L344.934 709.402ZM403.6 613.877C403.6 604.004 397.843 598.041 388.168 598.041H364.497L357.908 636.128H381.373C394.552 636.128 403.6 626.454 403.6 613.877Z" fill="white"/>
<path d="M467.998 573.545H555.283L550.557 599.682H491.677L486.523 628.08H543.555L539.019 654.233H482.002L476.856 683.455H537.988L533.46 709.417H444.121L467.998 573.545Z" fill="white"/>
<path d="M582.85 573.545H670.12L665.393 599.682H606.513L601.374 628.08H658.391L653.863 654.233H596.846L591.7 683.455H652.84L648.304 709.417H558.965L582.85 573.545Z" fill="white"/>
<path d="M697.674 573.545H725.881L706.539 683.463H763.144L758.616 709.424H673.797L697.674 573.545Z" fill="white"/>
<path d="M778.148 702.606L782.669 676.469C790.305 681.401 804.698 686.151 820.146 686.151C839.281 686.151 848.749 680.806 848.749 670.879C848.749 659.349 836.815 656.883 826.315 653.592C807.791 648.033 791.114 640.825 791.114 614.473C791.114 588.512 809.44 571.453 847.314 571.453C864.808 571.453 880.247 575.363 887.249 580.501L882.714 606.654C875.925 602.34 862.753 596.987 847.726 596.987C829.812 596.987 821.169 603.165 821.169 612.618C821.169 624.362 834.547 626.004 845.664 629.715C863.99 635.884 878.804 642.695 878.804 668.199C878.804 696.192 858.63 711.441 820.344 711.441C801.407 711.471 785.555 707.959 778.148 702.606Z" fill="white"/>
</g>
<defs>
<clipPath id="clip0_0_1016">
<rect width="1024" height="1024" fill="white" transform="translate(0 0.175781)"/>
</clipPath>
</defs>
</svg>
