<svg width="513" height="513" viewBox="0 0 513 513" fill="none" xmlns="http://www.w3.org/2000/svg">
<g clip-path="url(#clip0_0_134)">
<path d="M40.6739 213.079L25.5427 299.334H259.088L274.257 213.079H40.6739ZM84.9787 281.473H80.8351L57.8008 251.291L52.5222 281.473H42.3195L51.2184 230.936H55.4126L78.3962 261.021L83.6706 230.936H93.924L84.9787 281.473ZM131.929 281.473H97.0085L98.6963 271.827H133.617L131.929 281.473ZM134.727 260.966H100.616L102.329 251.236H136.507L134.727 260.966ZM138.288 240.675H104.173L105.861 230.944H140.039L138.288 240.675ZM186.006 281.473L179.28 250.152L161.356 281.473H155.153L147.807 230.936H159.449L162.402 262.017L179.479 230.936H185.078L191.361 262.017L205.205 230.936H217.315L192.293 281.473H186.006ZM253.999 243.244C250.052 240.913 245.555 239.673 240.97 239.654C234.328 239.654 231.096 241.953 231.096 245.481C231.096 249.818 236.075 250.443 240.206 251.81C247.025 254.097 252.544 256.624 252.544 266.11C252.544 276.528 245.037 282.203 230.784 282.203C223.733 282.203 217.838 280.899 215.096 278.908L216.783 269.177C219.606 271.021 224.978 272.785 230.708 272.785C237.826 272.785 241.349 270.777 241.349 267.106C241.349 262.827 236.91 261.916 232.991 260.688C226.104 258.616 219.91 255.924 219.91 246.126C219.91 236.497 226.733 230.13 240.822 230.13C247.316 230.13 253.059 231.582 255.658 233.506L253.999 243.244Z" fill="black"/>
<path d="M319.313 245.186C319.313 236.683 313.566 231.017 303.701 230.937H284.941L276.051 281.478H286.549L289.764 263.334H297.633L304.081 281.478H315.474L307.427 261.954C314.955 259.195 319.313 252.68 319.313 245.186ZM300.098 254.216H291.363L293.802 240.046H302.612C306.207 240.046 308.347 242.283 308.347 245.954C308.359 250.625 304.996 254.216 300.098 254.216Z" fill="#121212"/>
<path d="M363.019 240.666L364.778 230.94H332.318L323.432 281.473H356.66L358.352 271.832H335.605L337.516 260.958H358.728L360.42 251.232H339.208L341.124 240.666H363.019Z" fill="#121212"/>
<path d="M405.737 240.666L407.501 230.94H375.036L366.15 281.473H399.378L401.075 271.832H378.319L380.234 260.958H401.45L403.138 251.232H381.927L383.838 240.666H405.737Z" fill="#121212"/>
<path d="M421.037 271.832L428.236 230.94H417.759L408.868 281.473H440.405L442.097 271.832H421.037Z" fill="#121212"/>
<path d="M473.553 239.678C479.144 239.678 484.051 241.662 486.583 243.265L488.271 233.56C485.655 231.645 479.916 230.185 473.422 230.185C459.317 230.185 452.51 236.543 452.51 246.185C452.51 255.978 458.7 258.662 465.591 260.734C469.49 261.966 473.937 262.886 473.937 267.16C473.937 270.835 470.414 272.835 463.287 272.835C457.544 272.835 452.194 271.072 449.363 269.228L447.675 278.954C450.443 280.954 456.342 282.258 463.388 282.258C477.625 282.258 485.127 276.578 485.127 266.169C485.127 256.679 479.604 254.151 472.802 251.86C468.667 250.476 463.692 249.86 463.692 245.501C463.688 241.978 466.903 239.678 473.553 239.678Z" fill="#121212"/>
</g>
<defs>
<clipPath id="clip0_0_134">
<rect width="512" height="512" fill="white" transform="translate(0.906738 0.207031)"/>
</clipPath>
</defs>
</svg>
