<svg width="65" height="65" viewBox="0 0 65 65" fill="none" xmlns="http://www.w3.org/2000/svg">
<g clip-path="url(#clip0_0_548)">
<path d="M12.0924 19.7217L9.54492 34.214H48.7912L51.3396 19.7217H12.0924ZM19.5374 31.2141H18.8425L14.9687 26.1434L14.0816 31.2141H12.3707L13.863 22.7226H14.5707L18.4297 27.7775L19.3169 22.7226H21.0407L19.5374 31.2141ZM27.4266 31.2141H21.5566L21.8429 29.5939H27.7129L27.4266 31.2141ZM27.8948 27.766H22.1617L22.448 26.1324H28.1892L27.8948 27.766ZM28.4923 24.3571H22.7587L23.0451 22.723H28.7882L28.4923 24.3571ZM36.5099 31.2141L35.3793 25.9525L32.3684 31.2155H31.3266L30.091 22.724H32.0477L32.5488 27.9469L35.4185 22.724H36.3581L37.4124 27.9469L39.7427 22.7226H41.7748L37.5679 31.2141H36.5099ZM47.9326 24.7938C47.5079 24.5237 46.6847 24.1886 45.745 24.1886C44.6263 24.1886 44.0856 24.5752 44.0856 25.1665C44.0856 25.9 44.9217 26.0026 45.6161 26.235C46.7615 26.6202 47.6878 27.0464 47.6878 28.6403C47.6878 30.3894 46.4269 31.3425 44.0341 31.3425C42.8505 31.3425 41.8598 31.1229 41.3968 30.7884L41.6794 29.1553C42.1566 29.4636 43.0562 29.7599 44.0212 29.7599C45.2171 29.7599 45.8094 29.4259 45.8094 28.8055C45.8094 28.0858 45.063 27.9312 44.4073 27.7255C43.2495 27.378 42.2072 26.9275 42.2072 25.2806C42.2072 23.6579 43.3526 22.5913 45.7197 22.5913C46.8125 22.5913 47.7775 22.8361 48.2156 23.1573L47.9326 24.7938Z" fill="#F73458"/>
<path d="M22.5569 44.5023H20.7969L22.2892 36.0112H25.439C27.0988 36.0241 28.0638 36.9757 28.0638 38.4041C28.0638 39.6654 27.3308 40.7583 26.0704 41.2198L27.4205 44.5004H25.5034L24.4239 41.4532H23.0972L22.5569 44.5023ZM26.2236 38.532C26.2236 37.9149 25.8637 37.5422 25.2591 37.5422H23.7796L23.3678 39.9227H24.8343C25.658 39.9227 26.2236 39.318 26.2236 38.532Z" fill="black"/>
<path d="M30.2482 36.0112H35.7035L35.4081 37.6448H31.7281L31.406 39.4197H34.9705L34.687 41.0542H31.1234L30.8018 42.8806H34.6226L34.3396 44.5032H28.7559L30.2482 36.0112Z" fill="black"/>
<path d="M37.4264 36.0112H42.8808L42.5854 37.6448H38.9054L38.5842 39.4197H42.1477L41.8647 41.0542H38.3012L37.9795 42.8806H41.8008L41.5173 44.5032H35.9336L37.4264 36.0112Z" fill="black"/>
<path d="M44.6037 36.0112H46.3666L45.1577 42.8811H48.6955L48.4125 44.5037H43.1113L44.6037 36.0112Z" fill="black"/>
<path d="M49.6328 44.0774L49.9153 42.4438C50.3926 42.7521 51.2922 43.049 52.2576 43.049C53.4536 43.049 54.0454 42.7149 54.0454 42.0945C54.0454 41.3739 53.2994 41.2197 52.6432 41.014C51.4855 40.6666 50.4432 40.2161 50.4432 38.5691C50.4432 36.9465 51.5885 35.8804 53.9557 35.8804C55.049 35.8804 56.014 36.1247 56.4516 36.4459L56.1681 38.0804C55.7439 37.8108 54.9206 37.4763 53.9814 37.4763C52.8618 37.4763 52.3216 37.8623 52.3216 38.4532C52.3216 39.1872 53.1577 39.2898 53.8526 39.5217C54.9979 39.9073 55.9238 40.333 55.9238 41.927C55.9238 43.6766 54.6629 44.6296 52.27 44.6296C51.0865 44.6315 50.0957 44.412 49.6328 44.0774Z" fill="black"/>
</g>
<defs>
<clipPath id="clip0_0_548">
<rect width="64" height="64" fill="white" transform="translate(0.998047 0.175781)"/>
</clipPath>
</defs>
</svg>
