<svg width="257" height="257" viewBox="0 0 257 257" fill="none" xmlns="http://www.w3.org/2000/svg">
<g clip-path="url(#clip0_0_413)">
<path d="M45.3756 78.8594L35.1855 136.829H192.171L202.364 78.8594H45.3756ZM75.1553 124.829H72.3759L56.8809 104.546L53.3321 124.829H46.4885L52.4578 90.8629H55.2888L70.7246 111.083L74.2734 90.8629H81.1685L75.1553 124.829ZM106.712 124.829H83.2321L84.3775 118.348H107.858L106.712 124.829ZM108.585 111.037H85.6527L86.798 104.502H109.763L108.585 111.037ZM110.975 97.4011H88.0408L89.1861 90.8648H112.159L110.975 97.4011ZM143.045 124.829L138.523 103.783L126.48 124.835H122.312L117.37 90.8687H125.197L127.201 111.76L138.68 90.8687H142.438L146.655 111.76L155.977 90.8629H164.105L147.278 124.829H143.045ZM188.736 99.1478C187.037 98.0673 183.744 96.7272 179.986 96.7272C175.511 96.7272 173.348 98.2735 173.348 100.639C173.348 103.573 176.693 103.983 179.47 104.913C184.052 106.453 187.757 108.158 187.757 114.534C187.757 121.53 182.714 125.342 173.142 125.342C168.408 125.342 164.445 124.464 162.593 123.126L163.723 116.594C165.632 117.827 169.231 119.012 173.091 119.012C177.874 119.012 180.243 117.676 180.243 115.194C180.243 112.316 177.258 111.697 174.635 110.875C170.004 109.485 165.835 107.683 165.835 101.095C165.835 94.6045 170.416 90.338 179.885 90.338C184.256 90.338 188.116 91.3172 189.868 92.602L188.736 99.1478Z" fill="#F73458"/>
<path d="M87.2316 177.982H80.1914L86.1607 144.018H98.7598C105.399 144.07 109.259 147.876 109.259 153.59C109.259 158.635 106.327 163.006 101.285 164.852L106.686 177.975H99.0175L94.6995 165.786H89.3926L87.2316 177.982ZM101.898 154.101C101.898 151.633 100.459 150.142 98.0402 150.142H92.1224L90.475 159.664H96.3412C99.6361 159.664 101.898 157.245 101.898 154.101Z" fill="white"/>
<path d="M117.997 144.018H139.818L138.636 150.552H123.916L122.628 157.652H136.886L135.752 164.19H121.498L120.211 171.496H135.494L134.362 177.986H112.027L117.997 144.018Z" fill="white"/>
<path d="M146.711 144.018H168.529L167.347 150.552H152.627L151.343 157.652H165.597L164.465 164.19H150.211L148.924 171.496H164.209L163.075 177.986H140.74L146.711 144.018Z" fill="white"/>
<path d="M175.417 144.018H182.468L177.633 171.498H191.784L190.652 177.988H169.447L175.417 144.018Z" fill="white"/>
<path d="M195.535 176.283L196.665 169.749C198.574 170.982 202.173 172.17 206.034 172.17C210.818 172.17 213.185 170.833 213.185 168.352C213.185 165.469 210.202 164.853 207.577 164.03C202.946 162.64 198.777 160.838 198.777 154.25C198.777 147.76 203.358 143.495 212.827 143.495C217.2 143.495 221.06 144.472 222.81 145.757L221.676 152.295C219.979 151.217 216.686 149.879 212.93 149.879C208.451 149.879 206.29 151.423 206.29 153.786C206.29 156.722 209.635 157.133 212.414 158.06C216.996 159.603 220.699 161.306 220.699 167.682C220.699 174.68 215.656 178.492 206.084 178.492C201.35 178.5 197.387 177.622 195.535 176.283Z" fill="white"/>
</g>
<defs>
<clipPath id="clip0_0_413">
<rect width="256" height="256" fill="white" transform="translate(0.998047 0.675781)"/>
</clipPath>
</defs>
</svg>
