<svg width="1024" height="1025" viewBox="0 0 1024 1025" fill="none" xmlns="http://www.w3.org/2000/svg">
<g clip-path="url(#clip0_0_1025)">
<rect width="1024" height="1024" transform="translate(0 0.73584)" fill="black"/>
<path d="M177.51 313.471L136.75 545.349H764.69L805.466 313.471H177.51ZM296.629 497.35H285.511L223.531 416.219L209.336 497.35H181.962L205.839 361.485H217.163L278.906 442.364L293.101 361.485H320.682L296.629 497.35ZM422.857 497.35H328.936L333.518 471.426H427.438L422.857 497.35ZM430.348 442.181H338.618L343.2 416.043H435.059L430.348 442.181ZM439.908 387.638H348.171L352.752 361.493H444.642L439.908 387.638ZM568.19 497.35L550.1 413.165L501.926 497.373H485.257L465.488 361.508H496.795L504.812 445.075L550.727 361.508H565.762L582.629 445.075L619.915 361.485H652.428L585.118 497.35H568.19ZM750.953 394.625C744.157 390.303 730.986 384.943 715.951 384.943C698.052 384.943 689.401 391.128 689.401 400.588C689.401 412.325 702.779 413.966 713.889 417.685C732.215 423.847 747.036 430.666 747.036 456.17C747.036 484.155 726.862 499.404 688.576 499.404C669.639 499.404 653.787 495.891 646.381 490.539L650.901 464.409C658.537 469.342 672.93 474.083 688.37 474.083C707.505 474.083 716.982 468.738 716.982 458.812C716.982 447.297 705.039 444.823 694.547 441.532C676.023 435.973 659.346 428.765 659.346 402.413C659.346 376.452 677.672 359.386 715.546 359.386C733.032 359.386 748.472 363.303 755.481 368.442L750.953 394.625Z" fill="white"/>
<path d="M344.934 709.962H316.773L340.651 574.105H391.047C417.605 574.311 433.044 589.537 433.044 612.391C433.044 632.572 421.316 650.059 401.149 657.442L422.751 709.931H392.078L374.806 661.176H353.578L344.934 709.962ZM403.6 614.437C403.6 604.564 397.843 598.601 388.168 598.601H364.497L357.908 636.688H381.373C394.552 636.688 403.6 627.014 403.6 614.437Z" fill="white"/>
<path d="M467.998 574.105H555.283L550.557 600.242H491.677L486.523 628.64H543.555L539.019 654.793H482.002L476.856 684.015H537.988L533.46 709.977H444.121L467.998 574.105Z" fill="white"/>
<path d="M582.85 574.105H670.12L665.393 600.242H606.513L601.374 628.64H658.391L653.863 654.793H596.846L591.7 684.015H652.84L648.304 709.977H558.965L582.85 574.105Z" fill="white"/>
<path d="M697.674 574.105H725.881L706.539 684.023H763.144L758.616 709.985H673.797L697.674 574.105Z" fill="white"/>
<path d="M778.148 703.166L782.669 677.029C790.305 681.962 804.698 686.711 820.146 686.711C839.281 686.711 848.749 681.366 848.749 671.439C848.749 659.909 836.815 657.443 826.315 654.152C807.791 648.593 791.114 641.385 791.114 615.034C791.114 589.072 809.44 572.013 847.314 572.013C864.808 572.013 880.247 575.923 887.249 581.062L882.714 607.214C875.925 602.9 862.753 597.547 847.726 597.547C829.812 597.547 821.169 603.725 821.169 613.178C821.169 624.922 834.547 626.564 845.664 630.275C863.99 636.444 878.804 643.255 878.804 668.759C878.804 696.752 858.63 712.001 820.344 712.001C801.407 712.031 785.555 708.519 778.148 703.166Z" fill="white"/>
</g>
<defs>
<clipPath id="clip0_0_1025">
<rect width="1024" height="1024" fill="white" transform="translate(0 0.73584)"/>
</clipPath>
</defs>
</svg>
