<svg width="24" height="24" viewBox="0 0 24 24" fill="none" xmlns="http://www.w3.org/2000/svg">
<g clip-path="url(#clip0_0_665)">
<rect width="24" height="24" fill="white"/>
<path d="M4.16039 7.32959L3.20508 12.7642H17.9224L18.8781 7.32959H4.16039ZM6.95224 11.6392H6.69167L5.23901 9.73774L4.90632 11.6392H4.26473L4.82435 8.45492H5.08976L6.53687 10.3505L6.86956 8.45492H7.51598L6.95224 11.6392ZM9.91071 11.6392H7.70944L7.81682 11.0317H10.0181L9.91071 11.6392ZM10.0863 10.3462H7.93637L8.04375 9.73363H10.1967L10.0863 10.3462ZM10.3103 9.06788H8.16026L8.26763 8.4551H10.4213L10.3103 9.06788ZM13.3169 11.6392L12.893 9.66616L11.7639 11.6398H11.3732L10.9099 8.45546H11.6436L11.8315 10.414L12.9077 8.45546H13.26L13.6554 10.414L14.5293 8.45492H15.2913L13.7137 11.6392H13.3169ZM17.6005 9.23163C17.4412 9.13033 17.1325 9.0047 16.7801 9.0047C16.3606 9.0047 16.1578 9.14966 16.1578 9.3714C16.1578 9.64647 16.4714 9.68495 16.7318 9.7721C17.1613 9.91653 17.5087 10.0763 17.5087 10.6741C17.5087 11.33 17.0358 11.6874 16.1385 11.6874C15.6947 11.6874 15.3231 11.6051 15.1495 11.4796L15.2555 10.8672C15.4345 10.9828 15.7718 11.0939 16.1337 11.0939C16.5822 11.0939 16.8043 10.9687 16.8043 10.736C16.8043 10.4661 16.5244 10.4081 16.2785 10.331C15.8443 10.2007 15.4534 10.0318 15.4534 9.41417C15.4534 8.80569 15.8829 8.40571 16.7706 8.40571C17.1804 8.40571 17.5423 8.49751 17.7066 8.61796L17.6005 9.23163Z" fill="#F73458"/>
<path d="M8.08385 16.6226H7.42383L7.98345 13.4385H9.16462C9.78706 13.4433 10.1489 13.8002 10.1489 14.3358C10.1489 14.8088 9.87404 15.2186 9.40139 15.3917L9.90768 16.6219H9.18878L8.78396 15.4792H8.28644L8.08385 16.6226ZM9.45884 14.3838C9.45884 14.1524 9.3239 14.0126 9.09715 14.0126H8.54236L8.38791 14.9053H8.93787C9.24676 14.9053 9.45884 14.6785 9.45884 14.3838Z" fill="black"/>
<path d="M10.9678 13.4385H13.0136L12.9028 14.0511H11.5228L11.402 14.7166H12.7387L12.6324 15.3296H11.296L11.1754 16.0145H12.6082L12.5021 16.623H10.4082L10.9678 13.4385Z" fill="black"/>
<path d="M13.6614 13.4385H15.7068L15.596 14.0511H14.216L14.0955 14.7166H15.4319L15.3257 15.3296H13.9894L13.8688 16.0145H15.3018L15.1955 16.623H13.1016L13.6614 13.4385Z" fill="black"/>
<path d="M16.3526 13.4385H17.0137L16.5604 16.0147H17.887L17.7809 16.6232H15.793L16.3526 13.4385Z" fill="black"/>
<path d="M18.2383 16.4631L18.3442 15.8505C18.5232 15.9661 18.8605 16.0774 19.2226 16.0774C19.6711 16.0774 19.893 15.9521 19.893 15.7195C19.893 15.4492 19.6133 15.3914 19.3672 15.3143C18.933 15.184 18.5422 15.0151 18.5422 14.3974C18.5422 13.789 18.9717 13.3892 19.8593 13.3892C20.2694 13.3892 20.6312 13.4808 20.7953 13.6012L20.689 14.2142C20.5299 14.1131 20.2212 13.9876 19.869 13.9876C19.4492 13.9876 19.2466 14.1324 19.2466 14.354C19.2466 14.6292 19.5601 14.6677 19.8207 14.7547C20.2502 14.8993 20.5974 15.0589 20.5974 15.6566C20.5974 16.3127 20.1246 16.6701 19.2272 16.6701C18.7834 16.6708 18.4119 16.5885 18.2383 16.4631Z" fill="black"/>
</g>
<defs>
<clipPath id="clip0_0_665">
<rect width="24" height="24" fill="white"/>
</clipPath>
</defs>
</svg>
