<svg width="513" height="513" viewBox="0 0 513 513" fill="none" xmlns="http://www.w3.org/2000/svg">
<g clip-path="url(#clip0_0_71)">
<path d="M40.5596 213.374L25.4284 299.629H258.974L274.143 213.374H40.5596ZM84.8644 281.768H80.7209L57.6866 251.585L52.408 281.768H42.2052L51.1041 231.23H55.2983L78.282 261.316L83.5564 231.23H93.8098L84.8644 281.768ZM131.815 281.768H96.8942L98.582 272.122H133.503L131.815 281.768ZM134.612 261.261H100.502L102.215 251.531H136.393L134.612 261.261ZM138.174 240.969H104.059L105.747 231.239H139.925L138.174 240.969ZM185.892 281.768L179.166 250.446L161.242 281.768H155.039L147.693 231.23H159.335L162.288 262.311L179.365 231.23H184.964L191.247 262.311L205.091 231.23H217.201L192.179 281.768H185.892ZM253.885 243.539C249.937 241.207 245.44 239.968 240.855 239.948C234.214 239.948 230.982 242.248 230.982 245.775C230.982 250.113 235.961 250.737 240.092 252.104C246.91 254.391 252.429 256.919 252.429 266.404C252.429 276.822 244.923 282.498 230.67 282.498C223.619 282.498 217.724 281.194 214.981 279.202L216.669 269.472C219.492 271.316 224.863 273.08 230.594 273.08C237.712 273.08 241.235 271.071 241.235 267.4C241.235 263.122 236.796 262.21 232.876 260.982C225.99 258.91 219.796 256.218 219.796 246.421C219.796 236.792 226.619 230.425 240.708 230.425C247.202 230.425 252.944 231.876 255.544 233.8L253.885 243.539Z" fill="#F73458"/>
<path d="M319.199 245.48C319.199 236.978 313.452 231.311 303.587 231.231H284.827L275.936 281.772H286.435L289.65 263.628H297.519L303.967 281.772H315.359L307.313 262.249C314.84 259.489 319.199 252.974 319.199 245.48ZM299.983 254.51H291.249L293.688 240.341H302.498C306.093 240.341 308.233 242.577 308.233 246.248C308.245 250.919 304.882 254.51 299.983 254.51Z" fill="#121212"/>
<path d="M362.905 240.96L364.664 231.234H332.204L323.317 281.767H356.546L358.238 272.126H335.491L337.402 261.252H358.613L360.305 251.526H339.094L341.01 240.96H362.905Z" fill="#121212"/>
<path d="M405.623 240.96L407.387 231.234H374.922L366.036 281.767H399.264L400.96 272.126H378.205L380.12 261.252H401.336L403.024 251.526H381.812L383.724 240.96H405.623Z" fill="#121212"/>
<path d="M420.923 272.126L428.121 231.234H417.644L408.754 281.767H440.29L441.982 272.126H420.923Z" fill="#121212"/>
<path d="M473.439 239.973C479.03 239.973 483.937 241.957 486.469 243.56L488.157 233.855C485.54 231.939 479.802 230.479 473.308 230.479C459.202 230.479 452.396 236.838 452.396 246.48C452.396 256.273 458.586 258.957 465.477 261.029C469.376 262.261 473.823 263.181 473.823 267.455C473.823 271.13 470.3 273.13 463.173 273.13C457.43 273.13 452.08 271.367 449.248 269.523L447.561 279.249C450.329 281.249 456.228 282.552 463.274 282.552C477.511 282.552 485.013 276.873 485.013 266.463C485.013 256.974 479.49 254.446 472.688 252.155C468.553 250.771 463.578 250.155 463.578 245.796C463.574 242.273 466.789 239.973 473.439 239.973Z" fill="#121212"/>
</g>
<defs>
<clipPath id="clip0_0_71">
<rect width="512" height="512" fill="white" transform="translate(0.79248 0.500977)"/>
</clipPath>
</defs>
</svg>
