<svg width="257" height="257" viewBox="0 0 257 257" fill="none" xmlns="http://www.w3.org/2000/svg">
<g clip-path="url(#clip0_0_863)">
<rect width="256" height="256" transform="translate(0.727539 0.36084)" fill="black"/>
<path d="M44.4048 78.1276L34.1295 136.582H192.429L202.708 78.1276H44.4048ZM74.4338 124.482H71.6311L56.0064 104.03L52.4279 124.482H45.527L51.5463 90.2316H54.401L69.9661 110.621L73.5445 90.2316H80.4974L74.4338 124.482ZM106.255 124.482H82.5783L83.7332 117.947H107.41L106.255 124.482ZM108.143 110.574H85.0191L86.174 103.985H109.331L108.143 110.574ZM110.553 96.8245H87.4272L88.5821 90.2335H111.747L110.553 96.8245ZM142.892 124.482L138.332 103.26L126.188 124.488H121.986L117.002 90.2374H124.894L126.915 111.304L138.49 90.2374H142.28L146.532 111.304L155.932 90.2316H164.128L147.16 124.482H142.892ZM188.966 98.5858C187.253 97.4963 183.932 96.145 180.142 96.145C175.63 96.145 173.449 97.7042 173.449 100.089C173.449 103.048 176.821 103.462 179.622 104.399C184.242 105.953 187.978 107.672 187.978 114.101C187.978 121.156 182.893 125 173.241 125C168.467 125 164.471 124.114 162.604 122.765L163.743 116.178C165.668 117.421 169.297 118.617 173.189 118.617C178.013 118.617 180.402 117.269 180.402 114.767C180.402 111.864 177.391 111.24 174.746 110.411C170.076 109.009 165.872 107.192 165.872 100.549C165.872 94.0045 170.492 89.7022 180.04 89.7022C184.448 89.7022 188.34 90.6897 190.107 91.9852L188.966 98.5858Z" fill="white"/>
<path d="M86.6113 178.08H79.5121L85.5314 143.832H98.236C104.931 143.884 108.823 147.722 108.823 153.483C108.823 158.571 105.866 162.979 100.783 164.84L106.228 178.072H98.4959L94.1417 165.782H88.7904L86.6113 178.08ZM101.401 153.999C101.401 151.51 99.9492 150.007 97.5103 150.007H91.543L89.8818 159.608H95.7971C99.1196 159.608 101.401 157.169 101.401 153.999Z" fill="white"/>
<path d="M117.635 143.832H139.639L138.448 150.421H123.604L122.305 157.579H136.682L135.539 164.172H121.165L119.868 171.539H135.279L134.138 178.084H111.616L117.635 143.832Z" fill="white"/>
<path d="M146.589 143.832H168.589L167.397 150.421H152.554L151.258 157.579H165.632L164.49 164.172H150.117L148.82 171.539H164.233L163.089 178.084H140.567L146.589 143.832Z" fill="white"/>
<path d="M175.535 143.832H182.646L177.77 171.541H192.04L190.898 178.086H169.516L175.535 143.832Z" fill="white"/>
<path d="M195.822 176.367L196.962 169.778C198.887 171.021 202.515 172.219 206.409 172.219C211.233 172.219 213.62 170.871 213.62 168.369C213.62 165.462 210.611 164.84 207.965 164.011C203.295 162.609 199.091 160.792 199.091 154.149C199.091 147.604 203.711 143.304 213.258 143.304C217.668 143.304 221.561 144.29 223.326 145.585L222.182 152.178C220.471 151.09 217.15 149.741 213.362 149.741C208.846 149.741 206.667 151.298 206.667 153.681C206.667 156.642 210.04 157.056 212.842 157.991C217.462 159.547 221.197 161.264 221.197 167.693C221.197 174.75 216.111 178.594 206.459 178.594C201.686 178.602 197.689 177.716 195.822 176.367Z" fill="white"/>
</g>
<defs>
<clipPath id="clip0_0_863">
<rect x="0.727539" y="0.36084" width="256" height="256" rx="128" fill="white"/>
</clipPath>
</defs>
</svg>
