<svg width="128" height="128" viewBox="0 0 128 128" fill="none" xmlns="http://www.w3.org/2000/svg">
<g clip-path="url(#clip0_0_458)">
<rect width="128" height="128" fill="white"/>
<path d="M22.1888 39.0918L17.0938 68.0765H95.5863L100.683 39.0918H22.1888ZM37.0786 62.0766H35.6889L27.9414 51.9353L26.167 62.0766H22.7452L25.7299 45.0936H27.1454L34.8633 55.2034L36.6377 45.0936H40.0852L37.0786 62.0766ZM52.8571 62.0766H41.117L41.6897 58.8362H53.4298L52.8571 62.0766ZM53.7935 55.1805H42.3273L42.9 51.9133H54.3824L53.7935 55.1805ZM54.9885 48.3627H43.5214L44.094 45.0945H55.5802L54.9885 48.3627ZM71.0237 62.0766L68.7626 51.5535L62.7407 62.0795H60.6571L58.186 45.0964H62.0993L63.1015 55.5422L68.8408 45.0964H70.7202L72.8286 55.5422L77.4894 45.0936H81.5535L73.1398 62.0766H71.0237ZM93.8692 49.236C93.0197 48.6958 91.3732 48.0257 89.4938 48.0257C87.2565 48.0257 86.1751 48.7989 86.1751 49.9815C86.1751 51.4485 87.8474 51.6537 89.2361 52.1185C91.5269 52.8888 93.3795 53.7412 93.3795 56.9291C93.3795 60.4273 90.8578 62.3334 86.072 62.3334C83.7049 62.3334 81.7234 61.8943 80.7976 61.2252L81.3626 57.959C82.3171 58.5756 84.1163 59.1683 86.0463 59.1683C88.4382 59.1683 89.6227 58.5002 89.6227 57.2594C89.6227 55.82 88.1299 55.5107 86.8184 55.0994C84.5029 54.4045 82.4183 53.5035 82.4183 50.2096C82.4183 46.9643 84.709 44.8311 89.4433 44.8311C91.629 44.8311 93.559 45.3207 94.4352 45.9631L93.8692 49.236Z" fill="#F73458"/>
<path d="M43.1158 88.653H39.5957L42.5804 71.6709H48.8799C52.1996 71.6967 54.1296 73.5999 54.1296 76.4566C54.1296 78.9793 52.6635 81.1651 50.1427 82.0881L52.8429 88.6492H49.0088L46.8497 82.5548H44.1963L43.1158 88.653ZM50.4491 76.7125C50.4491 75.4783 49.7294 74.7329 48.5201 74.7329H45.5612L44.7375 79.4938H47.6706C49.318 79.4938 50.4491 78.2845 50.4491 76.7125Z" fill="black"/>
<path d="M58.5003 71.6709H69.4109L68.8201 74.9381H61.4601L60.8158 78.4878H67.9448L67.3779 81.7569H60.2508L59.6075 85.4097H67.249L66.683 88.6549H55.5156L58.5003 71.6709Z" fill="black"/>
<path d="M72.8567 71.6709H83.7654L83.1746 74.9381H75.8146L75.1723 78.4878H82.2994L81.7334 81.7569H74.6063L73.9629 85.4097H81.6055L81.0385 88.6549H69.8711L72.8567 71.6709Z" fill="black"/>
<path d="M87.2093 71.6709H90.7351L88.3174 85.4106H95.393L94.827 88.6558H84.2246L87.2093 71.6709Z" fill="black"/>
<path d="M97.2695 87.8038L97.8346 84.5366C98.7891 85.1532 100.588 85.7469 102.519 85.7469C104.911 85.7469 106.095 85.0788 106.095 83.8379C106.095 82.3967 104.603 82.0884 103.29 81.677C100.975 80.9821 98.8902 80.0811 98.8902 76.7872C98.8902 73.542 101.181 71.4097 105.915 71.4097C108.102 71.4097 110.032 71.8983 110.907 72.5407L110.34 75.8098C109.492 75.2705 107.845 74.6014 105.967 74.6014C103.728 74.6014 102.647 75.3736 102.647 76.5553C102.647 78.0232 104.319 78.2285 105.709 78.6923C108 79.4636 109.851 80.315 109.851 83.5029C109.851 87.002 107.33 88.9081 102.544 88.9081C100.177 88.912 98.1954 88.4729 97.2695 87.8038Z" fill="black"/>
</g>
<defs>
<clipPath id="clip0_0_458">
<rect width="128" height="128" fill="white"/>
</clipPath>
</defs>
</svg>
