<svg width="25" height="25" viewBox="0 0 25 25" fill="none" xmlns="http://www.w3.org/2000/svg">
<g clip-path="url(#clip0_0_989)">
<rect width="24" height="24" transform="translate(0.998047 0.328125)" fill="white"/>
<path d="M5.09283 7.61865L4.12952 13.0988H18.9701L19.9338 7.61865H5.09283ZM7.90805 11.9644H7.6453L6.18048 10.047L5.845 11.9644H5.19804L5.76235 8.75341H6.02997L7.4892 10.6649L7.82468 8.75341H8.47651L7.90805 11.9644ZM10.8913 11.9644H8.67159L8.77987 11.3517H10.9996L10.8913 11.9644ZM11.0683 10.6605H8.90042L9.0087 10.0428H11.1797L11.0683 10.6605ZM11.2943 9.37149H9.12618L9.23446 8.75359H11.4061L11.2943 9.37149ZM14.326 11.9644L13.8985 9.97478L12.76 11.9649H12.366L11.8988 8.75395H12.6387L12.8282 10.7289L13.9133 8.75395H14.2687L14.6673 10.7289L15.5485 8.75341H16.3169L14.7261 11.9644H14.326ZM18.6454 9.53661C18.4848 9.43447 18.1735 9.30779 17.8182 9.30779C17.3952 9.30779 17.1907 9.45396 17.1907 9.67756C17.1907 9.95493 17.5069 9.99373 17.7695 10.0816C18.2026 10.2272 18.5528 10.3884 18.5528 10.9911C18.5528 11.6525 18.0761 12.0129 17.1712 12.0129C16.7237 12.0129 16.349 11.9299 16.174 11.8034L16.2808 11.1859C16.4613 11.3024 16.8015 11.4145 17.1664 11.4145C17.6186 11.4145 17.8425 11.2882 17.8425 11.0536C17.8425 10.7815 17.5603 10.723 17.3123 10.6452C16.8745 10.5138 16.4804 10.3435 16.4804 9.72069C16.4804 9.10711 16.9135 8.70378 17.8086 8.70378C18.2219 8.70378 18.5868 8.79635 18.7524 8.91781L18.6454 9.53661Z" fill="black"/>
<path d="M9.0497 16.9891H8.38416L8.94846 13.7783H10.1395C10.7672 13.7832 11.1321 14.143 11.1321 14.6832C11.1321 15.1601 10.8549 15.5734 10.3783 15.7479L10.8888 16.9884H10.1639L9.75567 15.8361H9.25399L9.0497 16.9891ZM10.4362 14.7315C10.4362 14.4982 10.3001 14.3572 10.0715 14.3572H9.51205L9.35631 15.2574H9.91087C10.2224 15.2574 10.4362 15.0288 10.4362 14.7315Z" fill="black"/>
<path d="M11.9582 13.7783H14.0211L13.9094 14.396H12.5178L12.396 15.0672H13.7439L13.6367 15.6853H12.2892L12.1676 16.3759H13.6124L13.5053 16.9895H11.3939L11.9582 13.7783Z" fill="black"/>
<path d="M14.6725 13.7783H16.735L16.6233 14.396H15.2318L15.1103 15.0672H16.4578L16.3508 15.6853H15.0033L14.8817 16.3759H16.3266L16.2194 16.9895H14.108L14.6725 13.7783Z" fill="black"/>
<path d="M17.3863 13.7783H18.053L17.5958 16.3761H18.9336L18.8266 16.9897H16.822L17.3863 13.7783Z" fill="black"/>
<path d="M19.2882 16.8286L19.395 16.2109C19.5755 16.3275 19.9157 16.4397 20.2808 16.4397C20.733 16.4397 20.9568 16.3134 20.9568 16.0788C20.9568 15.8063 20.6747 15.748 20.4266 15.6702C19.9888 15.5389 19.5946 15.3685 19.5946 14.7457C19.5946 14.1322 20.0277 13.729 20.9228 13.729C21.3363 13.729 21.7012 13.8214 21.8667 13.9429L21.7595 14.5609C21.599 14.459 21.2877 14.3325 20.9326 14.3325C20.5092 14.3325 20.3049 14.4785 20.3049 14.7019C20.3049 14.9794 20.6211 15.0182 20.8839 15.1059C21.317 15.2518 21.6671 15.4127 21.6671 16.0155C21.6671 16.677 21.1903 17.0374 20.2854 17.0374C19.8379 17.0382 19.4633 16.9551 19.2882 16.8286Z" fill="black"/>
</g>
<defs>
<clipPath id="clip0_0_989">
<rect x="0.998047" y="0.328125" width="24" height="24" rx="12" fill="white"/>
</clipPath>
</defs>
</svg>
