<svg width="1025" height="1025" viewBox="0 0 1025 1025" fill="none" xmlns="http://www.w3.org/2000/svg">
<g clip-path="url(#clip0_0_44)">
<path d="M178.508 313.356L137.748 545.234H765.688L806.464 313.356H178.508ZM297.627 497.235H286.509L224.529 416.104L210.334 497.235H182.96L206.837 361.371H218.161L279.904 442.249L294.099 361.371H321.68L297.627 497.235ZM423.855 497.235H329.934L334.516 471.311H428.436L423.855 497.235ZM431.346 442.066H339.617L344.198 415.929H436.057L431.346 442.066ZM440.906 387.523H349.169L353.75 361.378H445.64L440.906 387.523ZM569.188 497.235L551.099 413.05L502.924 497.258H486.255L466.486 361.394H497.793L505.81 444.96L551.725 361.394H566.76L583.627 444.96L620.913 361.371H653.426L586.116 497.235H569.188ZM751.951 394.51C745.156 390.188 731.984 384.828 716.949 384.828C699.05 384.828 690.399 391.013 690.399 400.474C690.399 412.21 703.777 413.852 714.887 417.57C733.213 423.732 748.034 430.551 748.034 456.055C748.034 484.04 727.86 499.289 689.574 499.289C670.637 499.289 654.785 495.777 647.379 490.424L651.899 464.294C659.535 469.227 673.929 473.969 689.368 473.969C708.504 473.969 717.98 468.624 717.98 458.697C717.98 447.182 706.037 444.708 695.546 441.417C677.021 435.858 660.344 428.65 660.344 402.299C660.344 376.337 678.67 359.271 716.544 359.271C734.03 359.271 749.47 363.188 756.479 368.327L751.951 394.51Z" fill="white"/>
<path d="M345.932 709.847H317.771L341.649 573.99H392.045C418.603 574.196 434.042 589.422 434.042 612.276C434.042 632.458 422.314 649.944 402.147 657.328L423.749 709.816H393.076L375.804 661.062H354.576L345.932 709.847ZM404.599 614.323C404.599 604.45 398.841 598.486 389.167 598.486H365.495L358.906 636.573H382.371C395.55 636.573 404.599 626.899 404.599 614.323Z" fill="white"/>
<path d="M468.996 573.99H556.282L551.555 600.128H492.675L487.521 628.525H544.553L540.017 654.678H483L477.854 683.9H538.986L534.458 709.862H445.119L468.996 573.99Z" fill="white"/>
<path d="M583.848 573.99H671.118L666.391 600.128H607.511L602.372 628.525H659.389L654.861 654.678H597.844L592.698 683.9H653.838L649.302 709.862H559.963L583.848 573.99Z" fill="white"/>
<path d="M698.672 573.99H726.879L707.537 683.908H764.142L759.614 709.87H674.795L698.672 573.99Z" fill="white"/>
<path d="M779.146 703.051L783.667 676.914C791.303 681.847 805.696 686.596 821.144 686.596C840.279 686.596 849.747 681.251 849.747 671.325C849.747 659.794 837.813 657.328 827.313 654.037C808.789 648.478 792.112 641.27 792.112 614.919C792.112 588.957 810.438 571.898 848.312 571.898C865.806 571.898 881.245 575.808 888.247 580.947L883.712 607.1C876.923 602.785 863.751 597.433 848.724 597.433C830.811 597.433 822.167 603.61 822.167 613.063C822.167 624.807 835.545 626.449 846.663 630.16C864.989 636.33 879.802 643.141 879.802 668.644C879.802 696.637 859.628 711.886 821.342 711.886C802.405 711.917 786.553 708.404 779.146 703.051Z" fill="white"/>
</g>
<defs>
<clipPath id="clip0_0_44">
<rect width="1024" height="1024" fill="white" transform="translate(0.998047 0.621094)"/>
</clipPath>
</defs>
</svg>
