<svg width="65" height="65" viewBox="0 0 65 65" fill="none" xmlns="http://www.w3.org/2000/svg">
<g clip-path="url(#clip0_0_926)">
<rect width="64" height="64" transform="translate(0.727539 0.175781)" fill="black"/>
<path d="M11.6468 19.6174L9.078 34.2311H48.6528L51.2226 19.6174H11.6468ZM19.1541 31.2061H18.4534L14.5472 26.0929L13.6526 31.2061H11.9274L13.4322 22.6434H14.1459L18.0372 27.7407L18.9318 22.6434H20.67L19.1541 31.2061ZM27.1094 31.2061H21.1902L21.4789 29.5723H27.3981L27.1094 31.2061ZM27.5815 27.7291H21.8004L22.0892 26.0819H27.8784L27.5815 27.7291ZM28.184 24.2917H22.4024L22.6912 22.6439H28.4824L28.184 24.2917ZM36.2687 31.2061L35.1287 25.9004L32.0926 31.2075H31.042L29.7961 22.6449H31.7692L32.2745 27.9115L35.1682 22.6449H36.1157L37.1788 27.9115L39.5286 22.6434H41.5777L37.3356 31.2061H36.2687ZM47.7871 24.732C47.3588 24.4596 46.5287 24.1218 45.5811 24.1218C44.4531 24.1218 43.9079 24.5116 43.9079 25.1078C43.9079 25.8475 44.751 25.951 45.4512 26.1853C46.6061 26.5737 47.5402 27.0034 47.5402 28.6108C47.5402 30.3745 46.2688 31.3355 43.8559 31.3355C42.6624 31.3355 41.6634 31.1141 41.1966 30.7768L41.4815 29.13C41.9627 29.4409 42.8698 29.7397 43.8429 29.7397C45.0489 29.7397 45.6461 29.4029 45.6461 28.7773C45.6461 28.0516 44.8934 27.8956 44.2322 27.6882C43.0647 27.3379 42.0137 26.8836 42.0137 25.2229C42.0137 23.5867 43.1687 22.5111 45.5556 22.5111C46.6576 22.5111 47.6307 22.758 48.0725 23.0818L47.7871 24.732Z" fill="#F73458"/>
<path d="M22.1985 44.6056H20.4237L21.9285 36.0435H25.1047C26.7784 36.0565 27.7515 37.016 27.7515 38.4564C27.7515 39.7283 27.0123 40.8303 25.7414 41.2956L27.1028 44.6037H25.1696L24.0811 41.531H22.7433L22.1985 44.6056ZM25.8958 38.5853C25.8958 37.9631 25.533 37.5873 24.9233 37.5873H23.4314L23.0161 39.9877H24.495C25.3256 39.9877 25.8958 39.3779 25.8958 38.5853Z" fill="white"/>
<path d="M29.9544 36.0435H35.4554L35.1575 37.6907H31.4467L31.1219 39.4804H34.7162L34.4304 41.1287H30.837L30.5126 42.9703H34.3654L34.08 44.6065H28.4496L29.9544 36.0435Z" fill="white"/>
<path d="M37.1928 36.0435H42.6928L42.395 37.6907H38.6842L38.3603 39.4804H41.9537L41.6683 41.1287H38.0749L37.7506 42.9703H41.6038L41.3179 44.6065H35.6875L37.1928 36.0435Z" fill="white"/>
<path d="M44.4294 36.0435H46.2071L44.9881 42.9708H48.5555L48.2701 44.607H42.9246L44.4294 36.0435Z" fill="white"/>
<path d="M49.5012 44.1773L49.7861 42.53C50.2673 42.8409 51.1745 43.1402 52.148 43.1402C53.354 43.1402 53.9507 42.8034 53.9507 42.1778C53.9507 41.4511 53.1986 41.2957 52.5369 41.0883C51.3694 40.7379 50.3184 40.2836 50.3184 38.6229C50.3184 36.9867 51.4733 35.9116 53.8602 35.9116C54.9628 35.9116 55.9358 36.158 56.3771 36.4819L56.0913 38.1301C55.6634 37.8582 54.8333 37.5209 53.8862 37.5209C52.7573 37.5209 52.2125 37.9102 52.2125 38.506C52.2125 39.2461 53.0556 39.3496 53.7563 39.5834C54.9113 39.9723 55.8449 40.4015 55.8449 42.0089C55.8449 43.7731 54.5734 44.7341 52.1605 44.7341C50.9671 44.736 49.968 44.5147 49.5012 44.1773Z" fill="white"/>
</g>
<defs>
<clipPath id="clip0_0_926">
<rect x="0.727539" y="0.175781" width="64" height="64" rx="32" fill="white"/>
</clipPath>
</defs>
</svg>
