<svg width="33" height="33" viewBox="0 0 33 33" fill="none" xmlns="http://www.w3.org/2000/svg">
<g clip-path="url(#clip0_0_944)">
<rect width="32" height="32" transform="translate(0.998047 0.0620117)" fill="white"/>
<path d="M6.45776 9.78271L5.17334 17.0895H24.9608L26.2457 9.78271H6.45776ZM10.2114 15.577H9.86105L7.90796 13.0205L7.46065 15.577H6.59804L7.35045 11.2957H7.70728L9.65292 13.8443L10.1002 11.2957H10.9693L10.2114 15.577ZM14.189 15.577H11.2294L11.3738 14.7601H14.3334L14.189 15.577ZM14.4251 13.8386H11.5345L11.6789 13.0149H14.5735L14.4251 13.8386ZM14.7263 12.1198H11.8356L11.9799 11.296H14.8755L14.7263 12.1198ZM18.7687 15.577L18.1987 12.9242L16.6806 15.5777H16.1554L15.5324 11.2964H16.5189L16.7716 13.9298L18.2184 11.2964H18.6922L19.2237 13.9298L20.3987 11.2957H21.4232L19.3022 15.577H18.7687ZM24.5279 12.34C24.3137 12.2038 23.8987 12.0349 23.4249 12.0349C22.8609 12.0349 22.5883 12.2298 22.5883 12.5279C22.5883 12.8978 23.0098 12.9495 23.3599 13.0667C23.9374 13.2608 24.4044 13.4757 24.4044 14.2794C24.4044 15.1612 23.7687 15.6417 22.5623 15.6417C21.9655 15.6417 21.466 15.5311 21.2326 15.3624L21.3751 14.539C21.6157 14.6944 22.0693 14.8439 22.5558 14.8439C23.1588 14.8439 23.4574 14.6754 23.4574 14.3626C23.4574 13.9998 23.0811 13.9218 22.7504 13.8181C22.1667 13.6429 21.6412 13.4158 21.6412 12.5854C21.6412 11.7673 22.2187 11.2296 23.4121 11.2296C23.9632 11.2296 24.4497 11.353 24.6706 11.5149L24.5279 12.34Z" fill="#F73458"/>
<path d="M11.7336 22.2767H10.8462L11.5986 17.9956H13.1867C14.0235 18.0021 14.5101 18.4819 14.5101 19.2021C14.5101 19.838 14.1405 20.389 13.505 20.6217L14.1857 22.2757H13.2192L12.6749 20.7394H12.006L11.7336 22.2767ZM13.5823 19.2665C13.5823 18.9554 13.4008 18.7675 13.096 18.7675H12.3501L12.1424 19.9677H12.8818C13.2971 19.9677 13.5823 19.6628 13.5823 19.2665Z" fill="black"/>
<path d="M15.6115 17.9956H18.362L18.2131 18.8192H16.3577L16.1953 19.7141H17.9925L17.8495 20.5382H16.0528L15.8907 21.4591H17.817L17.6744 22.2772H14.8591L15.6115 17.9956Z" fill="black"/>
<path d="M19.2307 17.9956H21.9807L21.8318 18.8192H19.9764L19.8144 19.7141H21.6111L21.4684 20.5382H19.6717L19.5096 21.4591H21.4362L21.2933 22.2772H18.478L19.2307 17.9956Z" fill="black"/>
<path d="M22.8491 17.9956H23.7379L23.1284 21.4593H24.9121L24.7695 22.2774H22.0967L22.8491 17.9956Z" fill="black"/>
<path d="M25.3849 22.0625L25.5273 21.2389C25.768 21.3943 26.2215 21.544 26.7083 21.544C27.3113 21.544 27.6096 21.3756 27.6096 21.0628C27.6096 20.6994 27.2336 20.6217 26.9027 20.518C26.319 20.3428 25.7935 20.1157 25.7935 19.2853C25.7935 18.4672 26.3709 17.9297 27.5644 17.9297C28.1157 17.9297 28.6022 18.0529 28.8228 18.2148L28.6799 19.0389C28.466 18.903 28.0509 18.7343 27.5774 18.7343C27.0129 18.7343 26.7405 18.929 26.7405 19.2269C26.7405 19.5969 27.1621 19.6487 27.5124 19.7656C28.0899 19.96 28.5567 20.1746 28.5567 20.9783C28.5567 21.8604 27.921 22.3409 26.7145 22.3409C26.1178 22.3419 25.6183 22.2312 25.3849 22.0625Z" fill="black"/>
</g>
<defs>
<clipPath id="clip0_0_944">
<rect x="0.998047" y="0.0620117" width="32" height="32" rx="16" fill="white"/>
</clipPath>
</defs>
</svg>
