<svg width="513" height="513" viewBox="0 0 513 513" fill="none" xmlns="http://www.w3.org/2000/svg">
<g clip-path="url(#clip0_0_818)">
<rect width="512" height="512" transform="translate(0.727539 0.175781)" fill="black"/>
<path d="M88.082 155.709L67.5313 272.619H384.13L404.688 155.709H88.082ZM148.14 248.418H142.535L111.285 207.513L104.128 248.418H90.3265L102.365 179.917H108.074L139.205 220.695L146.361 179.917H160.267L148.14 248.418ZM211.782 248.418H164.429L166.739 235.348H214.092L211.782 248.418ZM215.559 220.603H169.311L171.621 207.425H217.935L215.559 220.603ZM220.379 193.103H174.127L176.437 179.921H222.766L220.379 193.103ZM285.057 248.418L275.937 205.973L251.648 248.43H243.244L233.276 179.929H249.061L253.103 222.062L276.253 179.929H283.833L292.337 222.062L311.136 179.917H327.529L293.592 248.418H285.057ZM377.204 196.626C373.778 194.447 367.137 191.744 359.556 191.744C350.532 191.744 346.17 194.863 346.17 199.633C346.17 205.55 352.915 206.377 358.517 208.252C367.756 211.359 375.229 214.797 375.229 227.656C375.229 241.766 365.058 249.454 345.754 249.454C336.207 249.454 328.214 247.683 324.48 244.984L326.759 231.81C330.609 234.297 337.866 236.688 345.65 236.688C355.298 236.688 360.076 233.993 360.076 228.988C360.076 223.182 354.055 221.935 348.765 220.276C339.425 217.473 331.017 213.839 331.017 200.553C331.017 187.463 340.257 178.859 359.352 178.859C368.168 178.859 375.953 180.834 379.487 183.425L377.204 196.626Z" fill="#F73458"/>
<path d="M172.495 355.614H158.297L170.335 287.117H195.745C209.134 287.221 216.919 294.898 216.919 306.42C216.919 316.596 211.005 325.412 200.838 329.135L211.729 355.599H196.264L187.556 331.017H176.853L172.495 355.614ZM202.074 307.452C202.074 302.474 199.171 299.468 194.293 299.468H182.358L179.036 318.671H190.867C197.512 318.671 202.074 313.793 202.074 307.452Z" fill="white"/>
<path d="M234.543 287.117H278.551L276.167 300.295H246.481L243.882 314.613H272.637L270.35 327.799H241.603L239.008 342.532H269.831L267.548 355.622H222.504L234.543 287.117Z" fill="white"/>
<path d="M292.45 287.117H336.45L334.067 300.295H304.38L301.789 314.613H330.536L328.253 327.799H299.506L296.912 342.532H327.738L325.451 355.622H280.407L292.45 287.117Z" fill="white"/>
<path d="M350.343 287.117H364.564L354.812 342.536H383.352L381.069 355.626H338.304L350.343 287.117Z" fill="white"/>
<path d="M390.917 352.188L393.196 339.01C397.046 341.497 404.303 343.891 412.091 343.891C421.739 343.891 426.513 341.196 426.513 336.192C426.513 330.378 420.495 329.135 415.202 327.475C405.862 324.673 397.454 321.038 397.454 307.753C397.454 294.663 406.693 286.062 425.789 286.062C434.609 286.062 442.393 288.033 445.924 290.624L443.637 303.81C440.214 301.635 433.573 298.936 425.997 298.936C416.965 298.936 412.607 302.051 412.607 306.817C412.607 312.738 419.352 313.566 424.957 315.437C434.197 318.548 441.666 321.982 441.666 334.84C441.666 348.954 431.494 356.642 412.191 356.642C402.643 356.658 394.651 354.887 390.917 352.188Z" fill="white"/>
</g>
<defs>
<clipPath id="clip0_0_818">
<rect x="0.727539" y="0.175781" width="512" height="512" rx="256" fill="white"/>
</clipPath>
</defs>
</svg>
