<svg width="25" height="25" viewBox="0 0 25 25" fill="none" xmlns="http://www.w3.org/2000/svg">
<g clip-path="url(#clip0_0_674)">
<path d="M5.15844 7.50537L4.20312 12.94H18.9205L19.8761 7.50537H5.15844ZM7.95029 11.815H7.68972L6.23706 9.91352L5.90436 11.815H5.26278L5.8224 8.6307H6.0878L7.53491 10.5263L7.86761 8.6307H8.51403L7.95029 11.815ZM10.9088 11.815H8.70749L8.81487 11.2074H11.0161L10.9088 11.815ZM11.0843 10.522H8.93442L9.0418 9.90941H11.1947L11.0843 10.522ZM11.3084 9.24366H9.1583L9.26568 8.63088H11.4193L11.3084 9.24366ZM14.315 11.815L13.891 9.84194L12.7619 11.8156H12.3713L11.9079 8.63124H12.6417L12.8296 10.5898L13.9057 8.63124H14.2581L14.6534 10.5898L15.5273 8.6307H16.2893L14.7118 11.815H14.315ZM18.5985 9.40741C18.4392 9.30612 18.1305 9.18048 17.7781 9.18048C17.3586 9.18048 17.1559 9.32544 17.1559 9.54718C17.1559 9.82225 17.4694 9.86073 17.7298 9.94788C18.1593 10.0923 18.5067 10.2521 18.5067 10.8499C18.5067 11.5058 18.0339 11.8632 17.1366 11.8632C16.6927 11.8632 16.3212 11.7808 16.1476 11.6554L16.2535 11.043C16.4325 11.1586 16.7699 11.2697 17.1317 11.2697C17.5802 11.2697 17.8023 11.1444 17.8023 10.9118C17.8023 10.6419 17.5224 10.5839 17.2765 10.5068C16.8423 10.3765 16.4515 10.2076 16.4515 9.58995C16.4515 8.98147 16.881 8.58149 17.7687 8.58149C18.1785 8.58149 18.5404 8.6733 18.7046 8.79374L18.5985 9.40741Z" fill="#F73458"/>
<path d="M9.0819 16.7984H8.42188L8.9815 13.6143H10.1627C10.7851 13.6191 11.147 13.9759 11.147 14.5116C11.147 14.9846 10.8721 15.3944 10.3994 15.5675L10.9057 16.7977H10.1868L9.78201 15.655H9.28449L9.0819 16.7984ZM10.4569 14.5596C10.4569 14.3281 10.3219 14.1884 10.0952 14.1884H9.5404L9.38596 15.0811H9.93592C10.2448 15.0811 10.4569 14.8543 10.4569 14.5596Z" fill="black"/>
<path d="M11.9659 13.6143H14.0116L13.9008 14.2269H12.5208L12.4 14.8924H13.7367L13.6304 15.5054H12.2941L12.1735 16.1903H13.6063L13.5001 16.7988H11.4062L11.9659 13.6143Z" fill="black"/>
<path d="M14.6594 13.6143H16.7048L16.594 14.2269H15.214L15.0936 14.8924H16.4299L16.3238 15.5054H14.9875L14.8668 16.1903H16.2998L16.1935 16.7988H14.0996L14.6594 13.6143Z" fill="black"/>
<path d="M17.3506 13.6143H18.0117L17.5584 16.1905H18.8851L18.779 16.7989H16.791L17.3506 13.6143Z" fill="black"/>
<path d="M19.2363 16.6388L19.3423 16.0262C19.5212 16.1419 19.8586 16.2532 20.2206 16.2532C20.6691 16.2532 20.891 16.1279 20.891 15.8952C20.891 15.625 20.6113 15.5672 20.3652 15.4901C19.9311 15.3598 19.5402 15.1908 19.5402 14.5732C19.5402 13.9648 19.9697 13.5649 20.8574 13.5649C21.2674 13.5649 21.6293 13.6566 21.7934 13.777L21.6871 14.39C21.528 14.2889 21.2193 14.1634 20.8671 14.1634C20.4472 14.1634 20.2446 14.3082 20.2446 14.5297C20.2446 14.805 20.5582 14.8435 20.8187 14.9304C21.2483 15.075 21.5954 15.2347 21.5954 15.8324C21.5954 16.4885 21.1226 16.8459 20.2253 16.8459C19.7815 16.8466 19.4099 16.7643 19.2363 16.6388Z" fill="black"/>
</g>
<defs>
<clipPath id="clip0_0_674">
<rect width="24" height="24" fill="white" transform="translate(0.998047 0.175781)"/>
</clipPath>
</defs>
</svg>
