<svg width="1025" height="1025" viewBox="0 0 1025 1025" fill="none" xmlns="http://www.w3.org/2000/svg">
<g clip-path="url(#clip0_0_782)">
<rect width="1024" height="1024" transform="translate(0.727539 0.175781)" fill="black"/>
<path d="M175.437 311.243L134.335 545.061H767.533L808.649 311.243H175.437ZM295.553 496.661H284.342L221.843 414.851L207.529 496.661H179.925L204.003 359.659H215.421L277.682 441.215L291.995 359.659H319.807L295.553 496.661ZM422.837 496.661H328.13L332.75 470.52H427.457L422.837 496.661ZM430.391 441.03H337.894L342.514 414.674H435.142L430.391 441.03ZM440.031 386.031H347.526L352.146 359.667H444.805L440.031 386.031ZM569.387 496.661L551.146 411.771L502.568 496.684H485.76L465.825 359.682H497.394L505.479 443.948L551.778 359.682H566.938L583.947 443.948L621.545 359.659H654.331L586.457 496.661H569.387ZM753.681 393.076C746.828 388.718 733.546 383.312 718.385 383.312C700.337 383.312 691.613 389.549 691.613 399.089C691.613 410.924 705.103 412.579 716.306 416.329C734.785 422.543 749.731 429.419 749.731 455.136C749.731 483.355 729.388 498.732 690.781 498.732C671.686 498.732 655.701 495.19 648.232 489.792L652.791 463.444C660.491 468.418 675.005 473.199 690.573 473.199C709.869 473.199 719.424 467.81 719.424 457.8C719.424 446.189 707.382 443.694 696.803 440.375C678.123 434.77 661.307 427.501 661.307 400.929C661.307 374.75 679.786 357.541 717.977 357.541C735.609 357.541 751.178 361.491 758.247 366.673L753.681 393.076Z" fill="#F73458"/>
<path d="M344.263 711.053H315.866L339.943 574.059H390.762C417.541 574.266 433.11 589.62 433.11 612.665C433.11 633.016 421.283 650.648 400.948 658.094L422.731 711.022H391.801L374.384 661.859H352.979L344.263 711.053ZM403.42 614.729C403.42 604.773 397.614 598.759 387.859 598.759H363.99L357.345 637.166H381.006C394.296 637.166 403.42 627.41 403.42 614.729Z" fill="white"/>
<path d="M468.358 574.059H556.374L551.607 600.415H492.235L487.037 629.05H544.547L539.973 655.422H482.479L477.289 684.889H538.934L534.368 711.068H444.281L468.358 574.059Z" fill="white"/>
<path d="M584.172 574.059H672.172L667.406 600.415H608.033L602.851 629.05H660.345L655.779 655.422H598.285L593.096 684.889H654.748L650.174 711.068H560.087L584.172 574.059Z" fill="white"/>
<path d="M699.958 574.059H728.401L708.897 684.897H765.976L761.41 711.076H675.881L699.958 574.059Z" fill="white"/>
<path d="M781.106 704.2L785.664 677.844C793.364 682.818 807.878 687.607 823.455 687.607C842.75 687.607 852.298 682.217 852.298 672.207C852.298 660.581 840.263 658.094 829.676 654.775C810.996 649.17 794.18 641.901 794.18 615.329C794.18 589.15 812.66 571.949 850.85 571.949C868.49 571.949 884.059 575.891 891.12 581.073L886.546 607.445C879.701 603.094 866.419 597.697 851.266 597.697C833.202 597.697 824.486 603.926 824.486 613.458C824.486 625.3 837.976 626.956 849.187 630.698C867.667 636.919 882.604 643.788 882.604 669.505C882.604 697.732 862.261 713.109 823.655 713.109C804.559 713.139 788.575 709.597 781.106 704.2Z" fill="white"/>
</g>
<defs>
<clipPath id="clip0_0_782">
<rect x="0.727539" y="0.175781" width="1024" height="1024" rx="512" fill="white"/>
</clipPath>
</defs>
</svg>
