<svg width="513" height="513" viewBox="0 0 513 513" fill="none" xmlns="http://www.w3.org/2000/svg">
<g clip-path="url(#clip0_0_827)">
<rect width="512" height="512" transform="translate(0.727539 0.36084)" fill="black"/>
<path d="M88.082 155.894L67.5313 272.804H384.13L404.688 155.894H88.082ZM148.14 248.603H142.535L111.285 207.698L104.128 248.603H90.3265L102.365 180.102H108.074L139.205 220.88L146.361 180.102H160.267L148.14 248.603ZM211.782 248.603H164.429L166.739 235.533H214.092L211.782 248.603ZM215.559 220.788H169.311L171.621 207.61H217.935L215.559 220.788ZM220.379 193.288H174.127L176.437 180.106H222.766L220.379 193.288ZM285.057 248.603L275.937 206.158L251.648 248.615H243.244L233.276 180.114H249.061L253.103 222.247L276.253 180.114H283.833L292.337 222.247L311.136 180.102H327.529L293.592 248.603H285.057ZM377.204 196.811C373.778 194.632 367.137 191.929 359.556 191.929C350.532 191.929 346.17 195.048 346.17 199.818C346.17 205.735 352.915 206.563 358.517 208.437C367.756 211.544 375.229 214.982 375.229 227.841C375.229 241.951 365.058 249.639 345.754 249.639C336.207 249.639 328.214 247.868 324.48 245.169L326.759 231.995C330.609 234.482 337.866 236.873 345.65 236.873C355.298 236.873 360.076 234.178 360.076 229.173C360.076 223.367 354.055 222.12 348.765 220.461C339.425 217.658 331.017 214.024 331.017 200.738C331.017 187.648 340.257 179.044 359.352 179.044C368.168 179.044 375.953 181.019 379.487 183.61L377.204 196.811Z" fill="white"/>
<path d="M172.495 355.799H158.297L170.335 287.302H195.745C209.134 287.406 216.919 295.083 216.919 306.605C216.919 316.781 211.005 325.597 200.838 329.32L211.729 355.784H196.264L187.556 331.202H176.853L172.495 355.799ZM202.074 307.637C202.074 302.659 199.171 299.653 194.293 299.653H182.358L179.036 318.856H190.867C197.512 318.856 202.074 313.978 202.074 307.637Z" fill="white"/>
<path d="M234.543 287.302H278.551L276.167 300.48H246.481L243.882 314.798H272.637L270.35 327.984H241.603L239.008 342.717H269.831L267.548 355.807H222.504L234.543 287.302Z" fill="white"/>
<path d="M292.45 287.302H336.45L334.067 300.48H304.38L301.789 314.798H330.536L328.253 327.984H299.506L296.912 342.717H327.738L325.451 355.807H280.407L292.45 287.302Z" fill="white"/>
<path d="M350.343 287.302H364.564L354.812 342.721H383.352L381.069 355.811H338.304L350.343 287.302Z" fill="white"/>
<path d="M390.917 352.373L393.196 339.195C397.046 341.682 404.303 344.076 412.091 344.076C421.739 344.076 426.513 341.381 426.513 336.377C426.513 330.563 420.495 329.32 415.202 327.66C405.862 324.858 397.454 321.223 397.454 307.938C397.454 294.848 406.693 286.247 425.789 286.247C434.609 286.247 442.393 288.218 445.924 290.809L443.637 303.995C440.214 301.82 433.573 299.121 425.997 299.121C416.965 299.121 412.607 302.236 412.607 307.002C412.607 312.923 419.352 313.751 424.957 315.622C434.197 318.733 441.666 322.167 441.666 335.025C441.666 349.139 431.494 356.827 412.191 356.827C402.643 356.843 394.651 355.072 390.917 352.373Z" fill="white"/>
</g>
<defs>
<clipPath id="clip0_0_827">
<rect x="0.727539" y="0.36084" width="512" height="512" rx="256" fill="white"/>
</clipPath>
</defs>
</svg>
