<svg width="257" height="257" viewBox="0 0 257 257" fill="none" xmlns="http://www.w3.org/2000/svg">
<g clip-path="url(#clip0_0_404)">
<path d="M45.3756 78.3594L35.1855 136.329H192.171L202.364 78.3594H45.3756ZM75.1553 124.329H72.3759L56.8809 104.046L53.3321 124.329H46.4885L52.4578 90.3629H55.2888L70.7246 110.583L74.2734 90.3629H81.1685L75.1553 124.329ZM106.712 124.329H83.2321L84.3775 117.848H107.858L106.712 124.329ZM108.585 110.537H85.6527L86.798 104.002H109.763L108.585 110.537ZM110.975 96.9011H88.0408L89.1861 90.3648H112.159L110.975 96.9011ZM143.045 124.329L138.523 103.283L126.48 124.335H122.312L117.37 90.3687H125.197L127.201 111.26L138.68 90.3687H142.438L146.655 111.26L155.977 90.3629H164.105L147.278 124.329H143.045ZM188.736 98.6478C187.037 97.5673 183.744 96.2272 179.986 96.2272C175.511 96.2272 173.348 97.7735 173.348 100.139C173.348 103.073 176.693 103.483 179.47 104.413C184.052 105.953 187.757 107.658 187.757 114.034C187.757 121.03 182.714 124.842 173.142 124.842C168.408 124.842 164.445 123.964 162.593 122.626L163.723 116.094C165.632 117.327 169.231 118.512 173.091 118.512C177.874 118.512 180.243 117.176 180.243 114.694C180.243 111.816 177.258 111.197 174.635 110.375C170.004 108.985 165.835 107.183 165.835 100.595C165.835 94.1045 170.416 89.838 179.885 89.838C184.256 89.838 188.116 90.8172 189.868 92.102L188.736 98.6478Z" fill="#F73458"/>
<path d="M87.2316 177.482H80.1914L86.1607 143.518H98.7598C105.399 143.57 109.259 147.376 109.259 153.09C109.259 158.135 106.327 162.506 101.285 164.352L106.686 177.475H99.0175L94.6995 165.286H89.3926L87.2316 177.482ZM101.898 153.601C101.898 151.133 100.459 149.642 98.0402 149.642H92.1224L90.475 159.164H96.3412C99.6361 159.164 101.898 156.745 101.898 153.601Z" fill="black"/>
<path d="M117.997 143.518H139.818L138.636 150.052H123.916L122.628 157.152H136.886L135.752 163.69H121.498L120.211 170.996H135.494L134.362 177.486H112.027L117.997 143.518Z" fill="black"/>
<path d="M146.711 143.518H168.529L167.347 150.052H152.627L151.343 157.152H165.597L164.465 163.69H150.211L148.924 170.996H164.209L163.075 177.486H140.74L146.711 143.518Z" fill="black"/>
<path d="M175.417 143.518H182.468L177.633 170.998H191.784L190.652 177.488H169.447L175.417 143.518Z" fill="black"/>
<path d="M195.535 175.783L196.665 169.249C198.574 170.482 202.173 171.67 206.034 171.67C210.818 171.67 213.185 170.333 213.185 167.852C213.185 164.969 210.202 164.353 207.577 163.53C202.946 162.14 198.777 160.338 198.777 153.75C198.777 147.26 203.358 142.995 212.827 142.995C217.2 142.995 221.06 143.972 222.81 145.257L221.676 151.795C219.979 150.717 216.686 149.379 212.93 149.379C208.451 149.379 206.29 150.923 206.29 153.286C206.29 156.222 209.635 156.633 212.414 157.56C216.996 159.103 220.699 160.806 220.699 167.182C220.699 174.18 215.656 177.992 206.084 177.992C201.35 178 197.387 177.122 195.535 175.783Z" fill="black"/>
</g>
<defs>
<clipPath id="clip0_0_404">
<rect width="256" height="256" fill="white" transform="translate(0.998047 0.175781)"/>
</clipPath>
</defs>
</svg>
