<svg width="1024" height="1024" viewBox="0 0 1024 1024" fill="none" xmlns="http://www.w3.org/2000/svg">
<g clip-path="url(#clip0_0_8)">
<rect width="1024" height="1024" fill="white"/>
<path d="M177.51 312.735L136.75 544.613H764.69L805.466 312.735H177.51ZM296.629 496.614H285.511L223.531 415.483L209.336 496.614H181.962L205.839 360.75H217.163L278.906 441.628L293.101 360.75H320.682L296.629 496.614ZM422.857 496.614H328.936L333.518 470.69H427.438L422.857 496.614ZM430.348 441.445H338.618L343.2 415.308H435.059L430.348 441.445ZM439.908 386.902H348.171L352.752 360.757H444.642L439.908 386.902ZM568.19 496.614L550.1 412.429L501.926 496.637H485.257L465.488 360.772H496.795L504.812 444.339L550.727 360.772H565.762L582.629 444.339L619.915 360.75H652.428L585.118 496.614H568.19ZM750.953 393.889C744.157 389.567 730.986 384.207 715.951 384.207C698.052 384.207 689.401 390.392 689.401 399.853C689.401 411.589 702.779 413.231 713.889 416.949C732.215 423.111 747.036 429.93 747.036 455.434C747.036 483.419 726.862 498.668 688.576 498.668C669.639 498.668 653.787 495.155 646.381 489.803L650.901 463.673C658.537 468.606 672.93 473.347 688.37 473.347C707.505 473.347 716.982 468.002 716.982 458.076C716.982 446.561 705.039 444.087 694.547 440.796C676.023 435.237 659.346 428.029 659.346 401.677C659.346 375.716 677.672 358.65 715.546 358.65C733.032 358.65 748.472 362.567 755.481 367.706L750.953 393.889Z" fill="#F73458"/>
<path d="M344.934 709.226H316.773L340.651 573.369H391.047C417.605 573.575 433.044 588.801 433.044 611.655C433.044 631.837 421.316 649.323 401.149 656.707L422.751 709.195H392.078L374.806 660.441H353.578L344.934 709.226ZM403.6 613.702C403.6 603.829 397.843 597.865 388.168 597.865H364.497L357.908 635.952H381.373C394.552 635.952 403.6 626.278 403.6 613.702Z" fill="black"/>
<path d="M467.998 573.369H555.283L550.557 599.507H491.677L486.523 627.904H543.555L539.019 654.057H482.002L476.856 683.279H537.988L533.46 709.241H444.121L467.998 573.369Z" fill="black"/>
<path d="M582.85 573.369H670.12L665.393 599.507H606.513L601.374 627.904H658.391L653.863 654.057H596.846L591.7 683.279H652.84L648.304 709.241H558.965L582.85 573.369Z" fill="black"/>
<path d="M697.674 573.369H725.881L706.539 683.287H763.144L758.616 709.249H673.797L697.674 573.369Z" fill="black"/>
<path d="M778.148 702.43L782.669 676.293C790.305 681.226 804.698 685.975 820.146 685.975C839.281 685.975 848.749 680.63 848.749 670.703C848.749 659.173 836.815 656.707 826.315 653.416C807.791 647.857 791.114 640.649 791.114 614.298C791.114 588.336 809.44 571.277 847.314 571.277C864.808 571.277 880.247 575.187 887.249 580.326L882.714 606.478C875.925 602.164 862.753 596.812 847.726 596.812C829.812 596.812 821.169 602.989 821.169 612.442C821.169 624.186 834.547 625.828 845.664 629.539C863.99 635.709 878.804 642.52 878.804 668.023C878.804 696.016 858.63 711.265 820.344 711.265C801.407 711.296 785.555 707.783 778.148 702.43Z" fill="black"/>
</g>
<defs>
<clipPath id="clip0_0_8">
<rect width="1024" height="1024" fill="white"/>
</clipPath>
</defs>
</svg>
