<svg width="24" height="25" viewBox="0 0 24 25" fill="none" xmlns="http://www.w3.org/2000/svg">
<g clip-path="url(#clip0_0_755)">
<rect width="24" height="24" transform="translate(0 0.73584)" fill="black"/>
<rect width="24" height="24" transform="translate(0 0.73584)" fill="black"/>
<path d="M4.16039 8.06543L3.20508 13.5001H17.9224L18.8781 8.06543H4.16039ZM6.95224 12.3751H6.69167L5.23901 10.4736L4.90632 12.3751H4.26473L4.82435 9.19076H5.08976L6.53687 11.0864L6.86956 9.19076H7.51598L6.95224 12.3751ZM9.91071 12.3751H7.70944L7.81682 11.7675H10.0181L9.91071 12.3751ZM10.0863 11.0821H7.93637L8.04375 10.4695H10.1967L10.0863 11.0821ZM10.3103 9.80372H8.16026L8.26763 9.19094H10.4213L10.3103 9.80372ZM13.3169 12.3751L12.893 10.402L11.7639 12.3756H11.3732L10.9099 9.1913H11.6436L11.8315 11.1499L12.9077 9.1913H13.26L13.6554 11.1499L14.5293 9.19076H15.2913L13.7137 12.3751H13.3169ZM17.6005 9.96747C17.4412 9.86617 17.1325 9.74054 16.7801 9.74054C16.3606 9.74054 16.1578 9.8855 16.1578 10.1072C16.1578 10.3823 16.4714 10.4208 16.7318 10.5079C17.1613 10.6524 17.5087 10.8122 17.5087 11.4099C17.5087 12.0658 17.0358 12.4232 16.1385 12.4232C15.6947 12.4232 15.3231 12.3409 15.1495 12.2154L15.2555 11.603C15.4345 11.7186 15.7718 11.8298 16.1337 11.8298C16.5822 11.8298 16.8043 11.7045 16.8043 11.4718C16.8043 11.202 16.5244 11.144 16.2785 11.0668C15.8443 10.9366 15.4534 10.7676 15.4534 10.15C15.4534 9.54153 15.8829 9.14155 16.7706 9.14155C17.1804 9.14155 17.5423 9.23335 17.7066 9.3538L17.6005 9.96747Z" fill="white"/>
<path d="M8.08385 17.3585H7.42383L7.98345 14.1743H9.16462C9.78706 14.1791 10.1489 14.536 10.1489 15.0716C10.1489 15.5446 9.87404 15.9545 9.40139 16.1275L9.90768 17.3577H9.18878L8.78396 16.2151H8.28644L8.08385 17.3585ZM9.45884 15.1196C9.45884 14.8882 9.3239 14.7484 9.09715 14.7484H8.54236L8.38791 15.6411H8.93787C9.24676 15.6411 9.45884 15.4144 9.45884 15.1196Z" fill="white"/>
<path d="M10.9678 14.1743H13.0136L12.9028 14.7869H11.5228L11.402 15.4525H12.7387L12.6324 16.0654H11.296L11.1754 16.7503H12.6082L12.5021 17.3588H10.4082L10.9678 14.1743Z" fill="white"/>
<path d="M13.6614 14.1743H15.7068L15.596 14.7869H14.216L14.0955 15.4525H15.4319L15.3257 16.0654H13.9894L13.8688 16.7503H15.3018L15.1955 17.3588H13.1016L13.6614 14.1743Z" fill="white"/>
<path d="M16.3526 14.1743H17.0137L16.5604 16.7505H17.887L17.7809 17.359H15.793L16.3526 14.1743Z" fill="white"/>
<path d="M18.2383 17.1989L18.3442 16.5863C18.5232 16.7019 18.8605 16.8132 19.2226 16.8132C19.6711 16.8132 19.893 16.688 19.893 16.4553C19.893 16.1851 19.6133 16.1273 19.3672 16.0501C18.933 15.9198 18.5422 15.7509 18.5422 15.1333C18.5422 14.5248 18.9717 14.125 19.8593 14.125C20.2694 14.125 20.6312 14.2166 20.7953 14.3371L20.689 14.95C20.5299 14.8489 20.2212 14.7235 19.869 14.7235C19.4492 14.7235 19.2466 14.8682 19.2466 15.0898C19.2466 15.365 19.5601 15.4035 19.8207 15.4905C20.2502 15.6351 20.5974 15.7947 20.5974 16.3925C20.5974 17.0486 20.1246 17.406 19.2272 17.406C18.7834 17.4067 18.4119 17.3244 18.2383 17.1989Z" fill="white"/>
</g>
<defs>
<clipPath id="clip0_0_755">
<rect width="24" height="24" fill="white" transform="translate(0 0.73584)"/>
</clipPath>
</defs>
</svg>
