<svg width="129" height="129" viewBox="0 0 129 129" fill="none" xmlns="http://www.w3.org/2000/svg">
<g clip-path="url(#clip0_0_494)">
<path d="M23.1868 39.7129L18.0918 68.6976H96.5843L101.681 39.7129H23.1868ZM38.0767 62.6977H36.687L28.9395 52.5564L27.1651 62.6977H23.7433L26.7279 45.7147H28.1434L35.8613 55.8245L37.6357 45.7147H41.0833L38.0767 62.6977ZM53.8552 62.6977H42.1151L42.6878 59.4573H54.4279L53.8552 62.6977ZM54.7915 55.8016H43.3254L43.898 52.5344H55.3804L54.7915 55.8016ZM55.9865 48.9838H44.5194L45.0921 45.7156H56.5783L55.9865 48.9838ZM72.0218 62.6977L69.7606 52.1746L63.7388 62.7006H61.6552L59.184 45.7175H63.0974L64.0996 56.1633L69.8389 45.7175H71.7182L73.8267 56.1633L78.4874 45.7147H82.5516L74.1378 62.6977H72.0218ZM94.8672 49.8571C94.0177 49.3169 92.3713 48.6468 90.4919 48.6468C88.2546 48.6468 87.1732 49.4199 87.1732 50.6025C87.1732 52.0696 88.8454 52.2748 90.2342 52.7396C92.5249 53.5099 94.3776 54.3622 94.3776 57.5502C94.3776 61.0484 91.8558 62.9545 87.0701 62.9545C84.703 62.9545 82.7215 62.5154 81.7956 61.8463L82.3607 58.5801C83.3152 59.1967 85.1144 59.7894 87.0443 59.7894C89.4362 59.7894 90.6207 59.1213 90.6207 57.8805C90.6207 56.4411 89.1279 56.1318 87.8165 55.7205C85.5009 55.0256 83.4163 54.1246 83.4163 50.8307C83.4163 47.5854 85.7071 45.4522 90.4413 45.4522C92.6271 45.4522 94.557 45.9418 95.4332 46.5842L94.8672 49.8571Z" fill="white"/>
<path d="M44.1139 89.2741H40.5938L43.5784 72.292H49.878C53.1976 72.3178 55.1276 74.221 55.1276 77.0777C55.1276 79.6004 53.6615 81.7862 51.1407 82.7092L53.841 89.2703H50.0068L47.8478 83.1759H45.1943L44.1139 89.2741ZM51.4471 77.3336C51.4471 76.0994 50.7275 75.354 49.5181 75.354H46.5592L45.7355 80.1149H48.6686C50.3161 80.1149 51.4471 78.9056 51.4471 77.3336Z" fill="white"/>
<path d="M59.4983 72.292H70.409L69.8181 75.5592H62.4582L61.8139 79.1089H68.9429L68.3759 82.378H61.2488L60.6055 86.0308H68.2471L67.6811 89.276H56.5137L59.4983 72.292Z" fill="white"/>
<path d="M73.8548 72.292H84.7635L84.1727 75.5592H76.8127L76.1703 79.1089H83.2974L82.7314 82.378H75.6043L74.961 86.0308H82.6035L82.0365 89.276H70.8691L73.8548 72.292Z" fill="white"/>
<path d="M88.2073 72.292H91.7332L89.3155 86.0317H96.391L95.825 89.2769H85.2227L88.2073 72.292Z" fill="white"/>
<path d="M98.2676 88.4249L98.8326 85.1577C99.7871 85.7743 101.586 86.368 103.517 86.368C105.909 86.368 107.093 85.6998 107.093 84.459C107.093 83.0178 105.601 82.7095 104.288 82.2981C101.973 81.6032 99.8883 80.7022 99.8883 77.4083C99.8883 74.1631 102.179 72.0308 106.913 72.0308C109.1 72.0308 111.03 72.5194 111.905 73.1618L111.338 76.4309C110.49 75.8916 108.843 75.2225 106.965 75.2225C104.726 75.2225 103.645 75.9947 103.645 77.1763C103.645 78.6443 105.317 78.8496 106.707 79.3134C108.998 80.0847 110.85 80.936 110.85 84.124C110.85 87.6231 108.328 89.5292 103.542 89.5292C101.175 89.533 99.1934 89.094 98.2676 88.4249Z" fill="white"/>
</g>
<defs>
<clipPath id="clip0_0_494">
<rect width="128" height="128" fill="white" transform="translate(0.998047 0.621094)"/>
</clipPath>
</defs>
</svg>
