<svg width="129" height="129" viewBox="0 0 129 129" fill="none" xmlns="http://www.w3.org/2000/svg">
<g clip-path="url(#clip0_0_503)">
<path d="M23.1868 39.6475L18.0918 68.6321H96.5843L101.681 39.6475H23.1868ZM38.0767 62.6323H36.687L28.9395 52.4909L27.1651 62.6323H23.7433L26.7279 45.6492H28.1434L35.8613 55.7591L37.6357 45.6492H41.0833L38.0767 62.6323ZM53.8552 62.6323H42.1151L42.6878 59.3918H54.4279L53.8552 62.6323ZM54.7915 55.7362H43.3254L43.898 52.469H55.3804L54.7915 55.7362ZM55.9865 48.9183H44.5194L45.0921 45.6502H56.5783L55.9865 48.9183ZM72.0218 62.6323L69.7606 52.1091L63.7388 62.6351H61.6552L59.184 45.6521H63.0974L64.0996 56.0979L69.8389 45.6521H71.7182L73.8267 56.0979L78.4874 45.6492H82.5516L74.1378 62.6323H72.0218ZM94.8672 49.7917C94.0177 49.2514 92.3713 48.5814 90.4919 48.5814C88.2546 48.5814 87.1732 49.3545 87.1732 50.5371C87.1732 52.0042 88.8454 52.2094 90.2342 52.6742C92.5249 53.4445 94.3776 54.2968 94.3776 57.4848C94.3776 60.9829 91.8558 62.889 87.0701 62.889C84.703 62.889 82.7215 62.45 81.7956 61.7809L82.3607 58.5147C83.3152 59.1313 85.1144 59.724 87.0443 59.724C89.4362 59.724 90.6207 59.0558 90.6207 57.815C90.6207 56.3757 89.1279 56.0664 87.8165 55.655C85.5009 54.9602 83.4163 54.0591 83.4163 50.7652C83.4163 47.52 85.7071 45.3868 90.4413 45.3868C92.6271 45.3868 94.557 45.8764 95.4332 46.5188L94.8672 49.7917Z" fill="black"/>
<path d="M44.1139 89.2086H40.5938L43.5784 72.2266H49.878C53.1976 72.2523 55.1276 74.1556 55.1276 77.0123C55.1276 79.535 53.6615 81.7208 51.1407 82.6437L53.841 89.2048H50.0068L47.8478 83.1105H45.1943L44.1139 89.2086ZM51.4471 77.2681C51.4471 76.034 50.7275 75.2885 49.5181 75.2885H46.5592L45.7355 80.0495H48.6686C50.3161 80.0495 51.4471 78.8402 51.4471 77.2681Z" fill="black"/>
<path d="M59.4983 72.2266H70.409L69.8181 75.4937H62.4582L61.8139 79.0434H68.9429L68.3759 82.3125H61.2488L60.6055 85.9653H68.2471L67.6811 89.2106H56.5137L59.4983 72.2266Z" fill="black"/>
<path d="M73.8548 72.2266H84.7635L84.1727 75.4937H76.8127L76.1703 79.0434H83.2974L82.7314 82.3125H75.6043L74.961 85.9653H82.6035L82.0365 89.2106H70.8691L73.8548 72.2266Z" fill="black"/>
<path d="M88.2073 72.2266H91.7332L89.3155 85.9663H96.391L95.825 89.2115H85.2227L88.2073 72.2266Z" fill="black"/>
<path d="M98.2676 88.3595L98.8326 85.0923C99.7871 85.7089 101.586 86.3026 103.517 86.3026C105.909 86.3026 107.093 85.6344 107.093 84.3936C107.093 82.9523 105.601 82.644 104.288 82.2327C101.973 81.5378 99.8883 80.6368 99.8883 77.3429C99.8883 74.0976 102.179 71.9653 106.913 71.9653C109.1 71.9653 111.03 72.454 111.905 73.0964L111.338 76.3655C110.49 75.8262 108.843 75.1571 106.965 75.1571C104.726 75.1571 103.645 75.9293 103.645 77.1109C103.645 78.5789 105.317 78.7841 106.707 79.248C108.998 80.0192 110.85 80.8706 110.85 84.0586C110.85 87.5577 108.328 89.4638 103.542 89.4638C101.175 89.4676 99.1934 89.0286 98.2676 88.3595Z" fill="black"/>
</g>
<defs>
<clipPath id="clip0_0_503">
<rect width="128" height="128" fill="white" transform="translate(0.998047 0.555664)"/>
</clipPath>
</defs>
</svg>
