<svg width="1025" height="1025" viewBox="0 0 1025 1025" fill="none" xmlns="http://www.w3.org/2000/svg">
<g clip-path="url(#clip0_0_35)">
<path d="M178.508 313.411L137.748 545.289H765.688L806.464 313.411H178.508ZM297.627 497.29H286.509L224.529 416.159L210.334 497.29H182.96L206.837 361.425H218.161L279.904 442.304L294.099 361.425H321.68L297.627 497.29ZM423.855 497.29H329.934L334.516 471.366H428.436L423.855 497.29ZM431.346 442.121H339.617L344.198 415.983H436.057L431.346 442.121ZM440.906 387.578H349.169L353.75 361.433H445.64L440.906 387.578ZM569.188 497.29L551.099 413.105L502.924 497.313H486.255L466.486 361.448H497.793L505.81 445.015L551.725 361.448H566.76L583.627 445.015L620.913 361.425H653.426L586.116 497.29H569.188ZM751.951 394.565C745.156 390.243 731.984 384.883 716.949 384.883C699.05 384.883 690.399 391.068 690.399 400.528C690.399 412.265 703.777 413.906 714.887 417.625C733.213 423.787 748.034 430.606 748.034 456.11C748.034 484.095 727.86 499.344 689.574 499.344C670.637 499.344 654.785 495.831 647.379 490.479L651.899 464.349C659.535 469.281 673.929 474.023 689.368 474.023C708.504 474.023 717.98 468.678 717.98 458.752C717.98 447.237 706.037 444.763 695.546 441.472C677.021 435.913 660.344 428.705 660.344 402.353C660.344 376.391 678.67 359.325 716.544 359.325C734.03 359.325 749.47 363.243 756.479 368.381L751.951 394.565Z" fill="#F73458"/>
<path d="M345.932 709.902H317.771L341.649 574.045H392.045C418.603 574.251 434.042 589.477 434.042 612.331C434.042 632.512 422.314 649.998 402.147 657.382L423.749 709.871H393.076L375.804 661.116H354.576L345.932 709.902ZM404.599 614.377C404.599 604.504 398.841 598.541 389.167 598.541H365.495L358.906 636.628H382.371C395.55 636.628 404.599 626.954 404.599 614.377Z" fill="white"/>
<path d="M468.996 574.045H556.282L551.555 600.182H492.675L487.521 628.58H544.553L540.017 654.733H483L477.854 683.955H538.986L534.458 709.917H445.119L468.996 574.045Z" fill="white"/>
<path d="M583.848 574.045H671.118L666.391 600.182H607.511L602.372 628.58H659.389L654.861 654.733H597.844L592.698 683.955H653.838L649.302 709.917H559.963L583.848 574.045Z" fill="white"/>
<path d="M698.672 574.045H726.879L707.537 683.963H764.142L759.614 709.924H674.795L698.672 574.045Z" fill="white"/>
<path d="M779.146 703.106L783.667 676.969C791.303 681.901 805.696 686.651 821.144 686.651C840.279 686.651 849.747 681.306 849.747 671.379C849.747 659.849 837.813 657.383 827.313 654.092C808.789 648.533 792.112 641.325 792.112 614.973C792.112 589.012 810.438 571.953 848.312 571.953C865.806 571.953 881.245 575.863 888.247 581.001L883.712 607.154C876.923 602.84 863.751 597.487 848.724 597.487C830.811 597.487 822.167 603.665 822.167 613.118C822.167 624.862 835.545 626.504 846.663 630.215C864.989 636.384 879.802 643.195 879.802 668.699C879.802 696.692 859.628 711.941 821.342 711.941C802.405 711.971 786.553 708.459 779.146 703.106Z" fill="white"/>
</g>
<defs>
<clipPath id="clip0_0_35">
<rect width="1024" height="1024" fill="white" transform="translate(0.998047 0.675781)"/>
</clipPath>
</defs>
</svg>
