<svg width="33" height="33" viewBox="0 0 33 33" fill="none" xmlns="http://www.w3.org/2000/svg">
<g clip-path="url(#clip0_0_656)">
<rect width="32" height="32" transform="translate(0.333008 0.73584)" fill="black"/>
<rect width="32" height="32" transform="translate(0.333008 0.73584)" fill="black"/>
<path d="M5.8802 10.5088L4.60645 17.755H24.2296L25.5038 10.5088H5.8802ZM9.60266 16.255H9.25523L7.31836 13.7197L6.87476 16.255H6.01931L6.76548 12.0092H7.11935L9.04883 14.5367L9.49242 12.0092H10.3543L9.60266 16.255ZM13.5473 16.255H10.6123L10.7554 15.4449H13.6905L13.5473 16.255ZM13.7814 14.531H10.9148L11.058 13.7142H13.9286L13.7814 14.531ZM14.0801 12.8265H11.2133L11.3565 12.0095H14.2281L14.0801 12.8265ZM18.0889 16.255L17.5236 13.6242L16.0182 16.2557H15.4973L14.8795 12.0099H15.8578L16.1084 14.6214L17.5432 12.0099H18.0131L18.5402 14.6214L19.7053 12.0092H20.7214L18.618 16.255H18.0889ZM23.8003 13.0448C23.5879 12.9098 23.1763 12.7423 22.7065 12.7423C22.1471 12.7423 21.8768 12.9356 21.8768 13.2312C21.8768 13.598 22.2948 13.6493 22.642 13.7655C23.2147 13.958 23.6779 14.1711 23.6779 14.9681C23.6779 15.8427 23.0475 16.3192 21.851 16.3192C21.2592 16.3192 20.7639 16.2094 20.5324 16.0421L20.6737 15.2256C20.9123 15.3797 21.3621 15.5279 21.8446 15.5279C22.4426 15.5279 22.7387 15.3609 22.7387 15.0507C22.7387 14.6908 22.3655 14.6135 22.0376 14.5107C21.4587 14.337 20.9376 14.1117 20.9376 13.2882C20.9376 12.4769 21.5103 11.9436 22.6938 11.9436C23.2403 11.9436 23.7227 12.066 23.9418 12.2266L23.8003 13.0448Z" fill="white"/>
<path d="M11.1115 22.8993H10.2314L10.9776 18.6538H12.5525C13.3824 18.6603 13.8649 19.1361 13.8649 19.8502C13.8649 20.4809 13.4984 21.0274 12.8682 21.2581L13.5432 22.8984H12.5847L12.045 21.3748H11.3816L11.1115 22.8993ZM12.9448 19.9142C12.9448 19.6057 12.7649 19.4193 12.4625 19.4193H11.7228L11.5169 20.6095H12.2502C12.662 20.6095 12.9448 20.3072 12.9448 19.9142Z" fill="white"/>
<path d="M14.9581 18.6538H17.6857L17.538 19.4706H15.698L15.537 20.358H17.3192L17.1775 21.1753H15.3957L15.2349 22.0885H17.1453L17.0038 22.8998H14.2119L14.9581 18.6538Z" fill="white"/>
<path d="M18.5462 18.6538H21.2734L21.1257 19.4706H19.2857L19.1251 20.358H20.9069L20.7654 21.1753H18.9836L18.8228 22.0885H20.7334L20.5917 22.8998H17.7998L18.5462 18.6538Z" fill="white"/>
<path d="M22.1358 18.6538H23.0173L22.4128 22.0887H24.1817L24.0402 22.9H21.3896L22.1358 18.6538Z" fill="white"/>
<path d="M24.6494 22.6869L24.7907 21.8701C25.0293 22.0243 25.4791 22.1727 25.9618 22.1727C26.5598 22.1727 26.8557 22.0057 26.8557 21.6954C26.8557 21.3351 26.4827 21.2581 26.1546 21.1552C25.5757 20.9815 25.0546 20.7562 25.0546 19.9328C25.0546 19.1215 25.6273 18.5884 26.8108 18.5884C27.3575 18.5884 27.84 18.7105 28.0588 18.8711L27.9171 19.6884C27.7049 19.5536 27.2933 19.3863 26.8237 19.3863C26.2639 19.3863 25.9938 19.5794 25.9938 19.8748C25.9938 20.2418 26.4119 20.2931 26.7593 20.409C27.332 20.6019 27.7949 20.8147 27.7949 21.6117C27.7949 22.4865 27.1645 22.963 25.968 22.963C25.3763 22.964 24.8809 22.8542 24.6494 22.6869Z" fill="white"/>
</g>
<defs>
<clipPath id="clip0_0_656">
<rect width="32" height="32" fill="white" transform="translate(0.333008 0.73584)"/>
</clipPath>
</defs>
</svg>
