<svg width="33" height="33" viewBox="0 0 33 33" fill="none" xmlns="http://www.w3.org/2000/svg">
<g clip-path="url(#clip0_0_953)">
<rect width="32" height="32" transform="translate(0.998047 0.328125)" fill="white"/>
<path d="M6.45776 10.0491L5.17334 17.3559H24.9608L26.2457 10.0491H6.45776ZM10.2114 15.8434H9.86105L7.90796 13.2868L7.46065 15.8434H6.59804L7.35045 11.5621H7.70728L9.65292 14.1107L10.1002 11.5621H10.9693L10.2114 15.8434ZM14.189 15.8434H11.2294L11.3738 15.0265H14.3334L14.189 15.8434ZM14.4251 14.1049H11.5345L11.6789 13.2813H14.5735L14.4251 14.1049ZM14.7263 12.3862H11.8356L11.9799 11.5623H14.8755L14.7263 12.3862ZM18.7687 15.8434L18.1987 13.1906L16.6806 15.8441H16.1554L15.5324 11.5628H16.5189L16.7716 14.1961L18.2184 11.5628H18.6922L19.2237 14.1961L20.3987 11.5621H21.4232L19.3022 15.8434H18.7687ZM24.5279 12.6064C24.3137 12.4702 23.8987 12.3013 23.4249 12.3013C22.8609 12.3013 22.5883 12.4962 22.5883 12.7943C22.5883 13.1641 23.0098 13.2158 23.3599 13.333C23.9374 13.5272 24.4044 13.7421 24.4044 14.5457C24.4044 15.4276 23.7687 15.9081 22.5623 15.9081C21.9655 15.9081 21.466 15.7974 21.2326 15.6288L21.3751 14.8054C21.6157 14.9608 22.0693 15.1102 22.5558 15.1102C23.1588 15.1102 23.4574 14.9418 23.4574 14.629C23.4574 14.2661 23.0811 14.1882 22.7504 14.0845C22.1667 13.9093 21.6412 13.6822 21.6412 12.8518C21.6412 12.0337 22.2187 11.4959 23.4121 11.4959C23.9632 11.4959 24.4497 11.6193 24.6706 11.7813L24.5279 12.6064Z" fill="black"/>
<path d="M11.7336 22.543H10.8462L11.5986 18.262H13.1867C14.0235 18.2685 14.5101 18.7482 14.5101 19.4684C14.5101 20.1044 14.1405 20.6554 13.505 20.8881L14.1857 22.5421H13.2192L12.6749 21.0057H12.006L11.7336 22.543ZM13.5823 19.5329C13.5823 19.2218 13.4008 19.0339 13.096 19.0339H12.3501L12.1424 20.2341H12.8818C13.2971 20.2341 13.5823 19.9292 13.5823 19.5329Z" fill="black"/>
<path d="M15.6115 18.262H18.362L18.2131 19.0856H16.3577L16.1953 19.9805H17.9925L17.8495 20.8046H16.0528L15.8907 21.7254H17.817L17.6744 22.5435H14.8591L15.6115 18.262Z" fill="black"/>
<path d="M19.2307 18.262H21.9807L21.8318 19.0856H19.9764L19.8144 19.9805H21.6111L21.4684 20.8046H19.6717L19.5096 21.7254H21.4362L21.2933 22.5435H18.478L19.2307 18.262Z" fill="black"/>
<path d="M22.8491 18.262H23.7379L23.1284 21.7256H24.9121L24.7695 22.5437H22.0967L22.8491 18.262Z" fill="black"/>
<path d="M25.3849 22.3289L25.5273 21.5053C25.768 21.6607 26.2215 21.8104 26.7083 21.8104C27.3113 21.8104 27.6096 21.6419 27.6096 21.3291C27.6096 20.9658 27.2336 20.8881 26.9027 20.7844C26.319 20.6092 25.7935 20.3821 25.7935 19.5517C25.7935 18.7336 26.3709 18.196 27.5644 18.196C28.1157 18.196 28.6022 18.3192 28.8228 18.4812L28.6799 19.3053C28.466 19.1693 28.0509 19.0007 27.5774 19.0007C27.0129 19.0007 26.7405 19.1953 26.7405 19.4932C26.7405 19.8633 27.1621 19.915 27.5124 20.032C28.0899 20.2264 28.5567 20.441 28.5567 21.2447C28.5567 22.1268 27.921 22.6073 26.7145 22.6073C26.1178 22.6082 25.6183 22.4976 25.3849 22.3289Z" fill="black"/>
</g>
<defs>
<clipPath id="clip0_0_953">
<rect x="0.998047" y="0.328125" width="32" height="32" rx="16" fill="white"/>
</clipPath>
</defs>
</svg>
