<svg width="33" height="33" viewBox="0 0 33 33" fill="none" xmlns="http://www.w3.org/2000/svg">
<g clip-path="url(#clip0_0_629)">
<path d="M6.54524 10.394L5.27148 17.6402H24.8946L26.1688 10.394H6.54524ZM10.2677 16.1402H9.92027L7.9834 13.6049L7.5398 16.1402H6.68435L7.43052 11.8945H7.78439L9.71387 14.4219L10.1575 11.8945H11.0194L10.2677 16.1402ZM14.2123 16.1402H11.2773L11.4205 15.3301H14.3555L14.2123 16.1402ZM14.4464 14.4162H11.5799L11.723 13.5994H14.5936L14.4464 14.4162ZM14.7452 12.7118H11.8784L12.0216 11.8947H14.8931L14.7452 12.7118ZM18.754 16.1402L18.1887 13.5095L16.6832 16.141H16.1623L15.5445 11.8952H16.5229L16.7734 14.5067L18.2083 11.8952H18.6781L19.2052 14.5067L20.3704 11.8945H21.3864L19.283 16.1402H18.754ZM24.4653 12.9301C24.253 12.795 23.8413 12.6275 23.3715 12.6275C22.8122 12.6275 22.5418 12.8208 22.5418 13.1165C22.5418 13.4832 22.9599 13.5345 23.3071 13.6507C23.8798 13.8433 24.3429 14.0564 24.3429 14.8534C24.3429 15.7279 23.7125 16.2044 22.5161 16.2044C21.9243 16.2044 21.4289 16.0947 21.1974 15.9274L21.3387 15.1108C21.5773 15.265 22.0271 15.4132 22.5096 15.4132C23.1076 15.4132 23.4037 15.2461 23.4037 14.9359C23.4037 14.5761 23.0305 14.4988 22.7027 14.3959C22.1238 14.2222 21.6026 13.997 21.6026 13.1735C21.6026 12.3622 22.1753 11.8289 23.3589 11.8289C23.9053 11.8289 24.3878 11.9513 24.6068 12.1119L24.4653 12.9301Z" fill="white"/>
<path d="M11.7765 22.7846H10.8965L11.6426 18.5391H13.2175C14.0475 18.5455 14.5299 19.0213 14.5299 19.7355C14.5299 20.3662 14.1634 20.9126 13.5332 21.1434L14.2083 22.7836H13.2498L12.71 21.26H12.0466L11.7765 22.7846ZM13.6098 19.7995C13.6098 19.4909 13.4299 19.3046 13.1276 19.3046H12.3879L12.1819 20.4948H12.9152C13.3271 20.4948 13.6098 20.1925 13.6098 19.7995Z" fill="white"/>
<path d="M15.6231 18.5391H18.3508L18.2031 19.3559H16.3631L16.202 20.2433H17.9843L17.8425 21.0606H16.0607L15.8999 21.9738H17.8103L17.6688 22.7851H14.877L15.6231 18.5391Z" fill="white"/>
<path d="M19.2112 18.5391H21.9384L21.7907 19.3559H19.9507L19.7901 20.2433H21.5719L21.4304 21.0606H19.6486L19.4878 21.9738H21.3984L21.2567 22.7851H18.4648L19.2112 18.5391Z" fill="white"/>
<path d="M22.8009 18.5391H23.6823L23.0779 21.974H24.8468L24.7053 22.7853H22.0547L22.8009 18.5391Z" fill="white"/>
<path d="M25.3145 22.5722L25.4557 21.7554C25.6943 21.9095 26.1441 22.0579 26.6269 22.0579C27.2248 22.0579 27.5207 21.8909 27.5207 21.5807C27.5207 21.2204 27.1478 21.1433 26.8197 21.0405C26.2408 20.8668 25.7196 20.6415 25.7196 19.818C25.7196 19.0067 26.2923 18.4736 27.4759 18.4736C28.0226 18.4736 28.505 18.5958 28.7239 18.7564L28.5821 19.5737C28.37 19.4388 27.9584 19.2716 27.4888 19.2716C26.929 19.2716 26.6588 19.4646 26.6588 19.76C26.6588 20.127 27.0769 20.1783 27.4243 20.2943C27.997 20.4871 28.4599 20.7 28.4599 21.4969C28.4599 22.3717 27.8295 22.8482 26.6331 22.8482C26.0413 22.8492 25.5459 22.7394 25.3145 22.5722Z" fill="white"/>
</g>
<defs>
<clipPath id="clip0_0_629">
<rect width="32" height="32" fill="white" transform="translate(0.998047 0.621094)"/>
</clipPath>
</defs>
</svg>
