<svg width="24" height="25" viewBox="0 0 24 25" fill="none" xmlns="http://www.w3.org/2000/svg">
<g clip-path="url(#clip0_0_305)">
<path d="M1.86406 10.6074L1.15479 14.6506H12.1022L12.8133 10.6074H1.86406ZM3.94085 13.8134H3.74662L2.66689 12.3986L2.41945 13.8134H1.9412L2.35833 11.4445H2.55494L3.6323 12.8547L3.87953 11.4445H4.36016L3.94085 13.8134ZM6.14165 13.8134H4.50474L4.58386 13.3612H6.22077L6.14165 13.8134ZM6.27278 12.8521H4.67385L4.75416 12.396H6.35625L6.27278 12.8521ZM6.43972 11.901H4.84059L4.91971 11.4449H6.5218L6.43972 11.901ZM8.67652 13.8134L8.36124 12.3452L7.52103 13.8134H7.23028L6.88593 11.4445H7.43163L7.57009 12.9014L8.37054 11.4445H8.63301L8.92751 12.9014L9.57646 11.4445H10.1441L8.97123 13.8134H8.67652ZM11.8637 12.0214C11.6786 11.9121 11.4678 11.854 11.2529 11.8531C10.9416 11.8531 10.7901 11.9609 10.7901 12.1262C10.7901 12.3296 11.0235 12.3588 11.2171 12.4229C11.5368 12.5301 11.7955 12.6486 11.7955 13.0932C11.7955 13.5816 11.4436 13.8476 10.7755 13.8476C10.445 13.8476 10.1686 13.7865 10.0401 13.6931L10.1192 13.237C10.2515 13.3235 10.5033 13.4061 10.7719 13.4061C11.1056 13.4061 11.2707 13.312 11.2707 13.1399C11.2707 12.9394 11.0627 12.8966 10.8789 12.8391C10.5561 12.742 10.2658 12.6158 10.2658 12.1565C10.2658 11.7052 10.5856 11.4067 11.246 11.4067C11.5504 11.4067 11.8196 11.4747 11.9414 11.5649L11.8637 12.0214Z" fill="white"/>
<path d="M14.9253 12.1123C14.9253 11.7137 14.6559 11.4481 14.1935 11.4443H13.3141L12.8973 13.8135H13.3894L13.5402 12.963H13.909L14.2113 13.8135H14.7453L14.3681 12.8983C14.721 12.7689 14.9253 12.4635 14.9253 12.1123ZM14.0245 12.5355H13.6151L13.7294 11.8714H14.1424C14.3109 11.8714 14.4112 11.9762 14.4112 12.1483C14.4118 12.3672 14.2542 12.5355 14.0245 12.5355Z" fill="white"/>
<path d="M16.9739 11.9007L17.0564 11.4448H15.5348L15.1183 13.8136H16.6759L16.7552 13.3616H15.6889L15.7785 12.8519H16.7728L16.8521 12.396H15.8578L15.9476 11.9007H16.9739Z" fill="white"/>
<path d="M18.9764 11.9007L19.0591 11.4448H17.5373L17.1207 13.8136H18.6783L18.7578 13.3616H17.6912L17.7809 12.8519H18.7754L18.8546 12.396H17.8603L17.9499 11.9007H18.9764Z" fill="white"/>
<path d="M19.6936 13.3616L20.031 11.4448H19.5399L19.1232 13.8136H20.6014L20.6808 13.3616H19.6936Z" fill="white"/>
<path d="M22.1553 11.8542C22.4174 11.8542 22.6474 11.9472 22.7661 12.0223L22.8452 11.5674C22.7226 11.4776 22.4536 11.4092 22.1492 11.4092C21.488 11.4092 21.1689 11.7072 21.1689 12.1592C21.1689 12.6183 21.4591 12.7441 21.7821 12.8412C21.9648 12.8989 22.1733 12.942 22.1733 13.1424C22.1733 13.3147 22.0081 13.4084 21.6741 13.4084C21.4049 13.4084 21.1541 13.3258 21.0214 13.2393L20.9423 13.6952C21.072 13.789 21.3485 13.8501 21.6788 13.8501C22.3462 13.8501 22.6978 13.5839 22.6978 13.0959C22.6978 12.6511 22.4389 12.5326 22.1201 12.4252C21.9263 12.3603 21.6931 12.3315 21.6931 12.1272C21.6929 11.962 21.8436 11.8542 22.1553 11.8542Z" fill="white"/>
</g>
<defs>
<clipPath id="clip0_0_305">
<rect width="24" height="24" fill="white" transform="translate(0 0.628906)"/>
</clipPath>
</defs>
</svg>
