<svg width="65" height="65" viewBox="0 0 65 65" fill="none" xmlns="http://www.w3.org/2000/svg">
<g clip-path="url(#clip0_0_161)">
<path d="M5.47916 26.8164L3.58777 37.5983H32.781L34.6771 26.8164H5.47916ZM11.0173 35.3657H10.4993L7.62004 31.5929L6.96021 35.3657H5.68486L6.79723 29.0485H7.32151L10.1945 32.8092L10.8538 29.0485H12.1354L11.0173 35.3657ZM16.8861 35.3657H12.521L12.732 34.1599H17.097L16.8861 35.3657ZM17.2358 32.8023H12.972L13.1861 31.586H17.4583L17.2358 32.8023ZM17.6809 30.2659H13.4166L13.6276 29.0496H17.8998L17.6809 30.2659ZM23.6457 35.3657L22.805 31.4505L20.5644 35.3657H19.7891L18.8708 29.0485H20.326L20.6952 32.9336L22.8298 29.0485H23.5297L24.315 32.9336L26.0456 29.0485H27.5593L24.4316 35.3657H23.6457ZM32.1449 30.5871C31.6514 30.2956 31.0893 30.1407 30.5161 30.1382C29.6859 30.1382 29.2819 30.4257 29.2819 30.8666C29.2819 31.4088 29.9043 31.4869 30.4207 31.6578C31.273 31.9436 31.9629 32.2596 31.9629 33.4453C31.9629 34.7475 31.0246 35.4569 29.2429 35.4569C28.3616 35.4569 27.6247 35.2939 27.2819 35.045L27.4929 33.8287C27.8457 34.0592 28.5171 34.2797 29.2334 34.2797C30.1232 34.2797 30.5636 34.0286 30.5636 33.5697C30.5636 33.0349 30.0087 32.921 29.5188 32.7675C28.658 32.5085 27.8837 32.172 27.8837 30.9473C27.8837 29.7437 28.7366 28.9478 30.4977 28.9478C31.3094 28.9478 32.0272 29.1292 32.3522 29.3697L32.1449 30.5871Z" fill="black"/>
<path d="M40.3091 30.83C40.3091 29.7672 39.5907 29.0588 38.3576 29.0488H36.0126L34.9012 35.3665H36.2135L36.6154 33.0985H37.5991L38.405 35.3665H39.8291L38.8233 32.926C39.7642 32.5811 40.3091 31.7667 40.3091 30.83ZM37.9071 31.9587H36.8153L37.1202 30.1876H38.2215C38.6708 30.1876 38.9383 30.4671 38.9383 30.926C38.9398 31.5099 38.5195 31.9587 37.9071 31.9587Z" fill="#121212"/>
<path d="M45.7723 30.2646L45.9922 29.0488H41.9346L40.8239 35.3654H44.9774L45.1889 34.1602H42.3455L42.5844 32.801H45.2359L45.4474 31.5853H42.7959L43.0354 30.2646H45.7723Z" fill="#121212"/>
<path d="M51.1121 30.2646L51.3326 29.0488H47.2745L46.1637 35.3654H50.3173L50.5293 34.1602H47.6848L47.9243 32.801H50.5762L50.7872 31.5853H48.1358L48.3747 30.2646H51.1121Z" fill="#121212"/>
<path d="M53.0245 34.1602L53.9244 29.0488H52.6147L51.5034 35.3654H55.4455L55.657 34.1602H53.0245Z" fill="#121212"/>
<path d="M59.589 30.1418C60.2879 30.1418 60.9013 30.3897 61.2178 30.5901L61.4287 29.377C61.1017 29.1376 60.3844 28.9551 59.5727 28.9551C57.8094 28.9551 56.9587 29.7499 56.9587 30.9551C56.9587 32.1793 57.7324 32.5148 58.5938 32.7737C59.0811 32.9277 59.637 33.0427 59.637 33.577C59.637 34.0364 59.1966 34.2864 58.3058 34.2864C57.5879 34.2864 56.9191 34.066 56.5652 33.8355L56.3542 35.0512C56.7002 35.3012 57.4376 35.4642 58.3184 35.4642C60.098 35.4642 61.0358 34.7543 61.0358 33.4531C61.0358 32.2669 60.3454 31.9509 59.4951 31.6645C58.9783 31.4915 58.3564 31.4145 58.3564 30.8697C58.3559 30.4293 58.7578 30.1418 59.589 30.1418Z" fill="#121212"/>
</g>
<defs>
<clipPath id="clip0_0_161">
<rect width="64" height="64" fill="white" transform="translate(0.508301 0.207031)"/>
</clipPath>
</defs>
</svg>
