<svg width="128" height="129" viewBox="0 0 128 129" fill="none" xmlns="http://www.w3.org/2000/svg">
<g clip-path="url(#clip0_0_512)">
<rect width="128" height="128" transform="translate(-0.000488281 0.175781)" fill="black"/>
<rect width="128" height="128" transform="translate(-0.000488281 0.175781)" fill="black"/>
<path d="M22.1883 39.2676L17.0933 68.2523H95.5858L100.683 39.2676H22.1883ZM37.0781 62.2524H35.6884L27.9409 52.1111L26.1665 62.2524H22.7447L25.7294 45.2694H27.1449L34.8628 55.3792L36.6372 45.2694H40.0847L37.0781 62.2524ZM52.8566 62.2524H41.1165L41.6892 59.0119H53.4293L52.8566 62.2524ZM53.793 55.3563H42.3268L42.8995 52.0891H54.3819L53.793 55.3563ZM54.988 48.5384H43.5209L44.0936 45.2703H55.5798L54.988 48.5384ZM71.0232 62.2524L68.7621 51.7293L62.7403 62.2553H60.6566L58.1855 45.2722H62.0989L63.1011 55.718L68.8403 45.2722H70.7197L72.8281 55.718L77.4889 45.2694H81.553L73.1393 62.2524H71.0232ZM93.8687 49.4118C93.0192 48.8715 91.3727 48.2015 89.4934 48.2015C87.2561 48.2015 86.1746 48.9746 86.1746 50.1572C86.1746 51.6243 87.8469 51.8295 89.2356 52.2943C91.5264 53.0646 93.379 53.9169 93.379 57.1049C93.379 60.6031 90.8573 62.5091 86.0715 62.5091C83.7044 62.5091 81.7229 62.0701 80.7971 61.401L81.3621 58.1348C82.3166 58.7514 84.1158 59.3441 86.0458 59.3441C88.4377 59.3441 89.6222 58.676 89.6222 57.4351C89.6222 55.9958 88.1294 55.6865 86.8179 55.2751C84.5024 54.5803 82.4178 53.6793 82.4178 50.3853C82.4178 47.1401 84.7085 45.0069 89.4428 45.0069C91.6285 45.0069 93.5585 45.4965 94.4347 46.1389L93.8687 49.4118Z" fill="#F73458"/>
<path d="M43.1153 88.8288H39.5952L42.5799 71.8467H48.8794C52.1991 71.8725 54.1291 73.7757 54.1291 76.6324C54.1291 79.1551 52.663 81.3409 50.1422 82.2639L52.8424 88.8249H49.0083L46.8493 82.7306H44.1958L43.1153 88.8288ZM50.4486 76.8882C50.4486 75.6541 49.7289 74.9087 48.5196 74.9087H45.5607L44.737 79.6696H47.6701C49.3175 79.6696 50.4486 78.4603 50.4486 76.8882Z" fill="white"/>
<path d="M58.4998 71.8467H69.4104L68.8196 75.1139H61.4596L60.8154 78.6636H67.9444L67.3774 81.9327H60.2503L59.607 85.5854H67.2485L66.6825 88.8307H55.5151L58.4998 71.8467Z" fill="white"/>
<path d="M72.8562 71.8467H83.765L83.1741 75.1139H75.8141L75.1718 78.6636H82.2989L81.7329 81.9327H74.6058L73.9625 85.5854H81.605L81.038 88.8307H69.8706L72.8562 71.8467Z" fill="white"/>
<path d="M87.2088 71.8467H90.7346L88.3169 85.5864H95.3925L94.8265 88.8316H84.2241L87.2088 71.8467Z" fill="white"/>
<path d="M97.269 87.9796L97.8341 84.7124C98.7886 85.329 100.588 85.9227 102.519 85.9227C104.911 85.9227 106.094 85.2545 106.094 84.0137C106.094 82.5725 104.602 82.2642 103.29 81.8528C100.974 81.1579 98.8897 80.2569 98.8897 76.963C98.8897 73.7178 101.181 71.5854 105.915 71.5854C108.101 71.5854 110.031 72.0741 110.907 72.7165L110.34 75.9856C109.491 75.4463 107.845 74.7772 105.966 74.7772C103.727 74.7772 102.647 75.5494 102.647 76.731C102.647 78.199 104.319 78.4043 105.709 78.8681C107.999 79.6393 109.851 80.4907 109.851 83.6787C109.851 87.1778 107.329 89.0839 102.543 89.0839C100.176 89.0877 98.1949 88.6487 97.269 87.9796Z" fill="white"/>
</g>
<defs>
<clipPath id="clip0_0_512">
<rect width="128" height="128" fill="white" transform="translate(-0.000488281 0.175781)"/>
</clipPath>
</defs>
</svg>
