<svg width="257" height="257" viewBox="0 0 257 257" fill="none" xmlns="http://www.w3.org/2000/svg">
<g clip-path="url(#clip0_0_431)">
<path d="M45.3756 78.7393L35.1855 136.709H192.171L202.364 78.7393H45.3756ZM75.1553 124.709H72.3759L56.8809 104.426L53.3321 124.709H46.4885L52.4578 90.7428H55.2888L70.7246 110.962L74.2734 90.7428H81.1685L75.1553 124.709ZM106.712 124.709H83.2321L84.3775 118.228H107.858L106.712 124.709ZM108.585 110.917H85.6527L86.798 104.382H109.763L108.585 110.917ZM110.975 97.281H88.0408L89.1861 90.7447H112.159L110.975 97.281ZM143.045 124.709L138.523 103.663L126.48 124.715H122.312L117.37 90.7485H125.197L127.201 111.64L138.68 90.7485H142.438L146.655 111.64L155.977 90.7428H164.105L147.278 124.709H143.045ZM188.736 99.0277C187.037 97.9472 183.744 96.6071 179.986 96.6071C175.511 96.6071 173.348 98.1534 173.348 100.519C173.348 103.453 176.693 103.863 179.47 104.793C184.052 106.333 187.757 108.038 187.757 114.414C187.757 121.41 182.714 125.222 173.142 125.222C168.408 125.222 164.445 124.344 162.593 123.006L163.723 116.474C165.632 117.707 169.231 118.892 173.091 118.892C177.874 118.892 180.243 117.556 180.243 115.074C180.243 112.196 177.258 111.577 174.635 110.754C170.004 109.365 165.835 107.563 165.835 100.975C165.835 94.4843 170.416 90.2178 179.885 90.2178C184.256 90.2178 188.116 91.1971 189.868 92.4818L188.736 99.0277Z" fill="black"/>
<path d="M87.2316 177.862H80.1914L86.1607 143.898H98.7598C105.399 143.949 109.259 147.756 109.259 153.469C109.259 158.515 106.327 162.886 101.285 164.732L106.686 177.854H99.0175L94.6995 165.666H89.3926L87.2316 177.862ZM101.898 153.981C101.898 151.513 100.459 150.022 98.0402 150.022H92.1224L90.475 159.544H96.3412C99.6361 159.544 101.898 157.125 101.898 153.981Z" fill="black"/>
<path d="M117.997 143.898H139.818L138.636 150.432H123.916L122.628 157.532H136.886L135.752 164.07H121.498L120.211 171.375H135.494L134.362 177.866H112.027L117.997 143.898Z" fill="black"/>
<path d="M146.711 143.898H168.529L167.347 150.432H152.627L151.343 157.532H165.597L164.465 164.07H150.211L148.924 171.375H164.209L163.075 177.866H140.74L146.711 143.898Z" fill="black"/>
<path d="M175.417 143.898H182.468L177.633 171.377H191.784L190.652 177.868H169.447L175.417 143.898Z" fill="black"/>
<path d="M195.535 176.163L196.665 169.629C198.574 170.862 202.173 172.049 206.034 172.049C210.818 172.049 213.185 170.713 213.185 168.232C213.185 165.349 210.202 164.732 207.577 163.91C202.946 162.52 198.777 160.718 198.777 154.13C198.777 147.64 203.358 143.375 212.827 143.375C217.2 143.375 221.06 144.352 222.81 145.637L221.676 152.175C219.979 151.097 216.686 149.759 212.93 149.759C208.451 149.759 206.29 151.303 206.29 153.666C206.29 156.602 209.635 157.013 212.414 157.94C216.996 159.483 220.699 161.186 220.699 167.561C220.699 174.56 215.656 178.372 206.084 178.372C201.35 178.38 197.387 177.501 195.535 176.163Z" fill="black"/>
</g>
<defs>
<clipPath id="clip0_0_431">
<rect width="256" height="256" fill="white" transform="translate(0.998047 0.555664)"/>
</clipPath>
</defs>
</svg>
