<svg width="129" height="129" viewBox="0 0 129 129" fill="none" xmlns="http://www.w3.org/2000/svg">
<g clip-path="url(#clip0_0_476)">
<path d="M23.1868 39.2676L18.0918 68.2523H96.5843L101.681 39.2676H23.1868ZM38.0767 62.2524H36.687L28.9395 52.1111L27.1651 62.2524H23.7433L26.7279 45.2694H28.1434L35.8613 55.3792L37.6357 45.2694H41.0833L38.0767 62.2524ZM53.8552 62.2524H42.1151L42.6878 59.0119H54.4279L53.8552 62.2524ZM54.7915 55.3563H43.3254L43.898 52.0891H55.3804L54.7915 55.3563ZM55.9865 48.5384H44.5194L45.0921 45.2703H56.5783L55.9865 48.5384ZM72.0218 62.2524L69.7606 51.7293L63.7388 62.2553H61.6552L59.184 45.2722H63.0974L64.0996 55.718L69.8389 45.2722H71.7182L73.8267 55.718L78.4874 45.2694H82.5516L74.1378 62.2524H72.0218ZM94.8672 49.4118C94.0177 48.8715 92.3713 48.2015 90.4919 48.2015C88.2546 48.2015 87.1732 48.9746 87.1732 50.1572C87.1732 51.6243 88.8454 51.8295 90.2342 52.2943C92.5249 53.0646 94.3776 53.9169 94.3776 57.1049C94.3776 60.6031 91.8558 62.5091 87.0701 62.5091C84.703 62.5091 82.7215 62.0701 81.7956 61.401L82.3607 58.1348C83.3152 58.7514 85.1144 59.3441 87.0443 59.3441C89.4362 59.3441 90.6207 58.676 90.6207 57.4351C90.6207 55.9958 89.1279 55.6865 87.8165 55.2751C85.5009 54.5803 83.4163 53.6793 83.4163 50.3853C83.4163 47.1401 85.7071 45.0069 90.4413 45.0069C92.6271 45.0069 94.557 45.4965 95.4332 46.1389L94.8672 49.4118Z" fill="#F73458"/>
<path d="M44.1139 88.8288H40.5938L43.5784 71.8467H49.878C53.1976 71.8725 55.1276 73.7757 55.1276 76.6324C55.1276 79.1551 53.6615 81.3409 51.1407 82.2639L53.841 88.8249H50.0068L47.8478 82.7306H45.1943L44.1139 88.8288ZM51.4471 76.8882C51.4471 75.6541 50.7275 74.9087 49.5181 74.9087H46.5592L45.7355 79.6696H48.6686C50.3161 79.6696 51.4471 78.4603 51.4471 76.8882Z" fill="black"/>
<path d="M59.4983 71.8467H70.409L69.8181 75.1139H62.4582L61.8139 78.6636H68.9429L68.3759 81.9327H61.2488L60.6055 85.5854H68.2471L67.6811 88.8307H56.5137L59.4983 71.8467Z" fill="black"/>
<path d="M73.8548 71.8467H84.7635L84.1727 75.1139H76.8127L76.1703 78.6636H83.2974L82.7314 81.9327H75.6043L74.961 85.5854H82.6035L82.0365 88.8307H70.8691L73.8548 71.8467Z" fill="black"/>
<path d="M88.2073 71.8467H91.7332L89.3155 85.5864H96.391L95.825 88.8316H85.2227L88.2073 71.8467Z" fill="black"/>
<path d="M98.2676 87.9796L98.8326 84.7124C99.7871 85.329 101.586 85.9227 103.517 85.9227C105.909 85.9227 107.093 85.2545 107.093 84.0137C107.093 82.5725 105.601 82.2642 104.288 81.8528C101.973 81.1579 99.8883 80.2569 99.8883 76.963C99.8883 73.7178 102.179 71.5854 106.913 71.5854C109.1 71.5854 111.03 72.0741 111.905 72.7165L111.338 75.9856C110.49 75.4463 108.843 74.7772 106.965 74.7772C104.726 74.7772 103.645 75.5494 103.645 76.731C103.645 78.199 105.317 78.4043 106.707 78.8681C108.998 79.6393 110.85 80.4907 110.85 83.6787C110.85 87.1778 108.328 89.0839 103.542 89.0839C101.175 89.0877 99.1934 88.6487 98.2676 87.9796Z" fill="black"/>
</g>
<defs>
<clipPath id="clip0_0_476">
<rect width="128" height="128" fill="white" transform="translate(0.998047 0.175781)"/>
</clipPath>
</defs>
</svg>
