<svg width="1024" height="1025" viewBox="0 0 1024 1025" fill="none" xmlns="http://www.w3.org/2000/svg">
<g clip-path="url(#clip0_0_764)">
<rect width="1024" height="1024" transform="translate(0 0.0620117)" fill="white"/>
<path d="M174.709 311.129L133.608 544.948H766.805L807.922 311.129H174.709ZM294.825 496.547H283.614L221.115 414.737L206.802 496.547H179.198L203.275 359.545H214.694L276.954 441.101L291.268 359.545H319.079L294.825 496.547ZM422.11 496.547H327.403L332.023 470.406H426.73L422.11 496.547ZM429.663 440.916H337.166L341.786 414.56H434.414L429.663 440.916ZM439.303 385.917H346.799L351.418 359.553H444.077L439.303 385.917ZM568.659 496.547L550.419 411.657L501.841 496.57H485.032L465.098 359.568H496.667L504.751 443.834L551.05 359.568H566.211L583.22 443.834L620.818 359.545H653.603L585.73 496.547H568.659ZM752.953 392.962C746.1 388.604 732.818 383.199 717.657 383.199C699.609 383.199 690.885 389.436 690.885 398.976C690.885 410.81 704.375 412.465 715.578 416.215C734.058 422.429 749.003 429.305 749.003 455.022C749.003 483.242 728.66 498.618 690.054 498.618C670.958 498.618 654.974 495.076 647.505 489.679L652.063 463.33C659.763 468.304 674.277 473.086 689.846 473.086C709.142 473.086 718.697 467.696 718.697 457.686C718.697 446.075 706.654 443.58 696.075 440.262C677.395 434.656 660.579 427.388 660.579 400.816C660.579 374.636 679.059 357.428 717.249 357.428C734.882 357.428 750.451 361.378 757.519 366.559L752.953 392.962Z" fill="#F73458"/>
<path d="M343.535 710.939H315.138L339.216 573.945H390.034C416.814 574.153 432.383 589.506 432.383 612.551C432.383 632.902 420.556 650.534 400.221 657.98L422.003 710.908H391.073L373.657 661.745H352.251L343.535 710.939ZM402.692 614.615C402.692 604.659 396.887 598.646 387.131 598.646H363.262L356.617 637.052H380.278C393.568 637.052 402.692 627.296 402.692 614.615Z" fill="black"/>
<path d="M467.63 573.945H555.646L550.88 600.301H491.507L486.31 628.936H543.819L539.246 655.308H481.751L476.562 684.775H538.206L533.64 710.954H443.553L467.63 573.945Z" fill="black"/>
<path d="M583.444 573.945H671.445L666.678 600.301H607.306L602.124 628.936H659.618L655.052 655.308H597.558L592.368 684.775H654.02L649.446 710.954H559.359L583.444 573.945Z" fill="black"/>
<path d="M699.23 573.945H727.673L708.17 684.783H765.248L760.682 710.962H675.153L699.23 573.945Z" fill="black"/>
<path d="M780.378 704.086L784.937 677.73C792.636 682.704 807.15 687.493 822.727 687.493C842.023 687.493 851.57 682.103 851.57 672.093C851.57 660.467 839.536 657.98 828.948 654.661C810.269 649.056 793.452 641.787 793.452 615.215C793.452 589.036 811.932 571.835 850.123 571.835C867.763 571.835 883.332 575.777 890.392 580.959L885.819 607.331C878.974 602.98 865.692 597.583 850.538 597.583C832.475 597.583 823.759 603.812 823.759 613.344C823.759 625.187 837.249 626.842 848.46 630.584C866.939 636.806 881.877 643.674 881.877 669.391C881.877 697.618 861.534 712.995 822.927 712.995C803.832 713.025 787.847 709.484 780.378 704.086Z" fill="black"/>
</g>
<defs>
<clipPath id="clip0_0_764">
<rect y="0.0620117" width="1024" height="1024" rx="512" fill="white"/>
</clipPath>
</defs>
</svg>
