<svg width="33" height="33" viewBox="0 0 33 33" fill="none" xmlns="http://www.w3.org/2000/svg">
<g clip-path="url(#clip0_0_971)">
<rect width="32" height="32" transform="translate(0.727051 0.36084)" fill="black"/>
<path d="M6.18676 10.0817L4.90234 17.3885H24.6898L25.9747 10.0817H6.18676ZM9.94039 15.876H9.59005L7.63696 13.3194L7.18965 15.876H6.32704L7.07945 11.5947H7.43629L9.38192 14.1433L9.82923 11.5947H10.6983L9.94039 15.876ZM13.918 15.876H10.9584L11.1028 15.0591H14.0624L13.918 15.876ZM14.1541 14.1375H11.2635L11.4079 13.3139H14.3025L14.1541 14.1375ZM14.4553 12.4188H11.5646L11.7089 11.5949H14.6045L14.4553 12.4188ZM18.4977 15.876L17.9277 13.2232L16.4096 15.8767H15.8844L15.2614 11.5954H16.2479L16.5006 14.2287L17.9474 11.5954H18.4212L18.9527 14.2287L20.1277 11.5947H21.1522L19.0312 15.876H18.4977ZM24.2569 12.6389C24.0427 12.5028 23.6277 12.3338 23.1539 12.3338C22.5899 12.3338 22.3173 12.5287 22.3173 12.8269C22.3173 13.1967 22.7388 13.2484 23.0889 13.3656C23.6664 13.5598 24.1335 13.7747 24.1335 14.5783C24.1335 15.4602 23.4977 15.9407 22.2913 15.9407C21.6946 15.9407 21.195 15.83 20.9616 15.6613L21.1041 14.838C21.3447 14.9934 21.7983 15.1428 22.2848 15.1428C22.8878 15.1428 23.1864 14.9744 23.1864 14.6616C23.1864 14.2987 22.8101 14.2208 22.4794 14.1171C21.8957 13.9419 21.3702 13.7147 21.3702 12.8844C21.3702 12.0663 21.9477 11.5285 23.1411 11.5285C23.6922 11.5285 24.1787 11.6519 24.3996 11.8139L24.2569 12.6389Z" fill="white"/>
<path d="M11.4626 22.5757H10.5752L11.3276 18.2947H12.9157C13.7525 18.3012 14.2391 18.781 14.2391 19.5011C14.2391 20.1371 13.8695 20.6881 13.234 20.9208L13.9147 22.5748H12.9482L12.4039 21.0384H11.735L11.4626 22.5757ZM13.3113 19.5656C13.3113 19.2545 13.1298 19.0666 12.825 19.0666H12.0791L11.8714 20.2668H12.6108C13.0261 20.2668 13.3113 19.9619 13.3113 19.5656Z" fill="white"/>
<path d="M15.3405 18.2947H18.091L17.9421 19.1183H16.0867L15.9243 20.0132H17.7215L17.5785 20.8373H15.7818L15.6197 21.7581H17.546L17.4034 22.5762H14.5881L15.3405 18.2947Z" fill="white"/>
<path d="M18.9597 18.2947H21.7097L21.5608 19.1183H19.7054L19.5434 20.0132H21.3401L21.1974 20.8373H19.4007L19.2386 21.7581H21.1652L21.0223 22.5762H18.207L18.9597 18.2947Z" fill="white"/>
<path d="M22.5781 18.2947H23.4669L22.8575 21.7584H24.6411L24.4985 22.5765H21.8257L22.5781 18.2947Z" fill="white"/>
<path d="M25.1139 22.3616L25.2563 21.538C25.497 21.6934 25.9505 21.8431 26.4373 21.8431C27.0403 21.8431 27.3386 21.6746 27.3386 21.3618C27.3386 20.9985 26.9626 20.9208 26.6317 20.8171C26.048 20.6419 25.5225 20.4148 25.5225 19.5844C25.5225 18.7663 26.0999 18.2288 27.2934 18.2288C27.8447 18.2288 28.3312 18.352 28.5518 18.5139L28.4089 19.338C28.195 19.2021 27.7799 19.0334 27.3064 19.0334C26.7419 19.0334 26.4695 19.228 26.4695 19.5259C26.4695 19.896 26.8911 19.9477 27.2414 20.0647C27.8189 20.2591 28.2857 20.4737 28.2857 21.2774C28.2857 22.1595 27.65 22.64 26.4435 22.64C25.8468 22.641 25.3473 22.5303 25.1139 22.3616Z" fill="white"/>
</g>
<defs>
<clipPath id="clip0_0_971">
<rect x="0.727051" y="0.36084" width="32" height="32" rx="16" fill="white"/>
</clipPath>
</defs>
</svg>
