<svg width="1025" height="1025" viewBox="0 0 1025 1025" fill="none" xmlns="http://www.w3.org/2000/svg">
<g clip-path="url(#clip0_0_791)">
<rect width="1024" height="1024" transform="translate(0.727539 0.36084)" fill="black"/>
<path d="M175.437 311.428L134.335 545.246H767.533L808.649 311.428H175.437ZM295.553 496.846H284.342L221.843 415.036L207.529 496.846H179.925L204.003 359.844H215.421L277.682 441.4L291.995 359.844H319.807L295.553 496.846ZM422.837 496.846H328.13L332.75 470.705H427.457L422.837 496.846ZM430.391 441.215H337.894L342.514 414.859H435.142L430.391 441.215ZM440.031 386.216H347.526L352.146 359.852H444.805L440.031 386.216ZM569.387 496.846L551.146 411.956L502.568 496.869H485.76L465.825 359.867H497.394L505.479 444.133L551.778 359.867H566.938L583.947 444.133L621.545 359.844H654.331L586.457 496.846H569.387ZM753.681 393.261C746.828 388.903 733.546 383.498 718.385 383.498C700.337 383.498 691.613 389.734 691.613 399.274C691.613 411.109 705.103 412.764 716.306 416.514C734.785 422.728 749.731 429.604 749.731 455.321C749.731 483.541 729.388 498.917 690.781 498.917C671.686 498.917 655.701 495.375 648.232 489.978L652.791 463.629C660.491 468.603 675.005 473.385 690.573 473.385C709.869 473.385 719.424 467.995 719.424 457.985C719.424 446.374 707.382 443.879 696.803 440.56C678.123 434.955 661.307 427.686 661.307 401.115C661.307 374.935 679.786 357.726 717.977 357.726C735.609 357.726 751.178 361.676 758.247 366.858L753.681 393.261Z" fill="white"/>
<path d="M344.263 711.238H315.866L339.943 574.244H390.762C417.541 574.452 433.11 589.805 433.11 612.85C433.11 633.201 421.283 650.833 400.948 658.279L422.731 711.207H391.801L374.384 662.044H352.979L344.263 711.238ZM403.42 614.914C403.42 604.958 397.614 598.945 387.859 598.945H363.99L357.345 637.351H381.006C394.296 637.351 403.42 627.595 403.42 614.914Z" fill="white"/>
<path d="M468.358 574.244H556.374L551.607 600.6H492.235L487.037 629.235H544.547L539.973 655.607H482.479L477.289 685.074H538.934L534.368 711.253H444.281L468.358 574.244Z" fill="white"/>
<path d="M584.172 574.244H672.172L667.406 600.6H608.033L602.851 629.235H660.345L655.779 655.607H598.285L593.096 685.074H654.748L650.174 711.253H560.087L584.172 574.244Z" fill="white"/>
<path d="M699.958 574.244H728.401L708.897 685.082H765.976L761.41 711.261H675.881L699.958 574.244Z" fill="white"/>
<path d="M781.106 704.385L785.664 678.029C793.364 683.003 807.878 687.792 823.455 687.792C842.75 687.792 852.298 682.402 852.298 672.392C852.298 660.766 840.263 658.279 829.676 654.96C810.996 649.355 794.18 642.086 794.18 615.514C794.18 589.335 812.66 572.134 850.85 572.134C868.49 572.134 884.059 576.076 891.12 581.258L886.546 607.63C879.701 603.279 866.419 597.882 851.266 597.882C833.202 597.882 824.486 604.111 824.486 613.643C824.486 625.485 837.976 627.141 849.187 630.883C867.667 637.105 882.604 643.973 882.604 669.69C882.604 697.917 862.261 713.294 823.655 713.294C804.559 713.324 788.575 709.783 781.106 704.385Z" fill="white"/>
</g>
<defs>
<clipPath id="clip0_0_791">
<rect x="0.727539" y="0.36084" width="1024" height="1024" rx="512" fill="white"/>
</clipPath>
</defs>
</svg>
