<svg width="513" height="513" viewBox="0 0 513 513" fill="none" xmlns="http://www.w3.org/2000/svg">
<g clip-path="url(#clip0_0_359)">
<path d="M89.7531 156.923L69.373 272.862H383.343L403.731 156.923H89.7531ZM149.313 248.863H143.754L112.764 208.297L105.666 248.863H91.9789L103.918 180.93H109.58L140.451 221.37L147.549 180.93H161.339L149.313 248.863ZM212.427 248.863H165.466L167.757 235.901H214.717L212.427 248.863ZM216.172 221.278H170.307L172.598 208.209H218.528L216.172 221.278ZM220.952 194.007H175.083L177.374 180.934H223.319L220.952 194.007ZM285.093 248.863L276.048 206.77L251.961 248.874H243.627L233.742 180.942H249.395L253.404 222.725L276.361 180.942H283.879L292.313 222.725L310.955 180.93H327.212L293.557 248.863H285.093ZM376.475 197.5C373.077 195.339 366.491 192.659 358.973 192.659C350.024 192.659 345.699 195.752 345.699 200.482C345.699 206.35 352.388 207.171 357.943 209.03C367.106 212.111 374.516 215.521 374.516 228.273C374.516 242.265 364.429 249.89 345.286 249.89C335.818 249.89 327.892 248.133 324.188 245.457L326.449 232.392C330.267 234.859 337.463 237.229 345.183 237.229C354.751 237.229 359.489 234.557 359.489 229.594C359.489 223.836 353.518 222.599 348.272 220.954C339.01 218.174 330.671 214.57 330.671 201.394C330.671 188.413 339.834 179.881 358.771 179.881C367.514 179.881 375.234 181.839 378.739 184.409L376.475 197.5Z" fill="black"/>
<path d="M173.465 355.169H159.385L171.323 287.24H196.522C209.8 287.343 217.52 294.956 217.52 306.383C217.52 316.474 211.656 325.217 201.573 328.909L212.374 355.153H197.037L188.401 330.776H177.787L173.465 355.169ZM202.798 307.406C202.798 302.47 199.92 299.488 195.082 299.488H183.247L179.952 318.532H191.684C198.274 318.532 202.798 313.695 202.798 307.406Z" fill="black"/>
<path d="M234.997 287.24H278.64L276.277 300.309H246.837L244.259 314.508H272.775L270.508 327.584H241.999L239.426 342.195H269.992L267.728 355.176H223.059L234.997 287.24Z" fill="black"/>
<path d="M292.423 287.24H336.058L333.695 300.309H304.255L301.685 314.508H330.194L327.93 327.584H299.421L296.848 342.195H327.418L325.15 355.176H280.48L292.423 287.24Z" fill="black"/>
<path d="M349.835 287.24H363.938L354.268 342.199H382.57L380.306 355.18H337.896L349.835 287.24Z" fill="black"/>
<path d="M390.072 351.771L392.332 338.702C396.15 341.169 403.347 343.543 411.071 343.543C420.638 343.543 425.373 340.871 425.373 335.907C425.373 330.142 419.405 328.909 414.156 327.264C404.893 324.484 396.555 320.88 396.555 307.705C396.555 294.724 405.718 286.194 424.655 286.194C433.402 286.194 441.122 288.149 444.623 290.719L442.355 303.795C438.961 301.638 432.375 298.961 424.861 298.961C415.904 298.961 411.582 302.05 411.582 306.777C411.582 312.649 418.271 313.47 423.83 315.325C432.993 318.41 440.4 321.815 440.4 334.567C440.4 348.564 430.313 356.188 411.17 356.188C401.702 356.203 393.776 354.447 390.072 351.771Z" fill="black"/>
</g>
<defs>
<clipPath id="clip0_0_359">
<rect width="512" height="512" fill="white" transform="translate(0.998047 0.555664)"/>
</clipPath>
</defs>
</svg>
