<svg width="24" height="25" viewBox="0 0 24 25" fill="none" xmlns="http://www.w3.org/2000/svg">
<g clip-path="url(#clip0_0_710)">
<rect width="24" height="24" transform="translate(0 0.175781)" fill="black"/>
<rect width="24" height="24" transform="translate(0 0.175781)" fill="black"/>
<path d="M4.16039 7.50537L3.20508 12.94H17.9224L18.8781 7.50537H4.16039ZM6.95224 11.815H6.69167L5.23901 9.91352L4.90632 11.815H4.26473L4.82435 8.6307H5.08976L6.53687 10.5263L6.86956 8.6307H7.51598L6.95224 11.815ZM9.91071 11.815H7.70944L7.81682 11.2074H10.0181L9.91071 11.815ZM10.0863 10.522H7.93637L8.04375 9.90941H10.1967L10.0863 10.522ZM10.3103 9.24366H8.16026L8.26763 8.63088H10.4213L10.3103 9.24366ZM13.3169 11.815L12.893 9.84194L11.7639 11.8156H11.3732L10.9099 8.63124H11.6436L11.8315 10.5898L12.9077 8.63124H13.26L13.6554 10.5898L14.5293 8.6307H15.2913L13.7137 11.815H13.3169ZM17.6005 9.40741C17.4412 9.30612 17.1325 9.18048 16.7801 9.18048C16.3606 9.18048 16.1578 9.32544 16.1578 9.54718C16.1578 9.82225 16.4714 9.86073 16.7318 9.94788C17.1613 10.0923 17.5087 10.2521 17.5087 10.8499C17.5087 11.5058 17.0358 11.8632 16.1385 11.8632C15.6947 11.8632 15.3231 11.7808 15.1495 11.6554L15.2555 11.043C15.4345 11.1586 15.7718 11.2697 16.1337 11.2697C16.5822 11.2697 16.8043 11.1444 16.8043 10.9118C16.8043 10.6419 16.5244 10.5839 16.2785 10.5068C15.8443 10.3765 15.4534 10.2076 15.4534 9.58995C15.4534 8.98147 15.8829 8.58149 16.7706 8.58149C17.1804 8.58149 17.5423 8.6733 17.7066 8.79374L17.6005 9.40741Z" fill="#F73458"/>
<path d="M8.08385 16.7984H7.42383L7.98345 13.6143H9.16462C9.78706 13.6191 10.1489 13.9759 10.1489 14.5116C10.1489 14.9846 9.87404 15.3944 9.40139 15.5675L9.90768 16.7977H9.18878L8.78396 15.655H8.28644L8.08385 16.7984ZM9.45884 14.5596C9.45884 14.3281 9.3239 14.1884 9.09715 14.1884H8.54236L8.38791 15.0811H8.93787C9.24676 15.0811 9.45884 14.8543 9.45884 14.5596Z" fill="white"/>
<path d="M10.9678 13.6143H13.0136L12.9028 14.2269H11.5228L11.402 14.8924H12.7387L12.6324 15.5054H11.296L11.1754 16.1903H12.6082L12.5021 16.7988H10.4082L10.9678 13.6143Z" fill="white"/>
<path d="M13.6614 13.6143H15.7068L15.596 14.2269H14.216L14.0955 14.8924H15.4319L15.3257 15.5054H13.9894L13.8688 16.1903H15.3018L15.1955 16.7988H13.1016L13.6614 13.6143Z" fill="white"/>
<path d="M16.3526 13.6143H17.0137L16.5604 16.1905H17.887L17.7809 16.7989H15.793L16.3526 13.6143Z" fill="white"/>
<path d="M18.2383 16.6388L18.3442 16.0262C18.5232 16.1419 18.8605 16.2532 19.2226 16.2532C19.6711 16.2532 19.893 16.1279 19.893 15.8952C19.893 15.625 19.6133 15.5672 19.3672 15.4901C18.933 15.3598 18.5422 15.1908 18.5422 14.5732C18.5422 13.9648 18.9717 13.5649 19.8593 13.5649C20.2694 13.5649 20.6312 13.6566 20.7953 13.777L20.689 14.39C20.5299 14.2889 20.2212 14.1634 19.869 14.1634C19.4492 14.1634 19.2466 14.3082 19.2466 14.5297C19.2466 14.805 19.5601 14.8435 19.8207 14.9304C20.2502 15.075 20.5974 15.2347 20.5974 15.8324C20.5974 16.4885 20.1246 16.8459 19.2272 16.8459C18.7834 16.8466 18.4119 16.7643 18.2383 16.6388Z" fill="white"/>
</g>
<defs>
<clipPath id="clip0_0_710">
<rect width="24" height="24" fill="white" transform="translate(0 0.175781)"/>
</clipPath>
</defs>
</svg>
