<svg width="1025" height="1025" viewBox="0 0 1025 1025" fill="none" xmlns="http://www.w3.org/2000/svg">
<g clip-path="url(#clip0_0_53)">
<path d="M178.508 313.291L137.748 545.168H765.688L806.464 313.291H178.508ZM297.627 497.17H286.509L224.529 416.039L210.334 497.17H182.96L206.837 361.305H218.161L279.904 442.184L294.099 361.305H321.68L297.627 497.17ZM423.855 497.17H329.934L334.516 471.246H428.436L423.855 497.17ZM431.346 442.001H339.617L344.198 415.863H436.057L431.346 442.001ZM440.906 387.458H349.169L353.75 361.313H445.64L440.906 387.458ZM569.188 497.17L551.099 412.984L502.924 497.192H486.255L466.486 361.328H497.793L505.81 444.895L551.725 361.328H566.76L583.627 444.895L620.913 361.305H653.426L586.116 497.17H569.188ZM751.951 394.445C745.156 390.123 731.984 384.762 716.949 384.762C699.05 384.762 690.399 390.947 690.399 400.408C690.399 412.145 703.777 413.786 714.887 417.505C733.213 423.667 748.034 430.486 748.034 455.99C748.034 483.975 727.86 499.224 689.574 499.224C670.637 499.224 654.785 495.711 647.379 490.358L651.899 464.229C659.535 469.161 673.929 473.903 689.368 473.903C708.504 473.903 717.98 468.558 717.98 458.632C717.98 447.117 706.037 444.643 695.546 441.352C677.021 435.793 660.344 428.584 660.344 402.233C660.344 376.271 678.67 359.205 716.544 359.205C734.03 359.205 749.47 363.122 756.479 368.261L751.951 394.445Z" fill="black"/>
<path d="M345.932 709.781H317.771L341.649 573.925H392.045C418.603 574.131 434.042 589.357 434.042 612.211C434.042 632.392 422.314 649.878 402.147 657.262L423.749 709.751H393.076L375.804 660.996H354.576L345.932 709.781ZM404.599 614.257C404.599 604.384 398.841 598.421 389.167 598.421H365.495L358.906 636.508H382.371C395.55 636.508 404.599 626.834 404.599 614.257Z" fill="black"/>
<path d="M468.996 573.925H556.282L551.555 600.062H492.675L487.521 628.46H544.553L540.017 654.613H483L477.854 683.835H538.986L534.458 709.797H445.119L468.996 573.925Z" fill="black"/>
<path d="M583.848 573.925H671.118L666.391 600.062H607.511L602.372 628.46H659.389L654.861 654.613H597.844L592.698 683.835H653.838L649.302 709.797H559.963L583.848 573.925Z" fill="black"/>
<path d="M698.672 573.925H726.879L707.537 683.843H764.142L759.614 709.804H674.795L698.672 573.925Z" fill="black"/>
<path d="M779.146 702.986L783.667 676.849C791.303 681.781 805.696 686.531 821.144 686.531C840.279 686.531 849.747 681.186 849.747 671.259C849.747 659.729 837.813 657.263 827.313 653.972C808.789 648.413 792.112 641.205 792.112 614.853C792.112 588.892 810.438 571.833 848.312 571.833C865.806 571.833 881.245 575.742 888.247 580.881L883.712 607.034C876.923 602.72 863.751 597.367 848.724 597.367C830.811 597.367 822.167 603.545 822.167 612.998C822.167 624.742 835.545 626.383 846.663 630.094C864.989 636.264 879.802 643.075 879.802 668.579C879.802 696.572 859.628 711.821 821.342 711.821C802.405 711.851 786.553 708.339 779.146 702.986Z" fill="black"/>
</g>
<defs>
<clipPath id="clip0_0_53">
<rect width="1024" height="1024" fill="white" transform="translate(0.998047 0.555664)"/>
</clipPath>
</defs>
</svg>
