<svg width="1025" height="1025" viewBox="0 0 1025 1025" fill="none" xmlns="http://www.w3.org/2000/svg">
<g clip-path="url(#clip0_0_251)">
<path d="M79.9073 426.374L49.645 598.884H516.736L547.074 426.374H79.9073ZM168.517 563.162H160.23L114.161 502.798L103.604 563.162H83.1985L100.996 462.088H109.385L155.352 522.258L165.901 462.088H186.408L168.517 563.162ZM262.418 563.162H192.577L195.952 543.87H265.793L262.418 563.162ZM268.013 522.148H199.792L203.218 502.688H271.574L268.013 522.148ZM275.135 481.565H206.906L210.282 462.105H278.638L275.135 481.565ZM370.572 563.162L357.12 500.519L321.272 563.162H308.866L294.174 462.088H317.457L323.364 524.25L357.517 462.088H368.716L381.281 524.25L408.97 462.088H433.19L383.146 563.162H370.572ZM506.559 486.705C498.663 482.041 489.669 479.562 480.499 479.523C467.216 479.523 460.752 484.122 460.752 491.177C460.752 499.853 470.71 501.101 478.971 503.836C492.609 508.41 503.647 513.465 503.647 532.436C503.647 553.271 488.634 564.622 460.127 564.622C446.026 564.622 434.236 562.014 428.751 558.031L432.126 538.571C437.772 542.259 448.515 545.786 459.975 545.786C474.212 545.786 481.258 541.769 481.258 534.427C481.258 525.87 472.381 524.047 464.541 521.591C450.768 517.448 438.38 512.064 438.38 492.468C438.38 473.211 452.026 460.476 480.204 460.476C493.191 460.476 504.677 463.379 509.875 467.227L506.559 486.705Z" fill="white"/>
<path d="M637.186 490.587C637.186 473.582 625.692 462.249 605.962 462.088H568.442L550.661 563.171H571.657L578.088 526.883H593.826L606.721 563.171H629.507L613.413 524.124C628.469 518.604 637.186 505.575 637.186 490.587ZM598.755 508.646H581.286L586.164 480.308H603.784C610.975 480.308 615.253 484.781 615.253 492.123C615.278 501.465 608.552 508.646 598.755 508.646Z" fill="white"/>
<path d="M724.597 481.548L728.117 462.096H663.195L645.423 563.162H711.88L715.264 543.879H669.769L673.592 522.131H716.015L719.399 502.679H676.976L680.807 481.548H724.597Z" fill="white"/>
<path d="M810.034 481.548L813.561 462.096H748.632L730.859 563.162H797.316L800.709 543.879H755.197L759.029 522.131H801.46L804.836 502.679H762.413L766.236 481.548H810.034Z" fill="white"/>
<path d="M840.634 543.879L855.031 462.096H834.077L816.296 563.162H879.369L882.753 543.879H840.634Z" fill="white"/>
<path d="M945.666 479.574C956.848 479.574 966.662 483.54 971.726 486.747L975.101 467.337C969.869 463.506 958.392 460.586 945.404 460.586C917.193 460.586 903.581 473.304 903.581 492.587C903.581 512.174 915.961 517.541 929.742 521.684C937.539 524.149 946.434 525.988 946.434 534.537C946.434 541.887 939.387 545.888 925.134 545.888C913.648 545.888 902.948 542.36 897.285 538.672L893.909 558.124C899.445 562.124 911.243 564.732 925.336 564.732C953.81 564.732 968.814 553.373 968.814 532.554C968.814 513.575 957.767 508.52 944.164 503.937C935.894 501.169 925.944 499.937 925.944 491.22C925.936 484.173 932.366 479.574 945.666 479.574Z" fill="white"/>
</g>
<defs>
<clipPath id="clip0_0_251">
<rect width="1024" height="1024" fill="white" transform="translate(0.373047 0.628906)"/>
</clipPath>
</defs>
</svg>
