<svg width="1025" height="1025" viewBox="0 0 1025 1025" fill="none" xmlns="http://www.w3.org/2000/svg">
<g clip-path="url(#clip0_0_26)">
<path d="M178.508 312.911L137.748 544.789H765.688L806.464 312.911H178.508ZM297.627 496.79H286.509L224.529 415.659L210.334 496.79H182.96L206.837 360.925H218.161L279.904 441.804L294.099 360.925H321.68L297.627 496.79ZM423.855 496.79H329.934L334.516 470.866H428.436L423.855 496.79ZM431.346 441.621H339.617L344.198 415.483H436.057L431.346 441.621ZM440.906 387.078H349.169L353.75 360.933H445.64L440.906 387.078ZM569.188 496.79L551.099 412.605L502.924 496.813H486.255L466.486 360.948H497.793L505.81 444.515L551.725 360.948H566.76L583.627 444.515L620.913 360.925H653.426L586.116 496.79H569.188ZM751.951 394.065C745.156 389.743 731.984 384.383 716.949 384.383C699.05 384.383 690.399 390.568 690.399 400.028C690.399 411.765 703.777 413.406 714.887 417.125C733.213 423.287 748.034 430.106 748.034 455.61C748.034 483.595 727.86 498.844 689.574 498.844C670.637 498.844 654.785 495.331 647.379 489.979L651.899 463.849C659.535 468.781 673.929 473.523 689.368 473.523C708.504 473.523 717.98 468.178 717.98 458.252C717.98 446.737 706.037 444.263 695.546 440.972C677.021 435.413 660.344 428.205 660.344 401.853C660.344 375.891 678.67 358.825 716.544 358.825C734.03 358.825 749.47 362.743 756.479 367.881L751.951 394.065Z" fill="#F73458"/>
<path d="M345.932 709.402H317.771L341.649 573.545H392.045C418.603 573.751 434.042 588.977 434.042 611.831C434.042 632.012 422.314 649.498 402.147 656.882L423.749 709.371H393.076L375.804 660.616H354.576L345.932 709.402ZM404.599 613.877C404.599 604.004 398.841 598.041 389.167 598.041H365.495L358.906 636.128H382.371C395.55 636.128 404.599 626.454 404.599 613.877Z" fill="black"/>
<path d="M468.996 573.545H556.282L551.555 599.682H492.675L487.521 628.08H544.553L540.017 654.233H483L477.854 683.455H538.986L534.458 709.417H445.119L468.996 573.545Z" fill="black"/>
<path d="M583.848 573.545H671.118L666.391 599.682H607.511L602.372 628.08H659.389L654.861 654.233H597.844L592.698 683.455H653.838L649.302 709.417H559.963L583.848 573.545Z" fill="black"/>
<path d="M698.672 573.545H726.879L707.537 683.463H764.142L759.614 709.424H674.795L698.672 573.545Z" fill="black"/>
<path d="M779.146 702.606L783.667 676.469C791.303 681.401 805.696 686.151 821.144 686.151C840.279 686.151 849.747 680.806 849.747 670.879C849.747 659.349 837.813 656.883 827.313 653.592C808.789 648.033 792.112 640.825 792.112 614.473C792.112 588.512 810.438 571.453 848.312 571.453C865.806 571.453 881.245 575.363 888.247 580.501L883.712 606.654C876.923 602.34 863.751 596.987 848.724 596.987C830.811 596.987 822.167 603.165 822.167 612.618C822.167 624.362 835.545 626.004 846.663 629.715C864.989 635.884 879.802 642.695 879.802 668.199C879.802 696.192 859.628 711.441 821.342 711.441C802.405 711.471 786.553 707.959 779.146 702.606Z" fill="black"/>
</g>
<defs>
<clipPath id="clip0_0_26">
<rect width="1024" height="1024" fill="white" transform="translate(0.998047 0.175781)"/>
</clipPath>
</defs>
</svg>
