<svg width="24" height="25" viewBox="0 0 24 25" fill="none" xmlns="http://www.w3.org/2000/svg">
<g clip-path="url(#clip0_0_737)">
<rect y="0.175781" width="24" height="24" rx="6" fill="black"/>
<rect width="24" height="24" transform="translate(0 0.175781)" fill="black"/>
<path d="M1.78417 6.08963L0.539307 13.1715H19.7174L20.9627 6.08963H1.78417ZM5.42221 11.7055H5.08266L3.18971 9.22768L2.75618 11.7055H1.92013L2.64937 7.55604H2.99522L4.88094 10.0262L5.31447 7.55604H6.15682L5.42221 11.7055ZM9.27737 11.7055H6.40891L6.54884 10.9138H9.4173L9.27737 11.7055ZM9.50615 10.0206H6.70462L6.84455 9.22231H9.65004L9.50615 10.0206ZM9.79812 8.35478H6.99637L7.13629 7.55628H9.94271L9.79812 8.35478ZM13.716 11.7055L13.1635 9.13439L11.6922 11.7062H11.1831L10.5794 7.55674H11.5355L11.7804 10.109L13.1827 7.55674H13.6419L14.157 10.109L15.2958 7.55604H16.2888L14.233 11.7055H13.716ZM19.2978 8.56816C19.0903 8.43617 18.688 8.27246 18.2288 8.27246C17.6822 8.27246 17.418 8.46136 17.418 8.7503C17.418 9.10874 17.8265 9.15888 18.1659 9.27245C18.7256 9.46065 19.1782 9.66891 19.1782 10.4478C19.1782 11.3025 18.5621 11.7682 17.3928 11.7682C16.8144 11.7682 16.3303 11.661 16.1041 11.4975L16.2421 10.6995C16.4753 10.8501 16.9149 10.9949 17.3865 10.9949C17.9709 10.9949 18.2603 10.8317 18.2603 10.5285C18.2603 10.1768 17.8956 10.1013 17.5751 10.0008C17.0094 9.83098 16.5001 9.61083 16.5001 8.80603C16.5001 8.01313 17.0597 7.49191 18.2165 7.49191C18.7505 7.49191 19.2221 7.61154 19.4361 7.76849L19.2978 8.56816Z" fill="#F73458"/>
<path d="M6.89681 18.1995H6.03674L6.76598 14.0502H8.30516C9.11625 14.0565 9.5878 14.5216 9.5878 15.2195C9.5878 15.8359 9.22959 16.37 8.61369 16.5955L9.27343 18.1985H8.33664L7.80912 16.7095H7.16081L6.89681 18.1995ZM8.68855 15.2821C8.68855 14.9805 8.51271 14.7984 8.21724 14.7984H7.49429L7.29303 15.9616H8.00968C8.4122 15.9616 8.68855 15.6661 8.68855 15.2821Z" fill="white"/>
<path d="M10.6549 14.0502H13.3207L13.1763 14.8485H11.3781L11.2207 15.7158H12.9625L12.824 16.5146H11.0826L10.9254 17.407H12.7925L12.6542 18.1999H9.92566L10.6549 14.0502Z" fill="white"/>
<path d="M14.1649 14.0502H16.8302L16.6859 14.8485H14.8876L14.7307 15.7158H16.472L16.3337 16.5146H14.5924L14.4352 17.407H16.3025L16.164 18.1999H13.4354L14.1649 14.0502Z" fill="white"/>
<path d="M17.6717 14.0502H18.5332L17.9425 17.4073H19.6713L19.533 18.2002H16.9425L17.6717 14.0502Z" fill="white"/>
<path d="M20.129 17.9915L20.2671 17.1932C20.5003 17.3439 20.9399 17.4889 21.4117 17.4889C21.9961 17.4889 22.2853 17.3257 22.2853 17.0225C22.2853 16.6704 21.9208 16.595 21.6001 16.4945C21.0343 16.3248 20.525 16.1046 20.525 15.2998C20.525 14.5069 21.0847 13.9859 22.2414 13.9859C22.7757 13.9859 23.2473 14.1053 23.4611 14.2623L23.3226 15.061C23.1153 14.9292 22.713 14.7658 22.254 14.7658C21.7069 14.7658 21.4429 14.9544 21.4429 15.2431C21.4429 15.6018 21.8515 15.652 22.1911 15.7653C22.7508 15.9537 23.2032 16.1617 23.2032 16.9407C23.2032 17.7956 22.587 18.2613 21.4177 18.2613C20.8394 18.2622 20.3552 18.155 20.129 17.9915Z" fill="white"/>
</g>
<defs>
<clipPath id="clip0_0_737">
<rect y="0.175781" width="24" height="24" rx="6" fill="white"/>
</clipPath>
</defs>
</svg>
