<svg width="129" height="129" viewBox="0 0 129 129" fill="none" xmlns="http://www.w3.org/2000/svg">
<g clip-path="url(#clip0_0_890)">
<rect width="128" height="128" transform="translate(0.727539 0.175781)" fill="black"/>
<path d="M22.5661 39.0592L17.4285 68.2865H96.5781L101.718 39.0592H22.5661ZM37.5807 62.2364H36.1793L28.3669 52.0102L26.5777 62.2364H23.1272L26.1369 45.1112H27.5642L35.3468 55.3057L37.136 45.1112H40.6124L37.5807 62.2364ZM53.4912 62.2364H41.6529L42.2304 58.9689H54.0687L53.4912 62.2364ZM54.4354 55.2826H42.8733L43.4508 51.9881H55.0293L54.4354 55.2826ZM55.6404 48.4077H44.0773L44.6548 45.1122H56.2372L55.6404 48.4077ZM71.8099 62.2364L69.5298 51.6252L63.4576 62.2393H61.3566L58.8647 45.1141H62.8108L63.8214 55.6474L69.6088 45.1141H71.5039L73.63 55.6474L78.3297 45.1112H82.4279L73.9437 62.2364H71.8099ZM94.8466 49.2883C93.9901 48.7436 92.3298 48.0679 90.4347 48.0679C88.1787 48.0679 87.0882 48.8475 87.0882 50.04C87.0882 51.5193 88.7744 51.7263 90.1748 52.195C92.4847 52.9717 94.3529 53.8312 94.3529 57.0459C94.3529 60.5733 91.8101 62.4953 86.9842 62.4953C84.5973 62.4953 82.5992 62.0526 81.6656 61.3779L82.2354 58.0844C83.1979 58.7061 85.0121 59.3038 86.9583 59.3038C89.3702 59.3038 90.5646 58.6301 90.5646 57.3789C90.5646 55.9275 89.0593 55.6156 87.7369 55.2008C85.4019 54.5001 83.2999 53.5915 83.2999 50.2701C83.2999 46.9977 85.6098 44.8465 90.3837 44.8465C92.5877 44.8465 94.5338 45.3403 95.4174 45.988L94.8466 49.2883Z" fill="#F73458"/>
<path d="M43.6694 89.0354H40.1198L43.1295 71.9111H49.4818C52.8292 71.9371 54.7753 73.8563 54.7753 76.7369C54.7753 79.2808 53.297 81.4848 50.7551 82.4155L53.4779 89.0315H49.6117L47.4346 82.8862H44.7589L43.6694 89.0354ZM51.0641 76.9949C51.0641 75.7504 50.3384 74.9987 49.1189 74.9987H46.1352L45.3046 79.7995H48.2623C49.9235 79.7995 51.0641 78.5801 51.0641 76.9949Z" fill="white"/>
<path d="M59.1813 71.9111H70.1833L69.5875 75.2057H62.1659L61.5162 78.7851H68.7049L68.1332 82.0815H60.9464L60.2977 85.7649H68.0033L67.4325 89.0373H56.1716L59.1813 71.9111Z" fill="white"/>
<path d="M73.658 71.9111H84.6581L84.0623 75.2057H76.6407L75.993 78.7851H83.1797L82.609 82.0815H75.4222L74.7735 85.7649H82.48L81.9083 89.0373H70.6474L73.658 71.9111Z" fill="white"/>
<path d="M88.1313 71.9111H91.6867L89.2488 85.7659H96.3836L95.8128 89.0383H85.1217L88.1313 71.9111Z" fill="white"/>
<path d="M98.2748 88.1788L98.8446 84.8843C99.807 85.5061 101.621 86.1047 103.568 86.1047C105.98 86.1047 107.174 85.431 107.174 84.1798C107.174 82.7264 105.669 82.4156 104.346 82.0008C102.011 81.3001 99.9091 80.3915 99.9091 77.07C99.9091 73.7976 102.219 71.6475 106.993 71.6475C109.198 71.6475 111.144 72.1402 112.027 72.788L111.455 76.0844C110.599 75.5406 108.939 74.866 107.045 74.866C104.787 74.866 103.697 75.6446 103.697 76.8361C103.697 78.3164 105.384 78.5233 106.785 78.9911C109.095 79.7688 110.962 80.6273 110.962 83.8419C110.962 87.3704 108.419 89.2924 103.593 89.2924C101.206 89.2963 99.2084 88.8535 98.2748 88.1788Z" fill="white"/>
</g>
<defs>
<clipPath id="clip0_0_890">
<rect x="0.727539" y="0.175781" width="128" height="128" rx="64" fill="white"/>
</clipPath>
</defs>
</svg>
