<svg width="257" height="257" viewBox="0 0 257 257" fill="none" xmlns="http://www.w3.org/2000/svg">
<g clip-path="url(#clip0_0_206)">
<path d="M20.6599 106.882L13.0944 150.01H129.867L137.452 106.882H20.6599ZM42.8124 141.079H40.7406L29.2234 125.988L26.5841 141.079H21.4827L25.9322 115.811H28.0293L39.5211 130.853L42.1583 115.811H47.285L42.8124 141.079ZM66.2876 141.079H48.8273L49.6712 136.256H67.1315L66.2876 141.079ZM67.6864 130.826H50.6311L51.4877 125.961H68.5767L67.6864 130.826ZM69.467 120.68H52.4096L53.2535 115.815H70.3425L69.467 120.68ZM93.3262 141.079L89.9632 125.419L81.001 141.079H77.8997L74.2266 115.811H80.0474L81.5242 131.351L90.0624 115.811H92.862L96.0035 131.351L102.926 115.811H108.981L96.4697 141.079H93.3262ZM127.323 121.965C125.349 120.799 123.1 120.179 120.808 120.17C117.487 120.17 115.871 121.319 115.871 123.083C115.871 125.252 118.361 125.564 120.426 126.248C123.835 127.391 126.595 128.655 126.595 133.398C126.595 138.607 122.842 141.444 115.715 141.444C112.19 141.444 109.242 140.792 107.871 139.797L108.715 134.932C110.126 135.853 112.812 136.735 115.677 136.735C119.236 136.735 120.998 135.731 120.998 133.896C120.998 131.756 118.778 131.301 116.818 130.687C113.375 129.651 110.278 128.305 110.278 123.406C110.278 118.591 113.69 115.408 120.734 115.408C123.981 115.408 126.852 116.134 128.152 117.096L127.323 121.965Z" fill="#F73458"/>
<path d="M159.98 122.936C159.98 118.685 157.106 115.851 152.174 115.811H142.794L138.348 141.082H143.597L145.205 132.01H149.14L152.363 141.082H158.06L154.037 131.32C157.8 129.94 159.98 126.683 159.98 122.936ZM150.372 127.451H146.005L147.224 120.366H151.629C153.427 120.366 154.496 121.484 154.496 123.32C154.503 125.655 152.821 127.451 150.372 127.451Z" fill="white"/>
<path d="M181.833 120.676L182.712 115.813H166.482L162.039 141.079H178.653L179.499 136.259H168.125L169.081 130.822H179.687L180.533 125.959H169.927L170.885 120.676H181.833Z" fill="white"/>
<path d="M203.192 120.676L204.074 115.813H187.841L183.398 141.079H200.012L200.86 136.259H189.482L190.44 130.822H201.048L201.892 125.959H191.286L192.242 120.676H203.192Z" fill="white"/>
<path d="M210.842 136.259L214.441 115.813H209.202L204.757 141.079H220.525L221.371 136.259H210.842Z" fill="white"/>
<path d="M237.1 120.182C239.895 120.182 242.349 121.174 243.615 121.975L244.458 117.123C243.15 116.165 240.281 115.435 237.034 115.435C229.981 115.435 226.578 118.614 226.578 123.435C226.578 128.332 229.673 129.674 233.119 130.71C235.068 131.326 237.292 131.786 237.292 133.923C237.292 135.76 235.53 136.76 231.967 136.76C229.095 136.76 226.42 135.879 225.004 134.957L224.161 139.82C225.545 140.82 228.494 141.472 232.017 141.472C239.136 141.472 242.887 138.632 242.887 133.427C242.887 128.682 240.125 127.418 236.724 126.273C234.657 125.581 232.169 125.273 232.169 123.093C232.167 121.332 233.775 120.182 237.1 120.182Z" fill="white"/>
</g>
<defs>
<clipPath id="clip0_0_206">
<rect width="256" height="256" fill="white" transform="translate(0.776367 0.446289)"/>
</clipPath>
</defs>
</svg>
