<svg width="24" height="25" viewBox="0 0 24 25" fill="none" xmlns="http://www.w3.org/2000/svg">
<g clip-path="url(#clip0_0_242)">
<path d="M1.86406 10.4248L1.15479 14.468H12.1022L12.8133 10.4248H1.86406ZM3.94085 13.6308H3.74662L2.66689 12.216L2.41945 13.6308H1.9412L2.35833 11.2618H2.55494L3.6323 12.6721L3.87953 11.2618H4.36016L3.94085 13.6308ZM6.14165 13.6308H4.50474L4.58386 13.1786H6.22077L6.14165 13.6308ZM6.27278 12.6695H4.67385L4.75416 12.2134H6.35625L6.27278 12.6695ZM6.43972 11.7183H4.84059L4.91971 11.2622H6.5218L6.43972 11.7183ZM8.67652 13.6308L8.36124 12.1626L7.52103 13.6308H7.23028L6.88593 11.2618H7.43163L7.57009 12.7188L8.37054 11.2618H8.63301L8.92751 12.7188L9.57646 11.2618H10.1441L8.97123 13.6308H8.67652ZM11.8637 11.8388C11.6786 11.7295 11.4678 11.6714 11.2529 11.6705C10.9416 11.6705 10.7901 11.7783 10.7901 11.9436C10.7901 12.147 11.0235 12.1762 11.2171 12.2403C11.5368 12.3475 11.7955 12.466 11.7955 12.9106C11.7955 13.399 11.4436 13.665 10.7755 13.665C10.445 13.665 10.1686 13.6039 10.0401 13.5105L10.1192 13.0544C10.2515 13.1408 10.5033 13.2235 10.7719 13.2235C11.1056 13.2235 11.2707 13.1294 11.2707 12.9573C11.2707 12.7567 11.0627 12.714 10.8789 12.6565C10.5561 12.5593 10.2658 12.4332 10.2658 11.9739C10.2658 11.5225 10.5856 11.2241 11.246 11.2241C11.5504 11.2241 11.8196 11.2921 11.9414 11.3823L11.8637 11.8388Z" fill="#F73458"/>
<path d="M14.9253 11.9297C14.9253 11.5311 14.6559 11.2655 14.1935 11.2617H13.3141L12.8973 13.6308H13.3894L13.5402 12.7803H13.909L14.2113 13.6308H14.7453L14.3681 12.7157C14.721 12.5863 14.9253 12.2809 14.9253 11.9297ZM14.0245 12.3529H13.6151L13.7294 11.6887H14.1424C14.3109 11.6887 14.4112 11.7936 14.4112 11.9657C14.4118 12.1846 14.2542 12.3529 14.0245 12.3529Z" fill="white"/>
<path d="M16.9739 11.7181L17.0564 11.2622H15.5348L15.1183 13.6309H16.6759L16.7552 13.179H15.6889L15.7785 12.6693H16.7728L16.8521 12.2134H15.8578L15.9476 11.7181H16.9739Z" fill="white"/>
<path d="M18.9764 11.7181L19.0591 11.2622H17.5373L17.1207 13.6309H18.6783L18.7578 13.179H17.6912L17.7809 12.6693H18.7754L18.8546 12.2134H17.8603L17.9499 11.7181H18.9764Z" fill="white"/>
<path d="M19.6936 13.179L20.031 11.2622H19.5399L19.1232 13.6309H20.6014L20.6808 13.179H19.6936Z" fill="white"/>
<path d="M22.1553 11.6716C22.4174 11.6716 22.6474 11.7645 22.7661 11.8397L22.8452 11.3848C22.7226 11.295 22.4536 11.2266 22.1492 11.2266C21.488 11.2266 21.1689 11.5246 21.1689 11.9766C21.1689 12.4356 21.4591 12.5614 21.7821 12.6586C21.9648 12.7163 22.1733 12.7594 22.1733 12.9598C22.1733 13.1321 22.0081 13.2258 21.6741 13.2258C21.4049 13.2258 21.1541 13.1431 21.0214 13.0567L20.9423 13.5126C21.072 13.6064 21.3485 13.6675 21.6788 13.6675C22.3462 13.6675 22.6978 13.4013 22.6978 12.9133C22.6978 12.4685 22.4389 12.35 22.1201 12.2426C21.9263 12.1777 21.6931 12.1489 21.6931 11.9445C21.6929 11.7794 21.8436 11.6716 22.1553 11.6716Z" fill="white"/>
</g>
<defs>
<clipPath id="clip0_0_242">
<rect width="24" height="24" fill="white" transform="translate(0 0.446289)"/>
</clipPath>
</defs>
</svg>
