<svg width="129" height="129" viewBox="0 0 129 129" fill="none" xmlns="http://www.w3.org/2000/svg">
<g clip-path="url(#clip0_0_152)">
<path d="M10.9163 53.4248L7.13354 74.9886H65.5199L69.3122 53.4248H10.9163ZM21.9925 70.5233H20.9567L15.1981 62.9778L13.8784 70.5233H11.3277L13.5525 57.889H14.601L20.3469 65.4103L21.6655 57.889H24.2289L21.9925 70.5233ZM33.7302 70.5233H25L25.4219 68.1119H34.1521L33.7302 70.5233ZM34.4295 65.3966H25.9019L26.3302 62.9641H34.8747L34.4295 65.3966ZM35.3199 60.3237H26.7912L27.2131 57.8911H35.7576L35.3199 60.3237ZM47.2495 70.5233L45.568 62.693L41.0869 70.5233H39.5362L37.6997 57.889H40.6101L41.3485 65.6593L45.6176 57.889H47.0174L48.5881 65.6593L52.0492 57.889H55.0766L48.8212 70.5233H47.2495ZM64.2477 60.9661C63.2608 60.3832 62.1365 60.0734 60.9903 60.0684C59.3299 60.0684 58.5219 60.6433 58.5219 61.5252C58.5219 62.6096 59.7666 62.7657 60.7994 63.1075C62.504 63.6793 63.8838 64.3111 63.8838 66.6825C63.8838 69.287 62.0072 70.7058 58.4438 70.7058C56.6811 70.7058 55.2074 70.3798 54.5218 69.8819L54.9437 67.4494C55.6494 67.9104 56.9923 68.3513 58.4248 68.3513C60.2044 68.3513 61.0852 67.8492 61.0852 66.9314C61.0852 65.8618 59.9755 65.634 58.9955 65.327C57.274 64.809 55.7254 64.136 55.7254 61.6866C55.7254 59.2794 57.4311 57.6876 60.9534 57.6876C62.5768 57.6876 64.0125 58.0504 64.6623 58.5315L64.2477 60.9661Z" fill="black"/>
<path d="M80.5762 61.451C80.5762 59.3254 79.1394 57.9087 76.6731 57.8887H71.9831L69.7605 70.524H72.385L73.1888 65.988H75.1562L76.768 70.524H79.6162L77.6046 65.6431C79.4865 64.9532 80.5762 63.3244 80.5762 61.451ZM75.7722 63.7084H73.5886L74.1984 60.1661H76.4009C77.2997 60.1661 77.8345 60.7252 77.8345 61.643C77.8377 62.8107 76.997 63.7084 75.7722 63.7084Z" fill="#121212"/>
<path d="M91.5026 60.3211L91.9425 57.8896H83.8273L81.6057 70.5229H89.9129L90.3359 68.1125H84.649L85.1269 65.394H90.4298L90.8528 62.9625H85.5499L86.0288 60.3211H91.5026Z" fill="#121212"/>
<path d="M102.182 60.3211L102.623 57.8896H94.5069L92.2853 70.5229H100.592L101.016 68.1125H95.3275L95.8065 65.394H101.11L101.532 62.9625H96.2295L96.7073 60.3211H102.182Z" fill="#121212"/>
<path d="M106.007 68.1125L107.807 57.8896H105.187L102.965 70.5229H110.849L111.272 68.1125H106.007Z" fill="#121212"/>
<path d="M119.136 60.0746C120.534 60.0746 121.761 60.5704 122.394 60.9713L122.816 58.5451C122.162 58.0662 120.727 57.7012 119.103 57.7012C115.577 57.7012 113.876 59.2909 113.876 61.7013C113.876 64.1496 115.423 64.8205 117.146 65.3385C118.12 65.6465 119.232 65.8765 119.232 66.9451C119.232 67.8639 118.351 68.3639 116.57 68.3639C115.134 68.3639 113.796 67.9229 113.089 67.462L112.667 69.8934C113.359 70.3935 114.833 70.7194 116.595 70.7194C120.154 70.7194 122.03 69.2995 122.03 66.6972C122.03 64.3247 120.649 63.6929 118.948 63.1201C117.915 62.7741 116.671 62.6201 116.671 61.5304C116.67 60.6496 117.474 60.0746 119.136 60.0746Z" fill="#121212"/>
</g>
<defs>
<clipPath id="clip0_0_152">
<rect width="128" height="128" fill="white" transform="translate(0.974609 0.207031)"/>
</clipPath>
</defs>
</svg>
