<svg width="1024" height="1025" viewBox="0 0 1024 1025" fill="none" xmlns="http://www.w3.org/2000/svg">
<g clip-path="url(#clip0_0_773)">
<rect width="1024" height="1024" transform="translate(0 0.328125)" fill="white"/>
<path d="M174.709 311.395L133.608 545.214H766.805L807.922 311.395H174.709ZM294.825 496.813H283.614L221.115 415.003L206.802 496.813H179.198L203.275 359.811H214.694L276.954 441.367L291.268 359.811H319.079L294.825 496.813ZM422.11 496.813H327.403L332.023 470.672H426.73L422.11 496.813ZM429.663 441.182H337.166L341.786 414.826H434.414L429.663 441.182ZM439.303 386.183H346.799L351.418 359.819H444.077L439.303 386.183ZM568.659 496.813L550.419 411.923L501.841 496.836H485.032L465.098 359.834H496.667L504.751 444.1L551.05 359.834H566.211L583.22 444.1L620.818 359.811H653.603L585.73 496.813H568.659ZM752.953 393.228C746.1 388.87 732.818 383.465 717.657 383.465C699.609 383.465 690.885 389.702 690.885 399.242C690.885 411.076 704.375 412.732 715.578 416.481C734.058 422.695 749.003 429.571 749.003 455.288C749.003 483.508 728.66 498.884 690.054 498.884C670.958 498.884 654.974 495.342 647.505 489.945L652.063 463.596C659.763 468.57 674.277 473.352 689.846 473.352C709.142 473.352 718.697 467.962 718.697 457.952C718.697 446.341 706.654 443.846 696.075 440.528C677.395 434.922 660.579 427.654 660.579 401.082C660.579 374.903 679.059 357.694 717.249 357.694C734.882 357.694 750.451 361.644 757.519 366.826L752.953 393.228Z" fill="black"/>
<path d="M343.535 711.205H315.138L339.216 574.211H390.034C416.814 574.419 432.383 589.772 432.383 612.817C432.383 633.168 420.556 650.8 400.221 658.246L422.003 711.174H391.073L373.657 662.011H352.251L343.535 711.205ZM402.692 614.881C402.692 604.925 396.887 598.912 387.131 598.912H363.262L356.617 637.318H380.278C393.568 637.318 402.692 627.563 402.692 614.881Z" fill="black"/>
<path d="M467.63 574.211H555.646L550.88 600.567H491.507L486.31 629.203H543.819L539.246 655.574H481.751L476.562 685.041H538.206L533.64 711.22H443.553L467.63 574.211Z" fill="black"/>
<path d="M583.444 574.211H671.445L666.678 600.567H607.306L602.124 629.203H659.618L655.052 655.574H597.558L592.368 685.041H654.02L649.446 711.22H559.359L583.444 574.211Z" fill="black"/>
<path d="M699.23 574.211H727.673L708.17 685.049H765.248L760.682 711.228H675.153L699.23 574.211Z" fill="black"/>
<path d="M780.378 704.352L784.937 677.996C792.636 682.97 807.15 687.759 822.727 687.759C842.023 687.759 851.57 682.369 851.57 672.36C851.57 660.733 839.536 658.246 828.948 654.927C810.269 649.322 793.452 642.053 793.452 615.482C793.452 589.302 811.932 572.101 850.123 572.101C867.763 572.101 883.332 576.043 890.392 581.225L885.819 607.597C878.974 603.246 865.692 597.849 850.538 597.849C832.475 597.849 823.759 604.078 823.759 613.61C823.759 625.453 837.249 627.108 848.46 630.85C866.939 637.072 881.877 643.94 881.877 669.657C881.877 697.884 861.534 713.261 822.927 713.261C803.832 713.292 787.847 709.75 780.378 704.352Z" fill="black"/>
</g>
<defs>
<clipPath id="clip0_0_773">
<rect y="0.328125" width="1024" height="1024" rx="512" fill="white"/>
</clipPath>
</defs>
</svg>
