<svg width="129" height="129" viewBox="0 0 129 129" fill="none" xmlns="http://www.w3.org/2000/svg">
<g clip-path="url(#clip0_0_215)">
<path d="M10.2738 53.6646L6.49097 75.2283H64.8773L68.6696 53.6646H10.2738ZM21.35 70.763H20.3141L14.5555 63.2175L13.2358 70.763H10.6852L12.9099 58.1288H13.9584L19.7044 65.6501L21.023 58.1288H23.5863L21.35 70.763ZM33.0876 70.763H24.3574L24.7794 68.3516H33.5095L33.0876 70.763ZM33.787 65.6363H25.2593L25.6876 63.2038H34.2321L33.787 65.6363ZM34.6773 60.5634H26.1486L26.5705 58.1309H35.1151L34.6773 60.5634ZM46.6069 70.763L44.9254 62.9327L40.4443 70.763H38.8936L37.0571 58.1288H39.9675L40.7059 65.899L44.975 58.1288H46.3748L47.9455 65.899L51.4066 58.1288H54.4341L48.1786 70.763H46.6069ZM63.6052 61.2059C62.6182 60.6229 61.4939 60.3131 60.3477 60.3082C58.6873 60.3082 57.8793 60.8831 57.8793 61.7649C57.8793 62.8494 59.1241 63.0055 60.1568 63.3473C61.8615 63.919 63.2412 64.5509 63.2412 66.9222C63.2412 69.5267 61.3646 70.9455 57.8012 70.9455C56.0385 70.9455 54.5649 70.6196 53.8792 70.1217L54.3012 67.6891C55.0069 68.1501 56.3497 68.5911 57.7822 68.5911C59.5618 68.5911 60.4426 68.0889 60.4426 67.1712C60.4426 66.1015 59.3329 65.8737 58.3529 65.5667C56.6314 65.0488 55.0828 64.3758 55.0828 61.9263C55.0828 59.5191 56.7886 57.9273 60.3108 57.9273C61.9342 57.9273 63.3699 58.2902 64.0197 58.7712L63.6052 61.2059Z" fill="#F73458"/>
<path d="M79.9336 61.6912C79.9336 59.5656 78.4968 58.1489 76.0305 58.1289H71.3405L69.1179 70.7642H71.7425L72.5463 66.2282H74.5136L76.1255 70.7642H78.9736L76.962 65.8833C78.8439 65.1934 79.9336 63.5647 79.9336 61.6912ZM75.1297 63.9487H72.9461L73.5558 60.4064H75.7584C76.6571 60.4064 77.1919 60.9655 77.1919 61.8832C77.1951 63.051 76.3544 63.9487 75.1297 63.9487Z" fill="white"/>
<path d="M90.86 60.5614L91.2999 58.1299H83.1847L80.9631 70.7631H89.2703L89.6933 68.3527H84.0065L84.4843 65.6343H89.7872L90.2102 63.2028H84.9073L85.3862 60.5614H90.86Z" fill="white"/>
<path d="M101.54 60.5614L101.98 58.1299H93.8643L91.6427 70.7631H99.9499L100.374 68.3527H94.685L95.1639 65.6343H100.468L100.89 63.2028H95.5869L96.0647 60.5614H101.54Z" fill="white"/>
<path d="M105.365 68.3527L107.164 58.1299H104.545L102.322 70.7631H110.206L110.629 68.3527H105.365Z" fill="white"/>
<path d="M118.494 60.3144C119.891 60.3144 121.118 60.8102 121.751 61.211L122.173 58.7848C121.519 58.3059 120.084 57.9409 118.461 57.9409C114.934 57.9409 113.233 59.5306 113.233 61.941C113.233 64.3894 114.78 65.0603 116.503 65.5782C117.478 65.8863 118.59 66.1162 118.59 67.1848C118.59 68.1036 117.709 68.6036 115.927 68.6036C114.491 68.6036 113.154 68.1627 112.446 67.7017L112.024 70.1332C112.716 70.6332 114.191 70.9592 115.952 70.9592C119.512 70.9592 121.387 69.5393 121.387 66.9369C121.387 64.5645 120.006 63.9326 118.306 63.3598C117.272 63.0138 116.028 62.8598 116.028 61.7701C116.027 60.8893 116.831 60.3144 118.494 60.3144Z" fill="white"/>
</g>
<defs>
<clipPath id="clip0_0_215">
<rect width="128" height="128" fill="white" transform="translate(0.332031 0.446289)"/>
</clipPath>
</defs>
</svg>
