<svg width="65" height="65" viewBox="0 0 65 65" fill="none" xmlns="http://www.w3.org/2000/svg">
<g clip-path="url(#clip0_0_98)">
<path d="M5.02164 27.1099L3.13025 37.8918H32.3234L34.2196 27.1099H5.02164ZM10.5597 35.6591H10.0418L7.16252 31.8863L6.50269 35.6591H5.22734L6.33971 29.342H6.86399L9.73694 33.1026L10.3962 29.342H11.6779L10.5597 35.6591ZM16.4286 35.6591H12.0635L12.2744 34.4534H16.6395L16.4286 35.6591ZM16.7782 33.0958H12.5144L12.7286 31.8795H17.0008L16.7782 33.0958ZM17.2234 30.5593H12.9591L13.17 29.343H17.4423L17.2234 30.5593ZM23.1882 35.6591L22.3475 31.7439L20.1069 35.6591H19.3316L18.4133 29.342H19.8685L20.2377 33.2271L22.3723 29.342H23.0722L23.8575 33.2271L25.5881 29.342H27.1018L23.9741 35.6591H23.1882ZM31.6873 30.8805C31.1939 30.5891 30.6317 30.4341 30.0586 30.4317C29.2284 30.4317 28.8244 30.7191 28.8244 31.1601C28.8244 31.7023 29.4468 31.7803 29.9632 31.9512C30.8155 32.2371 31.5054 32.553 31.5054 33.7387C31.5054 35.041 30.5671 35.7504 28.7854 35.7504C27.904 35.7504 27.1672 35.5874 26.8244 35.3384L27.0353 34.1222C27.3882 34.3526 28.0596 34.5731 28.7759 34.5731C29.6657 34.5731 30.1061 34.3221 30.1061 33.8632C30.1061 33.3284 29.5512 33.2144 29.0612 33.061C28.2005 32.802 27.4262 32.4655 27.4262 31.2408C27.4262 30.0371 28.279 29.2412 30.0402 29.2412C30.8519 29.2412 31.5697 29.4227 31.8946 29.6632L31.6873 30.8805Z" fill="#F73458"/>
<path d="M39.8516 31.123C39.8516 30.0602 39.1332 29.3518 37.9 29.3418H35.555L34.4437 35.6595H35.756L36.1579 33.3915H37.1416L37.9475 35.6595H39.3716L38.3658 33.219C39.3067 32.8741 39.8516 32.0597 39.8516 31.123ZM37.4496 32.2517H36.3578L36.6627 30.4805H37.764C38.2133 30.4805 38.4807 30.7601 38.4807 31.2189C38.4823 31.8028 38.062 32.2517 37.4496 32.2517Z" fill="#121212"/>
<path d="M45.3148 30.558L45.5347 29.3423H41.4771L40.3663 35.6589H44.5199L44.7314 34.4537H41.888L42.1269 33.0945H44.7784L44.9899 31.8787H42.3384L42.5779 30.558H45.3148Z" fill="#121212"/>
<path d="M50.6546 30.558L50.8751 29.3423H46.817L45.7062 35.6589H49.8598L50.0718 34.4537H47.2273L47.4668 33.0945H50.1187L50.3297 31.8787H47.6783L47.9172 30.558H50.6546Z" fill="#121212"/>
<path d="M52.567 34.4537L53.4668 29.3423H52.1572L51.0459 35.6589H54.988L55.1995 34.4537H52.567Z" fill="#121212"/>
<path d="M59.1315 30.4348C59.8304 30.4348 60.4438 30.6827 60.7602 30.8831L60.9712 29.67C60.6442 29.4305 59.9269 29.248 59.1152 29.248C57.3519 29.248 56.5012 30.0429 56.5012 31.2481C56.5012 32.4723 57.2749 32.8077 58.1362 33.0667C58.6236 33.2207 59.1795 33.3357 59.1795 33.87C59.1795 34.3294 58.7391 34.5794 57.8483 34.5794C57.1304 34.5794 56.4616 34.3589 56.1077 34.1284L55.8967 35.3442C56.2427 35.5942 56.9801 35.7572 57.8609 35.7572C59.6405 35.7572 60.5783 35.0472 60.5783 33.746C60.5783 32.5598 59.8879 32.2439 59.0376 31.9575C58.5207 31.7845 57.8989 31.7075 57.8989 31.1626C57.8984 30.7222 58.3003 30.4348 59.1315 30.4348Z" fill="#121212"/>
</g>
<defs>
<clipPath id="clip0_0_98">
<rect width="64" height="64" fill="white" transform="translate(0.0507812 0.500977)"/>
</clipPath>
</defs>
</svg>
