<svg width="32" height="32" viewBox="0 0 32 32" fill="none" xmlns="http://www.w3.org/2000/svg">
<g clip-path="url(#clip0_0_602)">
<rect width="32" height="32" fill="white"/>
<path d="M5.54719 9.77295L4.27344 17.0191H23.8966L25.1708 9.77295H5.54719ZM9.26966 15.5192H8.92223L6.98535 12.9838L6.54176 15.5192H5.6863L6.43247 11.2734H6.78634L8.71582 13.8009L9.15941 11.2734H10.0213L9.26966 15.5192ZM13.2143 15.5192H10.2793L10.4224 14.709H13.3575L13.2143 15.5192ZM13.4484 13.7951H10.5818L10.725 12.9783H13.5956L13.4484 13.7951ZM13.7471 12.0907H10.8803L11.0235 11.2736H13.8951L13.7471 12.0907ZM17.7559 15.5192L17.1906 12.8884L15.6852 15.5199H15.1643L14.5465 11.2741H15.5248L15.7754 13.8856L17.2102 11.2741H17.68L18.2072 13.8856L19.3723 11.2734H20.3884L18.2849 15.5192H17.7559ZM23.4673 12.309C23.2549 12.1739 22.8433 12.0064 22.3735 12.0064C21.8141 12.0064 21.5438 12.1997 21.5438 12.4954C21.5438 12.8621 21.9618 12.9134 22.309 13.0296C22.8817 13.2222 23.3449 13.4353 23.3449 14.2323C23.3449 15.1068 22.7144 15.5833 21.518 15.5833C20.9262 15.5833 20.4309 15.4736 20.1994 15.3063L20.3407 14.4897C20.5793 14.6439 21.0291 14.7921 21.5116 14.7921C22.1095 14.7921 22.4057 14.625 22.4057 14.3148C22.4057 13.955 22.0325 13.8777 21.7046 13.7748C21.1257 13.6011 20.6046 13.3759 20.6046 12.5524C20.6046 11.7411 21.1773 11.2078 22.3608 11.2078C22.9073 11.2078 23.3897 11.3302 23.6088 11.4908L23.4673 12.309Z" fill="#F73458"/>
<path d="M10.7785 22.1635H9.89844L10.6446 17.918H12.2195C13.0494 17.9244 13.5319 18.4002 13.5319 19.1144C13.5319 19.7451 13.1654 20.2915 12.5352 20.5223L13.2102 22.1625H12.2517L11.7119 20.6389H11.0486L10.7785 22.1635ZM12.6118 19.1784C12.6118 18.8698 12.4319 18.6835 12.1295 18.6835H11.3898L11.1839 19.8737H11.9172C12.329 19.8737 12.6118 19.5714 12.6118 19.1784Z" fill="black"/>
<path d="M14.6251 17.918H17.3527L17.205 18.7348H15.365L15.204 19.6222H16.9862L16.8445 20.4395H15.0627L14.9019 21.3527H16.8123L16.6708 22.164H13.8789L14.6251 17.918Z" fill="black"/>
<path d="M18.2132 17.918H20.9404L20.7927 18.7348H18.9527L18.7921 19.6222H20.5739L20.4324 20.4395H18.6506L18.4898 21.3527H20.4004L20.2586 22.164H17.4668L18.2132 17.918Z" fill="black"/>
<path d="M21.8028 17.918H22.6843L22.0798 21.3529H23.8487L23.7072 22.1642H21.0566L21.8028 17.918Z" fill="black"/>
<path d="M24.3164 21.9511L24.4577 21.1343C24.6963 21.2884 25.1461 21.4368 25.6288 21.4368C26.2268 21.4368 26.5227 21.2698 26.5227 20.9596C26.5227 20.5993 26.1497 20.5222 25.8216 20.4194C25.2427 20.2457 24.7216 20.0204 24.7216 19.1969C24.7216 18.3856 25.2943 17.8525 26.4778 17.8525C27.0245 17.8525 27.507 17.9747 27.7258 18.1353L27.5841 18.9526C27.3719 18.8178 26.9603 18.6505 26.4907 18.6505C25.9309 18.6505 25.6608 18.8435 25.6608 19.1389C25.6608 19.5059 26.0789 19.5572 26.4263 19.6732C26.999 19.866 27.4619 20.0789 27.4619 20.8758C27.4619 21.7506 26.8315 22.2272 25.635 22.2272C25.0432 22.2281 24.5479 22.1183 24.3164 21.9511Z" fill="black"/>
</g>
<defs>
<clipPath id="clip0_0_602">
<rect width="32" height="32" fill="white"/>
</clipPath>
</defs>
</svg>
