<svg width="512" height="512" viewBox="0 0 512 512" fill="none" xmlns="http://www.w3.org/2000/svg">
<g clip-path="url(#clip0_0_314)">
<rect width="512" height="512" fill="white"/>
<path d="M88.755 156.368L68.375 272.306H382.345L402.733 156.368H88.755ZM148.315 248.307H142.756L111.766 207.742L104.668 248.307H90.9809L102.919 180.375H108.581L139.453 220.814L146.551 180.375H160.341L148.315 248.307ZM211.428 248.307H164.468L166.759 235.345H213.719L211.428 248.307ZM215.174 220.722H169.309L171.6 207.654H217.53L215.174 220.722ZM219.954 193.451H174.085L176.376 180.379H222.321L219.954 193.451ZM284.095 248.307L275.05 206.214L250.963 248.318H242.628L232.744 180.386H248.397L252.406 222.169L275.363 180.386H282.881L291.315 222.169L309.957 180.375H326.214L292.559 248.307H284.095ZM375.477 196.944C372.079 194.784 365.493 192.103 357.975 192.103C349.026 192.103 344.7 195.196 344.7 199.926C344.7 205.794 351.389 206.615 356.945 208.475C366.108 211.556 373.518 214.965 373.518 227.717C373.518 241.71 363.431 249.334 344.288 249.334C334.82 249.334 326.894 247.578 323.19 244.901L325.451 231.836C329.268 234.303 336.465 236.674 344.185 236.674C353.753 236.674 358.491 234.001 358.491 229.038C358.491 223.28 352.52 222.043 347.274 220.398C338.011 217.618 329.673 214.014 329.673 200.839C329.673 187.858 338.836 179.325 357.773 179.325C366.516 179.325 374.236 181.283 377.741 183.853L375.477 196.944Z" fill="#F73458"/>
<path d="M172.467 354.613H158.387L170.325 286.685H195.524C208.802 286.788 216.522 294.401 216.522 305.828C216.522 315.918 210.658 324.661 200.575 328.353L211.376 354.598H196.039L187.403 330.22H176.789L172.467 354.613ZM201.8 306.851C201.8 301.914 198.922 298.932 194.084 298.932H182.249L178.954 317.976H190.686C197.276 317.976 201.8 313.139 201.8 306.851Z" fill="black"/>
<path d="M233.999 286.685H277.642L275.278 299.753H245.839L243.261 313.952H271.777L269.51 327.028H241.001L238.428 341.64H268.994L266.73 354.621H222.061L233.999 286.685Z" fill="black"/>
<path d="M291.425 286.685H335.06L332.697 299.753H303.257L300.687 313.952H329.196L326.931 327.028H298.423L295.85 341.64H326.42L324.152 354.621H279.482L291.425 286.685Z" fill="black"/>
<path d="M348.837 286.685H362.94L353.27 341.643H381.572L379.308 354.624H336.898L348.837 286.685Z" fill="black"/>
<path d="M389.074 351.215L391.334 338.146C395.152 340.613 402.349 342.988 410.073 342.988C419.64 342.988 424.375 340.315 424.375 335.352C424.375 329.587 418.407 328.354 413.158 326.708C403.895 323.929 395.557 320.324 395.557 307.149C395.557 294.168 404.72 285.639 423.657 285.639C432.404 285.639 440.124 287.593 443.625 290.163L441.357 303.239C437.963 301.082 431.377 298.406 423.863 298.406C414.906 298.406 410.584 301.494 410.584 306.221C410.584 312.093 417.273 312.914 422.832 314.769C431.995 317.854 439.402 321.26 439.402 334.012C439.402 348.008 429.315 355.633 410.172 355.633C400.704 355.648 392.778 353.892 389.074 351.215Z" fill="black"/>
</g>
<defs>
<clipPath id="clip0_0_314">
<rect width="512" height="512" fill="white"/>
</clipPath>
</defs>
</svg>
