<svg width="128" height="129" viewBox="0 0 128 129" fill="none" xmlns="http://www.w3.org/2000/svg">
<g clip-path="url(#clip0_0_521)">
<rect width="128" height="128" transform="translate(-0.000488281 0.73584)" fill="black"/>
<rect width="128" height="128" transform="translate(-0.000488281 0.73584)" fill="black"/>
<path d="M22.1883 39.8276L17.0933 68.8123H95.5858L100.683 39.8276H22.1883ZM37.0781 62.8124H35.6884L27.9409 52.6711L26.1665 62.8124H22.7447L25.7294 45.8294H27.1449L34.8628 55.9392L36.6372 45.8294H40.0847L37.0781 62.8124ZM52.8566 62.8124H41.1165L41.6892 59.572H53.4293L52.8566 62.8124ZM53.793 55.9163H42.3268L42.8995 52.6492H54.3819L53.793 55.9163ZM54.988 49.0985H43.5209L44.0936 45.8304H55.5798L54.988 49.0985ZM71.0232 62.8124L68.7621 52.2893L62.7403 62.8153H60.6566L58.1855 45.8323H62.0989L63.1011 56.2781L68.8403 45.8323H70.7197L72.8281 56.2781L77.4889 45.8294H81.553L73.1393 62.8124H71.0232ZM93.8687 49.9718C93.0192 49.4316 91.3727 48.7616 89.4934 48.7616C87.2561 48.7616 86.1746 49.5347 86.1746 50.7173C86.1746 52.1843 87.8469 52.3895 89.2356 52.8544C91.5264 53.6246 93.379 54.477 93.379 57.665C93.379 61.1631 90.8573 63.0692 86.0715 63.0692C83.7044 63.0692 81.7229 62.6302 80.7971 61.9611L81.3621 58.6948C82.3166 59.3114 84.1158 59.9042 86.0458 59.9042C88.4377 59.9042 89.6222 59.236 89.6222 57.9952C89.6222 56.5558 88.1294 56.2466 86.8179 55.8352C84.5024 55.1403 82.4178 54.2393 82.4178 50.9454C82.4178 47.7002 84.7085 45.5669 89.4428 45.5669C91.6285 45.5669 93.5585 46.0566 94.4347 46.6989L93.8687 49.9718Z" fill="white"/>
<path d="M43.1153 89.3888H39.5952L42.5799 72.4067H48.8794C52.1991 72.4325 54.1291 74.3357 54.1291 77.1925C54.1291 79.7152 52.663 81.9009 50.1422 82.8239L52.8424 89.385H49.0083L46.8493 83.2907H44.1958L43.1153 89.3888ZM50.4486 77.4483C50.4486 76.2142 49.7289 75.4687 48.5196 75.4687H45.5607L44.737 80.2296H47.6701C49.3175 80.2296 50.4486 79.0203 50.4486 77.4483Z" fill="white"/>
<path d="M58.4998 72.4067H69.4104L68.8196 75.6739H61.4596L60.8154 79.2236H67.9444L67.3774 82.4927H60.2503L59.607 86.1455H67.2485L66.6825 89.3907H55.5151L58.4998 72.4067Z" fill="white"/>
<path d="M72.8562 72.4067H83.765L83.1741 75.6739H75.8141L75.1718 79.2236H82.2989L81.7329 82.4927H74.6058L73.9625 86.1455H81.605L81.038 89.3907H69.8706L72.8562 72.4067Z" fill="white"/>
<path d="M87.2088 72.4067H90.7346L88.3169 86.1465H95.3925L94.8265 89.3917H84.2241L87.2088 72.4067Z" fill="white"/>
<path d="M97.269 88.5396L97.8341 85.2725C98.7886 85.8891 100.588 86.4827 102.519 86.4827C104.911 86.4827 106.094 85.8146 106.094 84.5738C106.094 83.1325 104.602 82.8242 103.29 82.4128C100.974 81.718 98.8897 80.817 98.8897 77.523C98.8897 74.2778 101.181 72.1455 105.915 72.1455C108.101 72.1455 110.031 72.6342 110.907 73.2766L110.34 76.5456C109.491 76.0064 107.845 75.3373 105.966 75.3373C103.727 75.3373 102.647 76.1095 102.647 77.2911C102.647 78.7591 104.319 78.9643 105.709 79.4282C107.999 80.1994 109.851 81.0508 109.851 84.2387C109.851 87.7379 107.329 89.644 102.543 89.644C100.176 89.6478 98.1949 89.2087 97.269 88.5396Z" fill="white"/>
</g>
<defs>
<clipPath id="clip0_0_521">
<rect width="128" height="128" fill="white" transform="translate(-0.000488281 0.73584)"/>
</clipPath>
</defs>
</svg>
