<svg width="25" height="25" viewBox="0 0 25 25" fill="none" xmlns="http://www.w3.org/2000/svg">
<g clip-path="url(#clip0_0_1007)">
<rect width="24" height="24" transform="translate(0.726562 0.36084)" fill="black"/>
<path d="M4.82134 7.65149L3.85803 13.1316H18.6986L19.6623 7.65149H4.82134ZM7.63657 11.9972H7.37381L5.909 10.0798L5.57351 11.9972H4.92655L5.49086 8.78624H5.75849L7.21771 10.6977L7.55319 8.78624H8.20503L7.63657 11.9972ZM10.6198 11.9972H8.40011L8.50839 11.3846H10.7281L10.6198 11.9972ZM10.7968 10.6934H8.62893L8.73721 10.0757H10.9082L10.7968 10.6934ZM11.0228 9.40433H8.85469L8.96297 8.78642H11.1347L11.0228 9.40433ZM14.0546 11.9972L13.627 10.0076L12.4885 11.9978H12.0945L11.6273 8.78679H12.3672L12.5567 10.7618L13.6418 8.78679H13.9972L14.3958 10.7618L15.277 8.78624H16.0454L14.4546 11.9972H14.0546ZM18.3739 9.56945C18.2133 9.46731 17.902 9.34063 17.5467 9.34063C17.1237 9.34063 16.9192 9.4868 16.9192 9.71039C16.9192 9.98777 17.2354 10.0266 17.498 10.1144C17.9311 10.2601 18.2814 10.4212 18.2814 11.024C18.2814 11.6854 17.8046 12.0458 16.8997 12.0458C16.4522 12.0458 16.0775 11.9628 15.9025 11.8363L16.0093 11.2187C16.1898 11.3353 16.53 11.4474 16.8949 11.4474C17.3471 11.4474 17.5711 11.321 17.5711 11.0864C17.5711 10.8143 17.2888 10.7558 17.0409 10.678C16.6031 10.5467 16.2089 10.3763 16.2089 9.75352C16.2089 9.13995 16.642 8.73662 17.5371 8.73662C17.9504 8.73662 18.3153 8.82919 18.481 8.95064L18.3739 9.56945Z" fill="white"/>
<path d="M8.77822 17.0221H8.11267L8.67698 13.8113H9.86804C10.4957 13.8162 10.8606 14.176 10.8606 14.7161C10.8606 15.1931 10.5834 15.6063 10.1068 15.7809L10.6173 17.0214H9.8924L9.48419 15.8691H8.9825L8.77822 17.0221ZM10.1647 14.7645C10.1647 14.5311 10.0286 14.3902 9.8 14.3902H9.24057L9.08483 15.2904H9.63939C9.95087 15.2904 10.1647 15.0617 10.1647 14.7645Z" fill="white"/>
<path d="M11.6867 13.8113H13.7496L13.6379 14.429H12.2464L12.1245 15.1001H13.4724L13.3652 15.7182H12.0177L11.8961 16.4089H13.3409L13.2339 17.0224H11.1224L11.6867 13.8113Z" fill="white"/>
<path d="M14.401 13.8113H16.4635L16.3518 14.429H14.9603L14.8388 15.1001H16.1864L16.0793 15.7182H14.7318L14.6102 16.4089H16.0552L15.948 17.0224H13.8365L14.401 13.8113Z" fill="white"/>
<path d="M17.1148 13.8113H17.7815L17.3244 16.409H18.6621L18.5551 17.0226H16.5505L17.1148 13.8113Z" fill="white"/>
<path d="M19.0167 16.8615L19.1236 16.2438C19.304 16.3603 19.6442 16.4726 20.0093 16.4726C20.4615 16.4726 20.6853 16.3463 20.6853 16.1116C20.6853 15.8392 20.4032 15.7809 20.1551 15.7031C19.7173 15.5717 19.3231 15.4013 19.3231 14.7786C19.3231 14.165 19.7563 13.7618 20.6514 13.7618C21.0648 13.7618 21.4297 13.8542 21.5952 13.9757L21.488 14.5938C21.3276 14.4918 21.0163 14.3653 20.6611 14.3653C20.2377 14.3653 20.0335 14.5113 20.0335 14.7347C20.0335 15.0123 20.3496 15.0511 20.6124 15.1388C21.0455 15.2846 21.3956 15.4456 21.3956 16.0483C21.3956 16.7099 20.9188 17.0703 20.014 17.0703C19.5664 17.071 19.1918 16.988 19.0167 16.8615Z" fill="white"/>
</g>
<defs>
<clipPath id="clip0_0_1007">
<rect x="0.726562" y="0.36084" width="24" height="24" rx="12" fill="white"/>
</clipPath>
</defs>
</svg>
