<svg width="257" height="257" viewBox="0 0 257 257" fill="none" xmlns="http://www.w3.org/2000/svg">
<g clip-path="url(#clip0_0_854)">
<rect width="256" height="256" transform="translate(0.727539 0.175781)" fill="black"/>
<path d="M44.4048 77.9425L34.1295 136.397H192.429L202.708 77.9425H44.4048ZM74.4338 124.297H71.6311L56.0064 103.845L52.4279 124.297H45.527L51.5463 90.0465H54.401L69.9661 110.435L73.5445 90.0465H80.4974L74.4338 124.297ZM106.255 124.297H82.5783L83.7332 117.762H107.41L106.255 124.297ZM108.143 110.389H85.0191L86.174 103.8H109.331L108.143 110.389ZM110.553 96.6395H87.4272L88.5821 90.0485H111.747L110.553 96.6395ZM142.892 124.297L138.332 103.075L126.188 124.303H121.986L117.002 90.0523H124.894L126.915 111.119L138.49 90.0523H142.28L146.532 111.119L155.932 90.0465H164.128L147.16 124.297H142.892ZM188.966 98.4008C187.253 97.3113 183.932 95.96 180.142 95.96C175.63 95.96 173.449 97.5192 173.449 99.9042C173.449 102.863 176.821 103.277 179.622 104.214C184.242 105.767 187.978 107.486 187.978 113.916C187.978 120.971 182.893 124.815 173.241 124.815C168.467 124.815 164.471 123.929 162.604 122.58L163.743 115.993C165.668 117.236 169.297 118.432 173.189 118.432C178.013 118.432 180.402 117.084 180.402 114.582C180.402 111.679 177.391 111.055 174.746 110.226C170.076 108.824 165.872 107.007 165.872 100.364C165.872 93.8194 170.492 89.5172 180.04 89.5172C184.448 89.5172 188.34 90.5047 190.107 91.8001L188.966 98.4008Z" fill="#F73458"/>
<path d="M86.6113 177.895H79.5121L85.5314 143.646H98.236C104.931 143.698 108.823 147.537 108.823 153.298C108.823 158.386 105.866 162.794 100.783 164.655L106.228 177.887H98.4959L94.1417 165.597H88.7904L86.6113 177.895ZM101.401 153.814C101.401 151.325 99.9492 149.822 97.5103 149.822H91.543L89.8818 159.423H95.7971C99.1196 159.423 101.401 156.984 101.401 153.814Z" fill="white"/>
<path d="M117.635 143.646H139.639L138.448 150.236H123.604L122.305 157.394H136.682L135.539 163.987H121.165L119.868 171.354H135.279L134.138 177.899H111.616L117.635 143.646Z" fill="white"/>
<path d="M146.589 143.646H168.589L167.397 150.236H152.554L151.258 157.394H165.632L164.49 163.987H150.117L148.82 171.354H164.233L163.089 177.899H140.567L146.589 143.646Z" fill="white"/>
<path d="M175.535 143.646H182.646L177.77 171.356H192.04L190.898 177.901H169.516L175.535 143.646Z" fill="white"/>
<path d="M195.822 176.182L196.962 169.593C198.887 170.836 202.515 172.034 206.409 172.034C211.233 172.034 213.62 170.686 213.62 168.184C213.62 165.277 210.611 164.655 207.965 163.826C203.295 162.424 199.091 160.607 199.091 153.964C199.091 147.419 203.711 143.119 213.258 143.119C217.668 143.119 221.561 144.105 223.326 145.4L222.182 151.993C220.471 150.905 217.15 149.556 213.362 149.556C208.846 149.556 206.667 151.113 206.667 153.496C206.667 156.457 210.04 156.871 212.842 157.806C217.462 159.362 221.197 161.079 221.197 167.508C221.197 174.565 216.111 178.409 206.459 178.409C201.686 178.417 197.689 177.531 195.822 176.182Z" fill="white"/>
</g>
<defs>
<clipPath id="clip0_0_854">
<rect x="0.727539" y="0.175781" width="256" height="256" rx="128" fill="white"/>
</clipPath>
</defs>
</svg>
