<svg width="25" height="25" viewBox="0 0 25 25" fill="none" xmlns="http://www.w3.org/2000/svg">
<g clip-path="url(#clip0_0_701)">
<path d="M5.15844 7.88525L4.20312 13.3199H18.9205L19.8761 7.88525H5.15844ZM7.95029 12.1949H7.68972L6.23706 10.2934L5.90436 12.1949H5.26278L5.8224 9.01059H6.0878L7.53491 10.9062L7.86761 9.01059H8.51403L7.95029 12.1949ZM10.9088 12.1949H8.70749L8.81487 11.5873H11.0161L10.9088 12.1949ZM11.0843 10.9019H8.93442L9.0418 10.2893H11.1947L11.0843 10.9019ZM11.3084 9.62354H9.1583L9.26568 9.01077H11.4193L11.3084 9.62354ZM14.315 12.1949L13.891 10.2218L12.7619 12.1954H12.3713L11.9079 9.01112H12.6417L12.8296 10.9697L13.9057 9.01112H14.2581L14.6534 10.9697L15.5273 9.01059H16.2893L14.7118 12.1949H14.315ZM18.5985 9.78729C18.4392 9.686 18.1305 9.56037 17.7781 9.56037C17.3586 9.56037 17.1559 9.70533 17.1559 9.92706C17.1559 10.2021 17.4694 10.2406 17.7298 10.3278C18.1593 10.4722 18.5067 10.632 18.5067 11.2298C18.5067 11.8857 18.0339 12.243 17.1366 12.243C16.6927 12.243 16.3212 12.1607 16.1476 12.0353L16.2535 11.4229C16.4325 11.5385 16.7699 11.6496 17.1317 11.6496C17.5802 11.6496 17.8023 11.5243 17.8023 11.2917C17.8023 11.0218 17.5224 10.9638 17.2765 10.8867C16.8423 10.7564 16.4515 10.5874 16.4515 9.96984C16.4515 9.36136 16.881 8.96137 17.7687 8.96137C18.1785 8.96137 18.5404 9.05318 18.7046 9.17362L18.5985 9.78729Z" fill="black"/>
<path d="M9.0819 17.1783H8.42188L8.9815 13.9941H10.1627C10.7851 13.999 11.147 14.3558 11.147 14.8915C11.147 15.3645 10.8721 15.7743 10.3994 15.9474L10.9057 17.1776H10.1868L9.78201 16.0349H9.28449L9.0819 17.1783ZM10.4569 14.9394C10.4569 14.708 10.3219 14.5683 10.0952 14.5683H9.5404L9.38596 15.4609H9.93592C10.2448 15.4609 10.4569 15.2342 10.4569 14.9394Z" fill="black"/>
<path d="M11.9659 13.9941H14.0116L13.9008 14.6067H12.5208L12.4 15.2723H13.7367L13.6304 15.8853H12.2941L12.1735 16.5702H13.6063L13.5001 17.1786H11.4062L11.9659 13.9941Z" fill="black"/>
<path d="M14.6594 13.9941H16.7048L16.594 14.6067H15.214L15.0936 15.2723H16.4299L16.3238 15.8853H14.9875L14.8668 16.5702H16.2998L16.1935 17.1786H14.0996L14.6594 13.9941Z" fill="black"/>
<path d="M17.3506 13.9941H18.0117L17.5584 16.5703H18.8851L18.779 17.1788H16.791L17.3506 13.9941Z" fill="black"/>
<path d="M19.2363 17.0187L19.3423 16.4061C19.5212 16.5217 19.8586 16.6331 20.2206 16.6331C20.6691 16.6331 20.891 16.5078 20.891 16.2751C20.891 16.0049 20.6113 15.9471 20.3652 15.8699C19.9311 15.7397 19.5402 15.5707 19.5402 14.9531C19.5402 14.3446 19.9697 13.9448 20.8574 13.9448C21.2674 13.9448 21.6293 14.0365 21.7934 14.1569L21.6871 14.7698C21.528 14.6687 21.2193 14.5433 20.8671 14.5433C20.4472 14.5433 20.2446 14.6881 20.2446 14.9096C20.2446 15.1849 20.5582 15.2233 20.8187 15.3103C21.2483 15.4549 21.5954 15.6146 21.5954 16.2123C21.5954 16.8684 21.1226 17.2258 20.2253 17.2258C19.7815 17.2265 19.4099 17.1442 19.2363 17.0187Z" fill="black"/>
</g>
<defs>
<clipPath id="clip0_0_701">
<rect width="24" height="24" fill="white" transform="translate(0.998047 0.555664)"/>
</clipPath>
</defs>
</svg>
