<svg width="129" height="129" viewBox="0 0 129 129" fill="none" xmlns="http://www.w3.org/2000/svg">
<g clip-path="url(#clip0_0_881)">
<rect width="128" height="128" transform="translate(0.998535 0.328125)" fill="white"/>
<path d="M22.8371 39.2114L17.6995 68.4388H96.8491L101.989 39.2114H22.8371ZM37.8517 62.3887H36.4503L28.6379 52.1624L26.8487 62.3887H23.3982L26.4079 45.2634H27.8352L35.6178 55.4579L37.407 45.2634H40.8834L37.8517 62.3887ZM53.7622 62.3887H41.9239L42.5013 59.1211H54.3397L53.7622 62.3887ZM54.7064 55.4348H43.1443L43.7218 52.1403H55.3003L54.7064 55.4348ZM55.9114 48.5599H44.3483L44.9258 45.2644H56.5082L55.9114 48.5599ZM72.0809 62.3887L69.8008 51.7774L63.7286 62.3916H61.6276L59.1357 45.2663H63.0818L64.0924 55.7996L69.8798 45.2663H71.7749L73.901 55.7996L78.6007 45.2634H82.6989L74.2147 62.3887H72.0809ZM95.1176 49.4406C94.261 48.8958 92.6008 48.2202 90.7057 48.2202C88.4497 48.2202 87.3592 48.9998 87.3592 50.1923C87.3592 51.6716 89.0454 51.8785 90.4458 52.3472C92.7557 53.1239 94.6239 53.9834 94.6239 57.1981C94.6239 60.7255 92.0811 62.6476 87.2552 62.6476C84.8683 62.6476 82.8702 62.2048 81.9366 61.5301L82.5064 58.2366C83.4689 58.8583 85.2831 59.456 87.2292 59.456C89.6412 59.456 90.8356 58.7823 90.8356 57.5311C90.8356 56.0797 89.3303 55.7678 88.0079 55.353C85.6729 54.6523 83.5709 53.7438 83.5709 50.4223C83.5709 47.1499 85.8808 44.9988 90.6547 44.9988C92.8587 44.9988 94.8048 45.4925 95.6884 46.1402L95.1176 49.4406Z" fill="black"/>
<path d="M43.9404 89.1877H40.3908L43.4004 72.0635H49.7528C53.1002 72.0895 55.0463 74.0086 55.0463 76.8893C55.0463 79.4331 53.568 81.6372 51.0261 82.5679L53.7489 89.1839H49.8827L47.7056 83.0385H45.0299L43.9404 89.1877ZM51.3351 77.1472C51.3351 75.9028 50.6093 75.1511 49.3899 75.1511H46.4062L45.5756 79.9519H48.5333C50.1945 79.9519 51.3351 78.7324 51.3351 77.1472Z" fill="black"/>
<path d="M59.4523 72.0635H70.4543L69.8585 75.358H62.4369L61.7872 78.9374H68.9759L68.4042 82.2339H61.2174L60.5687 85.9173H68.2743L67.7035 89.1897H56.4426L59.4523 72.0635Z" fill="black"/>
<path d="M73.929 72.0635H84.9291L84.3333 75.358H76.9117L76.264 78.9374H83.4507L82.88 82.2339H75.6932L75.0445 85.9173H82.751L82.1793 89.1897H70.9184L73.929 72.0635Z" fill="black"/>
<path d="M88.4023 72.0635H91.9577L89.5198 85.9182H96.6546L96.0838 89.1906H85.3927L88.4023 72.0635Z" fill="black"/>
<path d="M98.5458 88.3312L99.1156 85.0367C100.078 85.6584 101.892 86.2571 103.839 86.2571C106.251 86.2571 107.445 85.5833 107.445 84.3321C107.445 82.8788 105.94 82.5679 104.617 82.1531C102.282 81.4524 100.18 80.5439 100.18 77.2224C100.18 73.95 102.49 71.7998 107.264 71.7998C109.469 71.7998 111.415 72.2926 112.298 72.9403L111.726 76.2368C110.87 75.693 109.21 75.0183 107.316 75.0183C105.058 75.0183 103.968 75.7969 103.968 76.9885C103.968 78.4687 105.655 78.6757 107.056 79.1435C109.366 79.9211 111.233 80.7796 111.233 83.9943C111.233 87.5227 108.69 89.4448 103.864 89.4448C101.477 89.4486 99.4794 89.0059 98.5458 88.3312Z" fill="black"/>
</g>
<defs>
<clipPath id="clip0_0_881">
<rect x="0.998535" y="0.328125" width="128" height="128" rx="64" fill="white"/>
</clipPath>
</defs>
</svg>
