<svg width="33" height="33" viewBox="0 0 33 33" fill="none" xmlns="http://www.w3.org/2000/svg">
<g clip-path="url(#clip0_0_107)">
<path d="M2.95571 13.8057L2.01001 19.1966H16.6066L17.5547 13.8057H2.95571ZM5.72476 18.0803H5.46579L4.02614 16.1939L3.69623 18.0803H3.05856L3.61474 14.9217H3.87688L5.31336 16.802L5.64301 14.9217H6.28384L5.72476 18.0803ZM8.65916 18.0803H6.47662L6.58211 17.4774H8.76465L8.65916 18.0803ZM8.83401 16.7986H6.7021L6.80917 16.1905H8.9453L8.83401 16.7986ZM9.05659 15.5304H6.92442L7.02991 14.9223H9.16603L9.05659 15.5304ZM12.039 18.0803L11.6186 16.1227L10.4983 18.0803H10.1107L9.65154 14.9217H10.3791L10.5637 16.8643L11.631 14.9217H11.981L12.3736 16.8643L13.2389 14.9217H13.9958L12.4319 18.0803H12.039ZM16.2886 15.691C16.0418 15.5453 15.7608 15.4678 15.4742 15.4666C15.0591 15.4666 14.8571 15.6103 14.8571 15.8308C14.8571 16.1019 15.1683 16.1409 15.4265 16.2263C15.8526 16.3693 16.1976 16.5272 16.1976 17.1201C16.1976 17.7712 15.7284 18.1259 14.8376 18.1259C14.3969 18.1259 14.0285 18.0444 13.8571 17.9199L13.9626 17.3118C14.139 17.4271 14.4747 17.5373 14.8328 17.5373C15.2777 17.5373 15.4979 17.4118 15.4979 17.1823C15.4979 16.9149 15.2205 16.858 14.9755 16.7812C14.5451 16.6517 14.158 16.4835 14.158 15.8711C14.158 15.2693 14.5844 14.8714 15.465 14.8714C15.8708 14.8714 16.2297 14.9621 16.3922 15.0823L16.2886 15.691Z" fill="#F73458"/>
<path d="M20.3707 15.8125C20.3707 15.2811 20.0115 14.9269 19.3949 14.9219H18.2224L17.6667 18.0807H18.3229L18.5238 16.9467H19.0157L19.4186 18.0807H20.1307L19.6278 16.8605C20.0982 16.688 20.3707 16.2808 20.3707 15.8125ZM19.1697 16.3768H18.6238L18.7762 15.4912H19.3269C19.5515 15.4912 19.6853 15.631 19.6853 15.8605C19.686 16.1524 19.4759 16.3768 19.1697 16.3768Z" fill="#121212"/>
<path d="M23.1023 15.5297L23.2122 14.9219H21.1834L20.6281 18.0802H22.7048L22.8106 17.4776H21.3889L21.5083 16.798H22.8341L22.9398 16.1901H21.6141L21.7338 15.5297H23.1023Z" fill="#121212"/>
<path d="M25.7722 15.5297L25.8824 14.9219H23.8534L23.298 18.0802H25.3748L25.4808 17.4776H24.0585L24.1783 16.798H25.5042L25.6097 16.1901H24.284L24.4035 15.5297H25.7722Z" fill="#121212"/>
<path d="M26.7285 17.4776L27.1784 14.9219H26.5236L25.9679 18.0802H27.9389L28.0447 17.4776H26.7285Z" fill="#121212"/>
<path d="M30.0107 15.4684C30.3601 15.4684 30.6668 15.5923 30.8251 15.6925L30.9306 15.086C30.767 14.9662 30.4084 14.875 30.0025 14.875C29.1209 14.875 28.6955 15.2724 28.6955 15.875C28.6955 16.4871 29.0824 16.6548 29.5131 16.7843C29.7567 16.8613 30.0347 16.9188 30.0347 17.186C30.0347 17.4157 29.8145 17.5407 29.3691 17.5407C29.0101 17.5407 28.6758 17.4304 28.4988 17.3152L28.3933 17.9231C28.5663 18.0481 28.935 18.1296 29.3754 18.1296C30.2652 18.1296 30.7341 17.7746 30.7341 17.124C30.7341 16.5309 30.3889 16.3729 29.9638 16.2297C29.7053 16.1432 29.3944 16.1047 29.3944 15.8323C29.3941 15.6121 29.5951 15.4684 30.0107 15.4684Z" fill="#121212"/>
</g>
<defs>
<clipPath id="clip0_0_107">
<rect width="32" height="32" fill="white" transform="translate(0.470215 0.500977)"/>
</clipPath>
</defs>
</svg>
