<svg width="513" height="513" viewBox="0 0 513 513" fill="none" xmlns="http://www.w3.org/2000/svg">
<g clip-path="url(#clip0_0_377)">
<rect width="512" height="512" transform="translate(0.666504 0.73584)" fill="black"/>
<path d="M89.4215 157.104L69.0415 273.042H383.012L403.399 157.104H89.4215ZM148.981 249.043H143.422L112.432 208.477L105.335 249.043H91.6474L103.586 181.111H109.248L140.12 221.55L147.217 181.111H161.007L148.981 249.043ZM212.095 249.043H165.135L167.425 236.081H214.386L212.095 249.043ZM215.84 221.458H169.976L172.266 208.39H218.196L215.84 221.458ZM220.62 194.187H174.752L177.043 181.114H222.988L220.62 194.187ZM284.761 249.043L275.717 206.95L251.63 249.054H243.295L233.41 181.122H249.064L253.073 222.905L276.03 181.122H283.547L291.981 222.905L310.624 181.111H326.881L293.226 249.043H284.761ZM376.143 197.68C372.745 195.519 366.159 192.839 358.642 192.839C349.693 192.839 345.367 195.932 345.367 200.662C345.367 206.53 352.056 207.351 357.611 209.21C366.774 212.291 374.185 215.701 374.185 228.453C374.185 242.445 364.098 250.07 344.955 250.07C335.486 250.07 327.56 248.314 323.857 245.637L326.117 232.572C329.935 235.039 337.132 237.41 344.852 237.41C354.419 237.41 359.157 234.737 359.157 229.774C359.157 224.016 353.186 222.779 347.94 221.134C338.678 218.354 330.34 214.75 330.34 201.575C330.34 188.594 339.503 180.061 358.44 180.061C367.183 180.061 374.902 182.019 378.407 184.589L376.143 197.68Z" fill="white"/>
<path d="M173.134 355.349H159.053L170.992 287.42H196.19C209.469 287.523 217.189 295.136 217.189 306.563C217.189 316.654 211.324 325.397 201.241 329.089L212.042 355.333H196.706L188.069 330.956H177.456L173.134 355.349ZM202.467 307.587C202.467 302.65 199.588 299.668 194.751 299.668H182.915L179.62 318.712H191.353C197.943 318.712 202.467 313.875 202.467 307.587Z" fill="white"/>
<path d="M234.666 287.42H278.308L275.945 300.489H246.505L243.928 314.688H272.444L270.176 327.764H241.668L239.094 342.375H269.661L267.397 355.356H222.727L234.666 287.42Z" fill="white"/>
<path d="M292.091 287.42H335.726L333.363 300.489H303.923L301.354 314.688H329.862L327.598 327.764H299.09L296.516 342.375H327.086L324.819 355.356H280.149L292.091 287.42Z" fill="white"/>
<path d="M349.504 287.42H363.607L353.936 342.379H382.238L379.974 355.36H337.565L349.504 287.42Z" fill="white"/>
<path d="M389.741 351.951L392.001 338.882C395.819 341.349 403.016 343.723 410.739 343.723C420.307 343.723 425.041 341.051 425.041 336.088C425.041 330.323 419.074 329.089 413.824 327.444C404.562 324.664 396.224 321.06 396.224 307.885C396.224 294.904 405.387 286.375 424.323 286.375C433.07 286.375 440.79 288.329 444.291 290.899L442.023 303.975C438.629 301.818 432.043 299.142 424.53 299.142C415.573 299.142 411.251 302.23 411.251 306.957C411.251 312.829 417.94 313.65 423.499 315.505C432.662 318.59 440.069 321.996 440.069 334.747C440.069 348.744 429.982 356.368 410.839 356.368C401.37 356.384 393.444 354.627 389.741 351.951Z" fill="white"/>
</g>
<defs>
<clipPath id="clip0_0_377">
<rect width="512" height="512" fill="white" transform="translate(0.666504 0.73584)"/>
</clipPath>
</defs>
</svg>
