<svg width="65" height="65" viewBox="0 0 65 65" fill="none" xmlns="http://www.w3.org/2000/svg">
<g clip-path="url(#clip0_0_584)">
<rect width="64" height="64" transform="translate(0.666016 0.175781)" fill="black"/>
<rect width="64" height="64" transform="translate(0.666016 0.175781)" fill="black"/>
<path d="M11.7604 19.7217L9.21289 34.214H48.4592L51.0076 19.7217H11.7604ZM19.2053 31.2141H18.5105L14.6367 26.1434L13.7495 31.2141H12.0386L13.531 22.7226H14.2387L18.0977 27.7775L18.9848 22.7226H20.7086L19.2053 31.2141ZM27.0946 31.2141H21.2245L21.5109 29.5939H27.3809L27.0946 31.2141ZM27.5627 27.766H21.8297L22.116 26.1324H27.8572L27.5627 27.766ZM28.1603 24.3571H22.4267L22.713 22.723H28.4561L28.1603 24.3571ZM36.1779 31.2141L35.0473 25.9525L32.0364 31.2155H30.9946L29.759 22.724H31.7157L32.2168 27.9469L35.0864 22.724H36.0261L37.0803 27.9469L39.4107 22.7226H41.4428L37.2359 31.2141H36.1779ZM47.6006 24.7938C47.1759 24.5237 46.3526 24.1886 45.4129 24.1886C44.2943 24.1886 43.7536 24.5752 43.7536 25.1665C43.7536 25.9 44.5897 26.0026 45.2841 26.235C46.4295 26.6202 47.3558 27.0464 47.3558 28.6403C47.3558 30.3894 46.0949 31.3425 43.702 31.3425C42.5185 31.3425 41.5277 31.1229 41.0648 30.7884L41.3473 29.1553C41.8246 29.4636 42.7242 29.7599 43.6891 29.7599C44.8851 29.7599 45.4774 29.4259 45.4774 28.8055C45.4774 28.0858 44.731 27.9312 44.0752 27.7255C42.9174 27.378 41.8752 26.9275 41.8752 25.2806C41.8752 23.6579 43.0205 22.5913 45.3876 22.5913C46.4805 22.5913 47.4455 22.8361 47.8836 23.1573L47.6006 24.7938Z" fill="#F73458"/>
<path d="M22.2249 44.5023H20.4648L21.9572 36.0112H25.107C26.7668 36.0241 27.7318 36.9757 27.7318 38.4041C27.7318 39.6654 26.9987 40.7583 25.7383 41.2198L27.0884 44.5004H25.1714L24.0919 41.4532H22.7651L22.2249 44.5023ZM25.8915 38.532C25.8915 37.9149 25.5317 37.5422 24.927 37.5422H23.4476L23.0357 39.9227H24.5023C25.326 39.9227 25.8915 39.318 25.8915 38.532Z" fill="white"/>
<path d="M29.9162 36.0112H35.3715L35.0761 37.6448H31.3961L31.0739 39.4197H34.6384L34.355 41.0542H30.7914L30.4698 42.8806H34.2905L34.0075 44.5032H28.4238L29.9162 36.0112Z" fill="white"/>
<path d="M37.0944 36.0112H42.5487L42.2533 37.6448H38.5733L38.2521 39.4197H41.8157L41.5327 41.0542H37.9691L37.6475 42.8806H41.4687L41.1853 44.5032H35.6016L37.0944 36.0112Z" fill="white"/>
<path d="M44.2716 36.0112H46.0345L44.8257 42.8811H48.3635L48.0805 44.5037H42.7793L44.2716 36.0112Z" fill="white"/>
<path d="M49.3008 44.0774L49.5833 42.4438C50.0605 42.7521 50.9601 43.049 51.9256 43.049C53.1216 43.049 53.7133 42.7149 53.7133 42.0945C53.7133 41.3739 52.9674 41.2197 52.3112 41.014C51.1534 40.6666 50.1111 40.2161 50.1111 38.5691C50.1111 36.9465 51.2565 35.8804 53.6236 35.8804C54.717 35.8804 55.682 36.1247 56.1196 36.4459L55.8361 38.0804C55.4118 37.8108 54.5886 37.4763 53.6494 37.4763C52.5298 37.4763 51.9895 37.8623 51.9895 38.4532C51.9895 39.1872 52.8257 39.2898 53.5205 39.5217C54.6659 39.9073 55.5918 40.333 55.5918 41.927C55.5918 43.6766 54.3309 44.6296 51.938 44.6296C50.7545 44.6315 49.7637 44.412 49.3008 44.0774Z" fill="white"/>
</g>
<defs>
<clipPath id="clip0_0_584">
<rect width="64" height="64" fill="white" transform="translate(0.666016 0.175781)"/>
</clipPath>
</defs>
</svg>
