<svg width="513" height="513" viewBox="0 0 513 513" fill="none" xmlns="http://www.w3.org/2000/svg">
<g clip-path="url(#clip0_0_260)">
<path d="M40.2447 213.501L25.1135 299.757H258.659L273.828 213.501H40.2447ZM84.5495 281.895H80.4059L57.3716 251.713L52.093 281.895H41.8903L50.7892 231.358H54.9834L77.967 261.444L83.2414 231.358H93.4948L84.5495 281.895ZM131.5 281.895H96.5793L98.2671 272.25H133.188L131.5 281.895ZM134.297 261.389H100.187L101.9 251.658H136.078L134.297 261.389ZM137.859 241.097H103.744L105.432 231.367H139.61L137.859 241.097ZM185.577 281.895L178.851 250.574L160.927 281.895H154.724L147.378 231.358H159.02L161.973 262.439L179.05 231.358H184.649L190.932 262.439L204.776 231.358H216.886L191.864 281.895H185.577ZM253.57 243.667C249.622 241.335 245.125 240.096 240.54 240.076C233.899 240.076 230.667 242.376 230.667 245.903C230.667 250.241 235.646 250.865 239.777 252.232C246.595 254.519 252.115 257.047 252.115 266.532C252.115 276.95 244.608 282.625 230.355 282.625C223.304 282.625 217.409 281.322 214.666 279.33L216.354 269.6C219.177 271.444 224.549 273.208 230.279 273.208C237.397 273.208 240.92 271.199 240.92 267.528C240.92 263.249 236.481 262.338 232.561 261.11C225.675 259.038 219.481 256.346 219.481 246.549C219.481 236.92 226.304 230.552 240.393 230.552C246.887 230.552 252.629 232.004 255.229 233.928L253.57 243.667Z" fill="white"/>
<path d="M318.884 245.608C318.884 237.106 313.137 231.439 303.272 231.359H284.512L275.621 281.9H286.12L289.335 263.756H297.204L303.652 281.9H315.044L306.998 262.376C314.525 259.617 318.884 253.102 318.884 245.608ZM299.668 254.638H290.934L293.373 240.469H302.183C305.778 240.469 307.918 242.705 307.918 246.376C307.93 251.047 304.567 254.638 299.668 254.638Z" fill="white"/>
<path d="M362.59 241.088L364.349 231.362H331.889L323.002 281.895H356.231L357.923 272.254H335.176L337.087 261.38H358.299L359.991 251.654H338.779L340.695 241.088H362.59Z" fill="white"/>
<path d="M405.308 241.088L407.072 231.362H374.607L365.721 281.895H398.949L400.645 272.254H377.89L379.805 261.38H401.021L402.709 251.654H381.497L383.409 241.088H405.308Z" fill="white"/>
<path d="M420.608 272.254L427.806 231.362H417.329L408.439 281.895H439.975L441.667 272.254H420.608Z" fill="white"/>
<path d="M473.124 240.101C478.715 240.101 483.622 242.084 486.154 243.688L487.842 233.983C485.226 232.067 479.487 230.607 472.993 230.607C458.887 230.607 452.081 236.966 452.081 246.608C452.081 256.401 458.271 259.085 465.162 261.157C469.061 262.389 473.508 263.309 473.508 267.583C473.508 271.258 469.985 273.258 462.858 273.258C457.115 273.258 451.765 271.494 448.934 269.651L447.246 279.376C450.014 281.377 455.913 282.68 462.959 282.68C477.196 282.68 484.698 277.001 484.698 266.591C484.698 257.102 479.175 254.574 472.373 252.283C468.238 250.899 463.263 250.283 463.263 245.924C463.259 242.401 466.474 240.101 473.124 240.101Z" fill="white"/>
</g>
<defs>
<clipPath id="clip0_0_260">
<rect width="512" height="512" fill="white" transform="translate(0.477539 0.628906)"/>
</clipPath>
</defs>
</svg>
