<svg width="25" height="25" viewBox="0 0 25 25" fill="none" xmlns="http://www.w3.org/2000/svg">
<g clip-path="url(#clip0_0_692)">
<path d="M5.15844 7.95068L4.20312 13.3853H18.9205L19.8761 7.95068H5.15844ZM7.95029 12.2603H7.68972L6.23706 10.3588L5.90436 12.2603H5.26278L5.8224 9.07602H6.0878L7.53491 10.9716L7.86761 9.07602H8.51403L7.95029 12.2603ZM10.9088 12.2603H8.70749L8.81487 11.6528H11.0161L10.9088 12.2603ZM11.0843 10.9673H8.93442L9.0418 10.3547H11.1947L11.0843 10.9673ZM11.3084 9.68897H9.1583L9.26568 9.0762H11.4193L11.3084 9.68897ZM14.315 12.2603L13.891 10.2872L12.7619 12.2609H12.3713L11.9079 9.07655H12.6417L12.8296 11.0351L13.9057 9.07655H14.2581L14.6534 11.0351L15.5273 9.07602H16.2893L14.7118 12.2603H14.315ZM18.5985 9.85272C18.4392 9.75143 18.1305 9.6258 17.7781 9.6258C17.3586 9.6258 17.1559 9.77076 17.1559 9.99249C17.1559 10.2676 17.4694 10.306 17.7298 10.3932C18.1593 10.5376 18.5067 10.6974 18.5067 11.2952C18.5067 11.9511 18.0339 12.3085 17.1366 12.3085C16.6927 12.3085 16.3212 12.2262 16.1476 12.1007L16.2535 11.4883C16.4325 11.6039 16.7699 11.715 17.1317 11.715C17.5802 11.715 17.8023 11.5898 17.8023 11.3571C17.8023 11.0872 17.5224 11.0292 17.2765 10.9521C16.8423 10.8218 16.4515 10.6529 16.4515 10.0353C16.4515 9.42678 16.881 9.0268 17.7687 9.0268C18.1785 9.0268 18.5404 9.11861 18.7046 9.23905L18.5985 9.85272Z" fill="white"/>
<path d="M9.0819 17.2437H8.42188L8.9815 14.0596H10.1627C10.7851 14.0644 11.147 14.4213 11.147 14.9569C11.147 15.4299 10.8721 15.8397 10.3994 16.0128L10.9057 17.243H10.1868L9.78201 16.1003H9.28449L9.0819 17.2437ZM10.4569 15.0049C10.4569 14.7735 10.3219 14.6337 10.0952 14.6337H9.5404L9.38596 15.5264H9.93592C10.2448 15.5264 10.4569 15.2996 10.4569 15.0049Z" fill="white"/>
<path d="M11.9659 14.0596H14.0116L13.9008 14.6722H12.5208L12.4 15.3377H13.7367L13.6304 15.9507H12.2941L12.1735 16.6356H13.6063L13.5001 17.2441H11.4062L11.9659 14.0596Z" fill="white"/>
<path d="M14.6594 14.0596H16.7048L16.594 14.6722H15.214L15.0936 15.3377H16.4299L16.3238 15.9507H14.9875L14.8668 16.6356H16.2998L16.1935 17.2441H14.0996L14.6594 14.0596Z" fill="white"/>
<path d="M17.3506 14.0596H18.0117L17.5584 16.6358H18.8851L18.779 17.2442H16.791L17.3506 14.0596Z" fill="white"/>
<path d="M19.2363 17.0842L19.3423 16.4716C19.5212 16.5872 19.8586 16.6985 20.2206 16.6985C20.6691 16.6985 20.891 16.5732 20.891 16.3406C20.891 16.0703 20.6113 16.0125 20.3652 15.9354C19.9311 15.8051 19.5402 15.6362 19.5402 15.0185C19.5402 14.4101 19.9697 14.0103 20.8574 14.0103C21.2674 14.0103 21.6293 14.1019 21.7934 14.2223L21.6871 14.8353C21.528 14.7342 21.2193 14.6087 20.8671 14.6087C20.4472 14.6087 20.2446 14.7535 20.2446 14.9751C20.2446 15.2503 20.5582 15.2888 20.8187 15.3758C21.2483 15.5204 21.5954 15.68 21.5954 16.2777C21.5954 16.9338 21.1226 17.2912 20.2253 17.2912C19.7815 17.2919 19.4099 17.2096 19.2363 17.0842Z" fill="white"/>
</g>
<defs>
<clipPath id="clip0_0_692">
<rect width="24" height="24" fill="white" transform="translate(0.998047 0.621094)"/>
</clipPath>
</defs>
</svg>
