<svg width="25" height="25" viewBox="0 0 25 25" fill="none" xmlns="http://www.w3.org/2000/svg">
<g clip-path="url(#clip0_0_998)">
<rect width="24" height="24" transform="translate(0.726562 0.175781)" fill="black"/>
<path d="M4.82134 7.46643L3.85803 12.9466H18.6986L19.6623 7.46643H4.82134ZM7.63657 11.8122H7.37381L5.909 9.89474L5.57351 11.8122H4.92655L5.49086 8.60118H5.75849L7.21771 10.5126L7.55319 8.60118H8.20503L7.63657 11.8122ZM10.6198 11.8122H8.40011L8.50839 11.1995H10.7281L10.6198 11.8122ZM10.7968 10.5083H8.62893L8.73721 9.89059H10.9082L10.7968 10.5083ZM11.0228 9.21927H8.85469L8.96297 8.60137H11.1347L11.0228 9.21927ZM14.0546 11.8122L13.627 9.82256L12.4885 11.8127H12.0945L11.6273 8.60173H12.3672L12.5567 10.5767L13.6418 8.60173H13.9972L14.3958 10.5767L15.277 8.60118H16.0454L14.4546 11.8122H14.0546ZM18.3739 9.38439C18.2133 9.28225 17.902 9.15557 17.5467 9.15557C17.1237 9.15557 16.9192 9.30174 16.9192 9.52534C16.9192 9.80271 17.2354 9.84151 17.498 9.92939C17.9311 10.075 18.2814 10.2362 18.2814 10.8389C18.2814 11.5003 17.8046 11.8607 16.8997 11.8607C16.4522 11.8607 16.0775 11.7777 15.9025 11.6512L16.0093 11.0336C16.1898 11.1502 16.53 11.2623 16.8949 11.2623C17.3471 11.2623 17.5711 11.136 17.5711 10.9014C17.5711 10.6292 17.2888 10.5708 17.0409 10.493C16.6031 10.3616 16.2089 10.1912 16.2089 9.56846C16.2089 8.95489 16.642 8.55156 17.5371 8.55156C17.9504 8.55156 18.3153 8.64413 18.481 8.76558L18.3739 9.38439Z" fill="#F73458"/>
<path d="M8.77822 16.837H8.11267L8.67698 13.6262H9.86804C10.4957 13.6311 10.8606 13.9909 10.8606 14.5311C10.8606 15.008 10.5834 15.4213 10.1068 15.5958L10.6173 16.8363H9.8924L9.48419 15.684H8.9825L8.77822 16.837ZM10.1647 14.5794C10.1647 14.3461 10.0286 14.2051 9.8 14.2051H9.24057L9.08483 15.1053H9.63939C9.95087 15.1053 10.1647 14.8767 10.1647 14.5794Z" fill="white"/>
<path d="M11.6867 13.6262H13.7496L13.6379 14.2439H12.2464L12.1245 14.9151H13.4724L13.3652 15.5332H12.0177L11.8961 16.2238H13.3409L13.2339 16.8374H11.1224L11.6867 13.6262Z" fill="white"/>
<path d="M14.401 13.6262H16.4635L16.3518 14.2439H14.9603L14.8388 14.9151H16.1864L16.0793 15.5332H14.7318L14.6102 16.2238H16.0552L15.948 16.8374H13.8365L14.401 13.6262Z" fill="white"/>
<path d="M17.1148 13.6262H17.7815L17.3244 16.224H18.6621L18.5551 16.8376H16.5505L17.1148 13.6262Z" fill="white"/>
<path d="M19.0167 16.6764L19.1236 16.0587C19.304 16.1753 19.6442 16.2875 20.0093 16.2875C20.4615 16.2875 20.6853 16.1612 20.6853 15.9266C20.6853 15.6541 20.4032 15.5958 20.1551 15.518C19.7173 15.3866 19.3231 15.2163 19.3231 14.5935C19.3231 13.9799 19.7563 13.5768 20.6514 13.5768C21.0648 13.5768 21.4297 13.6692 21.5952 13.7906L21.488 14.4087C21.3276 14.3068 21.0163 14.1802 20.6611 14.1802C20.2377 14.1802 20.0335 14.3262 20.0335 14.5497C20.0335 14.8272 20.3496 14.866 20.6124 14.9537C21.0455 15.0995 21.3956 15.2605 21.3956 15.8632C21.3956 16.5248 20.9188 16.8852 20.014 16.8852C19.5664 16.8859 19.1918 16.8029 19.0167 16.6764Z" fill="white"/>
</g>
<defs>
<clipPath id="clip0_0_998">
<rect x="0.726562" y="0.175781" width="24" height="24" rx="12" fill="white"/>
</clipPath>
</defs>
</svg>
