<svg width="24" height="25" viewBox="0 0 24 25" fill="none" xmlns="http://www.w3.org/2000/svg">
<g clip-path="url(#clip0_0_746)">
<path d="M1.30094 5.80197L-0.00280762 13.2188H20.0825L21.3867 5.80197H1.30094ZM5.11108 11.6835H4.75546L2.77297 9.08846L2.31893 11.6835H1.44333L2.20707 7.33775H2.56928L4.5442 9.92473L4.99824 7.33775H5.88043L5.11108 11.6835ZM9.1486 11.6835H6.14445L6.291 10.8543H9.29514L9.1486 11.6835ZM9.3882 9.91887H6.45415L6.60069 9.08284H9.53889L9.3882 9.91887ZM9.69398 8.17427H6.75969L6.90624 7.338H9.84541L9.69398 8.17427ZM13.7972 11.6835L13.2186 8.99076L11.6777 11.6842H11.1445L10.5122 7.33849H11.5136L11.77 10.0114L13.2386 7.33849H13.7195L14.2591 10.0114L15.4517 7.33775H16.4917L14.3387 11.6835H13.7972ZM19.6431 8.39775C19.4257 8.25951 19.0044 8.08805 18.5235 8.08805C17.951 8.08805 17.6743 8.28589 17.6743 8.5885C17.6743 8.9639 18.1022 9.01641 18.4575 9.13535C19.0437 9.33245 19.5178 9.55056 19.5178 10.3663C19.5178 11.2615 18.8725 11.7492 17.6479 11.7492C17.0422 11.7492 16.5351 11.6369 16.2982 11.4656L16.4428 10.6299C16.687 10.7876 17.1474 10.9393 17.6413 10.9393C18.2534 10.9393 18.5565 10.7683 18.5565 10.4508C18.5565 10.0825 18.1745 10.0034 17.8389 9.89811C17.2464 9.7203 16.7129 9.48974 16.7129 8.64687C16.7129 7.81646 17.2991 7.27059 18.5105 7.27059C19.0698 7.27059 19.5637 7.39588 19.7879 7.56025L19.6431 8.39775Z" fill="#F73458"/>
<path d="M6.65539 18.4847H5.75464L6.51837 14.1392H8.13036C8.97982 14.1458 9.47367 14.6328 9.47367 15.3638C9.47367 16.0093 9.09852 16.5686 8.45348 16.8048L9.14444 18.4837H8.16333L7.61086 16.9243H6.93187L6.65539 18.4847ZM8.53189 15.4293C8.53189 15.1135 8.34773 14.9227 8.03828 14.9227H7.28113L7.07036 16.141H7.8209C8.24246 16.141 8.53189 15.8315 8.53189 15.4293Z" fill="#F73458"/>
<path d="M10.5913 14.1392H13.3832L13.232 14.9752H11.3486L11.1838 15.8835H13.008L12.8629 16.7201H11.0392L10.8746 17.6548H12.8299L12.6851 18.4852H9.82751L10.5913 14.1392Z" fill="#F73458"/>
<path d="M14.2673 14.1392H17.0587L16.9075 14.9752H15.0242L14.8598 15.8835H16.6835L16.5387 16.7201H14.715L14.5504 17.6548H16.506L16.3609 18.4852H13.5033L14.2673 14.1392Z" fill="#F73458"/>
<path d="M17.94 14.1392H18.8422L18.2236 17.655H20.0341L19.8893 18.4854H17.1763L17.94 14.1392Z" fill="#F73458"/>
<path d="M20.5135 18.2669L20.6581 17.4309C20.9024 17.5887 21.3628 17.7406 21.8569 17.7406C22.4689 17.7406 22.7718 17.5696 22.7718 17.2521C22.7718 16.8833 22.39 16.8044 22.0542 16.6992C21.4617 16.5214 20.9283 16.2908 20.9283 15.4479C20.9283 14.6175 21.5144 14.0719 22.7259 14.0719C23.2854 14.0719 23.7793 14.1969 24.0032 14.3613L23.8582 15.1978C23.641 15.0598 23.2197 14.8886 22.7391 14.8886C22.1661 14.8886 21.8896 15.0862 21.8896 15.3886C21.8896 15.7642 22.3175 15.8167 22.6731 15.9354C23.2593 16.1328 23.7331 16.3506 23.7331 17.1664C23.7331 18.0618 23.0878 18.5495 21.8632 18.5495C21.2575 18.5505 20.7505 18.4382 20.5135 18.2669Z" fill="#F73458"/>
</g>
<defs>
<clipPath id="clip0_0_746">
<rect y="0.175781" width="24" height="24" rx="6" fill="white"/>
</clipPath>
</defs>
</svg>
