<svg width="513" height="513" viewBox="0 0 513 513" fill="none" xmlns="http://www.w3.org/2000/svg">
<g clip-path="url(#clip0_0_350)">
<path d="M89.7531 156.989L69.373 272.927H383.343L403.731 156.989H89.7531ZM149.313 248.928H143.754L112.764 208.363L105.666 248.928H91.9789L103.918 180.996H109.58L140.451 221.435L147.549 180.996H161.339L149.313 248.928ZM212.427 248.928H165.466L167.757 235.966H214.717L212.427 248.928ZM216.172 221.344H170.307L172.598 208.275H218.528L216.172 221.344ZM220.952 194.072H175.083L177.374 181H223.319L220.952 194.072ZM285.093 248.928L276.048 206.835L251.961 248.939H243.627L233.742 181.007H249.395L253.404 222.791L276.361 181.007H283.879L292.313 222.791L310.955 180.996H327.212L293.557 248.928H285.093ZM376.475 197.566C373.077 195.405 366.491 192.724 358.973 192.724C350.024 192.724 345.699 195.817 345.699 200.547C345.699 206.416 352.388 207.236 357.943 209.096C367.106 212.177 374.516 215.586 374.516 228.338C374.516 242.331 364.429 249.955 345.286 249.955C335.818 249.955 327.892 248.199 324.188 245.522L326.449 232.458C330.267 234.924 337.463 237.295 345.183 237.295C354.751 237.295 359.489 234.622 359.489 229.659C359.489 223.902 353.518 222.665 348.272 221.019C339.01 218.24 330.671 214.635 330.671 201.46C330.671 188.479 339.834 179.946 358.771 179.946C367.514 179.946 375.234 181.904 378.739 184.474L376.475 197.566Z" fill="white"/>
<path d="M173.465 355.234H159.385L171.323 287.306H196.522C209.8 287.409 217.52 295.022 217.52 306.449C217.52 316.539 211.656 325.282 201.573 328.974L212.374 355.219H197.037L188.401 330.841H177.787L173.465 355.234ZM202.798 307.472C202.798 302.535 199.92 299.554 195.082 299.554H183.247L179.952 318.597H191.684C198.274 318.597 202.798 313.76 202.798 307.472Z" fill="white"/>
<path d="M234.997 287.306H278.64L276.277 300.374H246.837L244.259 314.573H272.775L270.508 327.65H241.999L239.426 342.261H269.992L267.728 355.242H223.059L234.997 287.306Z" fill="white"/>
<path d="M292.423 287.306H336.058L333.695 300.374H304.255L301.685 314.573H330.194L327.93 327.65H299.421L296.848 342.261H327.418L325.15 355.242H280.48L292.423 287.306Z" fill="white"/>
<path d="M349.835 287.306H363.938L354.268 342.265H382.57L380.306 355.245H337.896L349.835 287.306Z" fill="white"/>
<path d="M390.072 351.836L392.332 338.768C396.15 341.234 403.347 343.609 411.071 343.609C420.638 343.609 425.373 340.936 425.373 335.973C425.373 330.208 419.405 328.975 414.156 327.329C404.893 324.55 396.555 320.946 396.555 307.77C396.555 294.789 405.718 286.26 424.655 286.26C433.402 286.26 441.122 288.214 444.623 290.784L442.355 303.86C438.961 301.703 432.375 299.027 424.861 299.027C415.904 299.027 411.582 302.116 411.582 306.842C411.582 312.714 418.271 313.535 423.83 315.39C432.993 318.475 440.4 321.881 440.4 334.633C440.4 348.629 430.313 356.254 411.17 356.254C401.702 356.269 393.776 354.513 390.072 351.836Z" fill="white"/>
</g>
<defs>
<clipPath id="clip0_0_350">
<rect width="512" height="512" fill="white" transform="translate(0.998047 0.621094)"/>
</clipPath>
</defs>
</svg>
