<svg width="256" height="256" viewBox="0 0 256 256" fill="none" xmlns="http://www.w3.org/2000/svg">
<g clip-path="url(#clip0_0_386)">
<rect width="256" height="256" fill="white"/>
<path d="M44.3775 78.1836L34.1875 136.153H191.173L201.366 78.1836H44.3775ZM74.1573 124.153H71.3778L55.8828 103.871L52.334 124.153H45.4904L51.4597 90.1871H54.2907L69.7266 110.407L73.2753 90.1871H80.1705L74.1573 124.153ZM105.714 124.153H82.2341L83.3794 117.672H106.86L105.714 124.153ZM107.587 110.361H84.6546L85.8 103.827H108.765L107.587 110.361ZM109.977 96.7253H87.0427L88.1881 90.1891H111.16L109.977 96.7253ZM142.047 124.153L137.525 103.107L125.481 124.159H121.314L116.372 90.1929H124.199L126.203 111.084L137.682 90.1929H141.44L145.657 111.084L154.979 90.1871H163.107L146.28 124.153H142.047ZM187.738 98.472C186.039 97.3915 182.746 96.0515 178.988 96.0515C174.513 96.0515 172.35 97.5977 172.35 99.9629C172.35 102.897 175.695 103.307 178.472 104.237C183.054 105.778 186.759 107.482 186.759 113.858C186.759 120.855 181.716 124.667 172.144 124.667C167.41 124.667 163.447 123.789 161.595 122.45L162.725 115.918C164.634 117.151 168.233 118.337 172.093 118.337C176.876 118.337 179.245 117 179.245 114.519C179.245 111.64 176.26 111.021 173.637 110.199C169.006 108.809 164.837 107.007 164.837 100.419C164.837 93.9287 169.418 89.6622 178.887 89.6622C183.258 89.6622 187.118 90.6415 188.87 91.9262L187.738 98.472Z" fill="#F73458"/>
<path d="M86.2336 177.306H79.1934L85.1627 143.342H97.7618C104.401 143.394 108.261 147.2 108.261 152.914C108.261 157.959 105.329 162.331 100.287 164.177L105.688 177.299H98.0195L93.7014 165.11H88.3945L86.2336 177.306ZM100.9 153.425C100.9 150.957 99.4608 149.466 97.0421 149.466H91.1243L89.4769 158.988H95.3431C98.638 158.988 100.9 156.569 100.9 153.425Z" fill="black"/>
<path d="M116.999 143.342H138.82L137.638 149.877H122.918L121.63 156.976H135.888L134.754 163.514H120.5L119.213 170.82H134.496L133.364 177.31H111.029L116.999 143.342Z" fill="black"/>
<path d="M145.713 143.342H167.531L166.349 149.877H151.629L150.345 156.976H164.599L163.467 163.514H149.213L147.926 170.82H163.211L162.077 177.31H139.742L145.713 143.342Z" fill="black"/>
<path d="M174.419 143.342H181.47L176.635 170.822H190.786L189.654 177.312H168.449L174.419 143.342Z" fill="black"/>
<path d="M194.537 175.608L195.667 169.073C197.576 170.306 201.175 171.494 205.036 171.494C209.82 171.494 212.187 170.158 212.187 167.676C212.187 164.793 209.204 164.177 206.579 163.354C201.948 161.964 197.779 160.162 197.779 153.574C197.779 147.084 202.36 142.819 211.828 142.819C216.202 142.819 220.062 143.797 221.812 145.081L220.678 151.62C218.981 150.541 215.688 149.203 211.932 149.203C207.453 149.203 205.292 150.747 205.292 153.111C205.292 156.046 208.637 156.457 211.416 157.385C215.998 158.927 219.701 160.63 219.701 167.006C219.701 174.004 214.658 177.816 205.086 177.816C200.352 177.824 196.389 176.946 194.537 175.608Z" fill="black"/>
</g>
<defs>
<clipPath id="clip0_0_386">
<rect width="256" height="256" fill="white"/>
</clipPath>
</defs>
</svg>
