<svg width="65" height="65" viewBox="0 0 65 65" fill="none" xmlns="http://www.w3.org/2000/svg">
<g clip-path="url(#clip0_0_917)">
<rect width="64" height="64" transform="translate(0.998047 0.328125)" fill="white"/>
<path d="M11.9173 19.7698L9.34851 34.3834H48.9233L51.4931 19.7698H11.9173ZM19.4246 31.3584H18.7239L14.8177 26.2453L13.9231 31.3584H12.1979L13.7027 22.7958H14.4164L18.3077 27.893L19.2023 22.7958H20.9405L19.4246 31.3584ZM27.3799 31.3584H21.4607L21.7495 29.7246H27.6686L27.3799 31.3584ZM27.852 27.8815H22.0709L22.3597 26.2342H28.1489L27.852 27.8815ZM28.4545 24.444H22.6729L22.9617 22.7963H28.7529L28.4545 24.444ZM36.5392 31.3584L35.3992 26.0528L32.3631 31.3598H31.3126L30.0666 22.7972H32.0397L32.545 28.0639L35.4387 22.7972H36.3862L37.4493 28.0639L39.7991 22.7958H41.8482L37.6061 31.3584H36.5392ZM48.0576 24.8843C47.6293 24.612 46.7992 24.2741 45.8516 24.2741C44.7236 24.2741 44.1784 24.6639 44.1784 25.2602C44.1784 25.9998 45.0215 26.1033 45.7217 26.3377C46.8767 26.726 47.8107 27.1558 47.8107 28.7631C47.8107 30.5268 46.5393 31.4878 44.1264 31.4878C42.9329 31.4878 41.9339 31.2665 41.4671 30.9291L41.752 29.2824C42.2332 29.5932 43.1403 29.8921 44.1134 29.8921C45.3194 29.8921 45.9166 29.5552 45.9166 28.9296C45.9166 28.2039 45.1639 28.048 44.5027 27.8406C43.3352 27.4902 42.2842 27.0359 42.2842 25.3752C42.2842 23.739 43.4392 22.6634 45.8261 22.6634C46.9281 22.6634 47.9012 22.9103 48.343 23.2342L48.0576 24.8843Z" fill="black"/>
<path d="M22.469 44.7579H20.6942L22.199 36.1958H25.3752C27.0489 36.2088 28.022 37.1684 28.022 38.6087C28.022 39.8806 27.2828 40.9826 26.0119 41.448L27.3733 44.756H25.4402L24.3516 41.6833H23.0138L22.469 44.7579ZM26.1663 38.7377C26.1663 38.1154 25.8035 37.7396 25.1938 37.7396H23.7019L23.2866 40.14H24.7655C25.5961 40.14 26.1663 39.5303 26.1663 38.7377Z" fill="black"/>
<path d="M30.2249 36.1958H35.7259L35.428 37.8431H31.7172L31.3924 39.6328H34.9867L34.7009 41.281H31.1075L30.7831 43.1227H34.6359L34.3505 44.7589H28.7201L30.2249 36.1958Z" fill="black"/>
<path d="M37.4633 36.1958H42.9633L42.6655 37.8431H38.9547L38.6308 39.6328H42.2242L41.9388 41.281H38.3454L38.0211 43.1227H41.8743L41.5885 44.7589H35.958L37.4633 36.1958Z" fill="black"/>
<path d="M44.6999 36.1958H46.4776L45.2586 43.1232H48.826L48.5406 44.7594H43.1951L44.6999 36.1958Z" fill="black"/>
<path d="M49.7717 44.3297L50.0566 42.6824C50.5379 42.9933 51.445 43.2926 52.4185 43.2926C53.6245 43.2926 54.2212 42.9557 54.2212 42.3301C54.2212 41.6035 53.4691 41.448 52.8074 41.2406C51.6399 40.8903 50.5889 40.436 50.5889 38.7752C50.5889 37.139 51.7438 36.064 54.1308 36.064C55.2333 36.064 56.2063 36.3104 56.6476 36.6342L56.3618 38.2825C55.9339 38.0106 55.1038 37.6732 54.1567 37.6732C53.0278 37.6732 52.483 38.0625 52.483 38.6583C52.483 39.3984 53.3261 39.5019 54.0268 39.7358C55.1818 40.1246 56.1154 40.5539 56.1154 42.1612C56.1154 43.9254 54.8439 44.8864 52.431 44.8864C51.2376 44.8884 50.2385 44.667 49.7717 44.3297Z" fill="black"/>
</g>
<defs>
<clipPath id="clip0_0_917">
<rect x="0.998047" y="0.328125" width="64" height="64" rx="32" fill="white"/>
</clipPath>
</defs>
</svg>
