<svg width="257" height="257" viewBox="0 0 257 257" fill="none" xmlns="http://www.w3.org/2000/svg">
<g clip-path="url(#clip0_0_269)">
<path d="M20.4656 107.065L12.9 150.193H129.673L137.257 107.065H20.4656ZM42.618 141.262H40.5462L29.0291 126.171L26.3898 141.262H21.2884L25.7379 115.993H27.835L39.3268 131.036L41.964 115.993H47.0907L42.618 141.262ZM66.0932 141.262H48.6329L49.4768 136.439H66.9371L66.0932 141.262ZM67.492 131.009H50.4368L51.2933 126.143H68.3823L67.492 131.009ZM69.2726 120.863H52.2153L53.0592 115.998H70.1482L69.2726 120.863ZM93.1319 141.262L89.7689 125.601L80.8067 141.262H77.7053L74.0323 115.993H79.8531L81.3299 131.534L89.8681 115.993H92.6677L95.8091 131.534L102.731 115.993H108.786L96.2754 141.262H93.1319ZM127.128 122.148C125.155 120.982 122.906 120.362 120.614 120.352C117.293 120.352 115.677 121.502 115.677 123.266C115.677 125.435 118.166 125.747 120.232 126.43C123.641 127.574 126.401 128.838 126.401 133.58C126.401 138.789 122.647 141.627 115.521 141.627C111.995 141.627 109.048 140.975 107.676 139.979L108.52 135.114C109.932 136.036 112.618 136.918 115.483 136.918C119.042 136.918 120.803 135.914 120.803 134.078C120.803 131.939 118.584 131.483 116.624 130.869C113.181 129.833 110.084 128.487 110.084 123.589C110.084 118.774 113.495 115.59 120.54 115.59C123.787 115.59 126.658 116.316 127.958 117.278L127.128 122.148Z" fill="white"/>
<path d="M159.785 123.118C159.785 118.867 156.912 116.034 151.979 115.994H142.599L138.154 141.264H143.403L145.011 132.192H148.945L152.169 141.264H157.865L153.842 131.502C157.606 130.123 159.785 126.865 159.785 123.118ZM150.177 127.633H145.81L147.03 120.549H151.435C153.232 120.549 154.302 121.667 154.302 123.502C154.308 125.838 152.627 127.633 150.177 127.633Z" fill="white"/>
<path d="M181.638 120.859L182.518 115.996H166.288L161.844 141.262H178.459L179.305 136.441H167.931L168.887 131.004H179.493L180.339 126.141H169.733L170.691 120.859H181.638Z" fill="white"/>
<path d="M202.997 120.859L203.879 115.996H187.647L183.204 141.262H199.818L200.666 136.441H189.288L190.246 131.004H200.854L201.698 126.141H191.092L192.048 120.859H202.997Z" fill="white"/>
<path d="M210.647 136.441L214.247 115.996H209.008L204.563 141.262H220.331L221.177 136.441H210.647Z" fill="white"/>
<path d="M236.905 120.365C239.701 120.365 242.154 121.356 243.42 122.158L244.264 117.305C242.956 116.348 240.087 115.618 236.84 115.618C229.787 115.618 226.384 118.797 226.384 123.618C226.384 128.515 229.479 129.856 232.924 130.892C234.874 131.508 237.097 131.968 237.097 134.105C237.097 135.943 235.336 136.943 231.772 136.943C228.901 136.943 226.226 136.061 224.81 135.139L223.966 140.002C225.35 141.002 228.3 141.654 231.823 141.654C238.941 141.654 242.692 138.814 242.692 133.61C242.692 128.865 239.931 127.601 236.53 126.455C234.462 125.763 231.975 125.455 231.975 123.276C231.973 121.514 233.58 120.365 236.905 120.365Z" fill="white"/>
</g>
<defs>
<clipPath id="clip0_0_269">
<rect width="256" height="256" fill="white" transform="translate(0.582031 0.628906)"/>
</clipPath>
</defs>
</svg>
