<svg width="513" height="513" viewBox="0 0 513 513" fill="none" xmlns="http://www.w3.org/2000/svg">
<g clip-path="url(#clip0_0_341)">
<path d="M89.7531 157.043L69.373 272.982H383.343L403.731 157.043H89.7531ZM149.313 248.983H143.754L112.764 208.417L105.666 248.983H91.9789L103.918 181.051H109.58L140.451 221.49L147.549 181.051H161.339L149.313 248.983ZM212.427 248.983H165.466L167.757 236.021H214.717L212.427 248.983ZM216.172 221.398H170.307L172.598 208.33H218.528L216.172 221.398ZM220.952 194.127H175.083L177.374 181.054H223.319L220.952 194.127ZM285.093 248.983L276.048 206.89L251.961 248.994H243.627L233.742 181.062H249.395L253.404 222.845L276.361 181.062H283.879L292.313 222.845L310.955 181.051H327.212L293.557 248.983H285.093ZM376.475 197.62C373.077 195.459 366.491 192.779 358.973 192.779C350.024 192.779 345.699 195.872 345.699 200.602C345.699 206.47 352.388 207.291 357.943 209.15C367.106 212.231 374.516 215.641 374.516 228.393C374.516 242.385 364.429 250.01 345.286 250.01C335.818 250.01 327.892 248.254 324.188 245.577L326.449 232.512C330.267 234.979 337.463 237.35 345.183 237.35C354.751 237.35 359.489 234.677 359.489 229.714C359.489 223.956 353.518 222.719 348.272 221.074C339.01 218.294 330.671 214.69 330.671 201.515C330.671 188.534 339.834 180.001 358.771 180.001C367.514 180.001 375.234 181.959 378.739 184.529L376.475 197.62Z" fill="#F73458"/>
<path d="M173.465 355.289H159.385L171.323 287.36H196.522C209.8 287.463 217.52 295.076 217.52 306.503C217.52 316.594 211.656 325.337 201.573 329.029L212.374 355.273H197.037L188.401 330.896H177.787L173.465 355.289ZM202.798 307.527C202.798 302.59 199.92 299.608 195.082 299.608H183.247L179.952 318.652H191.684C198.274 318.652 202.798 313.815 202.798 307.527Z" fill="white"/>
<path d="M234.997 287.36H278.64L276.277 300.429H246.837L244.259 314.628H272.775L270.508 327.704H241.999L239.426 342.315H269.992L267.728 355.296H223.059L234.997 287.36Z" fill="white"/>
<path d="M292.423 287.36H336.058L333.695 300.429H304.255L301.685 314.628H330.194L327.93 327.704H299.421L296.848 342.315H327.418L325.15 355.296H280.48L292.423 287.36Z" fill="white"/>
<path d="M349.835 287.36H363.938L354.268 342.319H382.57L380.306 355.3H337.896L349.835 287.36Z" fill="white"/>
<path d="M390.072 351.891L392.332 338.822C396.15 341.289 403.347 343.663 411.071 343.663C420.638 343.663 425.373 340.991 425.373 336.028C425.373 330.262 419.405 329.029 414.156 327.384C404.893 324.604 396.555 321 396.555 307.825C396.555 294.844 405.718 286.314 424.655 286.314C433.402 286.314 441.122 288.269 444.623 290.839L442.355 303.915C438.961 301.758 432.375 299.082 424.861 299.082C415.904 299.082 411.582 302.17 411.582 306.897C411.582 312.769 418.271 313.59 423.83 315.445C432.993 318.53 440.4 321.936 440.4 334.687C440.4 348.684 430.313 356.308 411.17 356.308C401.702 356.324 393.776 354.567 390.072 351.891Z" fill="white"/>
</g>
<defs>
<clipPath id="clip0_0_341">
<rect width="512" height="512" fill="white" transform="translate(0.998047 0.675781)"/>
</clipPath>
</defs>
</svg>
