<svg width="33" height="33" viewBox="0 0 33 33" fill="none" xmlns="http://www.w3.org/2000/svg">
<g clip-path="url(#clip0_0_620)">
<path d="M6.54524 10.4487L5.27148 17.6949H24.8946L26.1688 10.4487H6.54524ZM10.2677 16.1949H9.92027L7.9834 13.6596L7.5398 16.1949H6.68435L7.43052 11.9492H7.78439L9.71387 14.4766L10.1575 11.9492H11.0194L10.2677 16.1949ZM14.2123 16.1949H11.2773L11.4205 15.3848H14.3555L14.2123 16.1949ZM14.4464 14.4709H11.5799L11.723 13.6541H14.5936L14.4464 14.4709ZM14.7452 12.7664H11.8784L12.0216 11.9494H14.8931L14.7452 12.7664ZM18.754 16.1949L18.1887 13.5642L16.6832 16.1957H16.1623L15.5445 11.9499H16.5229L16.7734 14.5613L18.2083 11.9499H18.6781L19.2052 14.5613L20.3704 11.9492H21.3864L19.283 16.1949H18.754ZM24.4653 12.9848C24.253 12.8497 23.8413 12.6822 23.3715 12.6822C22.8122 12.6822 22.5418 12.8755 22.5418 13.1711C22.5418 13.5379 22.9599 13.5892 23.3071 13.7054C23.8798 13.898 24.3429 14.1111 24.3429 14.9081C24.3429 15.7826 23.7125 16.2591 22.5161 16.2591C21.9243 16.2591 21.4289 16.1494 21.1974 15.9821L21.3387 15.1655C21.5773 15.3197 22.0271 15.4679 22.5096 15.4679C23.1076 15.4679 23.4037 15.3008 23.4037 14.9906C23.4037 14.6308 23.0305 14.5535 22.7027 14.4506C22.1238 14.2769 21.6026 14.0516 21.6026 13.2282C21.6026 12.4169 22.1753 11.8836 23.3589 11.8836C23.9053 11.8836 24.3878 12.006 24.6068 12.1666L24.4653 12.9848Z" fill="#F73458"/>
<path d="M11.7765 22.8393H10.8965L11.6426 18.5938H13.2175C14.0475 18.6002 14.5299 19.076 14.5299 19.7902C14.5299 20.4209 14.1634 20.9673 13.5332 21.198L14.2083 22.8383H13.2498L12.71 21.3147H12.0466L11.7765 22.8393ZM13.6098 19.8541C13.6098 19.5456 13.4299 19.3592 13.1276 19.3592H12.3879L12.1819 20.5495H12.9152C13.3271 20.5495 13.6098 20.2471 13.6098 19.8541Z" fill="white"/>
<path d="M15.6231 18.5938H18.3508L18.2031 19.4105H16.3631L16.202 20.298H17.9843L17.8425 21.1152H16.0607L15.8999 22.0284H17.8103L17.6688 22.8397H14.877L15.6231 18.5938Z" fill="white"/>
<path d="M19.2112 18.5938H21.9384L21.7907 19.4105H19.9507L19.7901 20.298H21.5719L21.4304 21.1152H19.6486L19.4878 22.0284H21.3984L21.2567 22.8397H18.4648L19.2112 18.5938Z" fill="white"/>
<path d="M22.8009 18.5938H23.6823L23.0779 22.0287H24.8468L24.7053 22.84H22.0547L22.8009 18.5938Z" fill="white"/>
<path d="M25.3145 22.6269L25.4557 21.8101C25.6943 21.9642 26.1441 22.1126 26.6269 22.1126C27.2248 22.1126 27.5207 21.9456 27.5207 21.6354C27.5207 21.2751 27.1478 21.198 26.8197 21.0952C26.2408 20.9214 25.7196 20.6962 25.7196 19.8727C25.7196 19.0614 26.2923 18.5283 27.4759 18.5283C28.0226 18.5283 28.505 18.6505 28.7239 18.8111L28.5821 19.6284C28.37 19.4935 27.9584 19.3263 27.4888 19.3263C26.929 19.3263 26.6588 19.5193 26.6588 19.8147C26.6588 20.1817 27.0769 20.233 27.4243 20.349C27.997 20.5418 28.4599 20.7546 28.4599 21.5516C28.4599 22.4264 27.8295 22.9029 26.6331 22.9029C26.0413 22.9039 25.5459 22.7941 25.3145 22.6269Z" fill="white"/>
</g>
<defs>
<clipPath id="clip0_0_620">
<rect width="32" height="32" fill="white" transform="translate(0.998047 0.675781)"/>
</clipPath>
</defs>
</svg>
