<svg width="257" height="257" viewBox="0 0 257 257" fill="none" xmlns="http://www.w3.org/2000/svg">
<g clip-path="url(#clip0_0_449)">
<rect width="256" height="256" transform="translate(0.333008 0.73584)" fill="black"/>
<rect width="256" height="256" transform="translate(0.333008 0.73584)" fill="black"/>
<path d="M44.7105 78.9194L34.5205 136.889H191.506L201.699 78.9194H44.7105ZM74.4903 124.889H71.7108L56.2158 104.606L52.6671 124.889H45.8234L51.7928 90.923H54.6237L70.0596 111.143L73.6083 90.923H80.5035L74.4903 124.889ZM106.047 124.889H82.5671L83.7124 118.408H107.193L106.047 124.889ZM107.92 111.097H84.9876L86.133 104.562H109.098L107.92 111.097ZM110.31 97.4612H87.3757L88.5211 90.9249H111.494L110.31 97.4612ZM142.38 124.889L137.858 103.843L125.815 124.895H121.647L116.705 90.9287H124.532L126.536 111.82L138.015 90.9287H141.773L145.99 111.82L155.312 90.923H163.44L146.613 124.889H142.38ZM188.071 99.2078C186.372 98.1274 183.079 96.7873 179.321 96.7873C174.846 96.7873 172.683 98.3336 172.683 100.699C172.683 103.633 176.028 104.043 178.805 104.973C183.387 106.513 187.092 108.218 187.092 114.594C187.092 121.59 182.049 125.403 172.477 125.403C167.743 125.403 163.78 124.524 161.928 123.186L163.058 116.654C164.967 117.887 168.566 119.072 172.426 119.072C177.209 119.072 179.578 117.736 179.578 115.255C179.578 112.376 176.593 111.757 173.97 110.935C169.339 109.545 165.17 107.743 165.17 101.155C165.17 94.6645 169.751 90.398 179.22 90.398C183.591 90.398 187.451 91.3773 189.203 92.662L188.071 99.2078Z" fill="white"/>
<path d="M86.5666 178.042H79.5264L85.4957 144.078H98.0948C104.734 144.13 108.594 147.936 108.594 153.65C108.594 158.695 105.662 163.067 100.62 164.912L106.021 178.035H98.3525L94.0344 165.846H88.7275L86.5666 178.042ZM101.233 154.161C101.233 151.693 99.7938 150.202 97.3751 150.202H91.4574L89.8099 159.724H95.6762C98.971 159.724 101.233 157.305 101.233 154.161Z" fill="white"/>
<path d="M117.332 144.078H139.153L137.971 150.612H123.251L121.963 157.712H136.221L135.087 164.25H120.833L119.546 171.556H134.829L133.697 178.046H111.362L117.332 144.078Z" fill="white"/>
<path d="M146.046 144.078H167.864L166.682 150.612H151.962L150.678 157.712H164.932L163.8 164.25H149.546L148.259 171.556H163.544L162.41 178.046H140.075L146.046 144.078Z" fill="white"/>
<path d="M174.752 144.078H181.803L176.968 171.558H191.119L189.987 178.048H168.782L174.752 144.078Z" fill="white"/>
<path d="M194.87 176.343L196 169.809C197.909 171.042 201.508 172.23 205.369 172.23C210.153 172.23 212.52 170.893 212.52 168.412C212.52 165.529 209.537 164.913 206.912 164.09C202.281 162.7 198.112 160.898 198.112 154.31C198.112 147.82 202.693 143.555 212.161 143.555C216.535 143.555 220.395 144.533 222.145 145.817L221.011 152.355C219.314 151.277 216.021 149.939 212.265 149.939C207.786 149.939 205.625 151.483 205.625 153.846C205.625 156.782 208.97 157.193 211.749 158.121C216.331 159.663 220.034 161.366 220.034 167.742C220.034 174.74 214.991 178.552 205.419 178.552C200.685 178.56 196.722 177.682 194.87 176.343Z" fill="white"/>
</g>
<defs>
<clipPath id="clip0_0_449">
<rect width="256" height="256" fill="white" transform="translate(0.333008 0.73584)"/>
</clipPath>
</defs>
</svg>
