<svg width="256" height="257" viewBox="0 0 256 257" fill="none" xmlns="http://www.w3.org/2000/svg">
<g clip-path="url(#clip0_0_836)">
<rect width="256" height="256" transform="translate(-0.000976562 0.0620117)" fill="white"/>
<path d="M43.6763 77.8286L33.4009 136.283H191.7L201.979 77.8286H43.6763ZM73.7053 124.183H70.9026L55.2779 103.731L51.6994 124.183H44.7985L50.8178 89.9327H53.6725L69.2375 110.322L72.816 89.9327H79.7689L73.7053 124.183ZM105.527 124.183H81.8497L83.0047 117.648H106.681L105.527 124.183ZM107.415 110.275H84.2906L85.4455 103.686H108.603L107.415 110.275ZM109.825 96.5256H86.6987L87.8536 89.9346H111.018L109.825 96.5256ZM142.164 124.183L137.604 102.961L125.459 124.189H121.257L116.273 89.9384H124.166L126.187 111.005L137.762 89.9384H141.552L145.804 111.005L155.203 89.9327H163.4L146.431 124.183H142.164ZM188.237 98.2869C186.524 97.1974 183.204 95.8461 179.413 95.8461C174.901 95.8461 172.72 97.4053 172.72 99.7903C172.72 102.749 176.093 103.163 178.894 104.1C183.514 105.654 187.25 107.373 187.25 113.802C187.25 120.857 182.164 124.701 172.512 124.701C167.739 124.701 163.742 123.815 161.875 122.466L163.015 115.879C164.94 117.122 168.568 118.318 172.461 118.318C177.284 118.318 179.673 116.97 179.673 114.468C179.673 111.565 176.663 110.941 174.018 110.112C169.348 108.71 165.144 106.893 165.144 100.25C165.144 93.7055 169.764 89.4033 179.311 89.4033C183.719 89.4033 187.612 90.3908 189.379 91.6863L188.237 98.2869Z" fill="#F73458"/>
<path d="M85.8828 177.781H78.7836L84.8029 143.533H97.5075C104.202 143.585 108.095 147.423 108.095 153.184C108.095 158.272 105.138 162.68 100.054 164.541L105.5 177.774H97.7674L93.4132 165.483H88.0618L85.8828 177.781ZM100.672 153.7C100.672 151.211 99.2207 149.708 96.7818 149.708H90.8145L89.1533 159.31H95.0686C98.3911 159.31 100.672 156.871 100.672 153.7Z" fill="black"/>
<path d="M116.907 143.533H138.911L137.719 150.122H122.876L121.576 157.281H135.954L134.81 163.874H120.437L119.139 171.24H134.551L133.409 177.785H110.887L116.907 143.533Z" fill="black"/>
<path d="M145.86 143.533H167.86L166.669 150.122H151.825L150.53 157.281H164.903L163.762 163.874H149.388L148.091 171.24H163.504L162.361 177.785H139.839L145.86 143.533Z" fill="black"/>
<path d="M174.807 143.533H181.917L177.041 171.242H191.311L190.17 177.787H168.787L174.807 143.533Z" fill="black"/>
<path d="M195.094 176.068L196.233 169.479C198.158 170.723 201.787 171.92 205.681 171.92C210.505 171.92 212.892 170.572 212.892 168.07C212.892 165.163 209.883 164.542 207.236 163.712C202.566 162.311 198.362 160.493 198.362 153.85C198.362 147.306 202.982 143.005 212.53 143.005C216.94 143.005 220.832 143.991 222.597 145.286L221.454 151.879C219.742 150.792 216.422 149.442 212.634 149.442C208.118 149.442 205.939 151 205.939 153.383C205.939 156.343 209.311 156.757 212.114 157.693C216.734 159.248 220.468 160.965 220.468 167.394C220.468 174.451 215.382 178.295 205.731 178.295C200.957 178.303 196.961 177.418 195.094 176.068Z" fill="black"/>
</g>
<defs>
<clipPath id="clip0_0_836">
<rect x="-0.000976562" y="0.0620117" width="256" height="256" rx="128" fill="white"/>
</clipPath>
</defs>
</svg>
