<svg width="64" height="65" viewBox="0 0 64 65" fill="none" xmlns="http://www.w3.org/2000/svg">
<g clip-path="url(#clip0_0_539)">
<rect width="64" height="64" transform="translate(0 0.265625)" fill="white"/>
<path d="M11.0944 19.8115L8.54688 34.3039H47.7931L50.3416 19.8115H11.0944ZM18.5393 31.3039H17.8445L13.9707 26.2333L13.0835 31.3039H11.3726L12.8649 22.8124H13.5727L17.4316 27.8673L18.3188 22.8124H20.0426L18.5393 31.3039ZM26.4286 31.3039H20.5585L20.8449 29.6837H26.7149L26.4286 31.3039ZM26.8967 27.8559H21.1637L21.45 26.2223H27.1912L26.8967 27.8559ZM27.4942 24.447H21.7607L22.047 22.8129H27.7901L27.4942 24.447ZM35.5119 31.3039L34.3813 26.0424L31.3704 31.3054H30.3286L29.093 22.8138H31.0497L31.5508 28.0367L34.4204 22.8138H35.3601L36.4143 28.0367L38.7447 22.8124H40.7768L36.5699 31.3039H35.5119ZM46.9346 24.8836C46.5098 24.6135 45.6866 24.2785 44.7469 24.2785C43.6283 24.2785 43.0876 24.6651 43.0876 25.2564C43.0876 25.9899 43.9237 26.0925 44.6181 26.3249C45.7634 26.71 46.6898 27.1362 46.6898 28.7302C46.6898 30.4793 45.4289 31.4323 43.036 31.4323C41.8525 31.4323 40.8617 31.2128 40.3988 30.8782L40.6813 29.2451C41.1586 29.5534 42.0582 29.8498 43.0231 29.8498C44.2191 29.8498 44.8113 29.5157 44.8113 28.8953C44.8113 28.1756 44.0649 28.021 43.4092 27.8153C42.2514 27.4679 41.2091 27.0174 41.2091 25.3704C41.2091 23.7478 42.3545 22.6812 44.7216 22.6812C45.8145 22.6812 46.7795 22.926 47.2176 23.2472L46.9346 24.8836Z" fill="black"/>
<path d="M21.5589 44.5921H19.7988L21.2912 36.1011H24.4409C26.1008 36.114 27.0658 37.0656 27.0658 38.4939C27.0658 39.7553 26.3327 40.8482 25.0723 41.3097L26.4224 44.5902H24.5054L23.4258 41.543H22.0991L21.5589 44.5921ZM25.2255 38.6219C25.2255 38.0048 24.8657 37.6321 24.261 37.6321H22.7816L22.3697 40.0125H23.8363C24.66 40.0125 25.2255 39.4079 25.2255 38.6219Z" fill="black"/>
<path d="M29.2501 36.1011H34.7055L34.4101 37.7347H30.7301L30.4079 39.5095H33.9724L33.6889 41.1441H30.1254L29.8037 42.9705H33.6245L33.3415 44.5931H27.7578L29.2501 36.1011Z" fill="black"/>
<path d="M36.4284 36.1011H41.8827L41.5873 37.7347H37.9073L37.5861 39.5095H41.1497L40.8667 41.1441H37.3031L36.9815 42.9705H40.8027L40.5192 44.5931H34.9355L36.4284 36.1011Z" fill="black"/>
<path d="M43.6056 36.1011H45.3685L44.1597 42.9709H47.6975L47.4145 44.5935H42.1133L43.6056 36.1011Z" fill="black"/>
<path d="M48.6348 44.1673L48.9173 42.5337C49.3945 42.842 50.2941 43.1388 51.2596 43.1388C52.4555 43.1388 53.0473 42.8048 53.0473 42.1843C53.0473 41.4637 52.3014 41.3096 51.6452 41.1039C50.4874 40.7565 49.4451 40.3059 49.4451 38.659C49.4451 37.0364 50.5905 35.9702 52.9576 35.9702C54.051 35.9702 55.0159 36.2146 55.4536 36.5357L55.1701 38.1703C54.7458 37.9006 53.9226 37.5661 52.9834 37.5661C51.8638 37.5661 51.3235 37.9522 51.3235 38.543C51.3235 39.277 52.1597 39.3796 52.8545 39.6116C53.9999 39.9972 54.9257 40.4229 54.9257 42.0168C54.9257 43.7664 53.6649 44.7194 51.272 44.7194C50.0884 44.7214 49.0977 44.5018 48.6348 44.1673Z" fill="black"/>
</g>
<defs>
<clipPath id="clip0_0_539">
<rect width="64" height="64" fill="white" transform="translate(0 0.265625)"/>
</clipPath>
</defs>
</svg>
