<svg width="129" height="129" viewBox="0 0 129 129" fill="none" xmlns="http://www.w3.org/2000/svg">
<g clip-path="url(#clip0_0_278)">
<path d="M10.6282 53.8472L6.84546 75.411H65.2318L69.0241 53.8472H10.6282ZM21.7045 70.9457H20.6686L14.91 63.4001L13.5903 70.9457H11.0396L13.2644 58.3114H14.3129L20.0588 65.8327L21.3774 58.3114H23.9408L21.7045 70.9457ZM33.4421 70.9457H24.7119L25.1339 68.5342H33.864L33.4421 70.9457ZM34.1415 65.819H25.6138L26.0421 63.3864H34.5866L34.1415 65.819ZM35.0318 60.7461H26.5031L26.925 58.3135H35.4695L35.0318 60.7461ZM46.9614 70.9457L45.2799 63.1153L40.7988 70.9457H39.2481L37.4116 58.3114H40.322L41.0604 66.0816L45.3295 58.3114H46.7293L48.3 66.0816L51.7611 58.3114H54.7886L48.5331 70.9457H46.9614ZM63.9597 61.3885C62.9727 60.8056 61.8484 60.4957 60.7022 60.4908C59.0418 60.4908 58.2338 61.0657 58.2338 61.9476C58.2338 63.032 59.4785 63.1881 60.5113 63.5299C62.2159 64.1016 63.5957 64.7335 63.5957 67.1049C63.5957 69.7094 61.7191 71.1282 58.1557 71.1282C56.393 71.1282 54.9194 70.8022 54.2337 70.3043L54.6556 67.8718C55.3614 68.3327 56.7042 68.7737 58.1367 68.7737C59.9163 68.7737 60.7971 68.2716 60.7971 67.3538C60.7971 66.2842 59.6874 66.0563 58.7074 65.7493C56.9859 65.2314 55.4373 64.5584 55.4373 62.109C55.4373 59.7017 57.143 58.1099 60.6653 58.1099C62.2887 58.1099 63.7244 58.4728 64.3742 58.9538L63.9597 61.3885Z" fill="white"/>
<path d="M80.2881 61.8738C80.2881 59.7483 78.8513 58.3316 76.385 58.3115H71.695L69.4724 70.9468H72.0969L72.9008 66.4109H74.8681L76.48 70.9468H79.3281L77.3165 66.0659C79.1984 65.376 80.2881 63.7473 80.2881 61.8738ZM75.4842 64.1313H73.3006L73.9103 60.589H76.1129C77.0116 60.589 77.5464 61.1481 77.5464 62.0658C77.5496 63.2336 76.7089 64.1313 75.4842 64.1313Z" fill="white"/>
<path d="M91.2145 60.744L91.6544 58.3125H83.5392L81.3176 70.9457H89.6248L90.0478 68.5353H84.361L84.8388 65.8169H90.1417L90.5647 63.3854H85.2618L85.7407 60.744H91.2145Z" fill="white"/>
<path d="M101.894 60.744L102.335 58.3125H94.2188L91.9972 70.9457H100.304L100.728 68.5353H95.0395L95.5184 65.8169H100.822L101.244 63.3854H95.9414L96.4192 60.744H101.894Z" fill="white"/>
<path d="M105.719 68.5353L107.519 58.3125H104.899L102.677 70.9457H110.561L110.984 68.5353H105.719Z" fill="white"/>
<path d="M118.848 60.497C120.246 60.497 121.473 60.9928 122.106 61.3937L122.528 58.9674C121.873 58.4885 120.439 58.1235 118.815 58.1235C115.289 58.1235 113.587 59.7132 113.587 62.1236C113.587 64.572 115.135 65.2429 116.858 65.7608C117.832 66.0689 118.944 66.2988 118.944 67.3674C118.944 68.2862 118.063 68.7862 116.282 68.7862C114.846 68.7862 113.508 68.3453 112.8 67.8843L112.379 70.3158C113.071 70.8158 114.545 71.1418 116.307 71.1418C119.866 71.1418 121.742 69.7219 121.742 67.1195C121.742 64.7471 120.361 64.1152 118.66 63.5424C117.627 63.1964 116.383 63.0424 116.383 61.9527C116.382 61.0719 117.186 60.497 118.848 60.497Z" fill="white"/>
</g>
<defs>
<clipPath id="clip0_0_278">
<rect width="128" height="128" fill="white" transform="translate(0.686523 0.628906)"/>
</clipPath>
</defs>
</svg>
