<svg width="256" height="257" viewBox="0 0 256 257" fill="none" xmlns="http://www.w3.org/2000/svg">
<g clip-path="url(#clip0_0_395)">
<rect width="256" height="256" transform="translate(0 0.265625)" fill="white"/>
<path d="M44.3775 78.4492L34.1875 136.419H191.173L201.366 78.4492H44.3775ZM74.1573 124.419H71.3778L55.8828 104.136L52.334 124.419H45.4904L51.4597 90.4528H54.2907L69.7266 110.672L73.2753 90.4528H80.1705L74.1573 124.419ZM105.714 124.419H82.2341L83.3794 117.938H106.86L105.714 124.419ZM107.587 110.627H84.6546L85.8 104.092H108.765L107.587 110.627ZM109.977 96.9909H87.0427L88.1881 90.4547H111.16L109.977 96.9909ZM142.047 124.419L137.525 103.373L125.481 124.425H121.314L116.372 90.4585H124.199L126.203 111.35L137.682 90.4585H141.44L145.657 111.35L154.979 90.4528H163.107L146.28 124.419H142.047ZM187.738 98.7376C186.039 97.6572 182.746 96.3171 178.988 96.3171C174.513 96.3171 172.35 97.8633 172.35 100.229C172.35 103.163 175.695 103.573 178.472 104.503C183.054 106.043 186.759 107.748 186.759 114.124C186.759 121.12 181.716 124.932 172.144 124.932C167.41 124.932 163.447 124.054 161.595 122.716L162.725 116.184C164.634 117.417 168.233 118.602 172.093 118.602C176.876 118.602 179.245 117.266 179.245 114.784C179.245 111.906 176.26 111.287 173.637 110.464C169.006 109.075 164.837 107.273 164.837 100.685C164.837 94.1943 169.418 89.9278 178.887 89.9278C183.258 89.9278 187.118 90.9071 188.87 92.1918L187.738 98.7376Z" fill="black"/>
<path d="M86.2336 177.572H79.1934L85.1627 143.608H97.7618C104.401 143.659 108.261 147.466 108.261 153.179C108.261 158.225 105.329 162.596 100.287 164.442L105.688 177.564H98.0195L93.7014 165.376H88.3945L86.2336 177.572ZM100.9 153.691C100.9 151.223 99.4608 149.732 97.0421 149.732H91.1243L89.4769 159.254H95.3431C98.638 159.254 100.9 156.835 100.9 153.691Z" fill="black"/>
<path d="M116.999 143.608H138.82L137.638 150.142H122.918L121.63 157.242H135.888L134.754 163.78H120.5L119.213 171.085H134.496L133.364 177.576H111.029L116.999 143.608Z" fill="black"/>
<path d="M145.713 143.608H167.531L166.349 150.142H151.629L150.345 157.242H164.599L163.467 163.78H149.213L147.926 171.085H163.211L162.077 177.576H139.742L145.713 143.608Z" fill="black"/>
<path d="M174.419 143.608H181.47L176.635 171.087H190.786L189.654 177.578H168.449L174.419 143.608Z" fill="black"/>
<path d="M194.537 175.873L195.667 169.339C197.576 170.572 201.175 171.759 205.036 171.759C209.82 171.759 212.187 170.423 212.187 167.941C212.187 165.059 209.204 164.442 206.579 163.62C201.948 162.23 197.779 160.428 197.779 153.84C197.779 147.35 202.36 143.085 211.828 143.085C216.202 143.085 220.062 144.062 221.812 145.347L220.678 151.885C218.981 150.807 215.688 149.469 211.932 149.469C207.453 149.469 205.292 151.013 205.292 153.376C205.292 156.312 208.637 156.723 211.416 157.65C215.998 159.193 219.701 160.896 219.701 167.271C219.701 174.27 214.658 178.082 205.086 178.082C200.352 178.09 196.389 177.211 194.537 175.873Z" fill="black"/>
</g>
<defs>
<clipPath id="clip0_0_395">
<rect width="256" height="256" fill="white" transform="translate(0 0.265625)"/>
</clipPath>
</defs>
</svg>
