<svg width="33" height="33" viewBox="0 0 33 33" fill="none" xmlns="http://www.w3.org/2000/svg">
<g clip-path="url(#clip0_0_647)">
<rect width="32" height="32" transform="translate(0.333008 0.175781)" fill="black"/>
<rect width="32" height="32" transform="translate(0.333008 0.175781)" fill="black"/>
<path d="M5.8802 9.94873L4.60645 17.1949H24.2296L25.5038 9.94873H5.8802ZM9.60266 15.6949H9.25523L7.31836 13.1596L6.87476 15.6949H6.01931L6.76548 11.4492H7.11935L9.04883 13.9766L9.49242 11.4492H10.3543L9.60266 15.6949ZM13.5473 15.6949H10.6123L10.7554 14.8848H13.6905L13.5473 15.6949ZM13.7814 13.9709H10.9148L11.058 13.1541H13.9286L13.7814 13.9709ZM14.0801 12.2664H11.2133L11.3565 11.4494H14.2281L14.0801 12.2664ZM18.0889 15.6949L17.5236 13.0642L16.0182 15.6957H15.4973L14.8795 11.4499H15.8578L16.1084 14.0613L17.5432 11.4499H18.0131L18.5402 14.0613L19.7053 11.4492H20.7214L18.618 15.6949H18.0889ZM23.8003 12.4848C23.5879 12.3497 23.1763 12.1822 22.7065 12.1822C22.1471 12.1822 21.8768 12.3755 21.8768 12.6711C21.8768 13.0379 22.2948 13.0892 22.642 13.2054C23.2147 13.398 23.6779 13.6111 23.6779 14.4081C23.6779 15.2826 23.0475 15.7591 21.851 15.7591C21.2592 15.7591 20.7639 15.6494 20.5324 15.4821L20.6737 14.6655C20.9123 14.8197 21.3621 14.9679 21.8446 14.9679C22.4426 14.9679 22.7387 14.8008 22.7387 14.4906C22.7387 14.1308 22.3655 14.0535 22.0376 13.9506C21.4587 13.7769 20.9376 13.5516 20.9376 12.7282C20.9376 11.9169 21.5103 11.3836 22.6938 11.3836C23.2403 11.3836 23.7227 11.506 23.9418 11.6666L23.8003 12.4848Z" fill="#F73458"/>
<path d="M11.1115 22.3393H10.2314L10.9776 18.0938H12.5525C13.3824 18.1002 13.8649 18.576 13.8649 19.2902C13.8649 19.9209 13.4984 20.4673 12.8682 20.698L13.5432 22.3383H12.5847L12.045 20.8147H11.3816L11.1115 22.3393ZM12.9448 19.3541C12.9448 19.0456 12.7649 18.8592 12.4625 18.8592H11.7228L11.5169 20.0495H12.2502C12.662 20.0495 12.9448 19.7471 12.9448 19.3541Z" fill="white"/>
<path d="M14.9581 18.0938H17.6857L17.538 18.9105H15.698L15.537 19.798H17.3192L17.1775 20.6152H15.3957L15.2349 21.5284H17.1453L17.0038 22.3397H14.2119L14.9581 18.0938Z" fill="white"/>
<path d="M18.5462 18.0938H21.2734L21.1257 18.9105H19.2857L19.1251 19.798H20.9069L20.7654 20.6152H18.9836L18.8228 21.5284H20.7334L20.5917 22.3397H17.7998L18.5462 18.0938Z" fill="white"/>
<path d="M22.1358 18.0938H23.0173L22.4128 21.5287H24.1817L24.0402 22.34H21.3896L22.1358 18.0938Z" fill="white"/>
<path d="M24.6494 22.1269L24.7907 21.3101C25.0293 21.4642 25.4791 21.6126 25.9618 21.6126C26.5598 21.6126 26.8557 21.4456 26.8557 21.1354C26.8557 20.7751 26.4827 20.698 26.1546 20.5952C25.5757 20.4214 25.0546 20.1962 25.0546 19.3727C25.0546 18.5614 25.6273 18.0283 26.8108 18.0283C27.3575 18.0283 27.84 18.1505 28.0588 18.3111L27.9171 19.1284C27.7049 18.9935 27.2933 18.8263 26.8237 18.8263C26.2639 18.8263 25.9938 19.0193 25.9938 19.3147C25.9938 19.6817 26.4119 19.733 26.7593 19.849C27.332 20.0418 27.7949 20.2546 27.7949 21.0516C27.7949 21.9264 27.1645 22.4029 25.968 22.4029C25.3763 22.4039 24.8809 22.2941 24.6494 22.1269Z" fill="white"/>
</g>
<defs>
<clipPath id="clip0_0_647">
<rect width="32" height="32" fill="white" transform="translate(0.333008 0.175781)"/>
</clipPath>
</defs>
</svg>
