<svg width="129" height="129" viewBox="0 0 129 129" fill="none" xmlns="http://www.w3.org/2000/svg">
<g clip-path="url(#clip0_0_485)">
<path d="M23.1868 39.7676L18.0918 68.7523H96.5843L101.681 39.7676H23.1868ZM38.0767 62.7524H36.687L28.9395 52.6111L27.1651 62.7524H23.7433L26.7279 45.7694H28.1434L35.8613 55.8792L37.6357 45.7694H41.0833L38.0767 62.7524ZM53.8552 62.7524H42.1151L42.6878 59.5119H54.4279L53.8552 62.7524ZM54.7915 55.8563H43.3254L43.898 52.5891H55.3804L54.7915 55.8563ZM55.9865 49.0384H44.5194L45.0921 45.7703H56.5783L55.9865 49.0384ZM72.0218 62.7524L69.7606 52.2293L63.7388 62.7553H61.6552L59.184 45.7722H63.0974L64.0996 56.218L69.8389 45.7722H71.7182L73.8267 56.218L78.4874 45.7694H82.5516L74.1378 62.7524H72.0218ZM94.8672 49.9118C94.0177 49.3715 92.3713 48.7015 90.4919 48.7015C88.2546 48.7015 87.1732 49.4746 87.1732 50.6572C87.1732 52.1243 88.8454 52.3295 90.2342 52.7943C92.5249 53.5646 94.3776 54.4169 94.3776 57.6049C94.3776 61.1031 91.8558 63.0091 87.0701 63.0091C84.703 63.0091 82.7215 62.5701 81.7956 61.901L82.3607 58.6348C83.3152 59.2514 85.1144 59.8441 87.0443 59.8441C89.4362 59.8441 90.6207 59.176 90.6207 57.9351C90.6207 56.4958 89.1279 56.1865 87.8165 55.7751C85.5009 55.0803 83.4163 54.1793 83.4163 50.8853C83.4163 47.6401 85.7071 45.5069 90.4413 45.5069C92.6271 45.5069 94.557 45.9965 95.4332 46.6389L94.8672 49.9118Z" fill="#F73458"/>
<path d="M44.1139 89.3288H40.5938L43.5784 72.3467H49.878C53.1976 72.3725 55.1276 74.2757 55.1276 77.1324C55.1276 79.6551 53.6615 81.8409 51.1407 82.7639L53.841 89.3249H50.0068L47.8478 83.2306H45.1943L44.1139 89.3288ZM51.4471 77.3882C51.4471 76.1541 50.7275 75.4087 49.5181 75.4087H46.5592L45.7355 80.1696H48.6686C50.3161 80.1696 51.4471 78.9603 51.4471 77.3882Z" fill="white"/>
<path d="M59.4983 72.3467H70.409L69.8181 75.6139H62.4582L61.8139 79.1636H68.9429L68.3759 82.4327H61.2488L60.6055 86.0854H68.2471L67.6811 89.3307H56.5137L59.4983 72.3467Z" fill="white"/>
<path d="M73.8548 72.3467H84.7635L84.1727 75.6139H76.8127L76.1703 79.1636H83.2974L82.7314 82.4327H75.6043L74.961 86.0854H82.6035L82.0365 89.3307H70.8691L73.8548 72.3467Z" fill="white"/>
<path d="M88.2073 72.3467H91.7332L89.3155 86.0864H96.391L95.825 89.3316H85.2227L88.2073 72.3467Z" fill="white"/>
<path d="M98.2676 88.4796L98.8326 85.2124C99.7871 85.829 101.586 86.4227 103.517 86.4227C105.909 86.4227 107.093 85.7545 107.093 84.5137C107.093 83.0725 105.601 82.7642 104.288 82.3528C101.973 81.6579 99.8883 80.7569 99.8883 77.463C99.8883 74.2178 102.179 72.0854 106.913 72.0854C109.1 72.0854 111.03 72.5741 111.905 73.2165L111.338 76.4856C110.49 75.9463 108.843 75.2772 106.965 75.2772C104.726 75.2772 103.645 76.0494 103.645 77.231C103.645 78.699 105.317 78.9043 106.707 79.3681C108.998 80.1393 110.85 80.9907 110.85 84.1787C110.85 87.6778 108.328 89.5839 103.542 89.5839C101.175 89.5877 99.1934 89.1487 98.2676 88.4796Z" fill="white"/>
</g>
<defs>
<clipPath id="clip0_0_485">
<rect width="128" height="128" fill="white" transform="translate(0.998047 0.675781)"/>
</clipPath>
</defs>
</svg>
