<svg width="33" height="33" viewBox="0 0 33 33" fill="none" xmlns="http://www.w3.org/2000/svg">
<g clip-path="url(#clip0_0_611)">
<path d="M6.54524 9.94873L5.27148 17.1949H24.8946L26.1688 9.94873H6.54524ZM10.2677 15.6949H9.92027L7.9834 13.1596L7.5398 15.6949H6.68435L7.43052 11.4492H7.78439L9.71387 13.9766L10.1575 11.4492H11.0194L10.2677 15.6949ZM14.2123 15.6949H11.2773L11.4205 14.8848H14.3555L14.2123 15.6949ZM14.4464 13.9709H11.5799L11.723 13.1541H14.5936L14.4464 13.9709ZM14.7452 12.2664H11.8784L12.0216 11.4494H14.8931L14.7452 12.2664ZM18.754 15.6949L18.1887 13.0642L16.6832 15.6957H16.1623L15.5445 11.4499H16.5229L16.7734 14.0613L18.2083 11.4499H18.6781L19.2052 14.0613L20.3704 11.4492H21.3864L19.283 15.6949H18.754ZM24.4653 12.4848C24.253 12.3497 23.8413 12.1822 23.3715 12.1822C22.8122 12.1822 22.5418 12.3755 22.5418 12.6711C22.5418 13.0379 22.9599 13.0892 23.3071 13.2054C23.8798 13.398 24.3429 13.6111 24.3429 14.4081C24.3429 15.2826 23.7125 15.7591 22.5161 15.7591C21.9243 15.7591 21.4289 15.6494 21.1974 15.4821L21.3387 14.6655C21.5773 14.8197 22.0271 14.9679 22.5096 14.9679C23.1076 14.9679 23.4037 14.8008 23.4037 14.4906C23.4037 14.1308 23.0305 14.0535 22.7027 13.9506C22.1238 13.7769 21.6026 13.5516 21.6026 12.7282C21.6026 11.9169 22.1753 11.3836 23.3589 11.3836C23.9053 11.3836 24.3878 11.506 24.6068 11.6666L24.4653 12.4848Z" fill="#F73458"/>
<path d="M11.7765 22.3393H10.8965L11.6426 18.0938H13.2175C14.0475 18.1002 14.5299 18.576 14.5299 19.2902C14.5299 19.9209 14.1634 20.4673 13.5332 20.698L14.2083 22.3383H13.2498L12.71 20.8147H12.0466L11.7765 22.3393ZM13.6098 19.3541C13.6098 19.0456 13.4299 18.8592 13.1276 18.8592H12.3879L12.1819 20.0495H12.9152C13.3271 20.0495 13.6098 19.7471 13.6098 19.3541Z" fill="black"/>
<path d="M15.6231 18.0938H18.3508L18.2031 18.9105H16.3631L16.202 19.798H17.9843L17.8425 20.6152H16.0607L15.8999 21.5284H17.8103L17.6688 22.3397H14.877L15.6231 18.0938Z" fill="black"/>
<path d="M19.2112 18.0938H21.9384L21.7907 18.9105H19.9507L19.7901 19.798H21.5719L21.4304 20.6152H19.6486L19.4878 21.5284H21.3984L21.2567 22.3397H18.4648L19.2112 18.0938Z" fill="black"/>
<path d="M22.8009 18.0938H23.6823L23.0779 21.5287H24.8468L24.7053 22.34H22.0547L22.8009 18.0938Z" fill="black"/>
<path d="M25.3145 22.1269L25.4557 21.3101C25.6943 21.4642 26.1441 21.6126 26.6269 21.6126C27.2248 21.6126 27.5207 21.4456 27.5207 21.1354C27.5207 20.7751 27.1478 20.698 26.8197 20.5952C26.2408 20.4214 25.7196 20.1962 25.7196 19.3727C25.7196 18.5614 26.2923 18.0283 27.4759 18.0283C28.0226 18.0283 28.505 18.1505 28.7239 18.3111L28.5821 19.1284C28.37 18.9935 27.9584 18.8263 27.4888 18.8263C26.929 18.8263 26.6588 19.0193 26.6588 19.3147C26.6588 19.6817 27.0769 19.733 27.4243 19.849C27.997 20.0418 28.4599 20.2546 28.4599 21.0516C28.4599 21.9264 27.8295 22.4029 26.6331 22.4029C26.0413 22.4039 25.5459 22.2941 25.3145 22.1269Z" fill="black"/>
</g>
<defs>
<clipPath id="clip0_0_611">
<rect width="32" height="32" fill="white" transform="translate(0.998047 0.175781)"/>
</clipPath>
</defs>
</svg>
